%TF.GenerationSoftware,KiCad,Pcbnew,(6.0.4)*%
%TF.CreationDate,2022-07-25T23:44:37+01:00*%
%TF.ProjectId,CCC_ESC,4343435f-4553-4432-9e6b-696361645f70,rev?*%
%TF.SameCoordinates,Original*%
%TF.FileFunction,Legend,Top*%
%TF.FilePolarity,Positive*%
%FSLAX46Y46*%
G04 Gerber Fmt 4.6, Leading zero omitted, Abs format (unit mm)*
G04 Created by KiCad (PCBNEW (6.0.4)) date 2022-07-25 23:44:37*
%MOMM*%
%LPD*%
G01*
G04 APERTURE LIST*
%ADD10C,0.300000*%
%ADD11C,0.150000*%
%ADD12C,0.120000*%
%ADD13C,0.400000*%
G04 APERTURE END LIST*
D10*
X78979047Y-99875285D02*
X78979047Y-98075285D01*
X79512380Y-99361000D01*
X80045714Y-98075285D01*
X80045714Y-99875285D01*
X80807619Y-99875285D02*
X80807619Y-98075285D01*
X81417142Y-98075285D01*
X81569523Y-98161000D01*
X81645714Y-98246714D01*
X81721904Y-98418142D01*
X81721904Y-98675285D01*
X81645714Y-98846714D01*
X81569523Y-98932428D01*
X81417142Y-99018142D01*
X80807619Y-99018142D01*
X82331428Y-98246714D02*
X82407619Y-98161000D01*
X82560000Y-98075285D01*
X82940952Y-98075285D01*
X83093333Y-98161000D01*
X83169523Y-98246714D01*
X83245714Y-98418142D01*
X83245714Y-98589571D01*
X83169523Y-98846714D01*
X82255238Y-99875285D01*
X83245714Y-99875285D01*
X83931428Y-99189571D02*
X85150476Y-99189571D01*
X85912380Y-98932428D02*
X86445714Y-98932428D01*
X86674285Y-99875285D02*
X85912380Y-99875285D01*
X85912380Y-98075285D01*
X86674285Y-98075285D01*
X87283809Y-99789571D02*
X87512380Y-99875285D01*
X87893333Y-99875285D01*
X88045714Y-99789571D01*
X88121904Y-99703857D01*
X88198095Y-99532428D01*
X88198095Y-99361000D01*
X88121904Y-99189571D01*
X88045714Y-99103857D01*
X87893333Y-99018142D01*
X87588571Y-98932428D01*
X87436190Y-98846714D01*
X87360000Y-98761000D01*
X87283809Y-98589571D01*
X87283809Y-98418142D01*
X87360000Y-98246714D01*
X87436190Y-98161000D01*
X87588571Y-98075285D01*
X87969523Y-98075285D01*
X88198095Y-98161000D01*
X89798095Y-99703857D02*
X89721904Y-99789571D01*
X89493333Y-99875285D01*
X89340952Y-99875285D01*
X89112380Y-99789571D01*
X88960000Y-99618142D01*
X88883809Y-99446714D01*
X88807619Y-99103857D01*
X88807619Y-98846714D01*
X88883809Y-98503857D01*
X88960000Y-98332428D01*
X89112380Y-98161000D01*
X89340952Y-98075285D01*
X89493333Y-98075285D01*
X89721904Y-98161000D01*
X89798095Y-98246714D01*
X83283809Y-101573285D02*
X83664761Y-102773285D01*
X84045714Y-101573285D01*
X84960000Y-100973285D02*
X85112380Y-100973285D01*
X85264761Y-101059000D01*
X85340952Y-101144714D01*
X85417142Y-101316142D01*
X85493333Y-101659000D01*
X85493333Y-102087571D01*
X85417142Y-102430428D01*
X85340952Y-102601857D01*
X85264761Y-102687571D01*
X85112380Y-102773285D01*
X84960000Y-102773285D01*
X84807619Y-102687571D01*
X84731428Y-102601857D01*
X84655238Y-102430428D01*
X84579047Y-102087571D01*
X84579047Y-101659000D01*
X84655238Y-101316142D01*
X84731428Y-101144714D01*
X84807619Y-101059000D01*
X84960000Y-100973285D01*
X86179047Y-102601857D02*
X86255238Y-102687571D01*
X86179047Y-102773285D01*
X86102857Y-102687571D01*
X86179047Y-102601857D01*
X86179047Y-102773285D01*
X87779047Y-102773285D02*
X86864761Y-102773285D01*
X87321904Y-102773285D02*
X87321904Y-100973285D01*
X87169523Y-101230428D01*
X87017142Y-101401857D01*
X86864761Y-101487571D01*
D11*
X155052380Y-90666666D02*
X155052380Y-90000000D01*
X156052380Y-90428571D01*
X155147619Y-89666666D02*
X155100000Y-89619047D01*
X155052380Y-89523809D01*
X155052380Y-89285714D01*
X155100000Y-89190476D01*
X155147619Y-89142857D01*
X155242857Y-89095238D01*
X155338095Y-89095238D01*
X155480952Y-89142857D01*
X156052380Y-89714285D01*
X156052380Y-89095238D01*
X155957142Y-88666666D02*
X156004761Y-88619047D01*
X156052380Y-88666666D01*
X156004761Y-88714285D01*
X155957142Y-88666666D01*
X156052380Y-88666666D01*
X155052380Y-88000000D02*
X155052380Y-87904761D01*
X155100000Y-87809523D01*
X155147619Y-87761904D01*
X155242857Y-87714285D01*
X155433333Y-87666666D01*
X155671428Y-87666666D01*
X155861904Y-87714285D01*
X155957142Y-87761904D01*
X156004761Y-87809523D01*
X156052380Y-87904761D01*
X156052380Y-88000000D01*
X156004761Y-88095238D01*
X155957142Y-88142857D01*
X155861904Y-88190476D01*
X155671428Y-88238095D01*
X155433333Y-88238095D01*
X155242857Y-88190476D01*
X155147619Y-88142857D01*
X155100000Y-88095238D01*
X155052380Y-88000000D01*
X155052380Y-87047619D02*
X155052380Y-86952380D01*
X155100000Y-86857142D01*
X155147619Y-86809523D01*
X155242857Y-86761904D01*
X155433333Y-86714285D01*
X155671428Y-86714285D01*
X155861904Y-86761904D01*
X155957142Y-86809523D01*
X156004761Y-86857142D01*
X156052380Y-86952380D01*
X156052380Y-87047619D01*
X156004761Y-87142857D01*
X155957142Y-87190476D01*
X155861904Y-87238095D01*
X155671428Y-87285714D01*
X155433333Y-87285714D01*
X155242857Y-87238095D01*
X155147619Y-87190476D01*
X155100000Y-87142857D01*
X155052380Y-87047619D01*
X155052380Y-86095238D02*
X155052380Y-86000000D01*
X155100000Y-85904761D01*
X155147619Y-85857142D01*
X155242857Y-85809523D01*
X155433333Y-85761904D01*
X155671428Y-85761904D01*
X155861904Y-85809523D01*
X155957142Y-85857142D01*
X156004761Y-85904761D01*
X156052380Y-86000000D01*
X156052380Y-86095238D01*
X156004761Y-86190476D01*
X155957142Y-86238095D01*
X155861904Y-86285714D01*
X155671428Y-86333333D01*
X155433333Y-86333333D01*
X155242857Y-86285714D01*
X155147619Y-86238095D01*
X155100000Y-86190476D01*
X155052380Y-86095238D01*
X155052380Y-85142857D02*
X155052380Y-85047619D01*
X155100000Y-84952380D01*
X155147619Y-84904761D01*
X155242857Y-84857142D01*
X155433333Y-84809523D01*
X155671428Y-84809523D01*
X155861904Y-84857142D01*
X155957142Y-84904761D01*
X156004761Y-84952380D01*
X156052380Y-85047619D01*
X156052380Y-85142857D01*
X156004761Y-85238095D01*
X155957142Y-85285714D01*
X155861904Y-85333333D01*
X155671428Y-85380952D01*
X155433333Y-85380952D01*
X155242857Y-85333333D01*
X155147619Y-85285714D01*
X155100000Y-85238095D01*
X155052380Y-85142857D01*
X156052380Y-83619047D02*
X155385714Y-83619047D01*
X155480952Y-83619047D02*
X155433333Y-83571428D01*
X155385714Y-83476190D01*
X155385714Y-83333333D01*
X155433333Y-83238095D01*
X155528571Y-83190476D01*
X156052380Y-83190476D01*
X155528571Y-83190476D02*
X155433333Y-83142857D01*
X155385714Y-83047619D01*
X155385714Y-82904761D01*
X155433333Y-82809523D01*
X155528571Y-82761904D01*
X156052380Y-82761904D01*
X156052380Y-82285714D02*
X155385714Y-82285714D01*
X155480952Y-82285714D02*
X155433333Y-82238095D01*
X155385714Y-82142857D01*
X155385714Y-82000000D01*
X155433333Y-81904761D01*
X155528571Y-81857142D01*
X156052380Y-81857142D01*
X155528571Y-81857142D02*
X155433333Y-81809523D01*
X155385714Y-81714285D01*
X155385714Y-81571428D01*
X155433333Y-81476190D01*
X155528571Y-81428571D01*
X156052380Y-81428571D01*
X150500000Y-50000000D02*
X157336420Y-50000000D01*
X150500000Y-122000000D02*
X157336420Y-122000000D01*
X156750000Y-50000000D02*
X156750000Y-122000000D01*
X156750000Y-50000000D02*
X156750000Y-122000000D01*
X156750000Y-50000000D02*
X156163579Y-51126504D01*
X156750000Y-50000000D02*
X157336421Y-51126504D01*
X156750000Y-122000000D02*
X157336421Y-120873496D01*
X156750000Y-122000000D02*
X156163579Y-120873496D01*
X95545190Y-44302380D02*
X94973761Y-44302380D01*
X95259476Y-44302380D02*
X95259476Y-43302380D01*
X95164238Y-43445238D01*
X95069000Y-43540476D01*
X94973761Y-43588095D01*
X96164238Y-43302380D02*
X96259476Y-43302380D01*
X96354714Y-43350000D01*
X96402333Y-43397619D01*
X96449952Y-43492857D01*
X96497571Y-43683333D01*
X96497571Y-43921428D01*
X96449952Y-44111904D01*
X96402333Y-44207142D01*
X96354714Y-44254761D01*
X96259476Y-44302380D01*
X96164238Y-44302380D01*
X96069000Y-44254761D01*
X96021380Y-44207142D01*
X95973761Y-44111904D01*
X95926142Y-43921428D01*
X95926142Y-43683333D01*
X95973761Y-43492857D01*
X96021380Y-43397619D01*
X96069000Y-43350000D01*
X96164238Y-43302380D01*
X97116619Y-43302380D02*
X97211857Y-43302380D01*
X97307095Y-43350000D01*
X97354714Y-43397619D01*
X97402333Y-43492857D01*
X97449952Y-43683333D01*
X97449952Y-43921428D01*
X97402333Y-44111904D01*
X97354714Y-44207142D01*
X97307095Y-44254761D01*
X97211857Y-44302380D01*
X97116619Y-44302380D01*
X97021380Y-44254761D01*
X96973761Y-44207142D01*
X96926142Y-44111904D01*
X96878523Y-43921428D01*
X96878523Y-43683333D01*
X96926142Y-43492857D01*
X96973761Y-43397619D01*
X97021380Y-43350000D01*
X97116619Y-43302380D01*
X97878523Y-44207142D02*
X97926142Y-44254761D01*
X97878523Y-44302380D01*
X97830904Y-44254761D01*
X97878523Y-44207142D01*
X97878523Y-44302380D01*
X98545190Y-43302380D02*
X98640428Y-43302380D01*
X98735666Y-43350000D01*
X98783285Y-43397619D01*
X98830904Y-43492857D01*
X98878523Y-43683333D01*
X98878523Y-43921428D01*
X98830904Y-44111904D01*
X98783285Y-44207142D01*
X98735666Y-44254761D01*
X98640428Y-44302380D01*
X98545190Y-44302380D01*
X98449952Y-44254761D01*
X98402333Y-44207142D01*
X98354714Y-44111904D01*
X98307095Y-43921428D01*
X98307095Y-43683333D01*
X98354714Y-43492857D01*
X98402333Y-43397619D01*
X98449952Y-43350000D01*
X98545190Y-43302380D01*
X99497571Y-43302380D02*
X99592809Y-43302380D01*
X99688047Y-43350000D01*
X99735666Y-43397619D01*
X99783285Y-43492857D01*
X99830904Y-43683333D01*
X99830904Y-43921428D01*
X99783285Y-44111904D01*
X99735666Y-44207142D01*
X99688047Y-44254761D01*
X99592809Y-44302380D01*
X99497571Y-44302380D01*
X99402333Y-44254761D01*
X99354714Y-44207142D01*
X99307095Y-44111904D01*
X99259476Y-43921428D01*
X99259476Y-43683333D01*
X99307095Y-43492857D01*
X99354714Y-43397619D01*
X99402333Y-43350000D01*
X99497571Y-43302380D01*
X100449952Y-43302380D02*
X100545190Y-43302380D01*
X100640428Y-43350000D01*
X100688047Y-43397619D01*
X100735666Y-43492857D01*
X100783285Y-43683333D01*
X100783285Y-43921428D01*
X100735666Y-44111904D01*
X100688047Y-44207142D01*
X100640428Y-44254761D01*
X100545190Y-44302380D01*
X100449952Y-44302380D01*
X100354714Y-44254761D01*
X100307095Y-44207142D01*
X100259476Y-44111904D01*
X100211857Y-43921428D01*
X100211857Y-43683333D01*
X100259476Y-43492857D01*
X100307095Y-43397619D01*
X100354714Y-43350000D01*
X100449952Y-43302380D01*
X101402333Y-43302380D02*
X101497571Y-43302380D01*
X101592809Y-43350000D01*
X101640428Y-43397619D01*
X101688047Y-43492857D01*
X101735666Y-43683333D01*
X101735666Y-43921428D01*
X101688047Y-44111904D01*
X101640428Y-44207142D01*
X101592809Y-44254761D01*
X101497571Y-44302380D01*
X101402333Y-44302380D01*
X101307095Y-44254761D01*
X101259476Y-44207142D01*
X101211857Y-44111904D01*
X101164238Y-43921428D01*
X101164238Y-43683333D01*
X101211857Y-43492857D01*
X101259476Y-43397619D01*
X101307095Y-43350000D01*
X101402333Y-43302380D01*
X102926142Y-44302380D02*
X102926142Y-43635714D01*
X102926142Y-43730952D02*
X102973761Y-43683333D01*
X103069000Y-43635714D01*
X103211857Y-43635714D01*
X103307095Y-43683333D01*
X103354714Y-43778571D01*
X103354714Y-44302380D01*
X103354714Y-43778571D02*
X103402333Y-43683333D01*
X103497571Y-43635714D01*
X103640428Y-43635714D01*
X103735666Y-43683333D01*
X103783285Y-43778571D01*
X103783285Y-44302380D01*
X104259476Y-44302380D02*
X104259476Y-43635714D01*
X104259476Y-43730952D02*
X104307095Y-43683333D01*
X104402333Y-43635714D01*
X104545190Y-43635714D01*
X104640428Y-43683333D01*
X104688047Y-43778571D01*
X104688047Y-44302380D01*
X104688047Y-43778571D02*
X104735666Y-43683333D01*
X104830904Y-43635714D01*
X104973761Y-43635714D01*
X105069000Y-43683333D01*
X105116619Y-43778571D01*
X105116619Y-44302380D01*
X50069000Y-49498260D02*
X50069000Y-44413580D01*
X150069000Y-49498260D02*
X150069000Y-44413580D01*
X50069000Y-45000000D02*
X150069000Y-45000000D01*
X50069000Y-45000000D02*
X150069000Y-45000000D01*
X50069000Y-45000000D02*
X51195504Y-45586421D01*
X50069000Y-45000000D02*
X51195504Y-44413579D01*
X150069000Y-45000000D02*
X148942496Y-44413579D01*
X150069000Y-45000000D02*
X148942496Y-45586421D01*
D12*
%TO.C,C7*%
X101150000Y-101285714D02*
X101121428Y-101323809D01*
X101035714Y-101361904D01*
X100978571Y-101361904D01*
X100892857Y-101323809D01*
X100835714Y-101247619D01*
X100807142Y-101171428D01*
X100778571Y-101019047D01*
X100778571Y-100904761D01*
X100807142Y-100752380D01*
X100835714Y-100676190D01*
X100892857Y-100600000D01*
X100978571Y-100561904D01*
X101035714Y-100561904D01*
X101121428Y-100600000D01*
X101150000Y-100638095D01*
X101350000Y-100561904D02*
X101750000Y-100561904D01*
X101492857Y-101361904D01*
%TO.C,R33*%
X127180904Y-104413974D02*
X126799952Y-104613974D01*
X127180904Y-104756831D02*
X126380904Y-104756831D01*
X126380904Y-104528260D01*
X126419000Y-104471117D01*
X126457095Y-104442545D01*
X126533285Y-104413974D01*
X126647571Y-104413974D01*
X126723761Y-104442545D01*
X126761857Y-104471117D01*
X126799952Y-104528260D01*
X126799952Y-104756831D01*
X126380904Y-104213974D02*
X126380904Y-103842545D01*
X126685666Y-104042545D01*
X126685666Y-103956831D01*
X126723761Y-103899688D01*
X126761857Y-103871117D01*
X126838047Y-103842545D01*
X127028523Y-103842545D01*
X127104714Y-103871117D01*
X127142809Y-103899688D01*
X127180904Y-103956831D01*
X127180904Y-104128260D01*
X127142809Y-104185402D01*
X127104714Y-104213974D01*
X126380904Y-103642545D02*
X126380904Y-103271117D01*
X126685666Y-103471117D01*
X126685666Y-103385402D01*
X126723761Y-103328260D01*
X126761857Y-103299688D01*
X126838047Y-103271117D01*
X127028523Y-103271117D01*
X127104714Y-103299688D01*
X127142809Y-103328260D01*
X127180904Y-103385402D01*
X127180904Y-103556831D01*
X127142809Y-103613974D01*
X127104714Y-103642545D01*
%TO.C,C27*%
X88633285Y-109313974D02*
X88604714Y-109352069D01*
X88519000Y-109390164D01*
X88461857Y-109390164D01*
X88376142Y-109352069D01*
X88319000Y-109275879D01*
X88290428Y-109199688D01*
X88261857Y-109047307D01*
X88261857Y-108933021D01*
X88290428Y-108780640D01*
X88319000Y-108704450D01*
X88376142Y-108628260D01*
X88461857Y-108590164D01*
X88519000Y-108590164D01*
X88604714Y-108628260D01*
X88633285Y-108666355D01*
X88861857Y-108666355D02*
X88890428Y-108628260D01*
X88947571Y-108590164D01*
X89090428Y-108590164D01*
X89147571Y-108628260D01*
X89176142Y-108666355D01*
X89204714Y-108742545D01*
X89204714Y-108818736D01*
X89176142Y-108933021D01*
X88833285Y-109390164D01*
X89204714Y-109390164D01*
X89404714Y-108590164D02*
X89804714Y-108590164D01*
X89547571Y-109390164D01*
%TO.C,SHA2*%
X69649038Y-82103657D02*
X69736584Y-82069985D01*
X69837599Y-81968970D01*
X69851068Y-81901627D01*
X69844334Y-81854486D01*
X69810662Y-81780408D01*
X69756787Y-81726534D01*
X69682709Y-81692862D01*
X69635569Y-81686128D01*
X69568225Y-81699596D01*
X69460476Y-81753471D01*
X69393132Y-81766940D01*
X69345992Y-81760205D01*
X69271914Y-81726534D01*
X69218039Y-81672659D01*
X69184367Y-81598581D01*
X69177633Y-81551441D01*
X69191102Y-81484097D01*
X69292117Y-81383082D01*
X69379664Y-81349410D01*
X70100239Y-81706331D02*
X69534554Y-81140645D01*
X69803928Y-81410019D02*
X70046364Y-81167583D01*
X70342676Y-81463894D02*
X69776990Y-80898209D01*
X70362879Y-81120442D02*
X70564909Y-80918412D01*
X70484097Y-81322473D02*
X70059833Y-80615366D01*
X70766940Y-81039630D01*
X70376347Y-80406601D02*
X70369613Y-80359461D01*
X70383082Y-80292117D01*
X70484097Y-80191102D01*
X70551441Y-80177633D01*
X70598581Y-80184367D01*
X70672659Y-80218039D01*
X70726534Y-80271914D01*
X70787143Y-80372929D01*
X70867955Y-80938615D01*
X71130595Y-80675975D01*
%TO.C,D3*%
X95126142Y-108190164D02*
X95126142Y-107390164D01*
X95269000Y-107390164D01*
X95354714Y-107428260D01*
X95411857Y-107504450D01*
X95440428Y-107580640D01*
X95469000Y-107733021D01*
X95469000Y-107847307D01*
X95440428Y-107999688D01*
X95411857Y-108075879D01*
X95354714Y-108152069D01*
X95269000Y-108190164D01*
X95126142Y-108190164D01*
X95669000Y-107390164D02*
X96040428Y-107390164D01*
X95840428Y-107694926D01*
X95926142Y-107694926D01*
X95983285Y-107733021D01*
X96011857Y-107771117D01*
X96040428Y-107847307D01*
X96040428Y-108037783D01*
X96011857Y-108113974D01*
X95983285Y-108152069D01*
X95926142Y-108190164D01*
X95754714Y-108190164D01*
X95697571Y-108152069D01*
X95669000Y-108113974D01*
%TO.C,D1*%
X81226142Y-108190164D02*
X81226142Y-107390164D01*
X81369000Y-107390164D01*
X81454714Y-107428260D01*
X81511857Y-107504450D01*
X81540428Y-107580640D01*
X81569000Y-107733021D01*
X81569000Y-107847307D01*
X81540428Y-107999688D01*
X81511857Y-108075879D01*
X81454714Y-108152069D01*
X81369000Y-108190164D01*
X81226142Y-108190164D01*
X82140428Y-108190164D02*
X81797571Y-108190164D01*
X81969000Y-108190164D02*
X81969000Y-107390164D01*
X81911857Y-107504450D01*
X81854714Y-107580640D01*
X81797571Y-107618736D01*
%TO.C,R7*%
X96719000Y-109140164D02*
X96519000Y-108759212D01*
X96376142Y-109140164D02*
X96376142Y-108340164D01*
X96604714Y-108340164D01*
X96661857Y-108378260D01*
X96690428Y-108416355D01*
X96719000Y-108492545D01*
X96719000Y-108606831D01*
X96690428Y-108683021D01*
X96661857Y-108721117D01*
X96604714Y-108759212D01*
X96376142Y-108759212D01*
X96919000Y-108340164D02*
X97319000Y-108340164D01*
X97061857Y-109140164D01*
%TO.C,CX1*%
X52364285Y-54535714D02*
X52335714Y-54573809D01*
X52250000Y-54611904D01*
X52192857Y-54611904D01*
X52107142Y-54573809D01*
X52050000Y-54497619D01*
X52021428Y-54421428D01*
X51992857Y-54269047D01*
X51992857Y-54154761D01*
X52021428Y-54002380D01*
X52050000Y-53926190D01*
X52107142Y-53850000D01*
X52192857Y-53811904D01*
X52250000Y-53811904D01*
X52335714Y-53850000D01*
X52364285Y-53888095D01*
X52564285Y-53811904D02*
X52964285Y-54611904D01*
X52964285Y-53811904D02*
X52564285Y-54611904D01*
X53507142Y-54611904D02*
X53164285Y-54611904D01*
X53335714Y-54611904D02*
X53335714Y-53811904D01*
X53278571Y-53926190D01*
X53221428Y-54002380D01*
X53164285Y-54040476D01*
D13*
X55357142Y-64714285D02*
X57642857Y-64714285D01*
X56500000Y-65857142D02*
X56500000Y-63571428D01*
X55357142Y-57214285D02*
X57642857Y-57214285D01*
D12*
%TO.C,R3*%
X149261904Y-85850000D02*
X148880952Y-86050000D01*
X149261904Y-86192857D02*
X148461904Y-86192857D01*
X148461904Y-85964285D01*
X148500000Y-85907142D01*
X148538095Y-85878571D01*
X148614285Y-85850000D01*
X148728571Y-85850000D01*
X148804761Y-85878571D01*
X148842857Y-85907142D01*
X148880952Y-85964285D01*
X148880952Y-86192857D01*
X148461904Y-85650000D02*
X148461904Y-85278571D01*
X148766666Y-85478571D01*
X148766666Y-85392857D01*
X148804761Y-85335714D01*
X148842857Y-85307142D01*
X148919047Y-85278571D01*
X149109523Y-85278571D01*
X149185714Y-85307142D01*
X149223809Y-85335714D01*
X149261904Y-85392857D01*
X149261904Y-85564285D01*
X149223809Y-85621428D01*
X149185714Y-85650000D01*
%TO.C,D4*%
X110626142Y-110390164D02*
X110626142Y-109590164D01*
X110769000Y-109590164D01*
X110854714Y-109628260D01*
X110911857Y-109704450D01*
X110940428Y-109780640D01*
X110969000Y-109933021D01*
X110969000Y-110047307D01*
X110940428Y-110199688D01*
X110911857Y-110275879D01*
X110854714Y-110352069D01*
X110769000Y-110390164D01*
X110626142Y-110390164D01*
X111483285Y-109856831D02*
X111483285Y-110390164D01*
X111340428Y-109552069D02*
X111197571Y-110123498D01*
X111569000Y-110123498D01*
%TO.C,CX4*%
X148114285Y-55285714D02*
X148085714Y-55323809D01*
X148000000Y-55361904D01*
X147942857Y-55361904D01*
X147857142Y-55323809D01*
X147800000Y-55247619D01*
X147771428Y-55171428D01*
X147742857Y-55019047D01*
X147742857Y-54904761D01*
X147771428Y-54752380D01*
X147800000Y-54676190D01*
X147857142Y-54600000D01*
X147942857Y-54561904D01*
X148000000Y-54561904D01*
X148085714Y-54600000D01*
X148114285Y-54638095D01*
X148314285Y-54561904D02*
X148714285Y-55361904D01*
X148714285Y-54561904D02*
X148314285Y-55361904D01*
X149200000Y-54828571D02*
X149200000Y-55361904D01*
X149057142Y-54523809D02*
X148914285Y-55095238D01*
X149285714Y-55095238D01*
D13*
X141862142Y-65139285D02*
X144147857Y-65139285D01*
X143005000Y-66282142D02*
X143005000Y-63996428D01*
X141562142Y-56639285D02*
X143847857Y-56639285D01*
D12*
%TO.C,RN4*%
X145154714Y-108890164D02*
X144954714Y-108509212D01*
X144811857Y-108890164D02*
X144811857Y-108090164D01*
X145040428Y-108090164D01*
X145097571Y-108128260D01*
X145126142Y-108166355D01*
X145154714Y-108242545D01*
X145154714Y-108356831D01*
X145126142Y-108433021D01*
X145097571Y-108471117D01*
X145040428Y-108509212D01*
X144811857Y-108509212D01*
X145411857Y-108890164D02*
X145411857Y-108090164D01*
X145754714Y-108890164D01*
X145754714Y-108090164D01*
X146297571Y-108356831D02*
X146297571Y-108890164D01*
X146154714Y-108052069D02*
X146011857Y-108623498D01*
X146383285Y-108623498D01*
%TO.C,R36*%
X107483285Y-111190164D02*
X107283285Y-110809212D01*
X107140428Y-111190164D02*
X107140428Y-110390164D01*
X107369000Y-110390164D01*
X107426142Y-110428260D01*
X107454714Y-110466355D01*
X107483285Y-110542545D01*
X107483285Y-110656831D01*
X107454714Y-110733021D01*
X107426142Y-110771117D01*
X107369000Y-110809212D01*
X107140428Y-110809212D01*
X107683285Y-110390164D02*
X108054714Y-110390164D01*
X107854714Y-110694926D01*
X107940428Y-110694926D01*
X107997571Y-110733021D01*
X108026142Y-110771117D01*
X108054714Y-110847307D01*
X108054714Y-111037783D01*
X108026142Y-111113974D01*
X107997571Y-111152069D01*
X107940428Y-111190164D01*
X107769000Y-111190164D01*
X107711857Y-111152069D01*
X107683285Y-111113974D01*
X108569000Y-110390164D02*
X108454714Y-110390164D01*
X108397571Y-110428260D01*
X108369000Y-110466355D01*
X108311857Y-110580640D01*
X108283285Y-110733021D01*
X108283285Y-111037783D01*
X108311857Y-111113974D01*
X108340428Y-111152069D01*
X108397571Y-111190164D01*
X108511857Y-111190164D01*
X108569000Y-111152069D01*
X108597571Y-111113974D01*
X108626142Y-111037783D01*
X108626142Y-110847307D01*
X108597571Y-110771117D01*
X108569000Y-110733021D01*
X108511857Y-110694926D01*
X108397571Y-110694926D01*
X108340428Y-110733021D01*
X108311857Y-110771117D01*
X108283285Y-110847307D01*
%TO.C,C23*%
X126104714Y-104413974D02*
X126142809Y-104442545D01*
X126180904Y-104528260D01*
X126180904Y-104585402D01*
X126142809Y-104671117D01*
X126066619Y-104728260D01*
X125990428Y-104756831D01*
X125838047Y-104785402D01*
X125723761Y-104785402D01*
X125571380Y-104756831D01*
X125495190Y-104728260D01*
X125419000Y-104671117D01*
X125380904Y-104585402D01*
X125380904Y-104528260D01*
X125419000Y-104442545D01*
X125457095Y-104413974D01*
X125457095Y-104185402D02*
X125419000Y-104156831D01*
X125380904Y-104099688D01*
X125380904Y-103956831D01*
X125419000Y-103899688D01*
X125457095Y-103871117D01*
X125533285Y-103842545D01*
X125609476Y-103842545D01*
X125723761Y-103871117D01*
X126180904Y-104213974D01*
X126180904Y-103842545D01*
X125380904Y-103642545D02*
X125380904Y-103271117D01*
X125685666Y-103471117D01*
X125685666Y-103385402D01*
X125723761Y-103328260D01*
X125761857Y-103299688D01*
X125838047Y-103271117D01*
X126028523Y-103271117D01*
X126104714Y-103299688D01*
X126142809Y-103328260D01*
X126180904Y-103385402D01*
X126180904Y-103556831D01*
X126142809Y-103613974D01*
X126104714Y-103642545D01*
%TO.C,SHC1*%
X135166157Y-83286582D02*
X135253704Y-83252910D01*
X135354719Y-83151895D01*
X135368188Y-83084551D01*
X135361453Y-83037411D01*
X135327781Y-82963333D01*
X135273907Y-82909458D01*
X135199829Y-82875786D01*
X135152688Y-82869052D01*
X135085345Y-82882521D01*
X134977595Y-82936396D01*
X134910252Y-82949864D01*
X134863111Y-82943130D01*
X134789033Y-82909458D01*
X134735159Y-82855583D01*
X134701487Y-82781506D01*
X134694752Y-82734365D01*
X134708221Y-82667022D01*
X134809236Y-82566006D01*
X134896783Y-82532335D01*
X135617358Y-82889255D02*
X135051673Y-82323570D01*
X135321047Y-82592944D02*
X135563484Y-82350507D01*
X135859795Y-82646819D02*
X135294110Y-82081133D01*
X136250387Y-82148477D02*
X136257122Y-82195617D01*
X136223450Y-82283164D01*
X136183044Y-82323570D01*
X136095497Y-82357241D01*
X136001216Y-82343773D01*
X135927139Y-82310101D01*
X135799186Y-82222554D01*
X135718374Y-82141742D01*
X135630827Y-82013790D01*
X135597155Y-81939712D01*
X135583687Y-81845431D01*
X135617358Y-81757884D01*
X135657765Y-81717478D01*
X135745311Y-81683806D01*
X135792452Y-81690541D01*
X136708323Y-81798290D02*
X136465887Y-82040727D01*
X136587105Y-81919509D02*
X136021419Y-81353823D01*
X136061826Y-81475042D01*
X136075294Y-81569322D01*
X136061826Y-81636666D01*
D11*
%TO.C,TP4*%
X83738095Y-83202380D02*
X84309523Y-83202380D01*
X84023809Y-84202380D02*
X84023809Y-83202380D01*
X84642857Y-84202380D02*
X84642857Y-83202380D01*
X85023809Y-83202380D01*
X85119047Y-83250000D01*
X85166666Y-83297619D01*
X85214285Y-83392857D01*
X85214285Y-83535714D01*
X85166666Y-83630952D01*
X85119047Y-83678571D01*
X85023809Y-83726190D01*
X84642857Y-83726190D01*
X86071428Y-83535714D02*
X86071428Y-84202380D01*
X85833333Y-83154761D02*
X85595238Y-83869047D01*
X86214285Y-83869047D01*
D12*
%TO.C,C19*%
X148854714Y-107663974D02*
X148892809Y-107692545D01*
X148930904Y-107778260D01*
X148930904Y-107835402D01*
X148892809Y-107921117D01*
X148816619Y-107978260D01*
X148740428Y-108006831D01*
X148588047Y-108035402D01*
X148473761Y-108035402D01*
X148321380Y-108006831D01*
X148245190Y-107978260D01*
X148169000Y-107921117D01*
X148130904Y-107835402D01*
X148130904Y-107778260D01*
X148169000Y-107692545D01*
X148207095Y-107663974D01*
X148930904Y-107092545D02*
X148930904Y-107435402D01*
X148930904Y-107263974D02*
X148130904Y-107263974D01*
X148245190Y-107321117D01*
X148321380Y-107378260D01*
X148359476Y-107435402D01*
X148930904Y-106806831D02*
X148930904Y-106692545D01*
X148892809Y-106635402D01*
X148854714Y-106606831D01*
X148740428Y-106549688D01*
X148588047Y-106521117D01*
X148283285Y-106521117D01*
X148207095Y-106549688D01*
X148169000Y-106578260D01*
X148130904Y-106635402D01*
X148130904Y-106749688D01*
X148169000Y-106806831D01*
X148207095Y-106835402D01*
X148283285Y-106863974D01*
X148473761Y-106863974D01*
X148549952Y-106835402D01*
X148588047Y-106806831D01*
X148626142Y-106749688D01*
X148626142Y-106635402D01*
X148588047Y-106578260D01*
X148549952Y-106549688D01*
X148473761Y-106521117D01*
%TO.C,D2*%
X88326142Y-108090164D02*
X88326142Y-107290164D01*
X88469000Y-107290164D01*
X88554714Y-107328260D01*
X88611857Y-107404450D01*
X88640428Y-107480640D01*
X88669000Y-107633021D01*
X88669000Y-107747307D01*
X88640428Y-107899688D01*
X88611857Y-107975879D01*
X88554714Y-108052069D01*
X88469000Y-108090164D01*
X88326142Y-108090164D01*
X88897571Y-107366355D02*
X88926142Y-107328260D01*
X88983285Y-107290164D01*
X89126142Y-107290164D01*
X89183285Y-107328260D01*
X89211857Y-107366355D01*
X89240428Y-107442545D01*
X89240428Y-107518736D01*
X89211857Y-107633021D01*
X88869000Y-108090164D01*
X89240428Y-108090164D01*
%TO.C,R20*%
X126683285Y-112390164D02*
X126483285Y-112009212D01*
X126340428Y-112390164D02*
X126340428Y-111590164D01*
X126569000Y-111590164D01*
X126626142Y-111628260D01*
X126654714Y-111666355D01*
X126683285Y-111742545D01*
X126683285Y-111856831D01*
X126654714Y-111933021D01*
X126626142Y-111971117D01*
X126569000Y-112009212D01*
X126340428Y-112009212D01*
X126911857Y-111666355D02*
X126940428Y-111628260D01*
X126997571Y-111590164D01*
X127140428Y-111590164D01*
X127197571Y-111628260D01*
X127226142Y-111666355D01*
X127254714Y-111742545D01*
X127254714Y-111818736D01*
X127226142Y-111933021D01*
X126883285Y-112390164D01*
X127254714Y-112390164D01*
X127626142Y-111590164D02*
X127683285Y-111590164D01*
X127740428Y-111628260D01*
X127769000Y-111666355D01*
X127797571Y-111742545D01*
X127826142Y-111894926D01*
X127826142Y-112085402D01*
X127797571Y-112237783D01*
X127769000Y-112313974D01*
X127740428Y-112352069D01*
X127683285Y-112390164D01*
X127626142Y-112390164D01*
X127569000Y-112352069D01*
X127540428Y-112313974D01*
X127511857Y-112237783D01*
X127483285Y-112085402D01*
X127483285Y-111894926D01*
X127511857Y-111742545D01*
X127540428Y-111666355D01*
X127569000Y-111628260D01*
X127626142Y-111590164D01*
%TO.C,R23*%
X122983285Y-103960164D02*
X122783285Y-103579212D01*
X122640428Y-103960164D02*
X122640428Y-103160164D01*
X122869000Y-103160164D01*
X122926142Y-103198260D01*
X122954714Y-103236355D01*
X122983285Y-103312545D01*
X122983285Y-103426831D01*
X122954714Y-103503021D01*
X122926142Y-103541117D01*
X122869000Y-103579212D01*
X122640428Y-103579212D01*
X123211857Y-103236355D02*
X123240428Y-103198260D01*
X123297571Y-103160164D01*
X123440428Y-103160164D01*
X123497571Y-103198260D01*
X123526142Y-103236355D01*
X123554714Y-103312545D01*
X123554714Y-103388736D01*
X123526142Y-103503021D01*
X123183285Y-103960164D01*
X123554714Y-103960164D01*
X123754714Y-103160164D02*
X124126142Y-103160164D01*
X123926142Y-103464926D01*
X124011857Y-103464926D01*
X124069000Y-103503021D01*
X124097571Y-103541117D01*
X124126142Y-103617307D01*
X124126142Y-103807783D01*
X124097571Y-103883974D01*
X124069000Y-103922069D01*
X124011857Y-103960164D01*
X123840428Y-103960164D01*
X123783285Y-103922069D01*
X123754714Y-103883974D01*
D11*
%TO.C,PH9*%
X141954380Y-75761904D02*
X140954380Y-75761904D01*
X140954380Y-75380952D01*
X141002000Y-75285714D01*
X141049619Y-75238095D01*
X141144857Y-75190476D01*
X141287714Y-75190476D01*
X141382952Y-75238095D01*
X141430571Y-75285714D01*
X141478190Y-75380952D01*
X141478190Y-75761904D01*
X141954380Y-74761904D02*
X140954380Y-74761904D01*
X141430571Y-74761904D02*
X141430571Y-74190476D01*
X141954380Y-74190476D02*
X140954380Y-74190476D01*
X141954380Y-73666666D02*
X141954380Y-73476190D01*
X141906761Y-73380952D01*
X141859142Y-73333333D01*
X141716285Y-73238095D01*
X141525809Y-73190476D01*
X141144857Y-73190476D01*
X141049619Y-73238095D01*
X141002000Y-73285714D01*
X140954380Y-73380952D01*
X140954380Y-73571428D01*
X141002000Y-73666666D01*
X141049619Y-73714285D01*
X141144857Y-73761904D01*
X141382952Y-73761904D01*
X141478190Y-73714285D01*
X141525809Y-73666666D01*
X141573428Y-73571428D01*
X141573428Y-73380952D01*
X141525809Y-73285714D01*
X141478190Y-73238095D01*
X141382952Y-73190476D01*
D12*
%TO.C,U6*%
X61811857Y-99490164D02*
X61811857Y-100137783D01*
X61840428Y-100213974D01*
X61869000Y-100252069D01*
X61926142Y-100290164D01*
X62040428Y-100290164D01*
X62097571Y-100252069D01*
X62126142Y-100213974D01*
X62154714Y-100137783D01*
X62154714Y-99490164D01*
X62697571Y-99490164D02*
X62583285Y-99490164D01*
X62526142Y-99528260D01*
X62497571Y-99566355D01*
X62440428Y-99680640D01*
X62411857Y-99833021D01*
X62411857Y-100137783D01*
X62440428Y-100213974D01*
X62469000Y-100252069D01*
X62526142Y-100290164D01*
X62640428Y-100290164D01*
X62697571Y-100252069D01*
X62726142Y-100213974D01*
X62754714Y-100137783D01*
X62754714Y-99947307D01*
X62726142Y-99871117D01*
X62697571Y-99833021D01*
X62640428Y-99794926D01*
X62526142Y-99794926D01*
X62469000Y-99833021D01*
X62440428Y-99871117D01*
X62411857Y-99947307D01*
D11*
X51630190Y-113805640D02*
X51963523Y-114805640D01*
X52296857Y-113805640D01*
X52630190Y-114805640D02*
X52630190Y-114138974D01*
X52630190Y-113805640D02*
X52582571Y-113853260D01*
X52630190Y-113900879D01*
X52677809Y-113853260D01*
X52630190Y-113805640D01*
X52630190Y-113900879D01*
X53106380Y-114138974D02*
X53106380Y-114805640D01*
X53106380Y-114234212D02*
X53154000Y-114186593D01*
X53249238Y-114138974D01*
X53392095Y-114138974D01*
X53487333Y-114186593D01*
X53534952Y-114281831D01*
X53534952Y-114805640D01*
X51916619Y-104228260D02*
X51821380Y-104180640D01*
X51678523Y-104180640D01*
X51535666Y-104228260D01*
X51440428Y-104323498D01*
X51392809Y-104418736D01*
X51345190Y-104609212D01*
X51345190Y-104752069D01*
X51392809Y-104942545D01*
X51440428Y-105037783D01*
X51535666Y-105133021D01*
X51678523Y-105180640D01*
X51773761Y-105180640D01*
X51916619Y-105133021D01*
X51964238Y-105085402D01*
X51964238Y-104752069D01*
X51773761Y-104752069D01*
X52392809Y-105180640D02*
X52392809Y-104180640D01*
X52964238Y-105180640D01*
X52964238Y-104180640D01*
X53440428Y-105180640D02*
X53440428Y-104180640D01*
X53678523Y-104180640D01*
X53821380Y-104228260D01*
X53916619Y-104323498D01*
X53964238Y-104418736D01*
X54011857Y-104609212D01*
X54011857Y-104752069D01*
X53964238Y-104942545D01*
X53916619Y-105037783D01*
X53821380Y-105133021D01*
X53678523Y-105180640D01*
X53440428Y-105180640D01*
X54440428Y-105180640D02*
X54440428Y-104513974D01*
X54440428Y-104180640D02*
X54392809Y-104228260D01*
X54440428Y-104275879D01*
X54488047Y-104228260D01*
X54440428Y-104180640D01*
X54440428Y-104275879D01*
X54916619Y-104513974D02*
X54916619Y-105180640D01*
X54916619Y-104609212D02*
X54964238Y-104561593D01*
X55059476Y-104513974D01*
X55202333Y-104513974D01*
X55297571Y-104561593D01*
X55345190Y-104656831D01*
X55345190Y-105180640D01*
X69751619Y-101153260D02*
X69656380Y-101105640D01*
X69513523Y-101105640D01*
X69370666Y-101153260D01*
X69275428Y-101248498D01*
X69227809Y-101343736D01*
X69180190Y-101534212D01*
X69180190Y-101677069D01*
X69227809Y-101867545D01*
X69275428Y-101962783D01*
X69370666Y-102058021D01*
X69513523Y-102105640D01*
X69608761Y-102105640D01*
X69751619Y-102058021D01*
X69799238Y-102010402D01*
X69799238Y-101677069D01*
X69608761Y-101677069D01*
X70227809Y-102105640D02*
X70227809Y-101105640D01*
X70799238Y-102105640D01*
X70799238Y-101105640D01*
X71275428Y-102105640D02*
X71275428Y-101105640D01*
X71513523Y-101105640D01*
X71656380Y-101153260D01*
X71751619Y-101248498D01*
X71799238Y-101343736D01*
X71846857Y-101534212D01*
X71846857Y-101677069D01*
X71799238Y-101867545D01*
X71751619Y-101962783D01*
X71656380Y-102058021D01*
X71513523Y-102105640D01*
X71275428Y-102105640D01*
X72418285Y-102105640D02*
X72323047Y-102058021D01*
X72275428Y-102010402D01*
X72227809Y-101915164D01*
X72227809Y-101629450D01*
X72275428Y-101534212D01*
X72323047Y-101486593D01*
X72418285Y-101438974D01*
X72561142Y-101438974D01*
X72656380Y-101486593D01*
X72704000Y-101534212D01*
X72751619Y-101629450D01*
X72751619Y-101915164D01*
X72704000Y-102010402D01*
X72656380Y-102058021D01*
X72561142Y-102105640D01*
X72418285Y-102105640D01*
X73608761Y-101438974D02*
X73608761Y-102105640D01*
X73180190Y-101438974D02*
X73180190Y-101962783D01*
X73227809Y-102058021D01*
X73323047Y-102105640D01*
X73465904Y-102105640D01*
X73561142Y-102058021D01*
X73608761Y-102010402D01*
X73942095Y-101438974D02*
X74323047Y-101438974D01*
X74084952Y-101105640D02*
X74084952Y-101962783D01*
X74132571Y-102058021D01*
X74227809Y-102105640D01*
X74323047Y-102105640D01*
X71450190Y-116345640D02*
X71783523Y-117345640D01*
X72116857Y-116345640D01*
X72593047Y-117345640D02*
X72497809Y-117298021D01*
X72450190Y-117250402D01*
X72402571Y-117155164D01*
X72402571Y-116869450D01*
X72450190Y-116774212D01*
X72497809Y-116726593D01*
X72593047Y-116678974D01*
X72735904Y-116678974D01*
X72831142Y-116726593D01*
X72878761Y-116774212D01*
X72926380Y-116869450D01*
X72926380Y-117155164D01*
X72878761Y-117250402D01*
X72831142Y-117298021D01*
X72735904Y-117345640D01*
X72593047Y-117345640D01*
X73783523Y-116678974D02*
X73783523Y-117345640D01*
X73354952Y-116678974D02*
X73354952Y-117202783D01*
X73402571Y-117298021D01*
X73497809Y-117345640D01*
X73640666Y-117345640D01*
X73735904Y-117298021D01*
X73783523Y-117250402D01*
X74116857Y-116678974D02*
X74497809Y-116678974D01*
X74259714Y-116345640D02*
X74259714Y-117202783D01*
X74307333Y-117298021D01*
X74402571Y-117345640D01*
X74497809Y-117345640D01*
D12*
%TO.C,SHB1*%
X102371353Y-82886582D02*
X102458900Y-82852910D01*
X102559915Y-82751895D01*
X102573384Y-82684551D01*
X102566649Y-82637411D01*
X102532977Y-82563333D01*
X102479103Y-82509458D01*
X102405025Y-82475786D01*
X102357884Y-82469052D01*
X102290541Y-82482521D01*
X102182791Y-82536396D01*
X102115448Y-82549864D01*
X102068307Y-82543130D01*
X101994229Y-82509458D01*
X101940355Y-82455583D01*
X101906683Y-82381506D01*
X101899948Y-82334365D01*
X101913417Y-82267022D01*
X102014432Y-82166006D01*
X102101979Y-82132335D01*
X102822554Y-82489255D02*
X102256869Y-81923570D01*
X102526243Y-82192944D02*
X102768680Y-81950507D01*
X103064991Y-82246819D02*
X102499306Y-81681133D01*
X103112132Y-81607055D02*
X103199678Y-81573384D01*
X103246819Y-81580118D01*
X103320896Y-81613790D01*
X103401709Y-81694602D01*
X103435380Y-81768680D01*
X103442115Y-81815820D01*
X103428646Y-81883164D01*
X103267022Y-82044788D01*
X102701336Y-81479103D01*
X102842758Y-81337681D01*
X102910101Y-81324213D01*
X102957241Y-81330947D01*
X103031319Y-81364619D01*
X103085194Y-81418493D01*
X103118866Y-81492571D01*
X103125600Y-81539712D01*
X103112132Y-81607055D01*
X102970710Y-81748477D01*
X103913519Y-81398290D02*
X103671083Y-81640727D01*
X103792301Y-81519509D02*
X103226615Y-80953823D01*
X103267022Y-81075042D01*
X103280490Y-81169322D01*
X103267022Y-81236666D01*
%TO.C,RG1*%
X80169000Y-104790164D02*
X79969000Y-104409212D01*
X79826142Y-104790164D02*
X79826142Y-103990164D01*
X80054714Y-103990164D01*
X80111857Y-104028260D01*
X80140428Y-104066355D01*
X80169000Y-104142545D01*
X80169000Y-104256831D01*
X80140428Y-104333021D01*
X80111857Y-104371117D01*
X80054714Y-104409212D01*
X79826142Y-104409212D01*
X80740428Y-104028260D02*
X80683285Y-103990164D01*
X80597571Y-103990164D01*
X80511857Y-104028260D01*
X80454714Y-104104450D01*
X80426142Y-104180640D01*
X80397571Y-104333021D01*
X80397571Y-104447307D01*
X80426142Y-104599688D01*
X80454714Y-104675879D01*
X80511857Y-104752069D01*
X80597571Y-104790164D01*
X80654714Y-104790164D01*
X80740428Y-104752069D01*
X80769000Y-104713974D01*
X80769000Y-104447307D01*
X80654714Y-104447307D01*
X81340428Y-104790164D02*
X80997571Y-104790164D01*
X81169000Y-104790164D02*
X81169000Y-103990164D01*
X81111857Y-104104450D01*
X81054714Y-104180640D01*
X80997571Y-104218736D01*
%TO.C,CX13*%
X83285714Y-71671428D02*
X83323809Y-71700000D01*
X83361904Y-71785714D01*
X83361904Y-71842857D01*
X83323809Y-71928571D01*
X83247619Y-71985714D01*
X83171428Y-72014285D01*
X83019047Y-72042857D01*
X82904761Y-72042857D01*
X82752380Y-72014285D01*
X82676190Y-71985714D01*
X82600000Y-71928571D01*
X82561904Y-71842857D01*
X82561904Y-71785714D01*
X82600000Y-71700000D01*
X82638095Y-71671428D01*
X82561904Y-71471428D02*
X83361904Y-71071428D01*
X82561904Y-71071428D02*
X83361904Y-71471428D01*
X83361904Y-70528571D02*
X83361904Y-70871428D01*
X83361904Y-70700000D02*
X82561904Y-70700000D01*
X82676190Y-70757142D01*
X82752380Y-70814285D01*
X82790476Y-70871428D01*
X82561904Y-70328571D02*
X82561904Y-69957142D01*
X82866666Y-70157142D01*
X82866666Y-70071428D01*
X82904761Y-70014285D01*
X82942857Y-69985714D01*
X83019047Y-69957142D01*
X83209523Y-69957142D01*
X83285714Y-69985714D01*
X83323809Y-70014285D01*
X83361904Y-70071428D01*
X83361904Y-70242857D01*
X83323809Y-70300000D01*
X83285714Y-70328571D01*
D11*
%TO.C,PH4*%
X89538095Y-72054380D02*
X89538095Y-71054380D01*
X89919047Y-71054380D01*
X90014285Y-71102000D01*
X90061904Y-71149619D01*
X90109523Y-71244857D01*
X90109523Y-71387714D01*
X90061904Y-71482952D01*
X90014285Y-71530571D01*
X89919047Y-71578190D01*
X89538095Y-71578190D01*
X90538095Y-72054380D02*
X90538095Y-71054380D01*
X90538095Y-71530571D02*
X91109523Y-71530571D01*
X91109523Y-72054380D02*
X91109523Y-71054380D01*
X92014285Y-71387714D02*
X92014285Y-72054380D01*
X91776190Y-71006761D02*
X91538095Y-71721047D01*
X92157142Y-71721047D01*
D12*
%TO.C,SHB2*%
X95203809Y-84571428D02*
X95241904Y-84485714D01*
X95241904Y-84342857D01*
X95203809Y-84285714D01*
X95165714Y-84257142D01*
X95089523Y-84228571D01*
X95013333Y-84228571D01*
X94937142Y-84257142D01*
X94899047Y-84285714D01*
X94860952Y-84342857D01*
X94822857Y-84457142D01*
X94784761Y-84514285D01*
X94746666Y-84542857D01*
X94670476Y-84571428D01*
X94594285Y-84571428D01*
X94518095Y-84542857D01*
X94480000Y-84514285D01*
X94441904Y-84457142D01*
X94441904Y-84314285D01*
X94480000Y-84228571D01*
X95241904Y-83971428D02*
X94441904Y-83971428D01*
X94822857Y-83971428D02*
X94822857Y-83628571D01*
X95241904Y-83628571D02*
X94441904Y-83628571D01*
X94822857Y-83142857D02*
X94860952Y-83057142D01*
X94899047Y-83028571D01*
X94975238Y-83000000D01*
X95089523Y-83000000D01*
X95165714Y-83028571D01*
X95203809Y-83057142D01*
X95241904Y-83114285D01*
X95241904Y-83342857D01*
X94441904Y-83342857D01*
X94441904Y-83142857D01*
X94480000Y-83085714D01*
X94518095Y-83057142D01*
X94594285Y-83028571D01*
X94670476Y-83028571D01*
X94746666Y-83057142D01*
X94784761Y-83085714D01*
X94822857Y-83142857D01*
X94822857Y-83342857D01*
X94518095Y-82771428D02*
X94480000Y-82742857D01*
X94441904Y-82685714D01*
X94441904Y-82542857D01*
X94480000Y-82485714D01*
X94518095Y-82457142D01*
X94594285Y-82428571D01*
X94670476Y-82428571D01*
X94784761Y-82457142D01*
X95241904Y-82800000D01*
X95241904Y-82428571D01*
%TO.C,RS3*%
X147544285Y-81461904D02*
X147344285Y-81080952D01*
X147201428Y-81461904D02*
X147201428Y-80661904D01*
X147430000Y-80661904D01*
X147487142Y-80700000D01*
X147515714Y-80738095D01*
X147544285Y-80814285D01*
X147544285Y-80928571D01*
X147515714Y-81004761D01*
X147487142Y-81042857D01*
X147430000Y-81080952D01*
X147201428Y-81080952D01*
X147772857Y-81423809D02*
X147858571Y-81461904D01*
X148001428Y-81461904D01*
X148058571Y-81423809D01*
X148087142Y-81385714D01*
X148115714Y-81309523D01*
X148115714Y-81233333D01*
X148087142Y-81157142D01*
X148058571Y-81119047D01*
X148001428Y-81080952D01*
X147887142Y-81042857D01*
X147830000Y-81004761D01*
X147801428Y-80966666D01*
X147772857Y-80890476D01*
X147772857Y-80814285D01*
X147801428Y-80738095D01*
X147830000Y-80700000D01*
X147887142Y-80661904D01*
X148030000Y-80661904D01*
X148115714Y-80700000D01*
X148315714Y-80661904D02*
X148687142Y-80661904D01*
X148487142Y-80966666D01*
X148572857Y-80966666D01*
X148630000Y-81004761D01*
X148658571Y-81042857D01*
X148687142Y-81119047D01*
X148687142Y-81309523D01*
X148658571Y-81385714D01*
X148630000Y-81423809D01*
X148572857Y-81461904D01*
X148401428Y-81461904D01*
X148344285Y-81423809D01*
X148315714Y-81385714D01*
%TO.C,R17*%
X106430904Y-108913974D02*
X106049952Y-109113974D01*
X106430904Y-109256831D02*
X105630904Y-109256831D01*
X105630904Y-109028260D01*
X105669000Y-108971117D01*
X105707095Y-108942545D01*
X105783285Y-108913974D01*
X105897571Y-108913974D01*
X105973761Y-108942545D01*
X106011857Y-108971117D01*
X106049952Y-109028260D01*
X106049952Y-109256831D01*
X106430904Y-108342545D02*
X106430904Y-108685402D01*
X106430904Y-108513974D02*
X105630904Y-108513974D01*
X105745190Y-108571117D01*
X105821380Y-108628260D01*
X105859476Y-108685402D01*
X105630904Y-108142545D02*
X105630904Y-107742545D01*
X106430904Y-107999688D01*
D11*
%TO.C,TP1*%
X70788095Y-67454380D02*
X71359523Y-67454380D01*
X71073809Y-68454380D02*
X71073809Y-67454380D01*
X71692857Y-68454380D02*
X71692857Y-67454380D01*
X72073809Y-67454380D01*
X72169047Y-67502000D01*
X72216666Y-67549619D01*
X72264285Y-67644857D01*
X72264285Y-67787714D01*
X72216666Y-67882952D01*
X72169047Y-67930571D01*
X72073809Y-67978190D01*
X71692857Y-67978190D01*
X73216666Y-68454380D02*
X72645238Y-68454380D01*
X72930952Y-68454380D02*
X72930952Y-67454380D01*
X72835714Y-67597238D01*
X72740476Y-67692476D01*
X72645238Y-67740095D01*
D12*
%TO.C,R35*%
X111431904Y-109005714D02*
X111050952Y-109205714D01*
X111431904Y-109348571D02*
X110631904Y-109348571D01*
X110631904Y-109120000D01*
X110670000Y-109062857D01*
X110708095Y-109034285D01*
X110784285Y-109005714D01*
X110898571Y-109005714D01*
X110974761Y-109034285D01*
X111012857Y-109062857D01*
X111050952Y-109120000D01*
X111050952Y-109348571D01*
X110631904Y-108805714D02*
X110631904Y-108434285D01*
X110936666Y-108634285D01*
X110936666Y-108548571D01*
X110974761Y-108491428D01*
X111012857Y-108462857D01*
X111089047Y-108434285D01*
X111279523Y-108434285D01*
X111355714Y-108462857D01*
X111393809Y-108491428D01*
X111431904Y-108548571D01*
X111431904Y-108720000D01*
X111393809Y-108777142D01*
X111355714Y-108805714D01*
X110631904Y-107891428D02*
X110631904Y-108177142D01*
X111012857Y-108205714D01*
X110974761Y-108177142D01*
X110936666Y-108120000D01*
X110936666Y-107977142D01*
X110974761Y-107920000D01*
X111012857Y-107891428D01*
X111089047Y-107862857D01*
X111279523Y-107862857D01*
X111355714Y-107891428D01*
X111393809Y-107920000D01*
X111431904Y-107977142D01*
X111431904Y-108120000D01*
X111393809Y-108177142D01*
X111355714Y-108205714D01*
%TO.C,CX17*%
X53685714Y-90271428D02*
X53723809Y-90300000D01*
X53761904Y-90385714D01*
X53761904Y-90442857D01*
X53723809Y-90528571D01*
X53647619Y-90585714D01*
X53571428Y-90614285D01*
X53419047Y-90642857D01*
X53304761Y-90642857D01*
X53152380Y-90614285D01*
X53076190Y-90585714D01*
X53000000Y-90528571D01*
X52961904Y-90442857D01*
X52961904Y-90385714D01*
X53000000Y-90300000D01*
X53038095Y-90271428D01*
X52961904Y-90071428D02*
X53761904Y-89671428D01*
X52961904Y-89671428D02*
X53761904Y-90071428D01*
X53761904Y-89128571D02*
X53761904Y-89471428D01*
X53761904Y-89300000D02*
X52961904Y-89300000D01*
X53076190Y-89357142D01*
X53152380Y-89414285D01*
X53190476Y-89471428D01*
X52961904Y-88928571D02*
X52961904Y-88528571D01*
X53761904Y-88785714D01*
D11*
X51271428Y-86880952D02*
X51271428Y-86119047D01*
X51652380Y-86500000D02*
X50890476Y-86500000D01*
X55271428Y-86880952D02*
X55271428Y-86119047D01*
D12*
%TO.C,C31*%
X96683285Y-105563974D02*
X96654714Y-105602069D01*
X96569000Y-105640164D01*
X96511857Y-105640164D01*
X96426142Y-105602069D01*
X96369000Y-105525879D01*
X96340428Y-105449688D01*
X96311857Y-105297307D01*
X96311857Y-105183021D01*
X96340428Y-105030640D01*
X96369000Y-104954450D01*
X96426142Y-104878260D01*
X96511857Y-104840164D01*
X96569000Y-104840164D01*
X96654714Y-104878260D01*
X96683285Y-104916355D01*
X96883285Y-104840164D02*
X97254714Y-104840164D01*
X97054714Y-105144926D01*
X97140428Y-105144926D01*
X97197571Y-105183021D01*
X97226142Y-105221117D01*
X97254714Y-105297307D01*
X97254714Y-105487783D01*
X97226142Y-105563974D01*
X97197571Y-105602069D01*
X97140428Y-105640164D01*
X96969000Y-105640164D01*
X96911857Y-105602069D01*
X96883285Y-105563974D01*
X97826142Y-105640164D02*
X97483285Y-105640164D01*
X97654714Y-105640164D02*
X97654714Y-104840164D01*
X97597571Y-104954450D01*
X97540428Y-105030640D01*
X97483285Y-105068736D01*
%TO.C,J4*%
X100369000Y-120840164D02*
X100369000Y-121411593D01*
X100340428Y-121525879D01*
X100283285Y-121602069D01*
X100197571Y-121640164D01*
X100140428Y-121640164D01*
X100911857Y-121106831D02*
X100911857Y-121640164D01*
X100769000Y-120802069D02*
X100626142Y-121373498D01*
X100997571Y-121373498D01*
%TO.C,R27*%
X107680904Y-108913974D02*
X107299952Y-109113974D01*
X107680904Y-109256831D02*
X106880904Y-109256831D01*
X106880904Y-109028260D01*
X106919000Y-108971117D01*
X106957095Y-108942545D01*
X107033285Y-108913974D01*
X107147571Y-108913974D01*
X107223761Y-108942545D01*
X107261857Y-108971117D01*
X107299952Y-109028260D01*
X107299952Y-109256831D01*
X106957095Y-108685402D02*
X106919000Y-108656831D01*
X106880904Y-108599688D01*
X106880904Y-108456831D01*
X106919000Y-108399688D01*
X106957095Y-108371117D01*
X107033285Y-108342545D01*
X107109476Y-108342545D01*
X107223761Y-108371117D01*
X107680904Y-108713974D01*
X107680904Y-108342545D01*
X106880904Y-108142545D02*
X106880904Y-107742545D01*
X107680904Y-107999688D01*
%TO.C,R32*%
X112691904Y-108705714D02*
X112310952Y-108905714D01*
X112691904Y-109048571D02*
X111891904Y-109048571D01*
X111891904Y-108820000D01*
X111930000Y-108762857D01*
X111968095Y-108734285D01*
X112044285Y-108705714D01*
X112158571Y-108705714D01*
X112234761Y-108734285D01*
X112272857Y-108762857D01*
X112310952Y-108820000D01*
X112310952Y-109048571D01*
X111891904Y-108505714D02*
X111891904Y-108134285D01*
X112196666Y-108334285D01*
X112196666Y-108248571D01*
X112234761Y-108191428D01*
X112272857Y-108162857D01*
X112349047Y-108134285D01*
X112539523Y-108134285D01*
X112615714Y-108162857D01*
X112653809Y-108191428D01*
X112691904Y-108248571D01*
X112691904Y-108420000D01*
X112653809Y-108477142D01*
X112615714Y-108505714D01*
X111968095Y-107905714D02*
X111930000Y-107877142D01*
X111891904Y-107820000D01*
X111891904Y-107677142D01*
X111930000Y-107620000D01*
X111968095Y-107591428D01*
X112044285Y-107562857D01*
X112120476Y-107562857D01*
X112234761Y-107591428D01*
X112691904Y-107934285D01*
X112691904Y-107562857D01*
%TO.C,SHC3*%
X128173809Y-83983928D02*
X128211904Y-83898214D01*
X128211904Y-83755357D01*
X128173809Y-83698214D01*
X128135714Y-83669642D01*
X128059523Y-83641071D01*
X127983333Y-83641071D01*
X127907142Y-83669642D01*
X127869047Y-83698214D01*
X127830952Y-83755357D01*
X127792857Y-83869642D01*
X127754761Y-83926785D01*
X127716666Y-83955357D01*
X127640476Y-83983928D01*
X127564285Y-83983928D01*
X127488095Y-83955357D01*
X127450000Y-83926785D01*
X127411904Y-83869642D01*
X127411904Y-83726785D01*
X127450000Y-83641071D01*
X128211904Y-83383928D02*
X127411904Y-83383928D01*
X127792857Y-83383928D02*
X127792857Y-83041071D01*
X128211904Y-83041071D02*
X127411904Y-83041071D01*
X128135714Y-82412500D02*
X128173809Y-82441071D01*
X128211904Y-82526785D01*
X128211904Y-82583928D01*
X128173809Y-82669642D01*
X128097619Y-82726785D01*
X128021428Y-82755357D01*
X127869047Y-82783928D01*
X127754761Y-82783928D01*
X127602380Y-82755357D01*
X127526190Y-82726785D01*
X127450000Y-82669642D01*
X127411904Y-82583928D01*
X127411904Y-82526785D01*
X127450000Y-82441071D01*
X127488095Y-82412500D01*
X127411904Y-82212500D02*
X127411904Y-81841071D01*
X127716666Y-82041071D01*
X127716666Y-81955357D01*
X127754761Y-81898214D01*
X127792857Y-81869642D01*
X127869047Y-81841071D01*
X128059523Y-81841071D01*
X128135714Y-81869642D01*
X128173809Y-81898214D01*
X128211904Y-81955357D01*
X128211904Y-82126785D01*
X128173809Y-82183928D01*
X128135714Y-82212500D01*
%TO.C,R22*%
X122983285Y-105560164D02*
X122783285Y-105179212D01*
X122640428Y-105560164D02*
X122640428Y-104760164D01*
X122869000Y-104760164D01*
X122926142Y-104798260D01*
X122954714Y-104836355D01*
X122983285Y-104912545D01*
X122983285Y-105026831D01*
X122954714Y-105103021D01*
X122926142Y-105141117D01*
X122869000Y-105179212D01*
X122640428Y-105179212D01*
X123211857Y-104836355D02*
X123240428Y-104798260D01*
X123297571Y-104760164D01*
X123440428Y-104760164D01*
X123497571Y-104798260D01*
X123526142Y-104836355D01*
X123554714Y-104912545D01*
X123554714Y-104988736D01*
X123526142Y-105103021D01*
X123183285Y-105560164D01*
X123554714Y-105560164D01*
X123783285Y-104836355D02*
X123811857Y-104798260D01*
X123869000Y-104760164D01*
X124011857Y-104760164D01*
X124069000Y-104798260D01*
X124097571Y-104836355D01*
X124126142Y-104912545D01*
X124126142Y-104988736D01*
X124097571Y-105103021D01*
X123754714Y-105560164D01*
X124126142Y-105560164D01*
D11*
%TO.C,TP11*%
X70830904Y-103832640D02*
X71402333Y-103832640D01*
X71116619Y-104832640D02*
X71116619Y-103832640D01*
X71735666Y-104832640D02*
X71735666Y-103832640D01*
X72116619Y-103832640D01*
X72211857Y-103880260D01*
X72259476Y-103927879D01*
X72307095Y-104023117D01*
X72307095Y-104165974D01*
X72259476Y-104261212D01*
X72211857Y-104308831D01*
X72116619Y-104356450D01*
X71735666Y-104356450D01*
X73259476Y-104832640D02*
X72688047Y-104832640D01*
X72973761Y-104832640D02*
X72973761Y-103832640D01*
X72878523Y-103975498D01*
X72783285Y-104070736D01*
X72688047Y-104118355D01*
X74211857Y-104832640D02*
X73640428Y-104832640D01*
X73926142Y-104832640D02*
X73926142Y-103832640D01*
X73830904Y-103975498D01*
X73735666Y-104070736D01*
X73640428Y-104118355D01*
D12*
%TO.C,C29*%
X103933285Y-112313974D02*
X103904714Y-112352069D01*
X103819000Y-112390164D01*
X103761857Y-112390164D01*
X103676142Y-112352069D01*
X103619000Y-112275879D01*
X103590428Y-112199688D01*
X103561857Y-112047307D01*
X103561857Y-111933021D01*
X103590428Y-111780640D01*
X103619000Y-111704450D01*
X103676142Y-111628260D01*
X103761857Y-111590164D01*
X103819000Y-111590164D01*
X103904714Y-111628260D01*
X103933285Y-111666355D01*
X104161857Y-111666355D02*
X104190428Y-111628260D01*
X104247571Y-111590164D01*
X104390428Y-111590164D01*
X104447571Y-111628260D01*
X104476142Y-111666355D01*
X104504714Y-111742545D01*
X104504714Y-111818736D01*
X104476142Y-111933021D01*
X104133285Y-112390164D01*
X104504714Y-112390164D01*
X104790428Y-112390164D02*
X104904714Y-112390164D01*
X104961857Y-112352069D01*
X104990428Y-112313974D01*
X105047571Y-112199688D01*
X105076142Y-112047307D01*
X105076142Y-111742545D01*
X105047571Y-111666355D01*
X105019000Y-111628260D01*
X104961857Y-111590164D01*
X104847571Y-111590164D01*
X104790428Y-111628260D01*
X104761857Y-111666355D01*
X104733285Y-111742545D01*
X104733285Y-111933021D01*
X104761857Y-112009212D01*
X104790428Y-112047307D01*
X104847571Y-112085402D01*
X104961857Y-112085402D01*
X105019000Y-112047307D01*
X105047571Y-112009212D01*
X105076142Y-111933021D01*
%TO.C,R14*%
X147561904Y-85885714D02*
X147180952Y-86085714D01*
X147561904Y-86228571D02*
X146761904Y-86228571D01*
X146761904Y-86000000D01*
X146800000Y-85942857D01*
X146838095Y-85914285D01*
X146914285Y-85885714D01*
X147028571Y-85885714D01*
X147104761Y-85914285D01*
X147142857Y-85942857D01*
X147180952Y-86000000D01*
X147180952Y-86228571D01*
X147561904Y-85314285D02*
X147561904Y-85657142D01*
X147561904Y-85485714D02*
X146761904Y-85485714D01*
X146876190Y-85542857D01*
X146952380Y-85600000D01*
X146990476Y-85657142D01*
X147028571Y-84800000D02*
X147561904Y-84800000D01*
X146723809Y-84942857D02*
X147295238Y-85085714D01*
X147295238Y-84714285D01*
%TO.C,RN2*%
X114654714Y-116640164D02*
X114454714Y-116259212D01*
X114311857Y-116640164D02*
X114311857Y-115840164D01*
X114540428Y-115840164D01*
X114597571Y-115878260D01*
X114626142Y-115916355D01*
X114654714Y-115992545D01*
X114654714Y-116106831D01*
X114626142Y-116183021D01*
X114597571Y-116221117D01*
X114540428Y-116259212D01*
X114311857Y-116259212D01*
X114911857Y-116640164D02*
X114911857Y-115840164D01*
X115254714Y-116640164D01*
X115254714Y-115840164D01*
X115511857Y-115916355D02*
X115540428Y-115878260D01*
X115597571Y-115840164D01*
X115740428Y-115840164D01*
X115797571Y-115878260D01*
X115826142Y-115916355D01*
X115854714Y-115992545D01*
X115854714Y-116068736D01*
X115826142Y-116183021D01*
X115483285Y-116640164D01*
X115854714Y-116640164D01*
%TO.C,C6*%
X149504714Y-111337680D02*
X149542809Y-111366251D01*
X149580904Y-111451965D01*
X149580904Y-111509108D01*
X149542809Y-111594822D01*
X149466619Y-111651965D01*
X149390428Y-111680537D01*
X149238047Y-111709108D01*
X149123761Y-111709108D01*
X148971380Y-111680537D01*
X148895190Y-111651965D01*
X148819000Y-111594822D01*
X148780904Y-111509108D01*
X148780904Y-111451965D01*
X148819000Y-111366251D01*
X148857095Y-111337680D01*
X148780904Y-110823394D02*
X148780904Y-110937680D01*
X148819000Y-110994822D01*
X148857095Y-111023394D01*
X148971380Y-111080537D01*
X149123761Y-111109108D01*
X149428523Y-111109108D01*
X149504714Y-111080537D01*
X149542809Y-111051965D01*
X149580904Y-110994822D01*
X149580904Y-110880537D01*
X149542809Y-110823394D01*
X149504714Y-110794822D01*
X149428523Y-110766251D01*
X149238047Y-110766251D01*
X149161857Y-110794822D01*
X149123761Y-110823394D01*
X149085666Y-110880537D01*
X149085666Y-110994822D01*
X149123761Y-111051965D01*
X149161857Y-111080537D01*
X149238047Y-111109108D01*
%TO.C,R29*%
X111183285Y-111390164D02*
X110983285Y-111009212D01*
X110840428Y-111390164D02*
X110840428Y-110590164D01*
X111069000Y-110590164D01*
X111126142Y-110628260D01*
X111154714Y-110666355D01*
X111183285Y-110742545D01*
X111183285Y-110856831D01*
X111154714Y-110933021D01*
X111126142Y-110971117D01*
X111069000Y-111009212D01*
X110840428Y-111009212D01*
X111411857Y-110666355D02*
X111440428Y-110628260D01*
X111497571Y-110590164D01*
X111640428Y-110590164D01*
X111697571Y-110628260D01*
X111726142Y-110666355D01*
X111754714Y-110742545D01*
X111754714Y-110818736D01*
X111726142Y-110933021D01*
X111383285Y-111390164D01*
X111754714Y-111390164D01*
X112040428Y-111390164D02*
X112154714Y-111390164D01*
X112211857Y-111352069D01*
X112240428Y-111313974D01*
X112297571Y-111199688D01*
X112326142Y-111047307D01*
X112326142Y-110742545D01*
X112297571Y-110666355D01*
X112269000Y-110628260D01*
X112211857Y-110590164D01*
X112097571Y-110590164D01*
X112040428Y-110628260D01*
X112011857Y-110666355D01*
X111983285Y-110742545D01*
X111983285Y-110933021D01*
X112011857Y-111009212D01*
X112040428Y-111047307D01*
X112097571Y-111085402D01*
X112211857Y-111085402D01*
X112269000Y-111047307D01*
X112297571Y-111009212D01*
X112326142Y-110933021D01*
%TO.C,R34*%
X124700904Y-102213974D02*
X124319952Y-102413974D01*
X124700904Y-102556831D02*
X123900904Y-102556831D01*
X123900904Y-102328260D01*
X123939000Y-102271117D01*
X123977095Y-102242545D01*
X124053285Y-102213974D01*
X124167571Y-102213974D01*
X124243761Y-102242545D01*
X124281857Y-102271117D01*
X124319952Y-102328260D01*
X124319952Y-102556831D01*
X123900904Y-102013974D02*
X123900904Y-101642545D01*
X124205666Y-101842545D01*
X124205666Y-101756831D01*
X124243761Y-101699688D01*
X124281857Y-101671117D01*
X124358047Y-101642545D01*
X124548523Y-101642545D01*
X124624714Y-101671117D01*
X124662809Y-101699688D01*
X124700904Y-101756831D01*
X124700904Y-101928260D01*
X124662809Y-101985402D01*
X124624714Y-102013974D01*
X124167571Y-101128260D02*
X124700904Y-101128260D01*
X123862809Y-101271117D02*
X124434238Y-101413974D01*
X124434238Y-101042545D01*
%TO.C,SHA1*%
X59356277Y-82298341D02*
X59322605Y-82210795D01*
X59221590Y-82109780D01*
X59154247Y-82096311D01*
X59107106Y-82103045D01*
X59033028Y-82136717D01*
X58979154Y-82190592D01*
X58945482Y-82264670D01*
X58938748Y-82311810D01*
X58952216Y-82379154D01*
X59006091Y-82486903D01*
X59019560Y-82554247D01*
X59012825Y-82601387D01*
X58979154Y-82675465D01*
X58925279Y-82729340D01*
X58851201Y-82763012D01*
X58804061Y-82769746D01*
X58736717Y-82756277D01*
X58635702Y-82655262D01*
X58602030Y-82567715D01*
X58958951Y-81847140D02*
X58393265Y-82412825D01*
X58662639Y-82143451D02*
X58420203Y-81901015D01*
X58716514Y-81604703D02*
X58150829Y-82170389D01*
X58373062Y-81584500D02*
X58171032Y-81382470D01*
X58575093Y-81463282D02*
X57867986Y-81887546D01*
X58292250Y-81180439D01*
X57928595Y-80816784D02*
X58171032Y-81059221D01*
X58049813Y-80938003D02*
X57484128Y-81503688D01*
X57605346Y-81463282D01*
X57699627Y-81449813D01*
X57766971Y-81463282D01*
%TO.C,C18*%
X112785714Y-102385714D02*
X112823809Y-102414285D01*
X112861904Y-102500000D01*
X112861904Y-102557142D01*
X112823809Y-102642857D01*
X112747619Y-102700000D01*
X112671428Y-102728571D01*
X112519047Y-102757142D01*
X112404761Y-102757142D01*
X112252380Y-102728571D01*
X112176190Y-102700000D01*
X112100000Y-102642857D01*
X112061904Y-102557142D01*
X112061904Y-102500000D01*
X112100000Y-102414285D01*
X112138095Y-102385714D01*
X112861904Y-101814285D02*
X112861904Y-102157142D01*
X112861904Y-101985714D02*
X112061904Y-101985714D01*
X112176190Y-102042857D01*
X112252380Y-102100000D01*
X112290476Y-102157142D01*
X112404761Y-101471428D02*
X112366666Y-101528571D01*
X112328571Y-101557142D01*
X112252380Y-101585714D01*
X112214285Y-101585714D01*
X112138095Y-101557142D01*
X112100000Y-101528571D01*
X112061904Y-101471428D01*
X112061904Y-101357142D01*
X112100000Y-101300000D01*
X112138095Y-101271428D01*
X112214285Y-101242857D01*
X112252380Y-101242857D01*
X112328571Y-101271428D01*
X112366666Y-101300000D01*
X112404761Y-101357142D01*
X112404761Y-101471428D01*
X112442857Y-101528571D01*
X112480952Y-101557142D01*
X112557142Y-101585714D01*
X112709523Y-101585714D01*
X112785714Y-101557142D01*
X112823809Y-101528571D01*
X112861904Y-101471428D01*
X112861904Y-101357142D01*
X112823809Y-101300000D01*
X112785714Y-101271428D01*
X112709523Y-101242857D01*
X112557142Y-101242857D01*
X112480952Y-101271428D01*
X112442857Y-101300000D01*
X112404761Y-101357142D01*
%TO.C,CS3*%
X147654285Y-83155714D02*
X147625714Y-83193809D01*
X147540000Y-83231904D01*
X147482857Y-83231904D01*
X147397142Y-83193809D01*
X147340000Y-83117619D01*
X147311428Y-83041428D01*
X147282857Y-82889047D01*
X147282857Y-82774761D01*
X147311428Y-82622380D01*
X147340000Y-82546190D01*
X147397142Y-82470000D01*
X147482857Y-82431904D01*
X147540000Y-82431904D01*
X147625714Y-82470000D01*
X147654285Y-82508095D01*
X147882857Y-83193809D02*
X147968571Y-83231904D01*
X148111428Y-83231904D01*
X148168571Y-83193809D01*
X148197142Y-83155714D01*
X148225714Y-83079523D01*
X148225714Y-83003333D01*
X148197142Y-82927142D01*
X148168571Y-82889047D01*
X148111428Y-82850952D01*
X147997142Y-82812857D01*
X147940000Y-82774761D01*
X147911428Y-82736666D01*
X147882857Y-82660476D01*
X147882857Y-82584285D01*
X147911428Y-82508095D01*
X147940000Y-82470000D01*
X147997142Y-82431904D01*
X148140000Y-82431904D01*
X148225714Y-82470000D01*
X148425714Y-82431904D02*
X148797142Y-82431904D01*
X148597142Y-82736666D01*
X148682857Y-82736666D01*
X148740000Y-82774761D01*
X148768571Y-82812857D01*
X148797142Y-82889047D01*
X148797142Y-83079523D01*
X148768571Y-83155714D01*
X148740000Y-83193809D01*
X148682857Y-83231904D01*
X148511428Y-83231904D01*
X148454285Y-83193809D01*
X148425714Y-83155714D01*
%TO.C,R48*%
X61114285Y-80291904D02*
X60914285Y-79910952D01*
X60771428Y-80291904D02*
X60771428Y-79491904D01*
X61000000Y-79491904D01*
X61057142Y-79530000D01*
X61085714Y-79568095D01*
X61114285Y-79644285D01*
X61114285Y-79758571D01*
X61085714Y-79834761D01*
X61057142Y-79872857D01*
X61000000Y-79910952D01*
X60771428Y-79910952D01*
X61628571Y-79758571D02*
X61628571Y-80291904D01*
X61485714Y-79453809D02*
X61342857Y-80025238D01*
X61714285Y-80025238D01*
X62028571Y-79834761D02*
X61971428Y-79796666D01*
X61942857Y-79758571D01*
X61914285Y-79682380D01*
X61914285Y-79644285D01*
X61942857Y-79568095D01*
X61971428Y-79530000D01*
X62028571Y-79491904D01*
X62142857Y-79491904D01*
X62200000Y-79530000D01*
X62228571Y-79568095D01*
X62257142Y-79644285D01*
X62257142Y-79682380D01*
X62228571Y-79758571D01*
X62200000Y-79796666D01*
X62142857Y-79834761D01*
X62028571Y-79834761D01*
X61971428Y-79872857D01*
X61942857Y-79910952D01*
X61914285Y-79987142D01*
X61914285Y-80139523D01*
X61942857Y-80215714D01*
X61971428Y-80253809D01*
X62028571Y-80291904D01*
X62142857Y-80291904D01*
X62200000Y-80253809D01*
X62228571Y-80215714D01*
X62257142Y-80139523D01*
X62257142Y-79987142D01*
X62228571Y-79910952D01*
X62200000Y-79872857D01*
X62142857Y-79834761D01*
%TO.C,RN3*%
X137180904Y-111742545D02*
X136799952Y-111942545D01*
X137180904Y-112085402D02*
X136380904Y-112085402D01*
X136380904Y-111856831D01*
X136419000Y-111799688D01*
X136457095Y-111771117D01*
X136533285Y-111742545D01*
X136647571Y-111742545D01*
X136723761Y-111771117D01*
X136761857Y-111799688D01*
X136799952Y-111856831D01*
X136799952Y-112085402D01*
X137180904Y-111485402D02*
X136380904Y-111485402D01*
X137180904Y-111142545D01*
X136380904Y-111142545D01*
X136380904Y-110913974D02*
X136380904Y-110542545D01*
X136685666Y-110742545D01*
X136685666Y-110656831D01*
X136723761Y-110599688D01*
X136761857Y-110571117D01*
X136838047Y-110542545D01*
X137028523Y-110542545D01*
X137104714Y-110571117D01*
X137142809Y-110599688D01*
X137180904Y-110656831D01*
X137180904Y-110828260D01*
X137142809Y-110885402D01*
X137104714Y-110913974D01*
%TO.C,R50*%
X104214285Y-80161904D02*
X104014285Y-79780952D01*
X103871428Y-80161904D02*
X103871428Y-79361904D01*
X104100000Y-79361904D01*
X104157142Y-79400000D01*
X104185714Y-79438095D01*
X104214285Y-79514285D01*
X104214285Y-79628571D01*
X104185714Y-79704761D01*
X104157142Y-79742857D01*
X104100000Y-79780952D01*
X103871428Y-79780952D01*
X104757142Y-79361904D02*
X104471428Y-79361904D01*
X104442857Y-79742857D01*
X104471428Y-79704761D01*
X104528571Y-79666666D01*
X104671428Y-79666666D01*
X104728571Y-79704761D01*
X104757142Y-79742857D01*
X104785714Y-79819047D01*
X104785714Y-80009523D01*
X104757142Y-80085714D01*
X104728571Y-80123809D01*
X104671428Y-80161904D01*
X104528571Y-80161904D01*
X104471428Y-80123809D01*
X104442857Y-80085714D01*
X105157142Y-79361904D02*
X105214285Y-79361904D01*
X105271428Y-79400000D01*
X105300000Y-79438095D01*
X105328571Y-79514285D01*
X105357142Y-79666666D01*
X105357142Y-79857142D01*
X105328571Y-80009523D01*
X105300000Y-80085714D01*
X105271428Y-80123809D01*
X105214285Y-80161904D01*
X105157142Y-80161904D01*
X105100000Y-80123809D01*
X105071428Y-80085714D01*
X105042857Y-80009523D01*
X105014285Y-79857142D01*
X105014285Y-79666666D01*
X105042857Y-79514285D01*
X105071428Y-79438095D01*
X105100000Y-79400000D01*
X105157142Y-79361904D01*
D11*
%TO.C,TP9*%
X126738095Y-76204380D02*
X127309523Y-76204380D01*
X127023809Y-77204380D02*
X127023809Y-76204380D01*
X127642857Y-77204380D02*
X127642857Y-76204380D01*
X128023809Y-76204380D01*
X128119047Y-76252000D01*
X128166666Y-76299619D01*
X128214285Y-76394857D01*
X128214285Y-76537714D01*
X128166666Y-76632952D01*
X128119047Y-76680571D01*
X128023809Y-76728190D01*
X127642857Y-76728190D01*
X128690476Y-77204380D02*
X128880952Y-77204380D01*
X128976190Y-77156761D01*
X129023809Y-77109142D01*
X129119047Y-76966285D01*
X129166666Y-76775809D01*
X129166666Y-76394857D01*
X129119047Y-76299619D01*
X129071428Y-76252000D01*
X128976190Y-76204380D01*
X128785714Y-76204380D01*
X128690476Y-76252000D01*
X128642857Y-76299619D01*
X128595238Y-76394857D01*
X128595238Y-76632952D01*
X128642857Y-76728190D01*
X128690476Y-76775809D01*
X128785714Y-76823428D01*
X128976190Y-76823428D01*
X129071428Y-76775809D01*
X129119047Y-76728190D01*
X129166666Y-76632952D01*
D12*
%TO.C,R16*%
X102450904Y-104163974D02*
X102069952Y-104363974D01*
X102450904Y-104506831D02*
X101650904Y-104506831D01*
X101650904Y-104278260D01*
X101689000Y-104221117D01*
X101727095Y-104192545D01*
X101803285Y-104163974D01*
X101917571Y-104163974D01*
X101993761Y-104192545D01*
X102031857Y-104221117D01*
X102069952Y-104278260D01*
X102069952Y-104506831D01*
X102450904Y-103592545D02*
X102450904Y-103935402D01*
X102450904Y-103763974D02*
X101650904Y-103763974D01*
X101765190Y-103821117D01*
X101841380Y-103878260D01*
X101879476Y-103935402D01*
X101650904Y-103078260D02*
X101650904Y-103192545D01*
X101689000Y-103249688D01*
X101727095Y-103278260D01*
X101841380Y-103335402D01*
X101993761Y-103363974D01*
X102298523Y-103363974D01*
X102374714Y-103335402D01*
X102412809Y-103306831D01*
X102450904Y-103249688D01*
X102450904Y-103135402D01*
X102412809Y-103078260D01*
X102374714Y-103049688D01*
X102298523Y-103021117D01*
X102108047Y-103021117D01*
X102031857Y-103049688D01*
X101993761Y-103078260D01*
X101955666Y-103135402D01*
X101955666Y-103249688D01*
X101993761Y-103306831D01*
X102031857Y-103335402D01*
X102108047Y-103363974D01*
D11*
%TO.C,PH5*%
X110988095Y-72004380D02*
X110988095Y-71004380D01*
X111369047Y-71004380D01*
X111464285Y-71052000D01*
X111511904Y-71099619D01*
X111559523Y-71194857D01*
X111559523Y-71337714D01*
X111511904Y-71432952D01*
X111464285Y-71480571D01*
X111369047Y-71528190D01*
X110988095Y-71528190D01*
X111988095Y-72004380D02*
X111988095Y-71004380D01*
X111988095Y-71480571D02*
X112559523Y-71480571D01*
X112559523Y-72004380D02*
X112559523Y-71004380D01*
X113511904Y-71004380D02*
X113035714Y-71004380D01*
X112988095Y-71480571D01*
X113035714Y-71432952D01*
X113130952Y-71385333D01*
X113369047Y-71385333D01*
X113464285Y-71432952D01*
X113511904Y-71480571D01*
X113559523Y-71575809D01*
X113559523Y-71813904D01*
X113511904Y-71909142D01*
X113464285Y-71956761D01*
X113369047Y-72004380D01*
X113130952Y-72004380D01*
X113035714Y-71956761D01*
X112988095Y-71909142D01*
D12*
%TO.C,R25*%
X106930904Y-101388974D02*
X106549952Y-101588974D01*
X106930904Y-101731831D02*
X106130904Y-101731831D01*
X106130904Y-101503260D01*
X106169000Y-101446117D01*
X106207095Y-101417545D01*
X106283285Y-101388974D01*
X106397571Y-101388974D01*
X106473761Y-101417545D01*
X106511857Y-101446117D01*
X106549952Y-101503260D01*
X106549952Y-101731831D01*
X106207095Y-101160402D02*
X106169000Y-101131831D01*
X106130904Y-101074688D01*
X106130904Y-100931831D01*
X106169000Y-100874688D01*
X106207095Y-100846117D01*
X106283285Y-100817545D01*
X106359476Y-100817545D01*
X106473761Y-100846117D01*
X106930904Y-101188974D01*
X106930904Y-100817545D01*
X106130904Y-100274688D02*
X106130904Y-100560402D01*
X106511857Y-100588974D01*
X106473761Y-100560402D01*
X106435666Y-100503260D01*
X106435666Y-100360402D01*
X106473761Y-100303260D01*
X106511857Y-100274688D01*
X106588047Y-100246117D01*
X106778523Y-100246117D01*
X106854714Y-100274688D01*
X106892809Y-100303260D01*
X106930904Y-100360402D01*
X106930904Y-100503260D01*
X106892809Y-100560402D01*
X106854714Y-100588974D01*
%TO.C,D5*%
X126126142Y-105890164D02*
X126126142Y-105090164D01*
X126269000Y-105090164D01*
X126354714Y-105128260D01*
X126411857Y-105204450D01*
X126440428Y-105280640D01*
X126469000Y-105433021D01*
X126469000Y-105547307D01*
X126440428Y-105699688D01*
X126411857Y-105775879D01*
X126354714Y-105852069D01*
X126269000Y-105890164D01*
X126126142Y-105890164D01*
X127011857Y-105090164D02*
X126726142Y-105090164D01*
X126697571Y-105471117D01*
X126726142Y-105433021D01*
X126783285Y-105394926D01*
X126926142Y-105394926D01*
X126983285Y-105433021D01*
X127011857Y-105471117D01*
X127040428Y-105547307D01*
X127040428Y-105737783D01*
X127011857Y-105813974D01*
X126983285Y-105852069D01*
X126926142Y-105890164D01*
X126783285Y-105890164D01*
X126726142Y-105852069D01*
X126697571Y-105813974D01*
%TO.C,R24*%
X105430904Y-101413974D02*
X105049952Y-101613974D01*
X105430904Y-101756831D02*
X104630904Y-101756831D01*
X104630904Y-101528260D01*
X104669000Y-101471117D01*
X104707095Y-101442545D01*
X104783285Y-101413974D01*
X104897571Y-101413974D01*
X104973761Y-101442545D01*
X105011857Y-101471117D01*
X105049952Y-101528260D01*
X105049952Y-101756831D01*
X104707095Y-101185402D02*
X104669000Y-101156831D01*
X104630904Y-101099688D01*
X104630904Y-100956831D01*
X104669000Y-100899688D01*
X104707095Y-100871117D01*
X104783285Y-100842545D01*
X104859476Y-100842545D01*
X104973761Y-100871117D01*
X105430904Y-101213974D01*
X105430904Y-100842545D01*
X104897571Y-100328260D02*
X105430904Y-100328260D01*
X104592809Y-100471117D02*
X105164238Y-100613974D01*
X105164238Y-100242545D01*
%TO.C,R5*%
X99006500Y-112790164D02*
X98806500Y-112409212D01*
X98663642Y-112790164D02*
X98663642Y-111990164D01*
X98892214Y-111990164D01*
X98949357Y-112028260D01*
X98977928Y-112066355D01*
X99006500Y-112142545D01*
X99006500Y-112256831D01*
X98977928Y-112333021D01*
X98949357Y-112371117D01*
X98892214Y-112409212D01*
X98663642Y-112409212D01*
X99549357Y-111990164D02*
X99263642Y-111990164D01*
X99235071Y-112371117D01*
X99263642Y-112333021D01*
X99320785Y-112294926D01*
X99463642Y-112294926D01*
X99520785Y-112333021D01*
X99549357Y-112371117D01*
X99577928Y-112447307D01*
X99577928Y-112637783D01*
X99549357Y-112713974D01*
X99520785Y-112752069D01*
X99463642Y-112790164D01*
X99320785Y-112790164D01*
X99263642Y-112752069D01*
X99235071Y-112713974D01*
%TO.C,SW1*%
X51223809Y-79900000D02*
X51261904Y-79814285D01*
X51261904Y-79671428D01*
X51223809Y-79614285D01*
X51185714Y-79585714D01*
X51109523Y-79557142D01*
X51033333Y-79557142D01*
X50957142Y-79585714D01*
X50919047Y-79614285D01*
X50880952Y-79671428D01*
X50842857Y-79785714D01*
X50804761Y-79842857D01*
X50766666Y-79871428D01*
X50690476Y-79900000D01*
X50614285Y-79900000D01*
X50538095Y-79871428D01*
X50500000Y-79842857D01*
X50461904Y-79785714D01*
X50461904Y-79642857D01*
X50500000Y-79557142D01*
X50461904Y-79357142D02*
X51261904Y-79214285D01*
X50690476Y-79100000D01*
X51261904Y-78985714D01*
X50461904Y-78842857D01*
X51261904Y-78300000D02*
X51261904Y-78642857D01*
X51261904Y-78471428D02*
X50461904Y-78471428D01*
X50576190Y-78528571D01*
X50652380Y-78585714D01*
X50690476Y-78642857D01*
%TO.C,R2*%
X133180904Y-107628260D02*
X132799952Y-107828260D01*
X133180904Y-107971117D02*
X132380904Y-107971117D01*
X132380904Y-107742545D01*
X132419000Y-107685402D01*
X132457095Y-107656831D01*
X132533285Y-107628260D01*
X132647571Y-107628260D01*
X132723761Y-107656831D01*
X132761857Y-107685402D01*
X132799952Y-107742545D01*
X132799952Y-107971117D01*
X132457095Y-107399688D02*
X132419000Y-107371117D01*
X132380904Y-107313974D01*
X132380904Y-107171117D01*
X132419000Y-107113974D01*
X132457095Y-107085402D01*
X132533285Y-107056831D01*
X132609476Y-107056831D01*
X132723761Y-107085402D01*
X133180904Y-107428260D01*
X133180904Y-107056831D01*
%TO.C,RN1*%
X143680904Y-111442545D02*
X143299952Y-111642545D01*
X143680904Y-111785402D02*
X142880904Y-111785402D01*
X142880904Y-111556831D01*
X142919000Y-111499688D01*
X142957095Y-111471117D01*
X143033285Y-111442545D01*
X143147571Y-111442545D01*
X143223761Y-111471117D01*
X143261857Y-111499688D01*
X143299952Y-111556831D01*
X143299952Y-111785402D01*
X143680904Y-111185402D02*
X142880904Y-111185402D01*
X143680904Y-110842545D01*
X142880904Y-110842545D01*
X143680904Y-110242545D02*
X143680904Y-110585402D01*
X143680904Y-110413974D02*
X142880904Y-110413974D01*
X142995190Y-110471117D01*
X143071380Y-110528260D01*
X143109476Y-110585402D01*
%TO.C,R31*%
X120000904Y-106213974D02*
X119619952Y-106413974D01*
X120000904Y-106556831D02*
X119200904Y-106556831D01*
X119200904Y-106328260D01*
X119239000Y-106271117D01*
X119277095Y-106242545D01*
X119353285Y-106213974D01*
X119467571Y-106213974D01*
X119543761Y-106242545D01*
X119581857Y-106271117D01*
X119619952Y-106328260D01*
X119619952Y-106556831D01*
X119200904Y-106013974D02*
X119200904Y-105642545D01*
X119505666Y-105842545D01*
X119505666Y-105756831D01*
X119543761Y-105699688D01*
X119581857Y-105671117D01*
X119658047Y-105642545D01*
X119848523Y-105642545D01*
X119924714Y-105671117D01*
X119962809Y-105699688D01*
X120000904Y-105756831D01*
X120000904Y-105928260D01*
X119962809Y-105985402D01*
X119924714Y-106013974D01*
X120000904Y-105071117D02*
X120000904Y-105413974D01*
X120000904Y-105242545D02*
X119200904Y-105242545D01*
X119315190Y-105299688D01*
X119391380Y-105356831D01*
X119429476Y-105413974D01*
%TO.C,C15*%
X141854714Y-105413974D02*
X141892809Y-105442545D01*
X141930904Y-105528260D01*
X141930904Y-105585402D01*
X141892809Y-105671117D01*
X141816619Y-105728260D01*
X141740428Y-105756831D01*
X141588047Y-105785402D01*
X141473761Y-105785402D01*
X141321380Y-105756831D01*
X141245190Y-105728260D01*
X141169000Y-105671117D01*
X141130904Y-105585402D01*
X141130904Y-105528260D01*
X141169000Y-105442545D01*
X141207095Y-105413974D01*
X141930904Y-104842545D02*
X141930904Y-105185402D01*
X141930904Y-105013974D02*
X141130904Y-105013974D01*
X141245190Y-105071117D01*
X141321380Y-105128260D01*
X141359476Y-105185402D01*
X141130904Y-104299688D02*
X141130904Y-104585402D01*
X141511857Y-104613974D01*
X141473761Y-104585402D01*
X141435666Y-104528260D01*
X141435666Y-104385402D01*
X141473761Y-104328260D01*
X141511857Y-104299688D01*
X141588047Y-104271117D01*
X141778523Y-104271117D01*
X141854714Y-104299688D01*
X141892809Y-104328260D01*
X141930904Y-104385402D01*
X141930904Y-104528260D01*
X141892809Y-104585402D01*
X141854714Y-104613974D01*
%TO.C,SHA3*%
X61703809Y-84528571D02*
X61741904Y-84442857D01*
X61741904Y-84300000D01*
X61703809Y-84242857D01*
X61665714Y-84214285D01*
X61589523Y-84185714D01*
X61513333Y-84185714D01*
X61437142Y-84214285D01*
X61399047Y-84242857D01*
X61360952Y-84300000D01*
X61322857Y-84414285D01*
X61284761Y-84471428D01*
X61246666Y-84500000D01*
X61170476Y-84528571D01*
X61094285Y-84528571D01*
X61018095Y-84500000D01*
X60980000Y-84471428D01*
X60941904Y-84414285D01*
X60941904Y-84271428D01*
X60980000Y-84185714D01*
X61741904Y-83928571D02*
X60941904Y-83928571D01*
X61322857Y-83928571D02*
X61322857Y-83585714D01*
X61741904Y-83585714D02*
X60941904Y-83585714D01*
X61513333Y-83328571D02*
X61513333Y-83042857D01*
X61741904Y-83385714D02*
X60941904Y-83185714D01*
X61741904Y-82985714D01*
X60941904Y-82842857D02*
X60941904Y-82471428D01*
X61246666Y-82671428D01*
X61246666Y-82585714D01*
X61284761Y-82528571D01*
X61322857Y-82500000D01*
X61399047Y-82471428D01*
X61589523Y-82471428D01*
X61665714Y-82500000D01*
X61703809Y-82528571D01*
X61741904Y-82585714D01*
X61741904Y-82757142D01*
X61703809Y-82814285D01*
X61665714Y-82842857D01*
%TO.C,CX14*%
X118035714Y-71671428D02*
X118073809Y-71700000D01*
X118111904Y-71785714D01*
X118111904Y-71842857D01*
X118073809Y-71928571D01*
X117997619Y-71985714D01*
X117921428Y-72014285D01*
X117769047Y-72042857D01*
X117654761Y-72042857D01*
X117502380Y-72014285D01*
X117426190Y-71985714D01*
X117350000Y-71928571D01*
X117311904Y-71842857D01*
X117311904Y-71785714D01*
X117350000Y-71700000D01*
X117388095Y-71671428D01*
X117311904Y-71471428D02*
X118111904Y-71071428D01*
X117311904Y-71071428D02*
X118111904Y-71471428D01*
X118111904Y-70528571D02*
X118111904Y-70871428D01*
X118111904Y-70700000D02*
X117311904Y-70700000D01*
X117426190Y-70757142D01*
X117502380Y-70814285D01*
X117540476Y-70871428D01*
X117578571Y-70014285D02*
X118111904Y-70014285D01*
X117273809Y-70157142D02*
X117845238Y-70300000D01*
X117845238Y-69928571D01*
%TO.C,CS1*%
X79614285Y-82965714D02*
X79585714Y-83003809D01*
X79500000Y-83041904D01*
X79442857Y-83041904D01*
X79357142Y-83003809D01*
X79300000Y-82927619D01*
X79271428Y-82851428D01*
X79242857Y-82699047D01*
X79242857Y-82584761D01*
X79271428Y-82432380D01*
X79300000Y-82356190D01*
X79357142Y-82280000D01*
X79442857Y-82241904D01*
X79500000Y-82241904D01*
X79585714Y-82280000D01*
X79614285Y-82318095D01*
X79842857Y-83003809D02*
X79928571Y-83041904D01*
X80071428Y-83041904D01*
X80128571Y-83003809D01*
X80157142Y-82965714D01*
X80185714Y-82889523D01*
X80185714Y-82813333D01*
X80157142Y-82737142D01*
X80128571Y-82699047D01*
X80071428Y-82660952D01*
X79957142Y-82622857D01*
X79900000Y-82584761D01*
X79871428Y-82546666D01*
X79842857Y-82470476D01*
X79842857Y-82394285D01*
X79871428Y-82318095D01*
X79900000Y-82280000D01*
X79957142Y-82241904D01*
X80100000Y-82241904D01*
X80185714Y-82280000D01*
X80757142Y-83041904D02*
X80414285Y-83041904D01*
X80585714Y-83041904D02*
X80585714Y-82241904D01*
X80528571Y-82356190D01*
X80471428Y-82432380D01*
X80414285Y-82470476D01*
D11*
%TO.C,TP3*%
X91023380Y-102290164D02*
X91023380Y-101718736D01*
X92023380Y-102004450D02*
X91023380Y-102004450D01*
X92023380Y-101385402D02*
X91023380Y-101385402D01*
X91023380Y-101004450D01*
X91071000Y-100909212D01*
X91118619Y-100861593D01*
X91213857Y-100813974D01*
X91356714Y-100813974D01*
X91451952Y-100861593D01*
X91499571Y-100909212D01*
X91547190Y-101004450D01*
X91547190Y-101385402D01*
X91023380Y-100480640D02*
X91023380Y-99861593D01*
X91404333Y-100194926D01*
X91404333Y-100052069D01*
X91451952Y-99956831D01*
X91499571Y-99909212D01*
X91594809Y-99861593D01*
X91832904Y-99861593D01*
X91928142Y-99909212D01*
X91975761Y-99956831D01*
X92023380Y-100052069D01*
X92023380Y-100337783D01*
X91975761Y-100433021D01*
X91928142Y-100480640D01*
D12*
%TO.C,R19*%
X126683285Y-111140164D02*
X126483285Y-110759212D01*
X126340428Y-111140164D02*
X126340428Y-110340164D01*
X126569000Y-110340164D01*
X126626142Y-110378260D01*
X126654714Y-110416355D01*
X126683285Y-110492545D01*
X126683285Y-110606831D01*
X126654714Y-110683021D01*
X126626142Y-110721117D01*
X126569000Y-110759212D01*
X126340428Y-110759212D01*
X127254714Y-111140164D02*
X126911857Y-111140164D01*
X127083285Y-111140164D02*
X127083285Y-110340164D01*
X127026142Y-110454450D01*
X126969000Y-110530640D01*
X126911857Y-110568736D01*
X127540428Y-111140164D02*
X127654714Y-111140164D01*
X127711857Y-111102069D01*
X127740428Y-111063974D01*
X127797571Y-110949688D01*
X127826142Y-110797307D01*
X127826142Y-110492545D01*
X127797571Y-110416355D01*
X127769000Y-110378260D01*
X127711857Y-110340164D01*
X127597571Y-110340164D01*
X127540428Y-110378260D01*
X127511857Y-110416355D01*
X127483285Y-110492545D01*
X127483285Y-110683021D01*
X127511857Y-110759212D01*
X127540428Y-110797307D01*
X127597571Y-110835402D01*
X127711857Y-110835402D01*
X127769000Y-110797307D01*
X127797571Y-110759212D01*
X127826142Y-110683021D01*
%TO.C,R6*%
X102206500Y-112370164D02*
X102006500Y-111989212D01*
X101863642Y-112370164D02*
X101863642Y-111570164D01*
X102092214Y-111570164D01*
X102149357Y-111608260D01*
X102177928Y-111646355D01*
X102206500Y-111722545D01*
X102206500Y-111836831D01*
X102177928Y-111913021D01*
X102149357Y-111951117D01*
X102092214Y-111989212D01*
X101863642Y-111989212D01*
X102720785Y-111570164D02*
X102606500Y-111570164D01*
X102549357Y-111608260D01*
X102520785Y-111646355D01*
X102463642Y-111760640D01*
X102435071Y-111913021D01*
X102435071Y-112217783D01*
X102463642Y-112293974D01*
X102492214Y-112332069D01*
X102549357Y-112370164D01*
X102663642Y-112370164D01*
X102720785Y-112332069D01*
X102749357Y-112293974D01*
X102777928Y-112217783D01*
X102777928Y-112027307D01*
X102749357Y-111951117D01*
X102720785Y-111913021D01*
X102663642Y-111874926D01*
X102549357Y-111874926D01*
X102492214Y-111913021D01*
X102463642Y-111951117D01*
X102435071Y-112027307D01*
%TO.C,C14*%
X140354714Y-105663974D02*
X140392809Y-105692545D01*
X140430904Y-105778260D01*
X140430904Y-105835402D01*
X140392809Y-105921117D01*
X140316619Y-105978260D01*
X140240428Y-106006831D01*
X140088047Y-106035402D01*
X139973761Y-106035402D01*
X139821380Y-106006831D01*
X139745190Y-105978260D01*
X139669000Y-105921117D01*
X139630904Y-105835402D01*
X139630904Y-105778260D01*
X139669000Y-105692545D01*
X139707095Y-105663974D01*
X140430904Y-105092545D02*
X140430904Y-105435402D01*
X140430904Y-105263974D02*
X139630904Y-105263974D01*
X139745190Y-105321117D01*
X139821380Y-105378260D01*
X139859476Y-105435402D01*
X139897571Y-104578260D02*
X140430904Y-104578260D01*
X139592809Y-104721117D02*
X140164238Y-104863974D01*
X140164238Y-104492545D01*
%TO.C,RG6*%
X97430904Y-114728260D02*
X97049952Y-114928260D01*
X97430904Y-115071117D02*
X96630904Y-115071117D01*
X96630904Y-114842545D01*
X96669000Y-114785402D01*
X96707095Y-114756831D01*
X96783285Y-114728260D01*
X96897571Y-114728260D01*
X96973761Y-114756831D01*
X97011857Y-114785402D01*
X97049952Y-114842545D01*
X97049952Y-115071117D01*
X96669000Y-114156831D02*
X96630904Y-114213974D01*
X96630904Y-114299688D01*
X96669000Y-114385402D01*
X96745190Y-114442545D01*
X96821380Y-114471117D01*
X96973761Y-114499688D01*
X97088047Y-114499688D01*
X97240428Y-114471117D01*
X97316619Y-114442545D01*
X97392809Y-114385402D01*
X97430904Y-114299688D01*
X97430904Y-114242545D01*
X97392809Y-114156831D01*
X97354714Y-114128260D01*
X97088047Y-114128260D01*
X97088047Y-114242545D01*
X96630904Y-113613974D02*
X96630904Y-113728260D01*
X96669000Y-113785402D01*
X96707095Y-113813974D01*
X96821380Y-113871117D01*
X96973761Y-113899688D01*
X97278523Y-113899688D01*
X97354714Y-113871117D01*
X97392809Y-113842545D01*
X97430904Y-113785402D01*
X97430904Y-113671117D01*
X97392809Y-113613974D01*
X97354714Y-113585402D01*
X97278523Y-113556831D01*
X97088047Y-113556831D01*
X97011857Y-113585402D01*
X96973761Y-113613974D01*
X96935666Y-113671117D01*
X96935666Y-113785402D01*
X96973761Y-113842545D01*
X97011857Y-113871117D01*
X97088047Y-113899688D01*
%TO.C,C20*%
X121483285Y-107383974D02*
X121454714Y-107422069D01*
X121369000Y-107460164D01*
X121311857Y-107460164D01*
X121226142Y-107422069D01*
X121169000Y-107345879D01*
X121140428Y-107269688D01*
X121111857Y-107117307D01*
X121111857Y-107003021D01*
X121140428Y-106850640D01*
X121169000Y-106774450D01*
X121226142Y-106698260D01*
X121311857Y-106660164D01*
X121369000Y-106660164D01*
X121454714Y-106698260D01*
X121483285Y-106736355D01*
X121711857Y-106736355D02*
X121740428Y-106698260D01*
X121797571Y-106660164D01*
X121940428Y-106660164D01*
X121997571Y-106698260D01*
X122026142Y-106736355D01*
X122054714Y-106812545D01*
X122054714Y-106888736D01*
X122026142Y-107003021D01*
X121683285Y-107460164D01*
X122054714Y-107460164D01*
X122426142Y-106660164D02*
X122483285Y-106660164D01*
X122540428Y-106698260D01*
X122569000Y-106736355D01*
X122597571Y-106812545D01*
X122626142Y-106964926D01*
X122626142Y-107155402D01*
X122597571Y-107307783D01*
X122569000Y-107383974D01*
X122540428Y-107422069D01*
X122483285Y-107460164D01*
X122426142Y-107460164D01*
X122369000Y-107422069D01*
X122340428Y-107383974D01*
X122311857Y-107307783D01*
X122283285Y-107155402D01*
X122283285Y-106964926D01*
X122311857Y-106812545D01*
X122340428Y-106736355D01*
X122369000Y-106698260D01*
X122426142Y-106660164D01*
D11*
%TO.C,PH8*%
X122538095Y-72054380D02*
X122538095Y-71054380D01*
X122919047Y-71054380D01*
X123014285Y-71102000D01*
X123061904Y-71149619D01*
X123109523Y-71244857D01*
X123109523Y-71387714D01*
X123061904Y-71482952D01*
X123014285Y-71530571D01*
X122919047Y-71578190D01*
X122538095Y-71578190D01*
X123538095Y-72054380D02*
X123538095Y-71054380D01*
X123538095Y-71530571D02*
X124109523Y-71530571D01*
X124109523Y-72054380D02*
X124109523Y-71054380D01*
X124728571Y-71482952D02*
X124633333Y-71435333D01*
X124585714Y-71387714D01*
X124538095Y-71292476D01*
X124538095Y-71244857D01*
X124585714Y-71149619D01*
X124633333Y-71102000D01*
X124728571Y-71054380D01*
X124919047Y-71054380D01*
X125014285Y-71102000D01*
X125061904Y-71149619D01*
X125109523Y-71244857D01*
X125109523Y-71292476D01*
X125061904Y-71387714D01*
X125014285Y-71435333D01*
X124919047Y-71482952D01*
X124728571Y-71482952D01*
X124633333Y-71530571D01*
X124585714Y-71578190D01*
X124538095Y-71673428D01*
X124538095Y-71863904D01*
X124585714Y-71959142D01*
X124633333Y-72006761D01*
X124728571Y-72054380D01*
X124919047Y-72054380D01*
X125014285Y-72006761D01*
X125061904Y-71959142D01*
X125109523Y-71863904D01*
X125109523Y-71673428D01*
X125061904Y-71578190D01*
X125014285Y-71530571D01*
X124919047Y-71482952D01*
D12*
%TO.C,R52*%
X137714285Y-80161904D02*
X137514285Y-79780952D01*
X137371428Y-80161904D02*
X137371428Y-79361904D01*
X137600000Y-79361904D01*
X137657142Y-79400000D01*
X137685714Y-79438095D01*
X137714285Y-79514285D01*
X137714285Y-79628571D01*
X137685714Y-79704761D01*
X137657142Y-79742857D01*
X137600000Y-79780952D01*
X137371428Y-79780952D01*
X138257142Y-79361904D02*
X137971428Y-79361904D01*
X137942857Y-79742857D01*
X137971428Y-79704761D01*
X138028571Y-79666666D01*
X138171428Y-79666666D01*
X138228571Y-79704761D01*
X138257142Y-79742857D01*
X138285714Y-79819047D01*
X138285714Y-80009523D01*
X138257142Y-80085714D01*
X138228571Y-80123809D01*
X138171428Y-80161904D01*
X138028571Y-80161904D01*
X137971428Y-80123809D01*
X137942857Y-80085714D01*
X138514285Y-79438095D02*
X138542857Y-79400000D01*
X138600000Y-79361904D01*
X138742857Y-79361904D01*
X138800000Y-79400000D01*
X138828571Y-79438095D01*
X138857142Y-79514285D01*
X138857142Y-79590476D01*
X138828571Y-79704761D01*
X138485714Y-80161904D01*
X138857142Y-80161904D01*
%TO.C,J2*%
X118619000Y-121090164D02*
X118619000Y-121661593D01*
X118590428Y-121775879D01*
X118533285Y-121852069D01*
X118447571Y-121890164D01*
X118390428Y-121890164D01*
X118876142Y-121166355D02*
X118904714Y-121128260D01*
X118961857Y-121090164D01*
X119104714Y-121090164D01*
X119161857Y-121128260D01*
X119190428Y-121166355D01*
X119219000Y-121242545D01*
X119219000Y-121318736D01*
X119190428Y-121433021D01*
X118847571Y-121890164D01*
X119219000Y-121890164D01*
%TO.C,C17*%
X139854714Y-109663974D02*
X139892809Y-109692545D01*
X139930904Y-109778260D01*
X139930904Y-109835402D01*
X139892809Y-109921117D01*
X139816619Y-109978260D01*
X139740428Y-110006831D01*
X139588047Y-110035402D01*
X139473761Y-110035402D01*
X139321380Y-110006831D01*
X139245190Y-109978260D01*
X139169000Y-109921117D01*
X139130904Y-109835402D01*
X139130904Y-109778260D01*
X139169000Y-109692545D01*
X139207095Y-109663974D01*
X139930904Y-109092545D02*
X139930904Y-109435402D01*
X139930904Y-109263974D02*
X139130904Y-109263974D01*
X139245190Y-109321117D01*
X139321380Y-109378260D01*
X139359476Y-109435402D01*
X139130904Y-108892545D02*
X139130904Y-108492545D01*
X139930904Y-108749688D01*
%TO.C,U8*%
X54911857Y-109490164D02*
X54911857Y-110137783D01*
X54940428Y-110213974D01*
X54969000Y-110252069D01*
X55026142Y-110290164D01*
X55140428Y-110290164D01*
X55197571Y-110252069D01*
X55226142Y-110213974D01*
X55254714Y-110137783D01*
X55254714Y-109490164D01*
X55626142Y-109833021D02*
X55569000Y-109794926D01*
X55540428Y-109756831D01*
X55511857Y-109680640D01*
X55511857Y-109642545D01*
X55540428Y-109566355D01*
X55569000Y-109528260D01*
X55626142Y-109490164D01*
X55740428Y-109490164D01*
X55797571Y-109528260D01*
X55826142Y-109566355D01*
X55854714Y-109642545D01*
X55854714Y-109680640D01*
X55826142Y-109756831D01*
X55797571Y-109794926D01*
X55740428Y-109833021D01*
X55626142Y-109833021D01*
X55569000Y-109871117D01*
X55540428Y-109909212D01*
X55511857Y-109985402D01*
X55511857Y-110137783D01*
X55540428Y-110213974D01*
X55569000Y-110252069D01*
X55626142Y-110290164D01*
X55740428Y-110290164D01*
X55797571Y-110252069D01*
X55826142Y-110213974D01*
X55854714Y-110137783D01*
X55854714Y-109985402D01*
X55826142Y-109909212D01*
X55797571Y-109871117D01*
X55740428Y-109833021D01*
D11*
X56879000Y-115206355D02*
X56926619Y-115111117D01*
X56926619Y-114968260D01*
X56879000Y-114825402D01*
X56783761Y-114730164D01*
X56688523Y-114682545D01*
X56498047Y-114634926D01*
X56355190Y-114634926D01*
X56164714Y-114682545D01*
X56069476Y-114730164D01*
X55974238Y-114825402D01*
X55926619Y-114968260D01*
X55926619Y-115063498D01*
X55974238Y-115206355D01*
X56021857Y-115253974D01*
X56355190Y-115253974D01*
X56355190Y-115063498D01*
X55926619Y-115682545D02*
X56926619Y-115682545D01*
X55926619Y-116253974D01*
X56926619Y-116253974D01*
X55926619Y-116730164D02*
X56926619Y-116730164D01*
X56926619Y-116968260D01*
X56879000Y-117111117D01*
X56783761Y-117206355D01*
X56688523Y-117253974D01*
X56498047Y-117301593D01*
X56355190Y-117301593D01*
X56164714Y-117253974D01*
X56069476Y-117206355D01*
X55974238Y-117111117D01*
X55926619Y-116968260D01*
X55926619Y-116730164D01*
X56946619Y-117784450D02*
X55946619Y-118117783D01*
X56946619Y-118451117D01*
X55946619Y-118927307D02*
X55994238Y-118832069D01*
X56041857Y-118784450D01*
X56137095Y-118736831D01*
X56422809Y-118736831D01*
X56518047Y-118784450D01*
X56565666Y-118832069D01*
X56613285Y-118927307D01*
X56613285Y-119070164D01*
X56565666Y-119165402D01*
X56518047Y-119213021D01*
X56422809Y-119260640D01*
X56137095Y-119260640D01*
X56041857Y-119213021D01*
X55994238Y-119165402D01*
X55946619Y-119070164D01*
X55946619Y-118927307D01*
X56613285Y-120117783D02*
X55946619Y-120117783D01*
X56613285Y-119689212D02*
X56089476Y-119689212D01*
X55994238Y-119736831D01*
X55946619Y-119832069D01*
X55946619Y-119974926D01*
X55994238Y-120070164D01*
X56041857Y-120117783D01*
X56613285Y-120451117D02*
X56613285Y-120832069D01*
X56946619Y-120593974D02*
X56089476Y-120593974D01*
X55994238Y-120641593D01*
X55946619Y-120736831D01*
X55946619Y-120832069D01*
X56936619Y-112134450D02*
X55936619Y-112467783D01*
X56936619Y-112801117D01*
X55936619Y-113134450D02*
X56603285Y-113134450D01*
X56936619Y-113134450D02*
X56889000Y-113086831D01*
X56841380Y-113134450D01*
X56889000Y-113182069D01*
X56936619Y-113134450D01*
X56841380Y-113134450D01*
X56603285Y-113610640D02*
X55936619Y-113610640D01*
X56508047Y-113610640D02*
X56555666Y-113658260D01*
X56603285Y-113753498D01*
X56603285Y-113896355D01*
X56555666Y-113991593D01*
X56460428Y-114039212D01*
X55936619Y-114039212D01*
D12*
%TO.C,C26*%
X82104714Y-111213974D02*
X82142809Y-111242545D01*
X82180904Y-111328260D01*
X82180904Y-111385402D01*
X82142809Y-111471117D01*
X82066619Y-111528260D01*
X81990428Y-111556831D01*
X81838047Y-111585402D01*
X81723761Y-111585402D01*
X81571380Y-111556831D01*
X81495190Y-111528260D01*
X81419000Y-111471117D01*
X81380904Y-111385402D01*
X81380904Y-111328260D01*
X81419000Y-111242545D01*
X81457095Y-111213974D01*
X81457095Y-110985402D02*
X81419000Y-110956831D01*
X81380904Y-110899688D01*
X81380904Y-110756831D01*
X81419000Y-110699688D01*
X81457095Y-110671117D01*
X81533285Y-110642545D01*
X81609476Y-110642545D01*
X81723761Y-110671117D01*
X82180904Y-111013974D01*
X82180904Y-110642545D01*
X81380904Y-110128260D02*
X81380904Y-110242545D01*
X81419000Y-110299688D01*
X81457095Y-110328260D01*
X81571380Y-110385402D01*
X81723761Y-110413974D01*
X82028523Y-110413974D01*
X82104714Y-110385402D01*
X82142809Y-110356831D01*
X82180904Y-110299688D01*
X82180904Y-110185402D01*
X82142809Y-110128260D01*
X82104714Y-110099688D01*
X82028523Y-110071117D01*
X81838047Y-110071117D01*
X81761857Y-110099688D01*
X81723761Y-110128260D01*
X81685666Y-110185402D01*
X81685666Y-110299688D01*
X81723761Y-110356831D01*
X81761857Y-110385402D01*
X81838047Y-110413974D01*
%TO.C,C30*%
X104183285Y-108313974D02*
X104154714Y-108352069D01*
X104069000Y-108390164D01*
X104011857Y-108390164D01*
X103926142Y-108352069D01*
X103869000Y-108275879D01*
X103840428Y-108199688D01*
X103811857Y-108047307D01*
X103811857Y-107933021D01*
X103840428Y-107780640D01*
X103869000Y-107704450D01*
X103926142Y-107628260D01*
X104011857Y-107590164D01*
X104069000Y-107590164D01*
X104154714Y-107628260D01*
X104183285Y-107666355D01*
X104383285Y-107590164D02*
X104754714Y-107590164D01*
X104554714Y-107894926D01*
X104640428Y-107894926D01*
X104697571Y-107933021D01*
X104726142Y-107971117D01*
X104754714Y-108047307D01*
X104754714Y-108237783D01*
X104726142Y-108313974D01*
X104697571Y-108352069D01*
X104640428Y-108390164D01*
X104469000Y-108390164D01*
X104411857Y-108352069D01*
X104383285Y-108313974D01*
X105126142Y-107590164D02*
X105183285Y-107590164D01*
X105240428Y-107628260D01*
X105269000Y-107666355D01*
X105297571Y-107742545D01*
X105326142Y-107894926D01*
X105326142Y-108085402D01*
X105297571Y-108237783D01*
X105269000Y-108313974D01*
X105240428Y-108352069D01*
X105183285Y-108390164D01*
X105126142Y-108390164D01*
X105069000Y-108352069D01*
X105040428Y-108313974D01*
X105011857Y-108237783D01*
X104983285Y-108085402D01*
X104983285Y-107894926D01*
X105011857Y-107742545D01*
X105040428Y-107666355D01*
X105069000Y-107628260D01*
X105126142Y-107590164D01*
%TO.C,U7*%
X79096857Y-108575164D02*
X79096857Y-109222783D01*
X79125428Y-109298974D01*
X79154000Y-109337069D01*
X79211142Y-109375164D01*
X79325428Y-109375164D01*
X79382571Y-109337069D01*
X79411142Y-109298974D01*
X79439714Y-109222783D01*
X79439714Y-108575164D01*
X79668285Y-108575164D02*
X80068285Y-108575164D01*
X79811142Y-109375164D01*
D11*
X84845190Y-116930640D02*
X85178523Y-117930640D01*
X85511857Y-116930640D01*
X85988047Y-117930640D02*
X85892809Y-117883021D01*
X85845190Y-117835402D01*
X85797571Y-117740164D01*
X85797571Y-117454450D01*
X85845190Y-117359212D01*
X85892809Y-117311593D01*
X85988047Y-117263974D01*
X86130904Y-117263974D01*
X86226142Y-117311593D01*
X86273761Y-117359212D01*
X86321380Y-117454450D01*
X86321380Y-117740164D01*
X86273761Y-117835402D01*
X86226142Y-117883021D01*
X86130904Y-117930640D01*
X85988047Y-117930640D01*
X87178523Y-117263974D02*
X87178523Y-117930640D01*
X86749952Y-117263974D02*
X86749952Y-117787783D01*
X86797571Y-117883021D01*
X86892809Y-117930640D01*
X87035666Y-117930640D01*
X87130904Y-117883021D01*
X87178523Y-117835402D01*
X87511857Y-117263974D02*
X87892809Y-117263974D01*
X87654714Y-116930640D02*
X87654714Y-117787783D01*
X87702333Y-117883021D01*
X87797571Y-117930640D01*
X87892809Y-117930640D01*
X81857095Y-117028260D02*
X81761857Y-116980640D01*
X81619000Y-116980640D01*
X81476142Y-117028260D01*
X81380904Y-117123498D01*
X81333285Y-117218736D01*
X81285666Y-117409212D01*
X81285666Y-117552069D01*
X81333285Y-117742545D01*
X81380904Y-117837783D01*
X81476142Y-117933021D01*
X81619000Y-117980640D01*
X81714238Y-117980640D01*
X81857095Y-117933021D01*
X81904714Y-117885402D01*
X81904714Y-117552069D01*
X81714238Y-117552069D01*
X82333285Y-117980640D02*
X82333285Y-116980640D01*
X82904714Y-117980640D01*
X82904714Y-116980640D01*
X83380904Y-117980640D02*
X83380904Y-116980640D01*
X83619000Y-116980640D01*
X83761857Y-117028260D01*
X83857095Y-117123498D01*
X83904714Y-117218736D01*
X83952333Y-117409212D01*
X83952333Y-117552069D01*
X83904714Y-117742545D01*
X83857095Y-117837783D01*
X83761857Y-117933021D01*
X83619000Y-117980640D01*
X83380904Y-117980640D01*
X78395190Y-116880640D02*
X78728523Y-117880640D01*
X79061857Y-116880640D01*
X79395190Y-117880640D02*
X79395190Y-117213974D01*
X79395190Y-116880640D02*
X79347571Y-116928260D01*
X79395190Y-116975879D01*
X79442809Y-116928260D01*
X79395190Y-116880640D01*
X79395190Y-116975879D01*
X79871380Y-117213974D02*
X79871380Y-117880640D01*
X79871380Y-117309212D02*
X79919000Y-117261593D01*
X80014238Y-117213974D01*
X80157095Y-117213974D01*
X80252333Y-117261593D01*
X80299952Y-117356831D01*
X80299952Y-117880640D01*
D12*
%TO.C,C24*%
X108605714Y-109005714D02*
X108643809Y-109034285D01*
X108681904Y-109120000D01*
X108681904Y-109177142D01*
X108643809Y-109262857D01*
X108567619Y-109320000D01*
X108491428Y-109348571D01*
X108339047Y-109377142D01*
X108224761Y-109377142D01*
X108072380Y-109348571D01*
X107996190Y-109320000D01*
X107920000Y-109262857D01*
X107881904Y-109177142D01*
X107881904Y-109120000D01*
X107920000Y-109034285D01*
X107958095Y-109005714D01*
X107958095Y-108777142D02*
X107920000Y-108748571D01*
X107881904Y-108691428D01*
X107881904Y-108548571D01*
X107920000Y-108491428D01*
X107958095Y-108462857D01*
X108034285Y-108434285D01*
X108110476Y-108434285D01*
X108224761Y-108462857D01*
X108681904Y-108805714D01*
X108681904Y-108434285D01*
X108148571Y-107920000D02*
X108681904Y-107920000D01*
X107843809Y-108062857D02*
X108415238Y-108205714D01*
X108415238Y-107834285D01*
%TO.C,R15*%
X147430904Y-107663974D02*
X147049952Y-107863974D01*
X147430904Y-108006831D02*
X146630904Y-108006831D01*
X146630904Y-107778260D01*
X146669000Y-107721117D01*
X146707095Y-107692545D01*
X146783285Y-107663974D01*
X146897571Y-107663974D01*
X146973761Y-107692545D01*
X147011857Y-107721117D01*
X147049952Y-107778260D01*
X147049952Y-108006831D01*
X147430904Y-107092545D02*
X147430904Y-107435402D01*
X147430904Y-107263974D02*
X146630904Y-107263974D01*
X146745190Y-107321117D01*
X146821380Y-107378260D01*
X146859476Y-107435402D01*
X146630904Y-106549688D02*
X146630904Y-106835402D01*
X147011857Y-106863974D01*
X146973761Y-106835402D01*
X146935666Y-106778260D01*
X146935666Y-106635402D01*
X146973761Y-106578260D01*
X147011857Y-106549688D01*
X147088047Y-106521117D01*
X147278523Y-106521117D01*
X147354714Y-106549688D01*
X147392809Y-106578260D01*
X147430904Y-106635402D01*
X147430904Y-106778260D01*
X147392809Y-106835402D01*
X147354714Y-106863974D01*
%TO.C,R30*%
X125930904Y-111663974D02*
X125549952Y-111863974D01*
X125930904Y-112006831D02*
X125130904Y-112006831D01*
X125130904Y-111778260D01*
X125169000Y-111721117D01*
X125207095Y-111692545D01*
X125283285Y-111663974D01*
X125397571Y-111663974D01*
X125473761Y-111692545D01*
X125511857Y-111721117D01*
X125549952Y-111778260D01*
X125549952Y-112006831D01*
X125130904Y-111463974D02*
X125130904Y-111092545D01*
X125435666Y-111292545D01*
X125435666Y-111206831D01*
X125473761Y-111149688D01*
X125511857Y-111121117D01*
X125588047Y-111092545D01*
X125778523Y-111092545D01*
X125854714Y-111121117D01*
X125892809Y-111149688D01*
X125930904Y-111206831D01*
X125930904Y-111378260D01*
X125892809Y-111435402D01*
X125854714Y-111463974D01*
X125130904Y-110721117D02*
X125130904Y-110663974D01*
X125169000Y-110606831D01*
X125207095Y-110578260D01*
X125283285Y-110549688D01*
X125435666Y-110521117D01*
X125626142Y-110521117D01*
X125778523Y-110549688D01*
X125854714Y-110578260D01*
X125892809Y-110606831D01*
X125930904Y-110663974D01*
X125930904Y-110721117D01*
X125892809Y-110778260D01*
X125854714Y-110806831D01*
X125778523Y-110835402D01*
X125626142Y-110863974D01*
X125435666Y-110863974D01*
X125283285Y-110835402D01*
X125207095Y-110806831D01*
X125169000Y-110778260D01*
X125130904Y-110721117D01*
%TO.C,C25*%
X104854714Y-110913974D02*
X104892809Y-110942545D01*
X104930904Y-111028260D01*
X104930904Y-111085402D01*
X104892809Y-111171117D01*
X104816619Y-111228260D01*
X104740428Y-111256831D01*
X104588047Y-111285402D01*
X104473761Y-111285402D01*
X104321380Y-111256831D01*
X104245190Y-111228260D01*
X104169000Y-111171117D01*
X104130904Y-111085402D01*
X104130904Y-111028260D01*
X104169000Y-110942545D01*
X104207095Y-110913974D01*
X104207095Y-110685402D02*
X104169000Y-110656831D01*
X104130904Y-110599688D01*
X104130904Y-110456831D01*
X104169000Y-110399688D01*
X104207095Y-110371117D01*
X104283285Y-110342545D01*
X104359476Y-110342545D01*
X104473761Y-110371117D01*
X104930904Y-110713974D01*
X104930904Y-110342545D01*
X104130904Y-109799688D02*
X104130904Y-110085402D01*
X104511857Y-110113974D01*
X104473761Y-110085402D01*
X104435666Y-110028260D01*
X104435666Y-109885402D01*
X104473761Y-109828260D01*
X104511857Y-109799688D01*
X104588047Y-109771117D01*
X104778523Y-109771117D01*
X104854714Y-109799688D01*
X104892809Y-109828260D01*
X104930904Y-109885402D01*
X104930904Y-110028260D01*
X104892809Y-110085402D01*
X104854714Y-110113974D01*
D11*
%TO.C,PH3*%
X67088095Y-72104380D02*
X67088095Y-71104380D01*
X67469047Y-71104380D01*
X67564285Y-71152000D01*
X67611904Y-71199619D01*
X67659523Y-71294857D01*
X67659523Y-71437714D01*
X67611904Y-71532952D01*
X67564285Y-71580571D01*
X67469047Y-71628190D01*
X67088095Y-71628190D01*
X68088095Y-72104380D02*
X68088095Y-71104380D01*
X68088095Y-71580571D02*
X68659523Y-71580571D01*
X68659523Y-72104380D02*
X68659523Y-71104380D01*
X69040476Y-71104380D02*
X69659523Y-71104380D01*
X69326190Y-71485333D01*
X69469047Y-71485333D01*
X69564285Y-71532952D01*
X69611904Y-71580571D01*
X69659523Y-71675809D01*
X69659523Y-71913904D01*
X69611904Y-72009142D01*
X69564285Y-72056761D01*
X69469047Y-72104380D01*
X69183333Y-72104380D01*
X69088095Y-72056761D01*
X69040476Y-72009142D01*
D12*
%TO.C,R9*%
X129430904Y-108878260D02*
X129049952Y-109078260D01*
X129430904Y-109221117D02*
X128630904Y-109221117D01*
X128630904Y-108992545D01*
X128669000Y-108935402D01*
X128707095Y-108906831D01*
X128783285Y-108878260D01*
X128897571Y-108878260D01*
X128973761Y-108906831D01*
X129011857Y-108935402D01*
X129049952Y-108992545D01*
X129049952Y-109221117D01*
X129430904Y-108592545D02*
X129430904Y-108478260D01*
X129392809Y-108421117D01*
X129354714Y-108392545D01*
X129240428Y-108335402D01*
X129088047Y-108306831D01*
X128783285Y-108306831D01*
X128707095Y-108335402D01*
X128669000Y-108363974D01*
X128630904Y-108421117D01*
X128630904Y-108535402D01*
X128669000Y-108592545D01*
X128707095Y-108621117D01*
X128783285Y-108649688D01*
X128973761Y-108649688D01*
X129049952Y-108621117D01*
X129088047Y-108592545D01*
X129126142Y-108535402D01*
X129126142Y-108421117D01*
X129088047Y-108363974D01*
X129049952Y-108335402D01*
X128973761Y-108306831D01*
%TO.C,C3*%
X91469000Y-104583974D02*
X91440428Y-104622069D01*
X91354714Y-104660164D01*
X91297571Y-104660164D01*
X91211857Y-104622069D01*
X91154714Y-104545879D01*
X91126142Y-104469688D01*
X91097571Y-104317307D01*
X91097571Y-104203021D01*
X91126142Y-104050640D01*
X91154714Y-103974450D01*
X91211857Y-103898260D01*
X91297571Y-103860164D01*
X91354714Y-103860164D01*
X91440428Y-103898260D01*
X91469000Y-103936355D01*
X91669000Y-103860164D02*
X92040428Y-103860164D01*
X91840428Y-104164926D01*
X91926142Y-104164926D01*
X91983285Y-104203021D01*
X92011857Y-104241117D01*
X92040428Y-104317307D01*
X92040428Y-104507783D01*
X92011857Y-104583974D01*
X91983285Y-104622069D01*
X91926142Y-104660164D01*
X91754714Y-104660164D01*
X91697571Y-104622069D01*
X91669000Y-104583974D01*
%TO.C,RG4*%
X89430904Y-117428260D02*
X89049952Y-117628260D01*
X89430904Y-117771117D02*
X88630904Y-117771117D01*
X88630904Y-117542545D01*
X88669000Y-117485402D01*
X88707095Y-117456831D01*
X88783285Y-117428260D01*
X88897571Y-117428260D01*
X88973761Y-117456831D01*
X89011857Y-117485402D01*
X89049952Y-117542545D01*
X89049952Y-117771117D01*
X88669000Y-116856831D02*
X88630904Y-116913974D01*
X88630904Y-116999688D01*
X88669000Y-117085402D01*
X88745190Y-117142545D01*
X88821380Y-117171117D01*
X88973761Y-117199688D01*
X89088047Y-117199688D01*
X89240428Y-117171117D01*
X89316619Y-117142545D01*
X89392809Y-117085402D01*
X89430904Y-116999688D01*
X89430904Y-116942545D01*
X89392809Y-116856831D01*
X89354714Y-116828260D01*
X89088047Y-116828260D01*
X89088047Y-116942545D01*
X88897571Y-116313974D02*
X89430904Y-116313974D01*
X88592809Y-116456831D02*
X89164238Y-116599688D01*
X89164238Y-116228260D01*
%TO.C,R21*%
X123933285Y-108140164D02*
X123733285Y-107759212D01*
X123590428Y-108140164D02*
X123590428Y-107340164D01*
X123819000Y-107340164D01*
X123876142Y-107378260D01*
X123904714Y-107416355D01*
X123933285Y-107492545D01*
X123933285Y-107606831D01*
X123904714Y-107683021D01*
X123876142Y-107721117D01*
X123819000Y-107759212D01*
X123590428Y-107759212D01*
X124161857Y-107416355D02*
X124190428Y-107378260D01*
X124247571Y-107340164D01*
X124390428Y-107340164D01*
X124447571Y-107378260D01*
X124476142Y-107416355D01*
X124504714Y-107492545D01*
X124504714Y-107568736D01*
X124476142Y-107683021D01*
X124133285Y-108140164D01*
X124504714Y-108140164D01*
X125076142Y-108140164D02*
X124733285Y-108140164D01*
X124904714Y-108140164D02*
X124904714Y-107340164D01*
X124847571Y-107454450D01*
X124790428Y-107530640D01*
X124733285Y-107568736D01*
%TO.C,D6*%
X131126142Y-106390164D02*
X131126142Y-105590164D01*
X131269000Y-105590164D01*
X131354714Y-105628260D01*
X131411857Y-105704450D01*
X131440428Y-105780640D01*
X131469000Y-105933021D01*
X131469000Y-106047307D01*
X131440428Y-106199688D01*
X131411857Y-106275879D01*
X131354714Y-106352069D01*
X131269000Y-106390164D01*
X131126142Y-106390164D01*
X131983285Y-105590164D02*
X131869000Y-105590164D01*
X131811857Y-105628260D01*
X131783285Y-105666355D01*
X131726142Y-105780640D01*
X131697571Y-105933021D01*
X131697571Y-106237783D01*
X131726142Y-106313974D01*
X131754714Y-106352069D01*
X131811857Y-106390164D01*
X131926142Y-106390164D01*
X131983285Y-106352069D01*
X132011857Y-106313974D01*
X132040428Y-106237783D01*
X132040428Y-106047307D01*
X132011857Y-105971117D01*
X131983285Y-105933021D01*
X131926142Y-105894926D01*
X131811857Y-105894926D01*
X131754714Y-105933021D01*
X131726142Y-105971117D01*
X131697571Y-106047307D01*
D11*
%TO.C,PH2*%
X55354380Y-75761904D02*
X54354380Y-75761904D01*
X54354380Y-75380952D01*
X54402000Y-75285714D01*
X54449619Y-75238095D01*
X54544857Y-75190476D01*
X54687714Y-75190476D01*
X54782952Y-75238095D01*
X54830571Y-75285714D01*
X54878190Y-75380952D01*
X54878190Y-75761904D01*
X55354380Y-74761904D02*
X54354380Y-74761904D01*
X54830571Y-74761904D02*
X54830571Y-74190476D01*
X55354380Y-74190476D02*
X54354380Y-74190476D01*
X54449619Y-73761904D02*
X54402000Y-73714285D01*
X54354380Y-73619047D01*
X54354380Y-73380952D01*
X54402000Y-73285714D01*
X54449619Y-73238095D01*
X54544857Y-73190476D01*
X54640095Y-73190476D01*
X54782952Y-73238095D01*
X55354380Y-73809523D01*
X55354380Y-73190476D01*
D12*
%TO.C,CX12*%
X84785714Y-71671428D02*
X84823809Y-71700000D01*
X84861904Y-71785714D01*
X84861904Y-71842857D01*
X84823809Y-71928571D01*
X84747619Y-71985714D01*
X84671428Y-72014285D01*
X84519047Y-72042857D01*
X84404761Y-72042857D01*
X84252380Y-72014285D01*
X84176190Y-71985714D01*
X84100000Y-71928571D01*
X84061904Y-71842857D01*
X84061904Y-71785714D01*
X84100000Y-71700000D01*
X84138095Y-71671428D01*
X84061904Y-71471428D02*
X84861904Y-71071428D01*
X84061904Y-71071428D02*
X84861904Y-71471428D01*
X84861904Y-70528571D02*
X84861904Y-70871428D01*
X84861904Y-70700000D02*
X84061904Y-70700000D01*
X84176190Y-70757142D01*
X84252380Y-70814285D01*
X84290476Y-70871428D01*
X84138095Y-70300000D02*
X84100000Y-70271428D01*
X84061904Y-70214285D01*
X84061904Y-70071428D01*
X84100000Y-70014285D01*
X84138095Y-69985714D01*
X84214285Y-69957142D01*
X84290476Y-69957142D01*
X84404761Y-69985714D01*
X84861904Y-70328571D01*
X84861904Y-69957142D01*
D11*
%TO.C,PH1*%
X77988095Y-72054380D02*
X77988095Y-71054380D01*
X78369047Y-71054380D01*
X78464285Y-71102000D01*
X78511904Y-71149619D01*
X78559523Y-71244857D01*
X78559523Y-71387714D01*
X78511904Y-71482952D01*
X78464285Y-71530571D01*
X78369047Y-71578190D01*
X77988095Y-71578190D01*
X78988095Y-72054380D02*
X78988095Y-71054380D01*
X78988095Y-71530571D02*
X79559523Y-71530571D01*
X79559523Y-72054380D02*
X79559523Y-71054380D01*
X80559523Y-72054380D02*
X79988095Y-72054380D01*
X80273809Y-72054380D02*
X80273809Y-71054380D01*
X80178571Y-71197238D01*
X80083333Y-71292476D01*
X79988095Y-71340095D01*
%TO.C,PH6*%
X99988095Y-72054380D02*
X99988095Y-71054380D01*
X100369047Y-71054380D01*
X100464285Y-71102000D01*
X100511904Y-71149619D01*
X100559523Y-71244857D01*
X100559523Y-71387714D01*
X100511904Y-71482952D01*
X100464285Y-71530571D01*
X100369047Y-71578190D01*
X99988095Y-71578190D01*
X100988095Y-72054380D02*
X100988095Y-71054380D01*
X100988095Y-71530571D02*
X101559523Y-71530571D01*
X101559523Y-72054380D02*
X101559523Y-71054380D01*
X102464285Y-71054380D02*
X102273809Y-71054380D01*
X102178571Y-71102000D01*
X102130952Y-71149619D01*
X102035714Y-71292476D01*
X101988095Y-71482952D01*
X101988095Y-71863904D01*
X102035714Y-71959142D01*
X102083333Y-72006761D01*
X102178571Y-72054380D01*
X102369047Y-72054380D01*
X102464285Y-72006761D01*
X102511904Y-71959142D01*
X102559523Y-71863904D01*
X102559523Y-71625809D01*
X102511904Y-71530571D01*
X102464285Y-71482952D01*
X102369047Y-71435333D01*
X102178571Y-71435333D01*
X102083333Y-71482952D01*
X102035714Y-71530571D01*
X101988095Y-71625809D01*
D12*
%TO.C,CX15*%
X116035714Y-71671428D02*
X116073809Y-71700000D01*
X116111904Y-71785714D01*
X116111904Y-71842857D01*
X116073809Y-71928571D01*
X115997619Y-71985714D01*
X115921428Y-72014285D01*
X115769047Y-72042857D01*
X115654761Y-72042857D01*
X115502380Y-72014285D01*
X115426190Y-71985714D01*
X115350000Y-71928571D01*
X115311904Y-71842857D01*
X115311904Y-71785714D01*
X115350000Y-71700000D01*
X115388095Y-71671428D01*
X115311904Y-71471428D02*
X116111904Y-71071428D01*
X115311904Y-71071428D02*
X116111904Y-71471428D01*
X116111904Y-70528571D02*
X116111904Y-70871428D01*
X116111904Y-70700000D02*
X115311904Y-70700000D01*
X115426190Y-70757142D01*
X115502380Y-70814285D01*
X115540476Y-70871428D01*
X115311904Y-69985714D02*
X115311904Y-70271428D01*
X115692857Y-70300000D01*
X115654761Y-70271428D01*
X115616666Y-70214285D01*
X115616666Y-70071428D01*
X115654761Y-70014285D01*
X115692857Y-69985714D01*
X115769047Y-69957142D01*
X115959523Y-69957142D01*
X116035714Y-69985714D01*
X116073809Y-70014285D01*
X116111904Y-70071428D01*
X116111904Y-70214285D01*
X116073809Y-70271428D01*
X116035714Y-70300000D01*
%TO.C,RG3*%
X87069000Y-104790164D02*
X86869000Y-104409212D01*
X86726142Y-104790164D02*
X86726142Y-103990164D01*
X86954714Y-103990164D01*
X87011857Y-104028260D01*
X87040428Y-104066355D01*
X87069000Y-104142545D01*
X87069000Y-104256831D01*
X87040428Y-104333021D01*
X87011857Y-104371117D01*
X86954714Y-104409212D01*
X86726142Y-104409212D01*
X87640428Y-104028260D02*
X87583285Y-103990164D01*
X87497571Y-103990164D01*
X87411857Y-104028260D01*
X87354714Y-104104450D01*
X87326142Y-104180640D01*
X87297571Y-104333021D01*
X87297571Y-104447307D01*
X87326142Y-104599688D01*
X87354714Y-104675879D01*
X87411857Y-104752069D01*
X87497571Y-104790164D01*
X87554714Y-104790164D01*
X87640428Y-104752069D01*
X87669000Y-104713974D01*
X87669000Y-104447307D01*
X87554714Y-104447307D01*
X87869000Y-103990164D02*
X88240428Y-103990164D01*
X88040428Y-104294926D01*
X88126142Y-104294926D01*
X88183285Y-104333021D01*
X88211857Y-104371117D01*
X88240428Y-104447307D01*
X88240428Y-104637783D01*
X88211857Y-104713974D01*
X88183285Y-104752069D01*
X88126142Y-104790164D01*
X87954714Y-104790164D01*
X87897571Y-104752069D01*
X87869000Y-104713974D01*
%TO.C,C1*%
X76769000Y-104613974D02*
X76740428Y-104652069D01*
X76654714Y-104690164D01*
X76597571Y-104690164D01*
X76511857Y-104652069D01*
X76454714Y-104575879D01*
X76426142Y-104499688D01*
X76397571Y-104347307D01*
X76397571Y-104233021D01*
X76426142Y-104080640D01*
X76454714Y-104004450D01*
X76511857Y-103928260D01*
X76597571Y-103890164D01*
X76654714Y-103890164D01*
X76740428Y-103928260D01*
X76769000Y-103966355D01*
X77340428Y-104690164D02*
X76997571Y-104690164D01*
X77169000Y-104690164D02*
X77169000Y-103890164D01*
X77111857Y-104004450D01*
X77054714Y-104080640D01*
X76997571Y-104118736D01*
D11*
%TO.C,TP10*%
X142761904Y-86454380D02*
X143333333Y-86454380D01*
X143047619Y-87454380D02*
X143047619Y-86454380D01*
X143666666Y-87454380D02*
X143666666Y-86454380D01*
X144047619Y-86454380D01*
X144142857Y-86502000D01*
X144190476Y-86549619D01*
X144238095Y-86644857D01*
X144238095Y-86787714D01*
X144190476Y-86882952D01*
X144142857Y-86930571D01*
X144047619Y-86978190D01*
X143666666Y-86978190D01*
X145190476Y-87454380D02*
X144619047Y-87454380D01*
X144904761Y-87454380D02*
X144904761Y-86454380D01*
X144809523Y-86597238D01*
X144714285Y-86692476D01*
X144619047Y-86740095D01*
X145809523Y-86454380D02*
X145904761Y-86454380D01*
X146000000Y-86502000D01*
X146047619Y-86549619D01*
X146095238Y-86644857D01*
X146142857Y-86835333D01*
X146142857Y-87073428D01*
X146095238Y-87263904D01*
X146047619Y-87359142D01*
X146000000Y-87406761D01*
X145904761Y-87454380D01*
X145809523Y-87454380D01*
X145714285Y-87406761D01*
X145666666Y-87359142D01*
X145619047Y-87263904D01*
X145571428Y-87073428D01*
X145571428Y-86835333D01*
X145619047Y-86644857D01*
X145666666Y-86549619D01*
X145714285Y-86502000D01*
X145809523Y-86454380D01*
D12*
%TO.C,RS1*%
X77514285Y-83011904D02*
X77314285Y-82630952D01*
X77171428Y-83011904D02*
X77171428Y-82211904D01*
X77400000Y-82211904D01*
X77457142Y-82250000D01*
X77485714Y-82288095D01*
X77514285Y-82364285D01*
X77514285Y-82478571D01*
X77485714Y-82554761D01*
X77457142Y-82592857D01*
X77400000Y-82630952D01*
X77171428Y-82630952D01*
X77742857Y-82973809D02*
X77828571Y-83011904D01*
X77971428Y-83011904D01*
X78028571Y-82973809D01*
X78057142Y-82935714D01*
X78085714Y-82859523D01*
X78085714Y-82783333D01*
X78057142Y-82707142D01*
X78028571Y-82669047D01*
X77971428Y-82630952D01*
X77857142Y-82592857D01*
X77800000Y-82554761D01*
X77771428Y-82516666D01*
X77742857Y-82440476D01*
X77742857Y-82364285D01*
X77771428Y-82288095D01*
X77800000Y-82250000D01*
X77857142Y-82211904D01*
X78000000Y-82211904D01*
X78085714Y-82250000D01*
X78657142Y-83011904D02*
X78314285Y-83011904D01*
X78485714Y-83011904D02*
X78485714Y-82211904D01*
X78428571Y-82326190D01*
X78371428Y-82402380D01*
X78314285Y-82440476D01*
%TO.C,R49*%
X105114285Y-69131904D02*
X104914285Y-68750952D01*
X104771428Y-69131904D02*
X104771428Y-68331904D01*
X105000000Y-68331904D01*
X105057142Y-68370000D01*
X105085714Y-68408095D01*
X105114285Y-68484285D01*
X105114285Y-68598571D01*
X105085714Y-68674761D01*
X105057142Y-68712857D01*
X105000000Y-68750952D01*
X104771428Y-68750952D01*
X105628571Y-68598571D02*
X105628571Y-69131904D01*
X105485714Y-68293809D02*
X105342857Y-68865238D01*
X105714285Y-68865238D01*
X105971428Y-69131904D02*
X106085714Y-69131904D01*
X106142857Y-69093809D01*
X106171428Y-69055714D01*
X106228571Y-68941428D01*
X106257142Y-68789047D01*
X106257142Y-68484285D01*
X106228571Y-68408095D01*
X106200000Y-68370000D01*
X106142857Y-68331904D01*
X106028571Y-68331904D01*
X105971428Y-68370000D01*
X105942857Y-68408095D01*
X105914285Y-68484285D01*
X105914285Y-68674761D01*
X105942857Y-68750952D01*
X105971428Y-68789047D01*
X106028571Y-68827142D01*
X106142857Y-68827142D01*
X106200000Y-68789047D01*
X106228571Y-68750952D01*
X106257142Y-68674761D01*
%TO.C,C2*%
X83869000Y-104613974D02*
X83840428Y-104652069D01*
X83754714Y-104690164D01*
X83697571Y-104690164D01*
X83611857Y-104652069D01*
X83554714Y-104575879D01*
X83526142Y-104499688D01*
X83497571Y-104347307D01*
X83497571Y-104233021D01*
X83526142Y-104080640D01*
X83554714Y-104004450D01*
X83611857Y-103928260D01*
X83697571Y-103890164D01*
X83754714Y-103890164D01*
X83840428Y-103928260D01*
X83869000Y-103966355D01*
X84097571Y-103966355D02*
X84126142Y-103928260D01*
X84183285Y-103890164D01*
X84326142Y-103890164D01*
X84383285Y-103928260D01*
X84411857Y-103966355D01*
X84440428Y-104042545D01*
X84440428Y-104118736D01*
X84411857Y-104233021D01*
X84069000Y-104690164D01*
X84440428Y-104690164D01*
%TO.C,R26*%
X108430904Y-101650714D02*
X108049952Y-101850714D01*
X108430904Y-101993571D02*
X107630904Y-101993571D01*
X107630904Y-101765000D01*
X107669000Y-101707857D01*
X107707095Y-101679285D01*
X107783285Y-101650714D01*
X107897571Y-101650714D01*
X107973761Y-101679285D01*
X108011857Y-101707857D01*
X108049952Y-101765000D01*
X108049952Y-101993571D01*
X107707095Y-101422142D02*
X107669000Y-101393571D01*
X107630904Y-101336428D01*
X107630904Y-101193571D01*
X107669000Y-101136428D01*
X107707095Y-101107857D01*
X107783285Y-101079285D01*
X107859476Y-101079285D01*
X107973761Y-101107857D01*
X108430904Y-101450714D01*
X108430904Y-101079285D01*
X107630904Y-100565000D02*
X107630904Y-100679285D01*
X107669000Y-100736428D01*
X107707095Y-100765000D01*
X107821380Y-100822142D01*
X107973761Y-100850714D01*
X108278523Y-100850714D01*
X108354714Y-100822142D01*
X108392809Y-100793571D01*
X108430904Y-100736428D01*
X108430904Y-100622142D01*
X108392809Y-100565000D01*
X108354714Y-100536428D01*
X108278523Y-100507857D01*
X108088047Y-100507857D01*
X108011857Y-100536428D01*
X107973761Y-100565000D01*
X107935666Y-100622142D01*
X107935666Y-100736428D01*
X107973761Y-100793571D01*
X108011857Y-100822142D01*
X108088047Y-100850714D01*
D11*
%TO.C,TP7*%
X93238095Y-76254380D02*
X93809523Y-76254380D01*
X93523809Y-77254380D02*
X93523809Y-76254380D01*
X94142857Y-77254380D02*
X94142857Y-76254380D01*
X94523809Y-76254380D01*
X94619047Y-76302000D01*
X94666666Y-76349619D01*
X94714285Y-76444857D01*
X94714285Y-76587714D01*
X94666666Y-76682952D01*
X94619047Y-76730571D01*
X94523809Y-76778190D01*
X94142857Y-76778190D01*
X95047619Y-76254380D02*
X95714285Y-76254380D01*
X95285714Y-77254380D01*
D12*
%TO.C,C22*%
X131854714Y-104913974D02*
X131892809Y-104942545D01*
X131930904Y-105028260D01*
X131930904Y-105085402D01*
X131892809Y-105171117D01*
X131816619Y-105228260D01*
X131740428Y-105256831D01*
X131588047Y-105285402D01*
X131473761Y-105285402D01*
X131321380Y-105256831D01*
X131245190Y-105228260D01*
X131169000Y-105171117D01*
X131130904Y-105085402D01*
X131130904Y-105028260D01*
X131169000Y-104942545D01*
X131207095Y-104913974D01*
X131207095Y-104685402D02*
X131169000Y-104656831D01*
X131130904Y-104599688D01*
X131130904Y-104456831D01*
X131169000Y-104399688D01*
X131207095Y-104371117D01*
X131283285Y-104342545D01*
X131359476Y-104342545D01*
X131473761Y-104371117D01*
X131930904Y-104713974D01*
X131930904Y-104342545D01*
X131207095Y-104113974D02*
X131169000Y-104085402D01*
X131130904Y-104028260D01*
X131130904Y-103885402D01*
X131169000Y-103828260D01*
X131207095Y-103799688D01*
X131283285Y-103771117D01*
X131359476Y-103771117D01*
X131473761Y-103799688D01*
X131930904Y-104142545D01*
X131930904Y-103771117D01*
%TO.C,C5*%
X53900000Y-85285714D02*
X53871428Y-85323809D01*
X53785714Y-85361904D01*
X53728571Y-85361904D01*
X53642857Y-85323809D01*
X53585714Y-85247619D01*
X53557142Y-85171428D01*
X53528571Y-85019047D01*
X53528571Y-84904761D01*
X53557142Y-84752380D01*
X53585714Y-84676190D01*
X53642857Y-84600000D01*
X53728571Y-84561904D01*
X53785714Y-84561904D01*
X53871428Y-84600000D01*
X53900000Y-84638095D01*
X54442857Y-84561904D02*
X54157142Y-84561904D01*
X54128571Y-84942857D01*
X54157142Y-84904761D01*
X54214285Y-84866666D01*
X54357142Y-84866666D01*
X54414285Y-84904761D01*
X54442857Y-84942857D01*
X54471428Y-85019047D01*
X54471428Y-85209523D01*
X54442857Y-85285714D01*
X54414285Y-85323809D01*
X54357142Y-85361904D01*
X54214285Y-85361904D01*
X54157142Y-85323809D01*
X54128571Y-85285714D01*
D11*
%TO.C,PH7*%
X133038095Y-72054380D02*
X133038095Y-71054380D01*
X133419047Y-71054380D01*
X133514285Y-71102000D01*
X133561904Y-71149619D01*
X133609523Y-71244857D01*
X133609523Y-71387714D01*
X133561904Y-71482952D01*
X133514285Y-71530571D01*
X133419047Y-71578190D01*
X133038095Y-71578190D01*
X134038095Y-72054380D02*
X134038095Y-71054380D01*
X134038095Y-71530571D02*
X134609523Y-71530571D01*
X134609523Y-72054380D02*
X134609523Y-71054380D01*
X134990476Y-71054380D02*
X135657142Y-71054380D01*
X135228571Y-72054380D01*
D12*
%TO.C,U4*%
X116161857Y-102590164D02*
X116161857Y-103237783D01*
X116190428Y-103313974D01*
X116219000Y-103352069D01*
X116276142Y-103390164D01*
X116390428Y-103390164D01*
X116447571Y-103352069D01*
X116476142Y-103313974D01*
X116504714Y-103237783D01*
X116504714Y-102590164D01*
X117047571Y-102856831D02*
X117047571Y-103390164D01*
X116904714Y-102552069D02*
X116761857Y-103123498D01*
X117133285Y-103123498D01*
%TO.C,R11*%
X104183285Y-106390164D02*
X103983285Y-106009212D01*
X103840428Y-106390164D02*
X103840428Y-105590164D01*
X104069000Y-105590164D01*
X104126142Y-105628260D01*
X104154714Y-105666355D01*
X104183285Y-105742545D01*
X104183285Y-105856831D01*
X104154714Y-105933021D01*
X104126142Y-105971117D01*
X104069000Y-106009212D01*
X103840428Y-106009212D01*
X104754714Y-106390164D02*
X104411857Y-106390164D01*
X104583285Y-106390164D02*
X104583285Y-105590164D01*
X104526142Y-105704450D01*
X104469000Y-105780640D01*
X104411857Y-105818736D01*
X105326142Y-106390164D02*
X104983285Y-106390164D01*
X105154714Y-106390164D02*
X105154714Y-105590164D01*
X105097571Y-105704450D01*
X105040428Y-105780640D01*
X104983285Y-105818736D01*
%TO.C,CX2*%
X84364285Y-55035714D02*
X84335714Y-55073809D01*
X84250000Y-55111904D01*
X84192857Y-55111904D01*
X84107142Y-55073809D01*
X84050000Y-54997619D01*
X84021428Y-54921428D01*
X83992857Y-54769047D01*
X83992857Y-54654761D01*
X84021428Y-54502380D01*
X84050000Y-54426190D01*
X84107142Y-54350000D01*
X84192857Y-54311904D01*
X84250000Y-54311904D01*
X84335714Y-54350000D01*
X84364285Y-54388095D01*
X84564285Y-54311904D02*
X84964285Y-55111904D01*
X84964285Y-54311904D02*
X84564285Y-55111904D01*
X85164285Y-54388095D02*
X85192857Y-54350000D01*
X85250000Y-54311904D01*
X85392857Y-54311904D01*
X85450000Y-54350000D01*
X85478571Y-54388095D01*
X85507142Y-54464285D01*
X85507142Y-54540476D01*
X85478571Y-54654761D01*
X85135714Y-55111904D01*
X85507142Y-55111904D01*
D13*
X87162142Y-56814285D02*
X89447857Y-56814285D01*
X86857142Y-64714285D02*
X89142857Y-64714285D01*
X88000000Y-65857142D02*
X88000000Y-63571428D01*
D12*
%TO.C,CX3*%
X116114285Y-55035714D02*
X116085714Y-55073809D01*
X116000000Y-55111904D01*
X115942857Y-55111904D01*
X115857142Y-55073809D01*
X115800000Y-54997619D01*
X115771428Y-54921428D01*
X115742857Y-54769047D01*
X115742857Y-54654761D01*
X115771428Y-54502380D01*
X115800000Y-54426190D01*
X115857142Y-54350000D01*
X115942857Y-54311904D01*
X116000000Y-54311904D01*
X116085714Y-54350000D01*
X116114285Y-54388095D01*
X116314285Y-54311904D02*
X116714285Y-55111904D01*
X116714285Y-54311904D02*
X116314285Y-55111904D01*
X116885714Y-54311904D02*
X117257142Y-54311904D01*
X117057142Y-54616666D01*
X117142857Y-54616666D01*
X117200000Y-54654761D01*
X117228571Y-54692857D01*
X117257142Y-54769047D01*
X117257142Y-54959523D01*
X117228571Y-55035714D01*
X117200000Y-55073809D01*
X117142857Y-55111904D01*
X116971428Y-55111904D01*
X116914285Y-55073809D01*
X116885714Y-55035714D01*
D13*
X118852142Y-57214285D02*
X121137857Y-57214285D01*
X118852142Y-64714285D02*
X121137857Y-64714285D01*
X119995000Y-65857142D02*
X119995000Y-63571428D01*
D12*
%TO.C,R18*%
X123933285Y-109640164D02*
X123733285Y-109259212D01*
X123590428Y-109640164D02*
X123590428Y-108840164D01*
X123819000Y-108840164D01*
X123876142Y-108878260D01*
X123904714Y-108916355D01*
X123933285Y-108992545D01*
X123933285Y-109106831D01*
X123904714Y-109183021D01*
X123876142Y-109221117D01*
X123819000Y-109259212D01*
X123590428Y-109259212D01*
X124504714Y-109640164D02*
X124161857Y-109640164D01*
X124333285Y-109640164D02*
X124333285Y-108840164D01*
X124276142Y-108954450D01*
X124219000Y-109030640D01*
X124161857Y-109068736D01*
X124847571Y-109183021D02*
X124790428Y-109144926D01*
X124761857Y-109106831D01*
X124733285Y-109030640D01*
X124733285Y-108992545D01*
X124761857Y-108916355D01*
X124790428Y-108878260D01*
X124847571Y-108840164D01*
X124961857Y-108840164D01*
X125019000Y-108878260D01*
X125047571Y-108916355D01*
X125076142Y-108992545D01*
X125076142Y-109030640D01*
X125047571Y-109106831D01*
X125019000Y-109144926D01*
X124961857Y-109183021D01*
X124847571Y-109183021D01*
X124790428Y-109221117D01*
X124761857Y-109259212D01*
X124733285Y-109335402D01*
X124733285Y-109487783D01*
X124761857Y-109563974D01*
X124790428Y-109602069D01*
X124847571Y-109640164D01*
X124961857Y-109640164D01*
X125019000Y-109602069D01*
X125047571Y-109563974D01*
X125076142Y-109487783D01*
X125076142Y-109335402D01*
X125047571Y-109259212D01*
X125019000Y-109221117D01*
X124961857Y-109183021D01*
%TO.C,R4*%
X147505904Y-108878260D02*
X147124952Y-109078260D01*
X147505904Y-109221117D02*
X146705904Y-109221117D01*
X146705904Y-108992545D01*
X146744000Y-108935402D01*
X146782095Y-108906831D01*
X146858285Y-108878260D01*
X146972571Y-108878260D01*
X147048761Y-108906831D01*
X147086857Y-108935402D01*
X147124952Y-108992545D01*
X147124952Y-109221117D01*
X146972571Y-108363974D02*
X147505904Y-108363974D01*
X146667809Y-108506831D02*
X147239238Y-108649688D01*
X147239238Y-108278260D01*
%TO.C,RG5*%
X94219000Y-104690164D02*
X94019000Y-104309212D01*
X93876142Y-104690164D02*
X93876142Y-103890164D01*
X94104714Y-103890164D01*
X94161857Y-103928260D01*
X94190428Y-103966355D01*
X94219000Y-104042545D01*
X94219000Y-104156831D01*
X94190428Y-104233021D01*
X94161857Y-104271117D01*
X94104714Y-104309212D01*
X93876142Y-104309212D01*
X94790428Y-103928260D02*
X94733285Y-103890164D01*
X94647571Y-103890164D01*
X94561857Y-103928260D01*
X94504714Y-104004450D01*
X94476142Y-104080640D01*
X94447571Y-104233021D01*
X94447571Y-104347307D01*
X94476142Y-104499688D01*
X94504714Y-104575879D01*
X94561857Y-104652069D01*
X94647571Y-104690164D01*
X94704714Y-104690164D01*
X94790428Y-104652069D01*
X94819000Y-104613974D01*
X94819000Y-104347307D01*
X94704714Y-104347307D01*
X95361857Y-103890164D02*
X95076142Y-103890164D01*
X95047571Y-104271117D01*
X95076142Y-104233021D01*
X95133285Y-104194926D01*
X95276142Y-104194926D01*
X95333285Y-104233021D01*
X95361857Y-104271117D01*
X95390428Y-104347307D01*
X95390428Y-104537783D01*
X95361857Y-104613974D01*
X95333285Y-104652069D01*
X95276142Y-104690164D01*
X95133285Y-104690164D01*
X95076142Y-104652069D01*
X95047571Y-104613974D01*
%TO.C,C28*%
X97354714Y-112663974D02*
X97392809Y-112692545D01*
X97430904Y-112778260D01*
X97430904Y-112835402D01*
X97392809Y-112921117D01*
X97316619Y-112978260D01*
X97240428Y-113006831D01*
X97088047Y-113035402D01*
X96973761Y-113035402D01*
X96821380Y-113006831D01*
X96745190Y-112978260D01*
X96669000Y-112921117D01*
X96630904Y-112835402D01*
X96630904Y-112778260D01*
X96669000Y-112692545D01*
X96707095Y-112663974D01*
X96707095Y-112435402D02*
X96669000Y-112406831D01*
X96630904Y-112349688D01*
X96630904Y-112206831D01*
X96669000Y-112149688D01*
X96707095Y-112121117D01*
X96783285Y-112092545D01*
X96859476Y-112092545D01*
X96973761Y-112121117D01*
X97430904Y-112463974D01*
X97430904Y-112092545D01*
X96973761Y-111749688D02*
X96935666Y-111806831D01*
X96897571Y-111835402D01*
X96821380Y-111863974D01*
X96783285Y-111863974D01*
X96707095Y-111835402D01*
X96669000Y-111806831D01*
X96630904Y-111749688D01*
X96630904Y-111635402D01*
X96669000Y-111578260D01*
X96707095Y-111549688D01*
X96783285Y-111521117D01*
X96821380Y-111521117D01*
X96897571Y-111549688D01*
X96935666Y-111578260D01*
X96973761Y-111635402D01*
X96973761Y-111749688D01*
X97011857Y-111806831D01*
X97049952Y-111835402D01*
X97126142Y-111863974D01*
X97278523Y-111863974D01*
X97354714Y-111835402D01*
X97392809Y-111806831D01*
X97430904Y-111749688D01*
X97430904Y-111635402D01*
X97392809Y-111578260D01*
X97354714Y-111549688D01*
X97278523Y-111521117D01*
X97126142Y-111521117D01*
X97049952Y-111549688D01*
X97011857Y-111578260D01*
X96973761Y-111635402D01*
%TO.C,C16*%
X143354714Y-105663974D02*
X143392809Y-105692545D01*
X143430904Y-105778260D01*
X143430904Y-105835402D01*
X143392809Y-105921117D01*
X143316619Y-105978260D01*
X143240428Y-106006831D01*
X143088047Y-106035402D01*
X142973761Y-106035402D01*
X142821380Y-106006831D01*
X142745190Y-105978260D01*
X142669000Y-105921117D01*
X142630904Y-105835402D01*
X142630904Y-105778260D01*
X142669000Y-105692545D01*
X142707095Y-105663974D01*
X143430904Y-105092545D02*
X143430904Y-105435402D01*
X143430904Y-105263974D02*
X142630904Y-105263974D01*
X142745190Y-105321117D01*
X142821380Y-105378260D01*
X142859476Y-105435402D01*
X142630904Y-104578260D02*
X142630904Y-104692545D01*
X142669000Y-104749688D01*
X142707095Y-104778260D01*
X142821380Y-104835402D01*
X142973761Y-104863974D01*
X143278523Y-104863974D01*
X143354714Y-104835402D01*
X143392809Y-104806831D01*
X143430904Y-104749688D01*
X143430904Y-104635402D01*
X143392809Y-104578260D01*
X143354714Y-104549688D01*
X143278523Y-104521117D01*
X143088047Y-104521117D01*
X143011857Y-104549688D01*
X142973761Y-104578260D01*
X142935666Y-104635402D01*
X142935666Y-104749688D01*
X142973761Y-104806831D01*
X143011857Y-104835402D01*
X143088047Y-104863974D01*
%TO.C,RG2*%
X81674000Y-116390164D02*
X81474000Y-116009212D01*
X81331142Y-116390164D02*
X81331142Y-115590164D01*
X81559714Y-115590164D01*
X81616857Y-115628260D01*
X81645428Y-115666355D01*
X81674000Y-115742545D01*
X81674000Y-115856831D01*
X81645428Y-115933021D01*
X81616857Y-115971117D01*
X81559714Y-116009212D01*
X81331142Y-116009212D01*
X82245428Y-115628260D02*
X82188285Y-115590164D01*
X82102571Y-115590164D01*
X82016857Y-115628260D01*
X81959714Y-115704450D01*
X81931142Y-115780640D01*
X81902571Y-115933021D01*
X81902571Y-116047307D01*
X81931142Y-116199688D01*
X81959714Y-116275879D01*
X82016857Y-116352069D01*
X82102571Y-116390164D01*
X82159714Y-116390164D01*
X82245428Y-116352069D01*
X82274000Y-116313974D01*
X82274000Y-116047307D01*
X82159714Y-116047307D01*
X82502571Y-115666355D02*
X82531142Y-115628260D01*
X82588285Y-115590164D01*
X82731142Y-115590164D01*
X82788285Y-115628260D01*
X82816857Y-115666355D01*
X82845428Y-115742545D01*
X82845428Y-115818736D01*
X82816857Y-115933021D01*
X82474000Y-116390164D01*
X82845428Y-116390164D01*
%TO.C,CX11*%
X55035714Y-75321428D02*
X55073809Y-75350000D01*
X55111904Y-75435714D01*
X55111904Y-75492857D01*
X55073809Y-75578571D01*
X54997619Y-75635714D01*
X54921428Y-75664285D01*
X54769047Y-75692857D01*
X54654761Y-75692857D01*
X54502380Y-75664285D01*
X54426190Y-75635714D01*
X54350000Y-75578571D01*
X54311904Y-75492857D01*
X54311904Y-75435714D01*
X54350000Y-75350000D01*
X54388095Y-75321428D01*
X54311904Y-75121428D02*
X55111904Y-74721428D01*
X54311904Y-74721428D02*
X55111904Y-75121428D01*
X55111904Y-74178571D02*
X55111904Y-74521428D01*
X55111904Y-74350000D02*
X54311904Y-74350000D01*
X54426190Y-74407142D01*
X54502380Y-74464285D01*
X54540476Y-74521428D01*
X55111904Y-73607142D02*
X55111904Y-73950000D01*
X55111904Y-73778571D02*
X54311904Y-73778571D01*
X54426190Y-73835714D01*
X54502380Y-73892857D01*
X54540476Y-73950000D01*
%TO.C,NTC1*%
X137430904Y-109763974D02*
X136630904Y-109763974D01*
X137430904Y-109421117D01*
X136630904Y-109421117D01*
X136630904Y-109221117D02*
X136630904Y-108878260D01*
X137430904Y-109049688D02*
X136630904Y-109049688D01*
X137354714Y-108335402D02*
X137392809Y-108363974D01*
X137430904Y-108449688D01*
X137430904Y-108506831D01*
X137392809Y-108592545D01*
X137316619Y-108649688D01*
X137240428Y-108678260D01*
X137088047Y-108706831D01*
X136973761Y-108706831D01*
X136821380Y-108678260D01*
X136745190Y-108649688D01*
X136669000Y-108592545D01*
X136630904Y-108506831D01*
X136630904Y-108449688D01*
X136669000Y-108363974D01*
X136707095Y-108335402D01*
X137430904Y-107763974D02*
X137430904Y-108106831D01*
X137430904Y-107935402D02*
X136630904Y-107935402D01*
X136745190Y-107992545D01*
X136821380Y-108049688D01*
X136859476Y-108106831D01*
%TO.C,R47*%
X61114285Y-68931904D02*
X60914285Y-68550952D01*
X60771428Y-68931904D02*
X60771428Y-68131904D01*
X61000000Y-68131904D01*
X61057142Y-68170000D01*
X61085714Y-68208095D01*
X61114285Y-68284285D01*
X61114285Y-68398571D01*
X61085714Y-68474761D01*
X61057142Y-68512857D01*
X61000000Y-68550952D01*
X60771428Y-68550952D01*
X61628571Y-68398571D02*
X61628571Y-68931904D01*
X61485714Y-68093809D02*
X61342857Y-68665238D01*
X61714285Y-68665238D01*
X61885714Y-68131904D02*
X62285714Y-68131904D01*
X62028571Y-68931904D01*
%TO.C,U5*%
X95542857Y-99311904D02*
X95542857Y-99959523D01*
X95571428Y-100035714D01*
X95600000Y-100073809D01*
X95657142Y-100111904D01*
X95771428Y-100111904D01*
X95828571Y-100073809D01*
X95857142Y-100035714D01*
X95885714Y-99959523D01*
X95885714Y-99311904D01*
X96457142Y-99311904D02*
X96171428Y-99311904D01*
X96142857Y-99692857D01*
X96171428Y-99654761D01*
X96228571Y-99616666D01*
X96371428Y-99616666D01*
X96428571Y-99654761D01*
X96457142Y-99692857D01*
X96485714Y-99769047D01*
X96485714Y-99959523D01*
X96457142Y-100035714D01*
X96428571Y-100073809D01*
X96371428Y-100111904D01*
X96228571Y-100111904D01*
X96171428Y-100073809D01*
X96142857Y-100035714D01*
D11*
X144452380Y-101714285D02*
X144452380Y-102285714D01*
X144452380Y-102000000D02*
X143452380Y-102000000D01*
X143595238Y-102095238D01*
X143690476Y-102190476D01*
X143738095Y-102285714D01*
%TO.C,TP8*%
X127188095Y-67454380D02*
X127759523Y-67454380D01*
X127473809Y-68454380D02*
X127473809Y-67454380D01*
X128092857Y-68454380D02*
X128092857Y-67454380D01*
X128473809Y-67454380D01*
X128569047Y-67502000D01*
X128616666Y-67549619D01*
X128664285Y-67644857D01*
X128664285Y-67787714D01*
X128616666Y-67882952D01*
X128569047Y-67930571D01*
X128473809Y-67978190D01*
X128092857Y-67978190D01*
X129235714Y-67882952D02*
X129140476Y-67835333D01*
X129092857Y-67787714D01*
X129045238Y-67692476D01*
X129045238Y-67644857D01*
X129092857Y-67549619D01*
X129140476Y-67502000D01*
X129235714Y-67454380D01*
X129426190Y-67454380D01*
X129521428Y-67502000D01*
X129569047Y-67549619D01*
X129616666Y-67644857D01*
X129616666Y-67692476D01*
X129569047Y-67787714D01*
X129521428Y-67835333D01*
X129426190Y-67882952D01*
X129235714Y-67882952D01*
X129140476Y-67930571D01*
X129092857Y-67978190D01*
X129045238Y-68073428D01*
X129045238Y-68263904D01*
X129092857Y-68359142D01*
X129140476Y-68406761D01*
X129235714Y-68454380D01*
X129426190Y-68454380D01*
X129521428Y-68406761D01*
X129569047Y-68359142D01*
X129616666Y-68263904D01*
X129616666Y-68073428D01*
X129569047Y-67978190D01*
X129521428Y-67930571D01*
X129426190Y-67882952D01*
D12*
%TO.C,R12*%
X138930904Y-105663974D02*
X138549952Y-105863974D01*
X138930904Y-106006831D02*
X138130904Y-106006831D01*
X138130904Y-105778260D01*
X138169000Y-105721117D01*
X138207095Y-105692545D01*
X138283285Y-105663974D01*
X138397571Y-105663974D01*
X138473761Y-105692545D01*
X138511857Y-105721117D01*
X138549952Y-105778260D01*
X138549952Y-106006831D01*
X138930904Y-105092545D02*
X138930904Y-105435402D01*
X138930904Y-105263974D02*
X138130904Y-105263974D01*
X138245190Y-105321117D01*
X138321380Y-105378260D01*
X138359476Y-105435402D01*
X138207095Y-104863974D02*
X138169000Y-104835402D01*
X138130904Y-104778260D01*
X138130904Y-104635402D01*
X138169000Y-104578260D01*
X138207095Y-104549688D01*
X138283285Y-104521117D01*
X138359476Y-104521117D01*
X138473761Y-104549688D01*
X138930904Y-104892545D01*
X138930904Y-104521117D01*
%TO.C,U1*%
X77861857Y-112140164D02*
X77861857Y-112787783D01*
X77890428Y-112863974D01*
X77919000Y-112902069D01*
X77976142Y-112940164D01*
X78090428Y-112940164D01*
X78147571Y-112902069D01*
X78176142Y-112863974D01*
X78204714Y-112787783D01*
X78204714Y-112140164D01*
X78804714Y-112940164D02*
X78461857Y-112940164D01*
X78633285Y-112940164D02*
X78633285Y-112140164D01*
X78576142Y-112254450D01*
X78519000Y-112330640D01*
X78461857Y-112368736D01*
%TO.C,SHC2*%
X126386582Y-82328646D02*
X126352910Y-82241099D01*
X126251895Y-82140084D01*
X126184551Y-82126615D01*
X126137411Y-82133350D01*
X126063333Y-82167022D01*
X126009458Y-82220896D01*
X125975786Y-82294974D01*
X125969052Y-82342115D01*
X125982521Y-82409458D01*
X126036396Y-82517208D01*
X126049864Y-82584551D01*
X126043130Y-82631692D01*
X126009458Y-82705770D01*
X125955583Y-82759644D01*
X125881506Y-82793316D01*
X125834365Y-82800051D01*
X125767022Y-82786582D01*
X125666006Y-82685567D01*
X125632335Y-82598020D01*
X125989255Y-81877445D02*
X125423570Y-82443130D01*
X125692944Y-82173756D02*
X125450507Y-81931319D01*
X125746819Y-81635008D02*
X125181133Y-82200693D01*
X125248477Y-81244416D02*
X125295617Y-81237681D01*
X125383164Y-81271353D01*
X125423570Y-81311759D01*
X125457241Y-81399306D01*
X125443773Y-81493587D01*
X125410101Y-81567664D01*
X125322554Y-81695617D01*
X125241742Y-81776429D01*
X125113790Y-81863976D01*
X125039712Y-81897648D01*
X124945431Y-81911116D01*
X124857884Y-81877445D01*
X124817478Y-81837038D01*
X124783806Y-81749492D01*
X124790541Y-81702351D01*
X124628916Y-81540727D02*
X124581776Y-81547461D01*
X124514432Y-81533993D01*
X124413417Y-81432977D01*
X124399948Y-81365634D01*
X124406683Y-81318493D01*
X124440355Y-81244416D01*
X124494229Y-81190541D01*
X124595245Y-81129932D01*
X125160930Y-81049119D01*
X124898290Y-80786480D01*
%TO.C,C4*%
X148854714Y-108878260D02*
X148892809Y-108906831D01*
X148930904Y-108992545D01*
X148930904Y-109049688D01*
X148892809Y-109135402D01*
X148816619Y-109192545D01*
X148740428Y-109221117D01*
X148588047Y-109249688D01*
X148473761Y-109249688D01*
X148321380Y-109221117D01*
X148245190Y-109192545D01*
X148169000Y-109135402D01*
X148130904Y-109049688D01*
X148130904Y-108992545D01*
X148169000Y-108906831D01*
X148207095Y-108878260D01*
X148397571Y-108363974D02*
X148930904Y-108363974D01*
X148092809Y-108506831D02*
X148664238Y-108649688D01*
X148664238Y-108278260D01*
%TO.C,U2*%
X84811857Y-112240164D02*
X84811857Y-112887783D01*
X84840428Y-112963974D01*
X84869000Y-113002069D01*
X84926142Y-113040164D01*
X85040428Y-113040164D01*
X85097571Y-113002069D01*
X85126142Y-112963974D01*
X85154714Y-112887783D01*
X85154714Y-112240164D01*
X85411857Y-112316355D02*
X85440428Y-112278260D01*
X85497571Y-112240164D01*
X85640428Y-112240164D01*
X85697571Y-112278260D01*
X85726142Y-112316355D01*
X85754714Y-112392545D01*
X85754714Y-112468736D01*
X85726142Y-112583021D01*
X85383285Y-113040164D01*
X85754714Y-113040164D01*
D11*
%TO.C,TP6*%
X93738095Y-67454380D02*
X94309523Y-67454380D01*
X94023809Y-68454380D02*
X94023809Y-67454380D01*
X94642857Y-68454380D02*
X94642857Y-67454380D01*
X95023809Y-67454380D01*
X95119047Y-67502000D01*
X95166666Y-67549619D01*
X95214285Y-67644857D01*
X95214285Y-67787714D01*
X95166666Y-67882952D01*
X95119047Y-67930571D01*
X95023809Y-67978190D01*
X94642857Y-67978190D01*
X96071428Y-67454380D02*
X95880952Y-67454380D01*
X95785714Y-67502000D01*
X95738095Y-67549619D01*
X95642857Y-67692476D01*
X95595238Y-67882952D01*
X95595238Y-68263904D01*
X95642857Y-68359142D01*
X95690476Y-68406761D01*
X95785714Y-68454380D01*
X95976190Y-68454380D01*
X96071428Y-68406761D01*
X96119047Y-68359142D01*
X96166666Y-68263904D01*
X96166666Y-68025809D01*
X96119047Y-67930571D01*
X96071428Y-67882952D01*
X95976190Y-67835333D01*
X95785714Y-67835333D01*
X95690476Y-67882952D01*
X95642857Y-67930571D01*
X95595238Y-68025809D01*
D12*
%TO.C,C9*%
X82950000Y-120440714D02*
X82921428Y-120478809D01*
X82835714Y-120516904D01*
X82778571Y-120516904D01*
X82692857Y-120478809D01*
X82635714Y-120402619D01*
X82607142Y-120326428D01*
X82578571Y-120174047D01*
X82578571Y-120059761D01*
X82607142Y-119907380D01*
X82635714Y-119831190D01*
X82692857Y-119755000D01*
X82778571Y-119716904D01*
X82835714Y-119716904D01*
X82921428Y-119755000D01*
X82950000Y-119793095D01*
X83235714Y-120516904D02*
X83350000Y-120516904D01*
X83407142Y-120478809D01*
X83435714Y-120440714D01*
X83492857Y-120326428D01*
X83521428Y-120174047D01*
X83521428Y-119869285D01*
X83492857Y-119793095D01*
X83464285Y-119755000D01*
X83407142Y-119716904D01*
X83292857Y-119716904D01*
X83235714Y-119755000D01*
X83207142Y-119793095D01*
X83178571Y-119869285D01*
X83178571Y-120059761D01*
X83207142Y-120135952D01*
X83235714Y-120174047D01*
X83292857Y-120212142D01*
X83407142Y-120212142D01*
X83464285Y-120174047D01*
X83492857Y-120135952D01*
X83521428Y-120059761D01*
%TO.C,CX16*%
X149385714Y-71171428D02*
X149423809Y-71200000D01*
X149461904Y-71285714D01*
X149461904Y-71342857D01*
X149423809Y-71428571D01*
X149347619Y-71485714D01*
X149271428Y-71514285D01*
X149119047Y-71542857D01*
X149004761Y-71542857D01*
X148852380Y-71514285D01*
X148776190Y-71485714D01*
X148700000Y-71428571D01*
X148661904Y-71342857D01*
X148661904Y-71285714D01*
X148700000Y-71200000D01*
X148738095Y-71171428D01*
X148661904Y-70971428D02*
X149461904Y-70571428D01*
X148661904Y-70571428D02*
X149461904Y-70971428D01*
X149461904Y-70028571D02*
X149461904Y-70371428D01*
X149461904Y-70200000D02*
X148661904Y-70200000D01*
X148776190Y-70257142D01*
X148852380Y-70314285D01*
X148890476Y-70371428D01*
X148661904Y-69514285D02*
X148661904Y-69628571D01*
X148700000Y-69685714D01*
X148738095Y-69714285D01*
X148852380Y-69771428D01*
X149004761Y-69800000D01*
X149309523Y-69800000D01*
X149385714Y-69771428D01*
X149423809Y-69742857D01*
X149461904Y-69685714D01*
X149461904Y-69571428D01*
X149423809Y-69514285D01*
X149385714Y-69485714D01*
X149309523Y-69457142D01*
X149119047Y-69457142D01*
X149042857Y-69485714D01*
X149004761Y-69514285D01*
X148966666Y-69571428D01*
X148966666Y-69685714D01*
X149004761Y-69742857D01*
X149042857Y-69771428D01*
X149119047Y-69800000D01*
D11*
%TO.C,TP2*%
X116238095Y-82952380D02*
X116809523Y-82952380D01*
X116523809Y-83952380D02*
X116523809Y-82952380D01*
X117142857Y-83952380D02*
X117142857Y-82952380D01*
X117523809Y-82952380D01*
X117619047Y-83000000D01*
X117666666Y-83047619D01*
X117714285Y-83142857D01*
X117714285Y-83285714D01*
X117666666Y-83380952D01*
X117619047Y-83428571D01*
X117523809Y-83476190D01*
X117142857Y-83476190D01*
X118095238Y-83047619D02*
X118142857Y-83000000D01*
X118238095Y-82952380D01*
X118476190Y-82952380D01*
X118571428Y-83000000D01*
X118619047Y-83047619D01*
X118666666Y-83142857D01*
X118666666Y-83238095D01*
X118619047Y-83380952D01*
X118047619Y-83952380D01*
X118666666Y-83952380D01*
D12*
%TO.C,RN5*%
X130154714Y-111802664D02*
X129954714Y-111421712D01*
X129811857Y-111802664D02*
X129811857Y-111002664D01*
X130040428Y-111002664D01*
X130097571Y-111040760D01*
X130126142Y-111078855D01*
X130154714Y-111155045D01*
X130154714Y-111269331D01*
X130126142Y-111345521D01*
X130097571Y-111383617D01*
X130040428Y-111421712D01*
X129811857Y-111421712D01*
X130411857Y-111802664D02*
X130411857Y-111002664D01*
X130754714Y-111802664D01*
X130754714Y-111002664D01*
X131326142Y-111002664D02*
X131040428Y-111002664D01*
X131011857Y-111383617D01*
X131040428Y-111345521D01*
X131097571Y-111307426D01*
X131240428Y-111307426D01*
X131297571Y-111345521D01*
X131326142Y-111383617D01*
X131354714Y-111459807D01*
X131354714Y-111650283D01*
X131326142Y-111726474D01*
X131297571Y-111764569D01*
X131240428Y-111802664D01*
X131097571Y-111802664D01*
X131040428Y-111764569D01*
X131011857Y-111726474D01*
%TO.C,J1*%
X88869000Y-121000164D02*
X88869000Y-121571593D01*
X88840428Y-121685879D01*
X88783285Y-121762069D01*
X88697571Y-121800164D01*
X88640428Y-121800164D01*
X89469000Y-121800164D02*
X89126142Y-121800164D01*
X89297571Y-121800164D02*
X89297571Y-121000164D01*
X89240428Y-121114450D01*
X89183285Y-121190640D01*
X89126142Y-121228736D01*
%TO.C,J3*%
X134369000Y-121000164D02*
X134369000Y-121571593D01*
X134340428Y-121685879D01*
X134283285Y-121762069D01*
X134197571Y-121800164D01*
X134140428Y-121800164D01*
X134597571Y-121000164D02*
X134969000Y-121000164D01*
X134769000Y-121304926D01*
X134854714Y-121304926D01*
X134911857Y-121343021D01*
X134940428Y-121381117D01*
X134969000Y-121457307D01*
X134969000Y-121647783D01*
X134940428Y-121723974D01*
X134911857Y-121762069D01*
X134854714Y-121800164D01*
X134683285Y-121800164D01*
X134626142Y-121762069D01*
X134597571Y-121723974D01*
%TO.C,R51*%
X138114285Y-68931904D02*
X137914285Y-68550952D01*
X137771428Y-68931904D02*
X137771428Y-68131904D01*
X138000000Y-68131904D01*
X138057142Y-68170000D01*
X138085714Y-68208095D01*
X138114285Y-68284285D01*
X138114285Y-68398571D01*
X138085714Y-68474761D01*
X138057142Y-68512857D01*
X138000000Y-68550952D01*
X137771428Y-68550952D01*
X138657142Y-68131904D02*
X138371428Y-68131904D01*
X138342857Y-68512857D01*
X138371428Y-68474761D01*
X138428571Y-68436666D01*
X138571428Y-68436666D01*
X138628571Y-68474761D01*
X138657142Y-68512857D01*
X138685714Y-68589047D01*
X138685714Y-68779523D01*
X138657142Y-68855714D01*
X138628571Y-68893809D01*
X138571428Y-68931904D01*
X138428571Y-68931904D01*
X138371428Y-68893809D01*
X138342857Y-68855714D01*
X139257142Y-68931904D02*
X138914285Y-68931904D01*
X139085714Y-68931904D02*
X139085714Y-68131904D01*
X139028571Y-68246190D01*
X138971428Y-68322380D01*
X138914285Y-68360476D01*
%TO.C,C21*%
X136033285Y-104013974D02*
X136004714Y-104052069D01*
X135919000Y-104090164D01*
X135861857Y-104090164D01*
X135776142Y-104052069D01*
X135719000Y-103975879D01*
X135690428Y-103899688D01*
X135661857Y-103747307D01*
X135661857Y-103633021D01*
X135690428Y-103480640D01*
X135719000Y-103404450D01*
X135776142Y-103328260D01*
X135861857Y-103290164D01*
X135919000Y-103290164D01*
X136004714Y-103328260D01*
X136033285Y-103366355D01*
X136261857Y-103366355D02*
X136290428Y-103328260D01*
X136347571Y-103290164D01*
X136490428Y-103290164D01*
X136547571Y-103328260D01*
X136576142Y-103366355D01*
X136604714Y-103442545D01*
X136604714Y-103518736D01*
X136576142Y-103633021D01*
X136233285Y-104090164D01*
X136604714Y-104090164D01*
X137176142Y-104090164D02*
X136833285Y-104090164D01*
X137004714Y-104090164D02*
X137004714Y-103290164D01*
X136947571Y-103404450D01*
X136890428Y-103480640D01*
X136833285Y-103518736D01*
%TO.C,CS2*%
X114114285Y-82965714D02*
X114085714Y-83003809D01*
X114000000Y-83041904D01*
X113942857Y-83041904D01*
X113857142Y-83003809D01*
X113800000Y-82927619D01*
X113771428Y-82851428D01*
X113742857Y-82699047D01*
X113742857Y-82584761D01*
X113771428Y-82432380D01*
X113800000Y-82356190D01*
X113857142Y-82280000D01*
X113942857Y-82241904D01*
X114000000Y-82241904D01*
X114085714Y-82280000D01*
X114114285Y-82318095D01*
X114342857Y-83003809D02*
X114428571Y-83041904D01*
X114571428Y-83041904D01*
X114628571Y-83003809D01*
X114657142Y-82965714D01*
X114685714Y-82889523D01*
X114685714Y-82813333D01*
X114657142Y-82737142D01*
X114628571Y-82699047D01*
X114571428Y-82660952D01*
X114457142Y-82622857D01*
X114400000Y-82584761D01*
X114371428Y-82546666D01*
X114342857Y-82470476D01*
X114342857Y-82394285D01*
X114371428Y-82318095D01*
X114400000Y-82280000D01*
X114457142Y-82241904D01*
X114600000Y-82241904D01*
X114685714Y-82280000D01*
X114914285Y-82318095D02*
X114942857Y-82280000D01*
X115000000Y-82241904D01*
X115142857Y-82241904D01*
X115200000Y-82280000D01*
X115228571Y-82318095D01*
X115257142Y-82394285D01*
X115257142Y-82470476D01*
X115228571Y-82584761D01*
X114885714Y-83041904D01*
X115257142Y-83041904D01*
%TO.C,R1*%
X52861904Y-84500000D02*
X52480952Y-84700000D01*
X52861904Y-84842857D02*
X52061904Y-84842857D01*
X52061904Y-84614285D01*
X52100000Y-84557142D01*
X52138095Y-84528571D01*
X52214285Y-84500000D01*
X52328571Y-84500000D01*
X52404761Y-84528571D01*
X52442857Y-84557142D01*
X52480952Y-84614285D01*
X52480952Y-84842857D01*
X52861904Y-83928571D02*
X52861904Y-84271428D01*
X52861904Y-84100000D02*
X52061904Y-84100000D01*
X52176190Y-84157142D01*
X52252380Y-84214285D01*
X52290476Y-84271428D01*
%TO.C,SHB3*%
X93486582Y-82628646D02*
X93452910Y-82541099D01*
X93351895Y-82440084D01*
X93284551Y-82426615D01*
X93237411Y-82433350D01*
X93163333Y-82467022D01*
X93109458Y-82520896D01*
X93075786Y-82594974D01*
X93069052Y-82642115D01*
X93082521Y-82709458D01*
X93136396Y-82817208D01*
X93149864Y-82884551D01*
X93143130Y-82931692D01*
X93109458Y-83005770D01*
X93055583Y-83059644D01*
X92981506Y-83093316D01*
X92934365Y-83100051D01*
X92867022Y-83086582D01*
X92766006Y-82985567D01*
X92732335Y-82898020D01*
X93089255Y-82177445D02*
X92523570Y-82743130D01*
X92792944Y-82473756D02*
X92550507Y-82231319D01*
X92846819Y-81935008D02*
X92281133Y-82500693D01*
X92207055Y-81887867D02*
X92173384Y-81800321D01*
X92180118Y-81753180D01*
X92213790Y-81679103D01*
X92294602Y-81598290D01*
X92368680Y-81564619D01*
X92415820Y-81557884D01*
X92483164Y-81571353D01*
X92644788Y-81732977D01*
X92079103Y-82298663D01*
X91937681Y-82157241D01*
X91924213Y-82089898D01*
X91930947Y-82042758D01*
X91964619Y-81968680D01*
X92018493Y-81914805D01*
X92092571Y-81881133D01*
X92139712Y-81874399D01*
X92207055Y-81887867D01*
X92348477Y-82029289D01*
X91695245Y-81914805D02*
X91432605Y-81652165D01*
X91789526Y-81578087D01*
X91728916Y-81517478D01*
X91715448Y-81450135D01*
X91722182Y-81402994D01*
X91755854Y-81328916D01*
X91890541Y-81194229D01*
X91964619Y-81160558D01*
X92011759Y-81153823D01*
X92079103Y-81167292D01*
X92200321Y-81288510D01*
X92213790Y-81355854D01*
X92207055Y-81402994D01*
%TO.C,RS2*%
X111014285Y-83011904D02*
X110814285Y-82630952D01*
X110671428Y-83011904D02*
X110671428Y-82211904D01*
X110900000Y-82211904D01*
X110957142Y-82250000D01*
X110985714Y-82288095D01*
X111014285Y-82364285D01*
X111014285Y-82478571D01*
X110985714Y-82554761D01*
X110957142Y-82592857D01*
X110900000Y-82630952D01*
X110671428Y-82630952D01*
X111242857Y-82973809D02*
X111328571Y-83011904D01*
X111471428Y-83011904D01*
X111528571Y-82973809D01*
X111557142Y-82935714D01*
X111585714Y-82859523D01*
X111585714Y-82783333D01*
X111557142Y-82707142D01*
X111528571Y-82669047D01*
X111471428Y-82630952D01*
X111357142Y-82592857D01*
X111300000Y-82554761D01*
X111271428Y-82516666D01*
X111242857Y-82440476D01*
X111242857Y-82364285D01*
X111271428Y-82288095D01*
X111300000Y-82250000D01*
X111357142Y-82211904D01*
X111500000Y-82211904D01*
X111585714Y-82250000D01*
X111814285Y-82288095D02*
X111842857Y-82250000D01*
X111900000Y-82211904D01*
X112042857Y-82211904D01*
X112100000Y-82250000D01*
X112128571Y-82288095D01*
X112157142Y-82364285D01*
X112157142Y-82440476D01*
X112128571Y-82554761D01*
X111785714Y-83011904D01*
X112157142Y-83011904D01*
%TO.C,U3*%
X92011857Y-112290164D02*
X92011857Y-112937783D01*
X92040428Y-113013974D01*
X92069000Y-113052069D01*
X92126142Y-113090164D01*
X92240428Y-113090164D01*
X92297571Y-113052069D01*
X92326142Y-113013974D01*
X92354714Y-112937783D01*
X92354714Y-112290164D01*
X92583285Y-112290164D02*
X92954714Y-112290164D01*
X92754714Y-112594926D01*
X92840428Y-112594926D01*
X92897571Y-112633021D01*
X92926142Y-112671117D01*
X92954714Y-112747307D01*
X92954714Y-112937783D01*
X92926142Y-113013974D01*
X92897571Y-113052069D01*
X92840428Y-113090164D01*
X92669000Y-113090164D01*
X92611857Y-113052069D01*
X92583285Y-113013974D01*
D11*
%TO.C,TP5*%
X70288095Y-76204380D02*
X70859523Y-76204380D01*
X70573809Y-77204380D02*
X70573809Y-76204380D01*
X71192857Y-77204380D02*
X71192857Y-76204380D01*
X71573809Y-76204380D01*
X71669047Y-76252000D01*
X71716666Y-76299619D01*
X71764285Y-76394857D01*
X71764285Y-76537714D01*
X71716666Y-76632952D01*
X71669047Y-76680571D01*
X71573809Y-76728190D01*
X71192857Y-76728190D01*
X72669047Y-76204380D02*
X72192857Y-76204380D01*
X72145238Y-76680571D01*
X72192857Y-76632952D01*
X72288095Y-76585333D01*
X72526190Y-76585333D01*
X72621428Y-76632952D01*
X72669047Y-76680571D01*
X72716666Y-76775809D01*
X72716666Y-77013904D01*
X72669047Y-77109142D01*
X72621428Y-77156761D01*
X72526190Y-77204380D01*
X72288095Y-77204380D01*
X72192857Y-77156761D01*
X72145238Y-77109142D01*
D12*
%TO.C,R10*%
X96183285Y-107390164D02*
X95983285Y-107009212D01*
X95840428Y-107390164D02*
X95840428Y-106590164D01*
X96069000Y-106590164D01*
X96126142Y-106628260D01*
X96154714Y-106666355D01*
X96183285Y-106742545D01*
X96183285Y-106856831D01*
X96154714Y-106933021D01*
X96126142Y-106971117D01*
X96069000Y-107009212D01*
X95840428Y-107009212D01*
X96754714Y-107390164D02*
X96411857Y-107390164D01*
X96583285Y-107390164D02*
X96583285Y-106590164D01*
X96526142Y-106704450D01*
X96469000Y-106780640D01*
X96411857Y-106818736D01*
X97126142Y-106590164D02*
X97183285Y-106590164D01*
X97240428Y-106628260D01*
X97269000Y-106666355D01*
X97297571Y-106742545D01*
X97326142Y-106894926D01*
X97326142Y-107085402D01*
X97297571Y-107237783D01*
X97269000Y-107313974D01*
X97240428Y-107352069D01*
X97183285Y-107390164D01*
X97126142Y-107390164D01*
X97069000Y-107352069D01*
X97040428Y-107313974D01*
X97011857Y-107237783D01*
X96983285Y-107085402D01*
X96983285Y-106894926D01*
X97011857Y-106742545D01*
X97040428Y-106666355D01*
X97069000Y-106628260D01*
X97126142Y-106590164D01*
%TO.C,R8*%
X104469000Y-109390164D02*
X104269000Y-109009212D01*
X104126142Y-109390164D02*
X104126142Y-108590164D01*
X104354714Y-108590164D01*
X104411857Y-108628260D01*
X104440428Y-108666355D01*
X104469000Y-108742545D01*
X104469000Y-108856831D01*
X104440428Y-108933021D01*
X104411857Y-108971117D01*
X104354714Y-109009212D01*
X104126142Y-109009212D01*
X104811857Y-108933021D02*
X104754714Y-108894926D01*
X104726142Y-108856831D01*
X104697571Y-108780640D01*
X104697571Y-108742545D01*
X104726142Y-108666355D01*
X104754714Y-108628260D01*
X104811857Y-108590164D01*
X104926142Y-108590164D01*
X104983285Y-108628260D01*
X105011857Y-108666355D01*
X105040428Y-108742545D01*
X105040428Y-108780640D01*
X105011857Y-108856831D01*
X104983285Y-108894926D01*
X104926142Y-108933021D01*
X104811857Y-108933021D01*
X104754714Y-108971117D01*
X104726142Y-109009212D01*
X104697571Y-109085402D01*
X104697571Y-109237783D01*
X104726142Y-109313974D01*
X104754714Y-109352069D01*
X104811857Y-109390164D01*
X104926142Y-109390164D01*
X104983285Y-109352069D01*
X105011857Y-109313974D01*
X105040428Y-109237783D01*
X105040428Y-109085402D01*
X105011857Y-109009212D01*
X104983285Y-108971117D01*
X104926142Y-108933021D01*
%TO.C,C7*%
X103509580Y-100518260D02*
X103228420Y-100518260D01*
X103509580Y-101538260D02*
X103228420Y-101538260D01*
%TO.C,R33*%
X129491500Y-102065518D02*
X129491500Y-101591002D01*
X128446500Y-102065518D02*
X128446500Y-101591002D01*
%TO.C,C27*%
X88409000Y-110712680D02*
X88409000Y-110993840D01*
X89429000Y-110712680D02*
X89429000Y-110993840D01*
%TO.C,SHA2*%
X69251431Y-83330264D02*
X72330264Y-80251431D01*
X71669736Y-85748569D02*
X74748569Y-82669736D01*
%TO.C,D3*%
X90219000Y-106678260D02*
X94119000Y-106678260D01*
X90219000Y-106678260D02*
X90219000Y-108678260D01*
X90219000Y-108678260D02*
X94119000Y-108678260D01*
%TO.C,D1*%
X76169000Y-106678260D02*
X76169000Y-108678260D01*
X76169000Y-108678260D02*
X80069000Y-108678260D01*
X76169000Y-106678260D02*
X80069000Y-106678260D01*
%TO.C,R7*%
X99333564Y-109613260D02*
X98879436Y-109613260D01*
X99333564Y-108143260D02*
X98879436Y-108143260D01*
%TO.C,CX1*%
X55000000Y-50500000D02*
X83000000Y-50500000D01*
X83000000Y-50500000D02*
X83000000Y-67000000D01*
X83000000Y-67000000D02*
X55000000Y-67000000D01*
X55000000Y-67000000D02*
X55000000Y-50500000D01*
%TO.C,R3*%
X148265000Y-88427064D02*
X148265000Y-87972936D01*
X149735000Y-88427064D02*
X149735000Y-87972936D01*
%TO.C,D4*%
X108619000Y-111128260D02*
X110319000Y-111128260D01*
X110319000Y-111128260D02*
X110319000Y-108578260D01*
X108619000Y-111128260D02*
X108619000Y-108578260D01*
%TO.C,RN4*%
X144969000Y-112648260D02*
X145769000Y-112648260D01*
X144969000Y-109208260D02*
X145769000Y-109208260D01*
%TO.C,R36*%
X108306258Y-112550760D02*
X107831742Y-112550760D01*
X108306258Y-111505760D02*
X107831742Y-111505760D01*
%TO.C,C23*%
X127879000Y-101687680D02*
X127879000Y-101968840D01*
X126859000Y-101687680D02*
X126859000Y-101968840D01*
%TO.C,SHC1*%
X138169736Y-85843373D02*
X141248569Y-82764540D01*
X135751431Y-83425068D02*
X138830264Y-80346235D01*
%TO.C,TP4*%
X83700000Y-83750000D02*
G75*
G03*
X83700000Y-83750000I-1200000J0D01*
G01*
%TO.C,C19*%
X149154000Y-101862680D02*
X149154000Y-102143840D01*
X148134000Y-101862680D02*
X148134000Y-102143840D01*
%TO.C,D2*%
X83169000Y-106678260D02*
X83169000Y-108678260D01*
X83169000Y-108678260D02*
X87069000Y-108678260D01*
X83169000Y-106678260D02*
X87069000Y-106678260D01*
%TO.C,R20*%
X123231742Y-112550760D02*
X123706258Y-112550760D01*
X123231742Y-111505760D02*
X123706258Y-111505760D01*
%TO.C,R23*%
X123131742Y-105550760D02*
X123606258Y-105550760D01*
X123131742Y-104505760D02*
X123606258Y-104505760D01*
%TO.C,PH9*%
X146650000Y-74500000D02*
G75*
G03*
X146650000Y-74500000I-2250000J0D01*
G01*
%TO.C,U6*%
X50114000Y-96573260D02*
X75514000Y-96573260D01*
X75514000Y-96573260D02*
X75514000Y-121973260D01*
X75514000Y-121973260D02*
X50114000Y-121973260D01*
X50114000Y-121973260D02*
X50114000Y-96573260D01*
%TO.C,SHB1*%
X105169736Y-85748569D02*
X108248569Y-82669736D01*
X102751431Y-83330264D02*
X105830264Y-80251431D01*
%TO.C,RG1*%
X80806258Y-105205760D02*
X80331742Y-105205760D01*
X80806258Y-106250760D02*
X80331742Y-106250760D01*
%TO.C,CX13*%
X82140000Y-73838748D02*
X82140000Y-75261252D01*
X84860000Y-73838748D02*
X84860000Y-75261252D01*
%TO.C,PH4*%
X93050000Y-74500000D02*
G75*
G03*
X93050000Y-74500000I-2250000J0D01*
G01*
%TO.C,SHB2*%
X95790000Y-85677064D02*
X95790000Y-81322936D01*
X99210000Y-85677064D02*
X99210000Y-81322936D01*
%TO.C,RS3*%
X145157064Y-81735000D02*
X144702936Y-81735000D01*
X145157064Y-80265000D02*
X144702936Y-80265000D01*
%TO.C,R17*%
X105296500Y-106515518D02*
X105296500Y-106041002D01*
X106341500Y-106515518D02*
X106341500Y-106041002D01*
%TO.C,TP1*%
X73250000Y-70000000D02*
G75*
G03*
X73250000Y-70000000I-1200000J0D01*
G01*
%TO.C,R35*%
X111092500Y-106032742D02*
X111092500Y-106507258D01*
X110047500Y-106032742D02*
X110047500Y-106507258D01*
%TO.C,C31*%
X99447080Y-105788260D02*
X99165920Y-105788260D01*
X99447080Y-104768260D02*
X99165920Y-104768260D01*
%TO.C,J4*%
X108319000Y-117328260D02*
X108319000Y-117828260D01*
X108219000Y-117328260D02*
X108219000Y-117828260D01*
X108319000Y-117828260D02*
X108119000Y-117828260D01*
X115279000Y-116718260D02*
X101159000Y-116718260D01*
X113819000Y-121638260D02*
X113819000Y-121438260D01*
X115279000Y-121438260D02*
X115279000Y-116718260D01*
X115579000Y-121738260D02*
X115579000Y-120488260D01*
X101159000Y-120128260D02*
X101769000Y-120128260D01*
X114329000Y-121738260D02*
X115579000Y-121738260D01*
X112219000Y-117328260D02*
X112219000Y-117828260D01*
X115279000Y-120128260D02*
X114669000Y-120128260D01*
X112319000Y-117828260D02*
X112119000Y-117828260D01*
X113519000Y-121438260D02*
X113519000Y-121638260D01*
X104219000Y-117328260D02*
X104219000Y-117828260D01*
X113519000Y-121638260D02*
X113819000Y-121638260D01*
X101769000Y-120828260D02*
X103719000Y-120828260D01*
X110219000Y-117328260D02*
X110219000Y-117828260D01*
X112119000Y-117828260D02*
X112119000Y-117328260D01*
X108119000Y-117828260D02*
X108119000Y-117328260D01*
X104319000Y-117328260D02*
X104319000Y-117828260D01*
X104319000Y-117828260D02*
X104119000Y-117828260D01*
X106119000Y-117828260D02*
X106119000Y-117328260D01*
X101769000Y-117328260D02*
X101769000Y-120828260D01*
X115279000Y-118828260D02*
X114669000Y-118828260D01*
X106319000Y-117328260D02*
X106319000Y-117828260D01*
X103719000Y-120828260D02*
X103719000Y-121438260D01*
X106319000Y-117828260D02*
X106119000Y-117828260D01*
X106219000Y-117328260D02*
X106219000Y-117828260D01*
X114669000Y-120828260D02*
X114669000Y-117328260D01*
X110319000Y-117328260D02*
X110319000Y-117828260D01*
X101159000Y-121438260D02*
X115279000Y-121438260D01*
X110319000Y-117828260D02*
X110119000Y-117828260D01*
X104119000Y-117828260D02*
X104119000Y-117328260D01*
X113519000Y-121538260D02*
X113819000Y-121538260D01*
X112719000Y-120828260D02*
X114669000Y-120828260D01*
X112319000Y-117328260D02*
X112319000Y-117828260D01*
X101159000Y-116718260D02*
X101159000Y-121438260D01*
X114669000Y-117328260D02*
X101769000Y-117328260D01*
X110119000Y-117828260D02*
X110119000Y-117328260D01*
X112719000Y-121438260D02*
X112719000Y-120828260D01*
X101159000Y-118828260D02*
X101769000Y-118828260D01*
%TO.C,R27*%
X106796500Y-106515518D02*
X106796500Y-106041002D01*
X107841500Y-106515518D02*
X107841500Y-106041002D01*
%TO.C,R32*%
X112602500Y-106507258D02*
X112602500Y-106032742D01*
X111557500Y-106507258D02*
X111557500Y-106032742D01*
%TO.C,SHC3*%
X128740000Y-85689564D02*
X128740000Y-81335436D01*
X132160000Y-85689564D02*
X132160000Y-81335436D01*
%TO.C,R22*%
X123131742Y-107150760D02*
X123606258Y-107150760D01*
X123131742Y-106105760D02*
X123606258Y-106105760D01*
%TO.C,TP11*%
X74319000Y-106778260D02*
G75*
G03*
X74319000Y-106778260I-1750000J0D01*
G01*
%TO.C,C29*%
X102165920Y-111568260D02*
X102447080Y-111568260D01*
X102165920Y-112588260D02*
X102447080Y-112588260D01*
%TO.C,R14*%
X146365000Y-88427064D02*
X146365000Y-87972936D01*
X147835000Y-88427064D02*
X147835000Y-87972936D01*
%TO.C,RN2*%
X116919000Y-116058260D02*
X117719000Y-116058260D01*
X116919000Y-119498260D02*
X117719000Y-119498260D01*
%TO.C,C6*%
X148379000Y-111518840D02*
X148379000Y-111237680D01*
X147359000Y-111518840D02*
X147359000Y-111237680D01*
%TO.C,R29*%
X111306258Y-112550760D02*
X110831742Y-112550760D01*
X111306258Y-111505760D02*
X110831742Y-111505760D01*
%TO.C,R34*%
X125246500Y-102065518D02*
X125246500Y-101591002D01*
X126291500Y-102065518D02*
X126291500Y-101591002D01*
%TO.C,SHA1*%
X58748569Y-83330264D02*
X55669736Y-80251431D01*
X56330264Y-85748569D02*
X53251431Y-82669736D01*
%TO.C,C18*%
X113209000Y-101837680D02*
X113209000Y-102118840D01*
X114229000Y-101837680D02*
X114229000Y-102118840D01*
%TO.C,CS3*%
X144678748Y-83705000D02*
X145201252Y-83705000D01*
X144678748Y-82235000D02*
X145201252Y-82235000D01*
%TO.C,R48*%
X61737258Y-79022500D02*
X61262742Y-79022500D01*
X61737258Y-77977500D02*
X61262742Y-77977500D01*
%TO.C,C10*%
X87678420Y-121438260D02*
X87959580Y-121438260D01*
X87678420Y-120418260D02*
X87959580Y-120418260D01*
%TO.C,RN3*%
X132849000Y-111728260D02*
X132849000Y-110928260D01*
X136289000Y-111728260D02*
X136289000Y-110928260D01*
%TO.C,R50*%
X105237258Y-77977500D02*
X104762742Y-77977500D01*
X105237258Y-79022500D02*
X104762742Y-79022500D01*
%TO.C,TP9*%
X129200000Y-78750000D02*
G75*
G03*
X129200000Y-78750000I-1200000J0D01*
G01*
%TO.C,R16*%
X104041500Y-103515518D02*
X104041500Y-103041002D01*
X102996500Y-103515518D02*
X102996500Y-103041002D01*
%TO.C,PH5*%
X114500000Y-74450000D02*
G75*
G03*
X114500000Y-74450000I-2250000J0D01*
G01*
%TO.C,R25*%
X105996500Y-103515518D02*
X105996500Y-103041002D01*
X107041500Y-103515518D02*
X107041500Y-103041002D01*
%TO.C,D5*%
X127219000Y-106428260D02*
X127219000Y-103878260D01*
X127219000Y-106428260D02*
X128919000Y-106428260D01*
X128919000Y-106428260D02*
X128919000Y-103878260D01*
%TO.C,R24*%
X105541500Y-103515518D02*
X105541500Y-103041002D01*
X104496500Y-103515518D02*
X104496500Y-103041002D01*
%TO.C,R5*%
X99333564Y-111513260D02*
X98879436Y-111513260D01*
X99333564Y-110043260D02*
X98879436Y-110043260D01*
%TO.C,SW1*%
X50200000Y-82987867D02*
G75*
G03*
X51649359Y-83084905I700000J-417133D01*
G01*
%TO.C,R2*%
X131146500Y-108528018D02*
X131146500Y-108053502D01*
X132191500Y-108528018D02*
X132191500Y-108053502D01*
%TO.C,RN1*%
X141919000Y-112648260D02*
X141119000Y-112648260D01*
X141919000Y-109208260D02*
X141119000Y-109208260D01*
%TO.C,R31*%
X121591500Y-106065518D02*
X121591500Y-105591002D01*
X120546500Y-106065518D02*
X120546500Y-105591002D01*
%TO.C,C15*%
X141009000Y-107668840D02*
X141009000Y-107387680D01*
X142029000Y-107668840D02*
X142029000Y-107387680D01*
%TO.C,SHA3*%
X62290000Y-85677064D02*
X62290000Y-81322936D01*
X65710000Y-85677064D02*
X65710000Y-81322936D01*
%TO.C,CX14*%
X118240000Y-73788748D02*
X118240000Y-75211252D01*
X120960000Y-73788748D02*
X120960000Y-75211252D01*
%TO.C,CS1*%
X81561252Y-81735000D02*
X81038748Y-81735000D01*
X81561252Y-80265000D02*
X81038748Y-80265000D01*
%TO.C,TP3*%
X94769000Y-101028260D02*
G75*
G03*
X94769000Y-101028260I-1200000J0D01*
G01*
%TO.C,R19*%
X123231742Y-110950760D02*
X123706258Y-110950760D01*
X123231742Y-109905760D02*
X123706258Y-109905760D01*
%TO.C,R6*%
X102543758Y-110055760D02*
X102069242Y-110055760D01*
X102543758Y-111100760D02*
X102069242Y-111100760D01*
%TO.C,C14*%
X140479000Y-107668840D02*
X140479000Y-107387680D01*
X139459000Y-107668840D02*
X139459000Y-107387680D01*
%TO.C,RG6*%
X95396500Y-114091002D02*
X95396500Y-114565518D01*
X96441500Y-114091002D02*
X96441500Y-114565518D01*
%TO.C,C20*%
X121728420Y-109038260D02*
X122009580Y-109038260D01*
X121728420Y-108018260D02*
X122009580Y-108018260D01*
%TO.C,PH8*%
X126050000Y-74500000D02*
G75*
G03*
X126050000Y-74500000I-2250000J0D01*
G01*
%TO.C,R52*%
X138737258Y-77977500D02*
X138262742Y-77977500D01*
X138737258Y-79022500D02*
X138262742Y-79022500D01*
%TO.C,J2*%
X119969000Y-120828260D02*
X121919000Y-120828260D01*
X133479000Y-116718260D02*
X119359000Y-116718260D01*
X131719000Y-121438260D02*
X131719000Y-121638260D01*
X121919000Y-120828260D02*
X121919000Y-121438260D01*
X130419000Y-117328260D02*
X130419000Y-117828260D01*
X131719000Y-121538260D02*
X132019000Y-121538260D01*
X132529000Y-121738260D02*
X133779000Y-121738260D01*
X128319000Y-117828260D02*
X128319000Y-117328260D01*
X126519000Y-117328260D02*
X126519000Y-117828260D01*
X128519000Y-117328260D02*
X128519000Y-117828260D01*
X130519000Y-117828260D02*
X130319000Y-117828260D01*
X128419000Y-117328260D02*
X128419000Y-117828260D01*
X124419000Y-117328260D02*
X124419000Y-117828260D01*
X132869000Y-120828260D02*
X132869000Y-117328260D01*
X124519000Y-117328260D02*
X124519000Y-117828260D01*
X131719000Y-121638260D02*
X132019000Y-121638260D01*
X132019000Y-121638260D02*
X132019000Y-121438260D01*
X119359000Y-121438260D02*
X133479000Y-121438260D01*
X119969000Y-117328260D02*
X119969000Y-120828260D01*
X124519000Y-117828260D02*
X124319000Y-117828260D01*
X130319000Y-117828260D02*
X130319000Y-117328260D01*
X126319000Y-117828260D02*
X126319000Y-117328260D01*
X133779000Y-121738260D02*
X133779000Y-120488260D01*
X133479000Y-120128260D02*
X132869000Y-120128260D01*
X126519000Y-117828260D02*
X126319000Y-117828260D01*
X128519000Y-117828260D02*
X128319000Y-117828260D01*
X122419000Y-117328260D02*
X122419000Y-117828260D01*
X133479000Y-118828260D02*
X132869000Y-118828260D01*
X122519000Y-117828260D02*
X122319000Y-117828260D01*
X130519000Y-117328260D02*
X130519000Y-117828260D01*
X119359000Y-120128260D02*
X119969000Y-120128260D01*
X132869000Y-117328260D02*
X119969000Y-117328260D01*
X119359000Y-118828260D02*
X119969000Y-118828260D01*
X122319000Y-117828260D02*
X122319000Y-117328260D01*
X126419000Y-117328260D02*
X126419000Y-117828260D01*
X130919000Y-121438260D02*
X130919000Y-120828260D01*
X124319000Y-117828260D02*
X124319000Y-117328260D01*
X133479000Y-121438260D02*
X133479000Y-116718260D01*
X119359000Y-116718260D02*
X119359000Y-121438260D01*
X122519000Y-117328260D02*
X122519000Y-117828260D01*
X130919000Y-120828260D02*
X132869000Y-120828260D01*
%TO.C,C17*%
X138559000Y-111418840D02*
X138559000Y-111137680D01*
X139579000Y-111418840D02*
X139579000Y-111137680D01*
%TO.C,U8*%
X57219000Y-109118260D02*
X57219000Y-121538260D01*
X57319000Y-109100260D02*
X52239000Y-109100260D01*
X52239000Y-109100260D02*
X52239000Y-110624260D01*
X52239000Y-110624260D02*
X57319000Y-110624260D01*
X57319000Y-110624260D02*
X57319000Y-109100260D01*
X57319000Y-110624260D02*
X52239000Y-110624260D01*
X52239000Y-110624260D02*
X52239000Y-121546260D01*
X52239000Y-121546260D02*
X57319000Y-121546260D01*
X57319000Y-121546260D02*
X57319000Y-110624260D01*
%TO.C,C26*%
X81409000Y-110737680D02*
X81409000Y-111018840D01*
X82429000Y-110737680D02*
X82429000Y-111018840D01*
%TO.C,C30*%
X102165920Y-108088260D02*
X102447080Y-108088260D01*
X102165920Y-107068260D02*
X102447080Y-107068260D01*
%TO.C,U7*%
X75864000Y-116683260D02*
X88284000Y-116683260D01*
X77370000Y-116583260D02*
X88292000Y-116583260D01*
X88292000Y-116583260D02*
X88292000Y-121663260D01*
X88292000Y-121663260D02*
X77370000Y-121663260D01*
X77370000Y-121663260D02*
X77370000Y-116583260D01*
X75846000Y-116583260D02*
X77370000Y-116583260D01*
X77370000Y-116583260D02*
X77370000Y-121663260D01*
X77370000Y-121663260D02*
X75846000Y-121663260D01*
X75846000Y-121663260D02*
X75846000Y-116583260D01*
%TO.C,C24*%
X108560000Y-106410580D02*
X108560000Y-106129420D01*
X109580000Y-106410580D02*
X109580000Y-106129420D01*
%TO.C,R15*%
X147666500Y-102240518D02*
X147666500Y-101766002D01*
X146621500Y-102240518D02*
X146621500Y-101766002D01*
%TO.C,R30*%
X120546500Y-110991002D02*
X120546500Y-111465518D01*
X121591500Y-110991002D02*
X121591500Y-111465518D01*
%TO.C,C25*%
X105309000Y-111418840D02*
X105309000Y-111137680D01*
X106329000Y-111418840D02*
X106329000Y-111137680D01*
%TO.C,PH3*%
X70600000Y-74550000D02*
G75*
G03*
X70600000Y-74550000I-2250000J0D01*
G01*
%TO.C,R9*%
X129646500Y-108053502D02*
X129646500Y-108528018D01*
X130691500Y-108053502D02*
X130691500Y-108528018D01*
%TO.C,C3*%
X91428420Y-106238260D02*
X91709580Y-106238260D01*
X91428420Y-105218260D02*
X91709580Y-105218260D01*
%TO.C,RG4*%
X88396500Y-113991002D02*
X88396500Y-114465518D01*
X89441500Y-113991002D02*
X89441500Y-114465518D01*
%TO.C,R21*%
X126231742Y-107205760D02*
X126706258Y-107205760D01*
X126231742Y-108250760D02*
X126706258Y-108250760D01*
%TO.C,D6*%
X129219000Y-106428260D02*
X129219000Y-103878260D01*
X129219000Y-106428260D02*
X130919000Y-106428260D01*
X130919000Y-106428260D02*
X130919000Y-103878260D01*
%TO.C,PH2*%
X60050000Y-74500000D02*
G75*
G03*
X60050000Y-74500000I-2250000J0D01*
G01*
%TO.C,CX12*%
X88110000Y-73838748D02*
X88110000Y-75261252D01*
X85390000Y-73838748D02*
X85390000Y-75261252D01*
%TO.C,PH1*%
X81500000Y-74500000D02*
G75*
G03*
X81500000Y-74500000I-2250000J0D01*
G01*
%TO.C,C8*%
X87678420Y-118868260D02*
X87959580Y-118868260D01*
X87678420Y-119888260D02*
X87959580Y-119888260D01*
%TO.C,PH6*%
X103500000Y-74500000D02*
G75*
G03*
X103500000Y-74500000I-2250000J0D01*
G01*
%TO.C,CX15*%
X114990000Y-73788748D02*
X114990000Y-75211252D01*
X117710000Y-73788748D02*
X117710000Y-75211252D01*
%TO.C,RG3*%
X87856258Y-105205760D02*
X87381742Y-105205760D01*
X87856258Y-106250760D02*
X87381742Y-106250760D01*
%TO.C,C1*%
X77378420Y-106238260D02*
X77659580Y-106238260D01*
X77378420Y-105218260D02*
X77659580Y-105218260D01*
%TO.C,C12*%
X80278420Y-120418260D02*
X80559580Y-120418260D01*
X80278420Y-121438260D02*
X80559580Y-121438260D01*
%TO.C,TP10*%
X145700000Y-89000000D02*
G75*
G03*
X145700000Y-89000000I-1200000J0D01*
G01*
%TO.C,RS1*%
X78127064Y-81735000D02*
X77672936Y-81735000D01*
X78127064Y-80265000D02*
X77672936Y-80265000D01*
%TO.C,R49*%
X105262742Y-69677500D02*
X105737258Y-69677500D01*
X105262742Y-70722500D02*
X105737258Y-70722500D01*
%TO.C,C2*%
X84428420Y-106238260D02*
X84709580Y-106238260D01*
X84428420Y-105218260D02*
X84709580Y-105218260D01*
%TO.C,R26*%
X107496500Y-103527258D02*
X107496500Y-103052742D01*
X108541500Y-103527258D02*
X108541500Y-103052742D01*
%TO.C,TP7*%
X95700000Y-78800000D02*
G75*
G03*
X95700000Y-78800000I-1200000J0D01*
G01*
%TO.C,C22*%
X130059000Y-101687680D02*
X130059000Y-101968840D01*
X131079000Y-101687680D02*
X131079000Y-101968840D01*
%TO.C,C5*%
X53488748Y-87135000D02*
X54011252Y-87135000D01*
X53488748Y-85665000D02*
X54011252Y-85665000D01*
%TO.C,PH7*%
X136550000Y-74500000D02*
G75*
G03*
X136550000Y-74500000I-2250000J0D01*
G01*
%TO.C,U4*%
X116619000Y-112713260D02*
X114669000Y-112713260D01*
X116619000Y-103843260D02*
X118569000Y-103843260D01*
X116619000Y-103843260D02*
X114669000Y-103843260D01*
X116619000Y-112713260D02*
X120069000Y-112713260D01*
%TO.C,R11*%
X102543758Y-106600760D02*
X102069242Y-106600760D01*
X102543758Y-105555760D02*
X102069242Y-105555760D01*
%TO.C,C13*%
X77228420Y-120418260D02*
X77509580Y-120418260D01*
X77228420Y-121438260D02*
X77509580Y-121438260D01*
%TO.C,CX2*%
X86500000Y-50500000D02*
X114500000Y-50500000D01*
X114500000Y-50500000D02*
X114500000Y-67000000D01*
X114500000Y-67000000D02*
X86500000Y-67000000D01*
X86500000Y-67000000D02*
X86500000Y-50500000D01*
%TO.C,CX3*%
X118495000Y-50500000D02*
X146495000Y-50500000D01*
X146495000Y-50500000D02*
X146495000Y-67000000D01*
X146495000Y-67000000D02*
X118495000Y-67000000D01*
X118495000Y-67000000D02*
X118495000Y-50500000D01*
%TO.C,R18*%
X126231742Y-109750760D02*
X126706258Y-109750760D01*
X126231742Y-108705760D02*
X126706258Y-108705760D01*
%TO.C,R4*%
X146621500Y-105340518D02*
X146621500Y-104866002D01*
X147666500Y-105340518D02*
X147666500Y-104866002D01*
%TO.C,RG5*%
X94856258Y-105205760D02*
X94381742Y-105205760D01*
X94856258Y-106250760D02*
X94381742Y-106250760D01*
%TO.C,C28*%
X96429000Y-110687680D02*
X96429000Y-110968840D01*
X95409000Y-110687680D02*
X95409000Y-110968840D01*
%TO.C,C11*%
X77228420Y-119888260D02*
X77509580Y-119888260D01*
X77228420Y-118868260D02*
X77509580Y-118868260D01*
%TO.C,C16*%
X142559000Y-107668840D02*
X142559000Y-107387680D01*
X143579000Y-107668840D02*
X143579000Y-107387680D01*
%TO.C,RG2*%
X82441500Y-113991002D02*
X82441500Y-114465518D01*
X81396500Y-113991002D02*
X81396500Y-114465518D01*
%TO.C,CX11*%
X51090000Y-73938748D02*
X51090000Y-75361252D01*
X53810000Y-73938748D02*
X53810000Y-75361252D01*
%TO.C,NTC1*%
X134331133Y-107978260D02*
G75*
G03*
X134234095Y-109427619I-417133J-700000D01*
G01*
%TO.C,R47*%
X61262742Y-69477500D02*
X61737258Y-69477500D01*
X61262742Y-70522500D02*
X61737258Y-70522500D01*
%TO.C,U5*%
X97799000Y-115538260D02*
X100339000Y-115538260D01*
X100339000Y-115538260D02*
X100339000Y-112998260D01*
X100339000Y-112998260D02*
X97799000Y-112998260D01*
X97799000Y-112998260D02*
X97799000Y-115538260D01*
X97799000Y-115538260D02*
X148599000Y-115538260D01*
X148599000Y-115538260D02*
X148599000Y-112998260D01*
X148599000Y-112998260D02*
X97799000Y-112998260D01*
X97799000Y-112998260D02*
X97799000Y-115538260D01*
X96529000Y-118078260D02*
X149869000Y-118078260D01*
X149869000Y-118078260D02*
X149869000Y-95218260D01*
X149869000Y-95218260D02*
X96529000Y-95218260D01*
X96529000Y-95218260D02*
X96529000Y-118078260D01*
X97799000Y-100298260D02*
X100339000Y-100298260D01*
X100339000Y-100298260D02*
X100339000Y-97758260D01*
X100339000Y-97758260D02*
X97799000Y-97758260D01*
X97799000Y-97758260D02*
X97799000Y-100298260D01*
X97799000Y-100298260D02*
X148599000Y-100298260D01*
X148599000Y-100298260D02*
X148599000Y-97758260D01*
X148599000Y-97758260D02*
X97799000Y-97758260D01*
X97799000Y-97758260D02*
X97799000Y-100298260D01*
%TO.C,TP8*%
X129650000Y-70000000D02*
G75*
G03*
X129650000Y-70000000I-1200000J0D01*
G01*
%TO.C,R12*%
X137896500Y-107291002D02*
X137896500Y-107765518D01*
X138941500Y-107291002D02*
X138941500Y-107765518D01*
%TO.C,U1*%
X75859000Y-112578260D02*
X75859000Y-116028260D01*
X75859000Y-112578260D02*
X75859000Y-110628260D01*
X80979000Y-112578260D02*
X80979000Y-110628260D01*
X80979000Y-112578260D02*
X80979000Y-114528260D01*
%TO.C,SHC2*%
X125748569Y-83425068D02*
X122669736Y-80346235D01*
X123330264Y-85843373D02*
X120251431Y-82764540D01*
%TO.C,C4*%
X148134000Y-104962680D02*
X148134000Y-105243840D01*
X149154000Y-104962680D02*
X149154000Y-105243840D01*
%TO.C,U2*%
X87979000Y-112578260D02*
X87979000Y-110628260D01*
X82859000Y-112578260D02*
X82859000Y-110628260D01*
X82859000Y-112578260D02*
X82859000Y-116028260D01*
X87979000Y-112578260D02*
X87979000Y-114528260D01*
%TO.C,TP6*%
X96200000Y-70000000D02*
G75*
G03*
X96200000Y-70000000I-1200000J0D01*
G01*
%TO.C,C9*%
X84940580Y-121440000D02*
X84659420Y-121440000D01*
X84940580Y-120420000D02*
X84659420Y-120420000D01*
%TO.C,CX16*%
X147040000Y-74188748D02*
X147040000Y-75611252D01*
X149760000Y-74188748D02*
X149760000Y-75611252D01*
%TO.C,TP2*%
X117450000Y-85250000D02*
G75*
G03*
X117450000Y-85250000I-1200000J0D01*
G01*
%TO.C,RN5*%
X132289000Y-110940760D02*
X132289000Y-111740760D01*
X128849000Y-110940760D02*
X128849000Y-111740760D01*
%TO.C,J1*%
X99219000Y-120828260D02*
X99219000Y-117328260D01*
X99829000Y-121438260D02*
X99829000Y-116718260D01*
X99829000Y-116718260D02*
X89709000Y-116718260D01*
X92869000Y-117328260D02*
X92869000Y-117828260D01*
X98369000Y-121638260D02*
X98369000Y-121438260D01*
X92769000Y-117328260D02*
X92769000Y-117828260D01*
X98069000Y-121538260D02*
X98369000Y-121538260D01*
X98069000Y-121438260D02*
X98069000Y-121638260D01*
X100129000Y-121738260D02*
X100129000Y-120488260D01*
X96769000Y-117328260D02*
X96769000Y-117828260D01*
X94869000Y-117828260D02*
X94669000Y-117828260D01*
X99829000Y-118828260D02*
X99219000Y-118828260D01*
X97269000Y-121438260D02*
X97269000Y-120828260D01*
X89709000Y-116718260D02*
X89709000Y-121438260D01*
X94669000Y-117828260D02*
X94669000Y-117328260D01*
X96869000Y-117328260D02*
X96869000Y-117828260D01*
X99219000Y-117328260D02*
X90319000Y-117328260D01*
X99829000Y-120128260D02*
X99219000Y-120128260D01*
X97269000Y-120828260D02*
X99219000Y-120828260D01*
X94769000Y-117328260D02*
X94769000Y-117828260D01*
X98879000Y-121738260D02*
X100129000Y-121738260D01*
X89709000Y-121438260D02*
X99829000Y-121438260D01*
X90319000Y-117328260D02*
X90319000Y-120828260D01*
X96669000Y-117828260D02*
X96669000Y-117328260D01*
X94869000Y-117328260D02*
X94869000Y-117828260D01*
X96869000Y-117828260D02*
X96669000Y-117828260D01*
X92269000Y-120828260D02*
X92269000Y-121438260D01*
X90319000Y-120828260D02*
X92269000Y-120828260D01*
X92869000Y-117828260D02*
X92669000Y-117828260D01*
X98069000Y-121638260D02*
X98369000Y-121638260D01*
X89709000Y-118828260D02*
X90319000Y-118828260D01*
X89709000Y-120128260D02*
X90319000Y-120128260D01*
X92669000Y-117828260D02*
X92669000Y-117328260D01*
%TO.C,J3*%
X138269000Y-117828260D02*
X138069000Y-117828260D01*
X147469000Y-121538260D02*
X147769000Y-121538260D01*
X148619000Y-120828260D02*
X148619000Y-117328260D01*
X140269000Y-117828260D02*
X140069000Y-117828260D01*
X146169000Y-117328260D02*
X146169000Y-117828260D01*
X140169000Y-117328260D02*
X140169000Y-117828260D01*
X135719000Y-120828260D02*
X137669000Y-120828260D01*
X144169000Y-117328260D02*
X144169000Y-117828260D01*
X140069000Y-117828260D02*
X140069000Y-117328260D01*
X146669000Y-121438260D02*
X146669000Y-120828260D01*
X142169000Y-117328260D02*
X142169000Y-117828260D01*
X147469000Y-121438260D02*
X147469000Y-121638260D01*
X146269000Y-117828260D02*
X146069000Y-117828260D01*
X144269000Y-117828260D02*
X144069000Y-117828260D01*
X142069000Y-117828260D02*
X142069000Y-117328260D01*
X142269000Y-117328260D02*
X142269000Y-117828260D01*
X135109000Y-116718260D02*
X135109000Y-121438260D01*
X149529000Y-121738260D02*
X149529000Y-120488260D01*
X149229000Y-118828260D02*
X148619000Y-118828260D01*
X149229000Y-121438260D02*
X149229000Y-116718260D01*
X144069000Y-117828260D02*
X144069000Y-117328260D01*
X138069000Y-117828260D02*
X138069000Y-117328260D01*
X146669000Y-120828260D02*
X148619000Y-120828260D01*
X149229000Y-116718260D02*
X135109000Y-116718260D01*
X149229000Y-120128260D02*
X148619000Y-120128260D01*
X138169000Y-117328260D02*
X138169000Y-117828260D01*
X142269000Y-117828260D02*
X142069000Y-117828260D01*
X137669000Y-120828260D02*
X137669000Y-121438260D01*
X144269000Y-117328260D02*
X144269000Y-117828260D01*
X147469000Y-121638260D02*
X147769000Y-121638260D01*
X146069000Y-117828260D02*
X146069000Y-117328260D01*
X135719000Y-117328260D02*
X135719000Y-120828260D01*
X148619000Y-117328260D02*
X135719000Y-117328260D01*
X146269000Y-117328260D02*
X146269000Y-117828260D01*
X135109000Y-118828260D02*
X135719000Y-118828260D01*
X140269000Y-117328260D02*
X140269000Y-117828260D01*
X135109000Y-120128260D02*
X135719000Y-120128260D01*
X135109000Y-121438260D02*
X149229000Y-121438260D01*
X147769000Y-121638260D02*
X147769000Y-121438260D01*
X138269000Y-117328260D02*
X138269000Y-117828260D01*
X148279000Y-121738260D02*
X149529000Y-121738260D01*
%TO.C,R51*%
X138262742Y-69477500D02*
X138737258Y-69477500D01*
X138262742Y-70522500D02*
X138737258Y-70522500D01*
%TO.C,C21*%
X136509580Y-104518260D02*
X136228420Y-104518260D01*
X136509580Y-105538260D02*
X136228420Y-105538260D01*
%TO.C,CS2*%
X115061252Y-81735000D02*
X114538748Y-81735000D01*
X115061252Y-80265000D02*
X114538748Y-80265000D01*
%TO.C,R1*%
X50265000Y-85927064D02*
X50265000Y-85472936D01*
X51735000Y-85927064D02*
X51735000Y-85472936D01*
%TO.C,SHB3*%
X89830264Y-85748569D02*
X86751431Y-82669736D01*
X92248569Y-83330264D02*
X89169736Y-80251431D01*
%TO.C,RS2*%
X111627064Y-81735000D02*
X111172936Y-81735000D01*
X111627064Y-80265000D02*
X111172936Y-80265000D01*
%TO.C,U3*%
X89859000Y-112578260D02*
X89859000Y-110628260D01*
X94979000Y-112578260D02*
X94979000Y-110628260D01*
X89859000Y-112578260D02*
X89859000Y-116028260D01*
X94979000Y-112578260D02*
X94979000Y-114528260D01*
%TO.C,R13*%
X117556258Y-119955760D02*
X117081742Y-119955760D01*
X117556258Y-121000760D02*
X117081742Y-121000760D01*
%TO.C,TP5*%
X72750000Y-78750000D02*
G75*
G03*
X72750000Y-78750000I-1200000J0D01*
G01*
%TO.C,R10*%
X99333564Y-107713260D02*
X98879436Y-107713260D01*
X99333564Y-106243260D02*
X98879436Y-106243260D01*
%TO.C,R8*%
X102543758Y-108555760D02*
X102069242Y-108555760D01*
X102543758Y-109600760D02*
X102069242Y-109600760D01*
%TD*%
M02*
