%TF.GenerationSoftware,KiCad,Pcbnew,(6.0.4)*%
%TF.CreationDate,2022-07-25T23:44:37+01:00*%
%TF.ProjectId,CCC_ESC,4343435f-4553-4432-9e6b-696361645f70,rev?*%
%TF.SameCoordinates,Original*%
%TF.FileFunction,Legend,Bot*%
%TF.FilePolarity,Positive*%
%FSLAX46Y46*%
G04 Gerber Fmt 4.6, Leading zero omitted, Abs format (unit mm)*
G04 Created by KiCad (PCBNEW (6.0.4)) date 2022-07-25 23:44:37*
%MOMM*%
%LPD*%
G01*
G04 APERTURE LIST*
%ADD10C,0.120000*%
%ADD11C,0.150000*%
G04 APERTURE END LIST*
D10*
%TO.C,C10*%
X88254714Y-121313974D02*
X88283285Y-121352069D01*
X88369000Y-121390164D01*
X88426142Y-121390164D01*
X88511857Y-121352069D01*
X88569000Y-121275879D01*
X88597571Y-121199688D01*
X88626142Y-121047307D01*
X88626142Y-120933021D01*
X88597571Y-120780640D01*
X88569000Y-120704450D01*
X88511857Y-120628260D01*
X88426142Y-120590164D01*
X88369000Y-120590164D01*
X88283285Y-120628260D01*
X88254714Y-120666355D01*
X87683285Y-121390164D02*
X88026142Y-121390164D01*
X87854714Y-121390164D02*
X87854714Y-120590164D01*
X87911857Y-120704450D01*
X87969000Y-120780640D01*
X88026142Y-120818736D01*
X87311857Y-120590164D02*
X87254714Y-120590164D01*
X87197571Y-120628260D01*
X87169000Y-120666355D01*
X87140428Y-120742545D01*
X87111857Y-120894926D01*
X87111857Y-121085402D01*
X87140428Y-121237783D01*
X87169000Y-121313974D01*
X87197571Y-121352069D01*
X87254714Y-121390164D01*
X87311857Y-121390164D01*
X87369000Y-121352069D01*
X87397571Y-121313974D01*
X87426142Y-121237783D01*
X87454714Y-121085402D01*
X87454714Y-120894926D01*
X87426142Y-120742545D01*
X87397571Y-120666355D01*
X87369000Y-120628260D01*
X87311857Y-120590164D01*
%TO.C,C8*%
X87919000Y-119813974D02*
X87947571Y-119852069D01*
X88033285Y-119890164D01*
X88090428Y-119890164D01*
X88176142Y-119852069D01*
X88233285Y-119775879D01*
X88261857Y-119699688D01*
X88290428Y-119547307D01*
X88290428Y-119433021D01*
X88261857Y-119280640D01*
X88233285Y-119204450D01*
X88176142Y-119128260D01*
X88090428Y-119090164D01*
X88033285Y-119090164D01*
X87947571Y-119128260D01*
X87919000Y-119166355D01*
X87576142Y-119433021D02*
X87633285Y-119394926D01*
X87661857Y-119356831D01*
X87690428Y-119280640D01*
X87690428Y-119242545D01*
X87661857Y-119166355D01*
X87633285Y-119128260D01*
X87576142Y-119090164D01*
X87461857Y-119090164D01*
X87404714Y-119128260D01*
X87376142Y-119166355D01*
X87347571Y-119242545D01*
X87347571Y-119280640D01*
X87376142Y-119356831D01*
X87404714Y-119394926D01*
X87461857Y-119433021D01*
X87576142Y-119433021D01*
X87633285Y-119471117D01*
X87661857Y-119509212D01*
X87690428Y-119585402D01*
X87690428Y-119737783D01*
X87661857Y-119813974D01*
X87633285Y-119852069D01*
X87576142Y-119890164D01*
X87461857Y-119890164D01*
X87404714Y-119852069D01*
X87376142Y-119813974D01*
X87347571Y-119737783D01*
X87347571Y-119585402D01*
X87376142Y-119509212D01*
X87404714Y-119471117D01*
X87461857Y-119433021D01*
%TO.C,C12*%
X80754714Y-121313974D02*
X80783285Y-121352069D01*
X80869000Y-121390164D01*
X80926142Y-121390164D01*
X81011857Y-121352069D01*
X81069000Y-121275879D01*
X81097571Y-121199688D01*
X81126142Y-121047307D01*
X81126142Y-120933021D01*
X81097571Y-120780640D01*
X81069000Y-120704450D01*
X81011857Y-120628260D01*
X80926142Y-120590164D01*
X80869000Y-120590164D01*
X80783285Y-120628260D01*
X80754714Y-120666355D01*
X80183285Y-121390164D02*
X80526142Y-121390164D01*
X80354714Y-121390164D02*
X80354714Y-120590164D01*
X80411857Y-120704450D01*
X80469000Y-120780640D01*
X80526142Y-120818736D01*
X79954714Y-120666355D02*
X79926142Y-120628260D01*
X79869000Y-120590164D01*
X79726142Y-120590164D01*
X79669000Y-120628260D01*
X79640428Y-120666355D01*
X79611857Y-120742545D01*
X79611857Y-120818736D01*
X79640428Y-120933021D01*
X79983285Y-121390164D01*
X79611857Y-121390164D01*
%TO.C,C13*%
X77755714Y-121313974D02*
X77784285Y-121352069D01*
X77870000Y-121390164D01*
X77927142Y-121390164D01*
X78012857Y-121352069D01*
X78070000Y-121275879D01*
X78098571Y-121199688D01*
X78127142Y-121047307D01*
X78127142Y-120933021D01*
X78098571Y-120780640D01*
X78070000Y-120704450D01*
X78012857Y-120628260D01*
X77927142Y-120590164D01*
X77870000Y-120590164D01*
X77784285Y-120628260D01*
X77755714Y-120666355D01*
X77184285Y-121390164D02*
X77527142Y-121390164D01*
X77355714Y-121390164D02*
X77355714Y-120590164D01*
X77412857Y-120704450D01*
X77470000Y-120780640D01*
X77527142Y-120818736D01*
X76984285Y-120590164D02*
X76612857Y-120590164D01*
X76812857Y-120894926D01*
X76727142Y-120894926D01*
X76670000Y-120933021D01*
X76641428Y-120971117D01*
X76612857Y-121047307D01*
X76612857Y-121237783D01*
X76641428Y-121313974D01*
X76670000Y-121352069D01*
X76727142Y-121390164D01*
X76898571Y-121390164D01*
X76955714Y-121352069D01*
X76984285Y-121313974D01*
%TO.C,C11*%
X77954714Y-119563974D02*
X77983285Y-119602069D01*
X78069000Y-119640164D01*
X78126142Y-119640164D01*
X78211857Y-119602069D01*
X78269000Y-119525879D01*
X78297571Y-119449688D01*
X78326142Y-119297307D01*
X78326142Y-119183021D01*
X78297571Y-119030640D01*
X78269000Y-118954450D01*
X78211857Y-118878260D01*
X78126142Y-118840164D01*
X78069000Y-118840164D01*
X77983285Y-118878260D01*
X77954714Y-118916355D01*
X77383285Y-119640164D02*
X77726142Y-119640164D01*
X77554714Y-119640164D02*
X77554714Y-118840164D01*
X77611857Y-118954450D01*
X77669000Y-119030640D01*
X77726142Y-119068736D01*
X76811857Y-119640164D02*
X77154714Y-119640164D01*
X76983285Y-119640164D02*
X76983285Y-118840164D01*
X77040428Y-118954450D01*
X77097571Y-119030640D01*
X77154714Y-119068736D01*
%TO.C,R13*%
X117704714Y-120890164D02*
X117904714Y-120509212D01*
X118047571Y-120890164D02*
X118047571Y-120090164D01*
X117819000Y-120090164D01*
X117761857Y-120128260D01*
X117733285Y-120166355D01*
X117704714Y-120242545D01*
X117704714Y-120356831D01*
X117733285Y-120433021D01*
X117761857Y-120471117D01*
X117819000Y-120509212D01*
X118047571Y-120509212D01*
X117133285Y-120890164D02*
X117476142Y-120890164D01*
X117304714Y-120890164D02*
X117304714Y-120090164D01*
X117361857Y-120204450D01*
X117419000Y-120280640D01*
X117476142Y-120318736D01*
X116933285Y-120090164D02*
X116561857Y-120090164D01*
X116761857Y-120394926D01*
X116676142Y-120394926D01*
X116619000Y-120433021D01*
X116590428Y-120471117D01*
X116561857Y-120547307D01*
X116561857Y-120737783D01*
X116590428Y-120813974D01*
X116619000Y-120852069D01*
X116676142Y-120890164D01*
X116847571Y-120890164D01*
X116904714Y-120852069D01*
X116933285Y-120813974D01*
D11*
%TO.C,JP1*%
X132131380Y-117205402D02*
X133131380Y-117538736D01*
X132131380Y-117872069D01*
X133131380Y-118633974D02*
X132607571Y-118633974D01*
X132512333Y-118586355D01*
X132464714Y-118491117D01*
X132464714Y-118300640D01*
X132512333Y-118205402D01*
X133083761Y-118633974D02*
X133131380Y-118538736D01*
X133131380Y-118300640D01*
X133083761Y-118205402D01*
X132988523Y-118157783D01*
X132893285Y-118157783D01*
X132798047Y-118205402D01*
X132750428Y-118300640D01*
X132750428Y-118538736D01*
X132702809Y-118633974D01*
X132464714Y-119538736D02*
X133131380Y-119538736D01*
X132464714Y-119110164D02*
X132988523Y-119110164D01*
X133083761Y-119157783D01*
X133131380Y-119253021D01*
X133131380Y-119395879D01*
X133083761Y-119491117D01*
X133036142Y-119538736D01*
X133131380Y-119919688D02*
X132464714Y-120443498D01*
X132464714Y-119919688D02*
X133131380Y-120443498D01*
X136299476Y-120580640D02*
X136775666Y-120580640D01*
X136823285Y-121056831D01*
X136775666Y-121009212D01*
X136680428Y-120961593D01*
X136442333Y-120961593D01*
X136347095Y-121009212D01*
X136299476Y-121056831D01*
X136251857Y-121152069D01*
X136251857Y-121390164D01*
X136299476Y-121485402D01*
X136347095Y-121533021D01*
X136442333Y-121580640D01*
X136680428Y-121580640D01*
X136775666Y-121533021D01*
X136823285Y-121485402D01*
X135966142Y-120580640D02*
X135632809Y-121580640D01*
X135299476Y-120580640D01*
X137937095Y-116410640D02*
X137318047Y-116410640D01*
X137651380Y-116791593D01*
X137508523Y-116791593D01*
X137413285Y-116839212D01*
X137365666Y-116886831D01*
X137318047Y-116982069D01*
X137318047Y-117220164D01*
X137365666Y-117315402D01*
X137413285Y-117363021D01*
X137508523Y-117410640D01*
X137794238Y-117410640D01*
X137889476Y-117363021D01*
X137937095Y-117315402D01*
X137032333Y-116410640D02*
X136699000Y-117410640D01*
X136365666Y-116410640D01*
X136127571Y-116410640D02*
X135508523Y-116410640D01*
X135841857Y-116791593D01*
X135699000Y-116791593D01*
X135603761Y-116839212D01*
X135556142Y-116886831D01*
X135508523Y-116982069D01*
X135508523Y-117220164D01*
X135556142Y-117315402D01*
X135603761Y-117363021D01*
X135699000Y-117410640D01*
X135984714Y-117410640D01*
X136079952Y-117363021D01*
X136127571Y-117315402D01*
D10*
%TO.C,QB4*%
X100357142Y-99768095D02*
X100414285Y-99730000D01*
X100471428Y-99653809D01*
X100557142Y-99539523D01*
X100614285Y-99501428D01*
X100671428Y-99501428D01*
X100642857Y-99691904D02*
X100700000Y-99653809D01*
X100757142Y-99577619D01*
X100785714Y-99425238D01*
X100785714Y-99158571D01*
X100757142Y-99006190D01*
X100700000Y-98930000D01*
X100642857Y-98891904D01*
X100528571Y-98891904D01*
X100471428Y-98930000D01*
X100414285Y-99006190D01*
X100385714Y-99158571D01*
X100385714Y-99425238D01*
X100414285Y-99577619D01*
X100471428Y-99653809D01*
X100528571Y-99691904D01*
X100642857Y-99691904D01*
X99928571Y-99272857D02*
X99842857Y-99310952D01*
X99814285Y-99349047D01*
X99785714Y-99425238D01*
X99785714Y-99539523D01*
X99814285Y-99615714D01*
X99842857Y-99653809D01*
X99900000Y-99691904D01*
X100128571Y-99691904D01*
X100128571Y-98891904D01*
X99928571Y-98891904D01*
X99871428Y-98930000D01*
X99842857Y-98968095D01*
X99814285Y-99044285D01*
X99814285Y-99120476D01*
X99842857Y-99196666D01*
X99871428Y-99234761D01*
X99928571Y-99272857D01*
X100128571Y-99272857D01*
X99271428Y-99158571D02*
X99271428Y-99691904D01*
X99414285Y-98853809D02*
X99557142Y-99425238D01*
X99185714Y-99425238D01*
%TO.C,QB5*%
X89957142Y-56288095D02*
X90014285Y-56250000D01*
X90071428Y-56173809D01*
X90157142Y-56059523D01*
X90214285Y-56021428D01*
X90271428Y-56021428D01*
X90242857Y-56211904D02*
X90300000Y-56173809D01*
X90357142Y-56097619D01*
X90385714Y-55945238D01*
X90385714Y-55678571D01*
X90357142Y-55526190D01*
X90300000Y-55450000D01*
X90242857Y-55411904D01*
X90128571Y-55411904D01*
X90071428Y-55450000D01*
X90014285Y-55526190D01*
X89985714Y-55678571D01*
X89985714Y-55945238D01*
X90014285Y-56097619D01*
X90071428Y-56173809D01*
X90128571Y-56211904D01*
X90242857Y-56211904D01*
X89528571Y-55792857D02*
X89442857Y-55830952D01*
X89414285Y-55869047D01*
X89385714Y-55945238D01*
X89385714Y-56059523D01*
X89414285Y-56135714D01*
X89442857Y-56173809D01*
X89500000Y-56211904D01*
X89728571Y-56211904D01*
X89728571Y-55411904D01*
X89528571Y-55411904D01*
X89471428Y-55450000D01*
X89442857Y-55488095D01*
X89414285Y-55564285D01*
X89414285Y-55640476D01*
X89442857Y-55716666D01*
X89471428Y-55754761D01*
X89528571Y-55792857D01*
X89728571Y-55792857D01*
X88842857Y-55411904D02*
X89128571Y-55411904D01*
X89157142Y-55792857D01*
X89128571Y-55754761D01*
X89071428Y-55716666D01*
X88928571Y-55716666D01*
X88871428Y-55754761D01*
X88842857Y-55792857D01*
X88814285Y-55869047D01*
X88814285Y-56059523D01*
X88842857Y-56135714D01*
X88871428Y-56173809D01*
X88928571Y-56211904D01*
X89071428Y-56211904D01*
X89128571Y-56173809D01*
X89157142Y-56135714D01*
%TO.C,QA3*%
X66964285Y-56438095D02*
X67021428Y-56400000D01*
X67078571Y-56323809D01*
X67164285Y-56209523D01*
X67221428Y-56171428D01*
X67278571Y-56171428D01*
X67250000Y-56361904D02*
X67307142Y-56323809D01*
X67364285Y-56247619D01*
X67392857Y-56095238D01*
X67392857Y-55828571D01*
X67364285Y-55676190D01*
X67307142Y-55600000D01*
X67250000Y-55561904D01*
X67135714Y-55561904D01*
X67078571Y-55600000D01*
X67021428Y-55676190D01*
X66992857Y-55828571D01*
X66992857Y-56095238D01*
X67021428Y-56247619D01*
X67078571Y-56323809D01*
X67135714Y-56361904D01*
X67250000Y-56361904D01*
X66764285Y-56133333D02*
X66478571Y-56133333D01*
X66821428Y-56361904D02*
X66621428Y-55561904D01*
X66421428Y-56361904D01*
X66278571Y-55561904D02*
X65907142Y-55561904D01*
X66107142Y-55866666D01*
X66021428Y-55866666D01*
X65964285Y-55904761D01*
X65935714Y-55942857D01*
X65907142Y-56019047D01*
X65907142Y-56209523D01*
X65935714Y-56285714D01*
X65964285Y-56323809D01*
X66021428Y-56361904D01*
X66192857Y-56361904D01*
X66250000Y-56323809D01*
X66278571Y-56285714D01*
%TO.C,QC6*%
X123357142Y-99768095D02*
X123414285Y-99730000D01*
X123471428Y-99653809D01*
X123557142Y-99539523D01*
X123614285Y-99501428D01*
X123671428Y-99501428D01*
X123642857Y-99691904D02*
X123700000Y-99653809D01*
X123757142Y-99577619D01*
X123785714Y-99425238D01*
X123785714Y-99158571D01*
X123757142Y-99006190D01*
X123700000Y-98930000D01*
X123642857Y-98891904D01*
X123528571Y-98891904D01*
X123471428Y-98930000D01*
X123414285Y-99006190D01*
X123385714Y-99158571D01*
X123385714Y-99425238D01*
X123414285Y-99577619D01*
X123471428Y-99653809D01*
X123528571Y-99691904D01*
X123642857Y-99691904D01*
X122785714Y-99615714D02*
X122814285Y-99653809D01*
X122900000Y-99691904D01*
X122957142Y-99691904D01*
X123042857Y-99653809D01*
X123100000Y-99577619D01*
X123128571Y-99501428D01*
X123157142Y-99349047D01*
X123157142Y-99234761D01*
X123128571Y-99082380D01*
X123100000Y-99006190D01*
X123042857Y-98930000D01*
X122957142Y-98891904D01*
X122900000Y-98891904D01*
X122814285Y-98930000D01*
X122785714Y-98968095D01*
X122271428Y-98891904D02*
X122385714Y-98891904D01*
X122442857Y-98930000D01*
X122471428Y-98968095D01*
X122528571Y-99082380D01*
X122557142Y-99234761D01*
X122557142Y-99539523D01*
X122528571Y-99615714D01*
X122500000Y-99653809D01*
X122442857Y-99691904D01*
X122328571Y-99691904D01*
X122271428Y-99653809D01*
X122242857Y-99615714D01*
X122214285Y-99539523D01*
X122214285Y-99349047D01*
X122242857Y-99272857D01*
X122271428Y-99234761D01*
X122328571Y-99196666D01*
X122442857Y-99196666D01*
X122500000Y-99234761D01*
X122528571Y-99272857D01*
X122557142Y-99349047D01*
%TO.C,QC5*%
X144507142Y-56438095D02*
X144564285Y-56400000D01*
X144621428Y-56323809D01*
X144707142Y-56209523D01*
X144764285Y-56171428D01*
X144821428Y-56171428D01*
X144792857Y-56361904D02*
X144850000Y-56323809D01*
X144907142Y-56247619D01*
X144935714Y-56095238D01*
X144935714Y-55828571D01*
X144907142Y-55676190D01*
X144850000Y-55600000D01*
X144792857Y-55561904D01*
X144678571Y-55561904D01*
X144621428Y-55600000D01*
X144564285Y-55676190D01*
X144535714Y-55828571D01*
X144535714Y-56095238D01*
X144564285Y-56247619D01*
X144621428Y-56323809D01*
X144678571Y-56361904D01*
X144792857Y-56361904D01*
X143935714Y-56285714D02*
X143964285Y-56323809D01*
X144050000Y-56361904D01*
X144107142Y-56361904D01*
X144192857Y-56323809D01*
X144250000Y-56247619D01*
X144278571Y-56171428D01*
X144307142Y-56019047D01*
X144307142Y-55904761D01*
X144278571Y-55752380D01*
X144250000Y-55676190D01*
X144192857Y-55600000D01*
X144107142Y-55561904D01*
X144050000Y-55561904D01*
X143964285Y-55600000D01*
X143935714Y-55638095D01*
X143392857Y-55561904D02*
X143678571Y-55561904D01*
X143707142Y-55942857D01*
X143678571Y-55904761D01*
X143621428Y-55866666D01*
X143478571Y-55866666D01*
X143421428Y-55904761D01*
X143392857Y-55942857D01*
X143364285Y-56019047D01*
X143364285Y-56209523D01*
X143392857Y-56285714D01*
X143421428Y-56323809D01*
X143478571Y-56361904D01*
X143621428Y-56361904D01*
X143678571Y-56323809D01*
X143707142Y-56285714D01*
%TO.C,QC4*%
X145557142Y-98188095D02*
X145614285Y-98150000D01*
X145671428Y-98073809D01*
X145757142Y-97959523D01*
X145814285Y-97921428D01*
X145871428Y-97921428D01*
X145842857Y-98111904D02*
X145900000Y-98073809D01*
X145957142Y-97997619D01*
X145985714Y-97845238D01*
X145985714Y-97578571D01*
X145957142Y-97426190D01*
X145900000Y-97350000D01*
X145842857Y-97311904D01*
X145728571Y-97311904D01*
X145671428Y-97350000D01*
X145614285Y-97426190D01*
X145585714Y-97578571D01*
X145585714Y-97845238D01*
X145614285Y-97997619D01*
X145671428Y-98073809D01*
X145728571Y-98111904D01*
X145842857Y-98111904D01*
X144985714Y-98035714D02*
X145014285Y-98073809D01*
X145100000Y-98111904D01*
X145157142Y-98111904D01*
X145242857Y-98073809D01*
X145300000Y-97997619D01*
X145328571Y-97921428D01*
X145357142Y-97769047D01*
X145357142Y-97654761D01*
X145328571Y-97502380D01*
X145300000Y-97426190D01*
X145242857Y-97350000D01*
X145157142Y-97311904D01*
X145100000Y-97311904D01*
X145014285Y-97350000D01*
X144985714Y-97388095D01*
X144471428Y-97578571D02*
X144471428Y-98111904D01*
X144614285Y-97273809D02*
X144757142Y-97845238D01*
X144385714Y-97845238D01*
D11*
%TO.C,JP3*%
X133378047Y-106836831D02*
X133235190Y-106884450D01*
X133187571Y-106932069D01*
X133139952Y-107027307D01*
X133139952Y-107170164D01*
X133187571Y-107265402D01*
X133235190Y-107313021D01*
X133330428Y-107360640D01*
X133711380Y-107360640D01*
X133711380Y-106360640D01*
X133378047Y-106360640D01*
X133282809Y-106408260D01*
X133235190Y-106455879D01*
X133187571Y-106551117D01*
X133187571Y-106646355D01*
X133235190Y-106741593D01*
X133282809Y-106789212D01*
X133378047Y-106836831D01*
X133711380Y-106836831D01*
X132568523Y-107360640D02*
X132663761Y-107313021D01*
X132711380Y-107217783D01*
X132711380Y-106360640D01*
X131759000Y-107360640D02*
X131759000Y-106836831D01*
X131806619Y-106741593D01*
X131901857Y-106693974D01*
X132092333Y-106693974D01*
X132187571Y-106741593D01*
X131759000Y-107313021D02*
X131854238Y-107360640D01*
X132092333Y-107360640D01*
X132187571Y-107313021D01*
X132235190Y-107217783D01*
X132235190Y-107122545D01*
X132187571Y-107027307D01*
X132092333Y-106979688D01*
X131854238Y-106979688D01*
X131759000Y-106932069D01*
X130854238Y-107313021D02*
X130949476Y-107360640D01*
X131139952Y-107360640D01*
X131235190Y-107313021D01*
X131282809Y-107265402D01*
X131330428Y-107170164D01*
X131330428Y-106884450D01*
X131282809Y-106789212D01*
X131235190Y-106741593D01*
X131139952Y-106693974D01*
X130949476Y-106693974D01*
X130854238Y-106741593D01*
X130425666Y-107360640D02*
X130425666Y-106360640D01*
X130330428Y-106979688D02*
X130044714Y-107360640D01*
X130044714Y-106693974D02*
X130425666Y-107074926D01*
X128854238Y-107360640D02*
X128854238Y-106360640D01*
X128473285Y-106360640D01*
X128378047Y-106408260D01*
X128330428Y-106455879D01*
X128282809Y-106551117D01*
X128282809Y-106693974D01*
X128330428Y-106789212D01*
X128378047Y-106836831D01*
X128473285Y-106884450D01*
X128854238Y-106884450D01*
X127854238Y-107360640D02*
X127854238Y-106693974D01*
X127854238Y-106360640D02*
X127901857Y-106408260D01*
X127854238Y-106455879D01*
X127806619Y-106408260D01*
X127854238Y-106360640D01*
X127854238Y-106455879D01*
X127235190Y-107360640D02*
X127330428Y-107313021D01*
X127378047Y-107217783D01*
X127378047Y-106360640D01*
X126711380Y-107360640D02*
X126806619Y-107313021D01*
X126854238Y-107217783D01*
X126854238Y-106360640D01*
X143893285Y-107036831D02*
X143750428Y-107084450D01*
X143702809Y-107132069D01*
X143655190Y-107227307D01*
X143655190Y-107370164D01*
X143702809Y-107465402D01*
X143750428Y-107513021D01*
X143845666Y-107560640D01*
X144226619Y-107560640D01*
X144226619Y-106560640D01*
X143893285Y-106560640D01*
X143798047Y-106608260D01*
X143750428Y-106655879D01*
X143702809Y-106751117D01*
X143702809Y-106846355D01*
X143750428Y-106941593D01*
X143798047Y-106989212D01*
X143893285Y-107036831D01*
X144226619Y-107036831D01*
X143083761Y-107560640D02*
X143179000Y-107513021D01*
X143226619Y-107417783D01*
X143226619Y-106560640D01*
X142274238Y-106893974D02*
X142274238Y-107560640D01*
X142702809Y-106893974D02*
X142702809Y-107417783D01*
X142655190Y-107513021D01*
X142559952Y-107560640D01*
X142417095Y-107560640D01*
X142321857Y-107513021D01*
X142274238Y-107465402D01*
X141417095Y-107513021D02*
X141512333Y-107560640D01*
X141702809Y-107560640D01*
X141798047Y-107513021D01*
X141845666Y-107417783D01*
X141845666Y-107036831D01*
X141798047Y-106941593D01*
X141702809Y-106893974D01*
X141512333Y-106893974D01*
X141417095Y-106941593D01*
X141369476Y-107036831D01*
X141369476Y-107132069D01*
X141845666Y-107227307D01*
X140179000Y-107560640D02*
X140179000Y-106560640D01*
X139798047Y-106560640D01*
X139702809Y-106608260D01*
X139655190Y-106655879D01*
X139607571Y-106751117D01*
X139607571Y-106893974D01*
X139655190Y-106989212D01*
X139702809Y-107036831D01*
X139798047Y-107084450D01*
X140179000Y-107084450D01*
X139179000Y-107560640D02*
X139179000Y-106893974D01*
X139179000Y-106560640D02*
X139226619Y-106608260D01*
X139179000Y-106655879D01*
X139131380Y-106608260D01*
X139179000Y-106560640D01*
X139179000Y-106655879D01*
X138559952Y-107560640D02*
X138655190Y-107513021D01*
X138702809Y-107417783D01*
X138702809Y-106560640D01*
X138036142Y-107560640D02*
X138131380Y-107513021D01*
X138179000Y-107417783D01*
X138179000Y-106560640D01*
D10*
%TO.C,QA6*%
X56314285Y-99768095D02*
X56371428Y-99730000D01*
X56428571Y-99653809D01*
X56514285Y-99539523D01*
X56571428Y-99501428D01*
X56628571Y-99501428D01*
X56600000Y-99691904D02*
X56657142Y-99653809D01*
X56714285Y-99577619D01*
X56742857Y-99425238D01*
X56742857Y-99158571D01*
X56714285Y-99006190D01*
X56657142Y-98930000D01*
X56600000Y-98891904D01*
X56485714Y-98891904D01*
X56428571Y-98930000D01*
X56371428Y-99006190D01*
X56342857Y-99158571D01*
X56342857Y-99425238D01*
X56371428Y-99577619D01*
X56428571Y-99653809D01*
X56485714Y-99691904D01*
X56600000Y-99691904D01*
X56114285Y-99463333D02*
X55828571Y-99463333D01*
X56171428Y-99691904D02*
X55971428Y-98891904D01*
X55771428Y-99691904D01*
X55314285Y-98891904D02*
X55428571Y-98891904D01*
X55485714Y-98930000D01*
X55514285Y-98968095D01*
X55571428Y-99082380D01*
X55600000Y-99234761D01*
X55600000Y-99539523D01*
X55571428Y-99615714D01*
X55542857Y-99653809D01*
X55485714Y-99691904D01*
X55371428Y-99691904D01*
X55314285Y-99653809D01*
X55285714Y-99615714D01*
X55257142Y-99539523D01*
X55257142Y-99349047D01*
X55285714Y-99272857D01*
X55314285Y-99234761D01*
X55371428Y-99196666D01*
X55485714Y-99196666D01*
X55542857Y-99234761D01*
X55571428Y-99272857D01*
X55600000Y-99349047D01*
%TO.C,QB6*%
X89757142Y-93018095D02*
X89814285Y-92980000D01*
X89871428Y-92903809D01*
X89957142Y-92789523D01*
X90014285Y-92751428D01*
X90071428Y-92751428D01*
X90042857Y-92941904D02*
X90100000Y-92903809D01*
X90157142Y-92827619D01*
X90185714Y-92675238D01*
X90185714Y-92408571D01*
X90157142Y-92256190D01*
X90100000Y-92180000D01*
X90042857Y-92141904D01*
X89928571Y-92141904D01*
X89871428Y-92180000D01*
X89814285Y-92256190D01*
X89785714Y-92408571D01*
X89785714Y-92675238D01*
X89814285Y-92827619D01*
X89871428Y-92903809D01*
X89928571Y-92941904D01*
X90042857Y-92941904D01*
X89328571Y-92522857D02*
X89242857Y-92560952D01*
X89214285Y-92599047D01*
X89185714Y-92675238D01*
X89185714Y-92789523D01*
X89214285Y-92865714D01*
X89242857Y-92903809D01*
X89300000Y-92941904D01*
X89528571Y-92941904D01*
X89528571Y-92141904D01*
X89328571Y-92141904D01*
X89271428Y-92180000D01*
X89242857Y-92218095D01*
X89214285Y-92294285D01*
X89214285Y-92370476D01*
X89242857Y-92446666D01*
X89271428Y-92484761D01*
X89328571Y-92522857D01*
X89528571Y-92522857D01*
X88671428Y-92141904D02*
X88785714Y-92141904D01*
X88842857Y-92180000D01*
X88871428Y-92218095D01*
X88928571Y-92332380D01*
X88957142Y-92484761D01*
X88957142Y-92789523D01*
X88928571Y-92865714D01*
X88900000Y-92903809D01*
X88842857Y-92941904D01*
X88728571Y-92941904D01*
X88671428Y-92903809D01*
X88642857Y-92865714D01*
X88614285Y-92789523D01*
X88614285Y-92599047D01*
X88642857Y-92522857D01*
X88671428Y-92484761D01*
X88728571Y-92446666D01*
X88842857Y-92446666D01*
X88900000Y-92484761D01*
X88928571Y-92522857D01*
X88957142Y-92599047D01*
%TO.C,QB2*%
X110857142Y-99768095D02*
X110914285Y-99730000D01*
X110971428Y-99653809D01*
X111057142Y-99539523D01*
X111114285Y-99501428D01*
X111171428Y-99501428D01*
X111142857Y-99691904D02*
X111200000Y-99653809D01*
X111257142Y-99577619D01*
X111285714Y-99425238D01*
X111285714Y-99158571D01*
X111257142Y-99006190D01*
X111200000Y-98930000D01*
X111142857Y-98891904D01*
X111028571Y-98891904D01*
X110971428Y-98930000D01*
X110914285Y-99006190D01*
X110885714Y-99158571D01*
X110885714Y-99425238D01*
X110914285Y-99577619D01*
X110971428Y-99653809D01*
X111028571Y-99691904D01*
X111142857Y-99691904D01*
X110428571Y-99272857D02*
X110342857Y-99310952D01*
X110314285Y-99349047D01*
X110285714Y-99425238D01*
X110285714Y-99539523D01*
X110314285Y-99615714D01*
X110342857Y-99653809D01*
X110400000Y-99691904D01*
X110628571Y-99691904D01*
X110628571Y-98891904D01*
X110428571Y-98891904D01*
X110371428Y-98930000D01*
X110342857Y-98968095D01*
X110314285Y-99044285D01*
X110314285Y-99120476D01*
X110342857Y-99196666D01*
X110371428Y-99234761D01*
X110428571Y-99272857D01*
X110628571Y-99272857D01*
X110057142Y-98968095D02*
X110028571Y-98930000D01*
X109971428Y-98891904D01*
X109828571Y-98891904D01*
X109771428Y-98930000D01*
X109742857Y-98968095D01*
X109714285Y-99044285D01*
X109714285Y-99120476D01*
X109742857Y-99234761D01*
X110085714Y-99691904D01*
X109714285Y-99691904D01*
%TO.C,QA5*%
X77464285Y-56388095D02*
X77521428Y-56350000D01*
X77578571Y-56273809D01*
X77664285Y-56159523D01*
X77721428Y-56121428D01*
X77778571Y-56121428D01*
X77750000Y-56311904D02*
X77807142Y-56273809D01*
X77864285Y-56197619D01*
X77892857Y-56045238D01*
X77892857Y-55778571D01*
X77864285Y-55626190D01*
X77807142Y-55550000D01*
X77750000Y-55511904D01*
X77635714Y-55511904D01*
X77578571Y-55550000D01*
X77521428Y-55626190D01*
X77492857Y-55778571D01*
X77492857Y-56045238D01*
X77521428Y-56197619D01*
X77578571Y-56273809D01*
X77635714Y-56311904D01*
X77750000Y-56311904D01*
X77264285Y-56083333D02*
X76978571Y-56083333D01*
X77321428Y-56311904D02*
X77121428Y-55511904D01*
X76921428Y-56311904D01*
X76435714Y-55511904D02*
X76721428Y-55511904D01*
X76750000Y-55892857D01*
X76721428Y-55854761D01*
X76664285Y-55816666D01*
X76521428Y-55816666D01*
X76464285Y-55854761D01*
X76435714Y-55892857D01*
X76407142Y-55969047D01*
X76407142Y-56159523D01*
X76435714Y-56235714D01*
X76464285Y-56273809D01*
X76521428Y-56311904D01*
X76664285Y-56311904D01*
X76721428Y-56273809D01*
X76750000Y-56235714D01*
D11*
%TO.C,JP2*%
X145319000Y-112640640D02*
X145319000Y-111640640D01*
X144985666Y-112354926D01*
X144652333Y-111640640D01*
X144652333Y-112640640D01*
X144176142Y-112545402D02*
X144128523Y-112593021D01*
X144176142Y-112640640D01*
X144223761Y-112593021D01*
X144176142Y-112545402D01*
X144176142Y-112640640D01*
X143842809Y-111640640D02*
X143271380Y-111640640D01*
X143557095Y-112640640D02*
X143557095Y-111640640D01*
X142557095Y-112593021D02*
X142652333Y-112640640D01*
X142842809Y-112640640D01*
X142938047Y-112593021D01*
X142985666Y-112497783D01*
X142985666Y-112116831D01*
X142938047Y-112021593D01*
X142842809Y-111973974D01*
X142652333Y-111973974D01*
X142557095Y-112021593D01*
X142509476Y-112116831D01*
X142509476Y-112212069D01*
X142985666Y-112307307D01*
X142080904Y-112640640D02*
X142080904Y-111973974D01*
X142080904Y-112069212D02*
X142033285Y-112021593D01*
X141938047Y-111973974D01*
X141795190Y-111973974D01*
X141699952Y-112021593D01*
X141652333Y-112116831D01*
X141652333Y-112640640D01*
X141652333Y-112116831D02*
X141604714Y-112021593D01*
X141509476Y-111973974D01*
X141366619Y-111973974D01*
X141271380Y-112021593D01*
X141223761Y-112116831D01*
X141223761Y-112640640D01*
X140747571Y-111973974D02*
X140747571Y-112973974D01*
X140747571Y-112021593D02*
X140652333Y-111973974D01*
X140461857Y-111973974D01*
X140366619Y-112021593D01*
X140319000Y-112069212D01*
X140271380Y-112164450D01*
X140271380Y-112450164D01*
X140319000Y-112545402D01*
X140366619Y-112593021D01*
X140461857Y-112640640D01*
X140652333Y-112640640D01*
X140747571Y-112593021D01*
X143602809Y-109386831D02*
X143459952Y-109434450D01*
X143412333Y-109482069D01*
X143364714Y-109577307D01*
X143364714Y-109720164D01*
X143412333Y-109815402D01*
X143459952Y-109863021D01*
X143555190Y-109910640D01*
X143936142Y-109910640D01*
X143936142Y-108910640D01*
X143602809Y-108910640D01*
X143507571Y-108958260D01*
X143459952Y-109005879D01*
X143412333Y-109101117D01*
X143412333Y-109196355D01*
X143459952Y-109291593D01*
X143507571Y-109339212D01*
X143602809Y-109386831D01*
X143936142Y-109386831D01*
X142936142Y-109910640D02*
X142936142Y-109243974D01*
X142936142Y-109434450D02*
X142888523Y-109339212D01*
X142840904Y-109291593D01*
X142745666Y-109243974D01*
X142650428Y-109243974D01*
X141888523Y-109910640D02*
X141888523Y-109386831D01*
X141936142Y-109291593D01*
X142031380Y-109243974D01*
X142221857Y-109243974D01*
X142317095Y-109291593D01*
X141888523Y-109863021D02*
X141983761Y-109910640D01*
X142221857Y-109910640D01*
X142317095Y-109863021D01*
X142364714Y-109767783D01*
X142364714Y-109672545D01*
X142317095Y-109577307D01*
X142221857Y-109529688D01*
X141983761Y-109529688D01*
X141888523Y-109482069D01*
X141412333Y-109910640D02*
X141412333Y-108910640D01*
X141317095Y-109529688D02*
X141031380Y-109910640D01*
X141031380Y-109243974D02*
X141412333Y-109624926D01*
X140221857Y-109863021D02*
X140317095Y-109910640D01*
X140507571Y-109910640D01*
X140602809Y-109863021D01*
X140650428Y-109767783D01*
X140650428Y-109386831D01*
X140602809Y-109291593D01*
X140507571Y-109243974D01*
X140317095Y-109243974D01*
X140221857Y-109291593D01*
X140174238Y-109386831D01*
X140174238Y-109482069D01*
X140650428Y-109577307D01*
X142925666Y-111440640D02*
X142925666Y-110440640D01*
X142544714Y-110440640D01*
X142449476Y-110488260D01*
X142401857Y-110535879D01*
X142354238Y-110631117D01*
X142354238Y-110773974D01*
X142401857Y-110869212D01*
X142449476Y-110916831D01*
X142544714Y-110964450D01*
X142925666Y-110964450D01*
X141973285Y-111154926D02*
X141497095Y-111154926D01*
X142068523Y-111440640D02*
X141735190Y-110440640D01*
X141401857Y-111440640D01*
X141163761Y-110440640D02*
X140497095Y-110440640D01*
X140925666Y-111440640D01*
D10*
%TO.C,QA1*%
X56514285Y-56438095D02*
X56571428Y-56400000D01*
X56628571Y-56323809D01*
X56714285Y-56209523D01*
X56771428Y-56171428D01*
X56828571Y-56171428D01*
X56800000Y-56361904D02*
X56857142Y-56323809D01*
X56914285Y-56247619D01*
X56942857Y-56095238D01*
X56942857Y-55828571D01*
X56914285Y-55676190D01*
X56857142Y-55600000D01*
X56800000Y-55561904D01*
X56685714Y-55561904D01*
X56628571Y-55600000D01*
X56571428Y-55676190D01*
X56542857Y-55828571D01*
X56542857Y-56095238D01*
X56571428Y-56247619D01*
X56628571Y-56323809D01*
X56685714Y-56361904D01*
X56800000Y-56361904D01*
X56314285Y-56133333D02*
X56028571Y-56133333D01*
X56371428Y-56361904D02*
X56171428Y-55561904D01*
X55971428Y-56361904D01*
X55457142Y-56361904D02*
X55800000Y-56361904D01*
X55628571Y-56361904D02*
X55628571Y-55561904D01*
X55685714Y-55676190D01*
X55742857Y-55752380D01*
X55800000Y-55790476D01*
%TO.C,QB3*%
X100457142Y-56288095D02*
X100514285Y-56250000D01*
X100571428Y-56173809D01*
X100657142Y-56059523D01*
X100714285Y-56021428D01*
X100771428Y-56021428D01*
X100742857Y-56211904D02*
X100800000Y-56173809D01*
X100857142Y-56097619D01*
X100885714Y-55945238D01*
X100885714Y-55678571D01*
X100857142Y-55526190D01*
X100800000Y-55450000D01*
X100742857Y-55411904D01*
X100628571Y-55411904D01*
X100571428Y-55450000D01*
X100514285Y-55526190D01*
X100485714Y-55678571D01*
X100485714Y-55945238D01*
X100514285Y-56097619D01*
X100571428Y-56173809D01*
X100628571Y-56211904D01*
X100742857Y-56211904D01*
X100028571Y-55792857D02*
X99942857Y-55830952D01*
X99914285Y-55869047D01*
X99885714Y-55945238D01*
X99885714Y-56059523D01*
X99914285Y-56135714D01*
X99942857Y-56173809D01*
X100000000Y-56211904D01*
X100228571Y-56211904D01*
X100228571Y-55411904D01*
X100028571Y-55411904D01*
X99971428Y-55450000D01*
X99942857Y-55488095D01*
X99914285Y-55564285D01*
X99914285Y-55640476D01*
X99942857Y-55716666D01*
X99971428Y-55754761D01*
X100028571Y-55792857D01*
X100228571Y-55792857D01*
X99685714Y-55411904D02*
X99314285Y-55411904D01*
X99514285Y-55716666D01*
X99428571Y-55716666D01*
X99371428Y-55754761D01*
X99342857Y-55792857D01*
X99314285Y-55869047D01*
X99314285Y-56059523D01*
X99342857Y-56135714D01*
X99371428Y-56173809D01*
X99428571Y-56211904D01*
X99600000Y-56211904D01*
X99657142Y-56173809D01*
X99685714Y-56135714D01*
%TO.C,QC3*%
X134057142Y-56338095D02*
X134114285Y-56300000D01*
X134171428Y-56223809D01*
X134257142Y-56109523D01*
X134314285Y-56071428D01*
X134371428Y-56071428D01*
X134342857Y-56261904D02*
X134400000Y-56223809D01*
X134457142Y-56147619D01*
X134485714Y-55995238D01*
X134485714Y-55728571D01*
X134457142Y-55576190D01*
X134400000Y-55500000D01*
X134342857Y-55461904D01*
X134228571Y-55461904D01*
X134171428Y-55500000D01*
X134114285Y-55576190D01*
X134085714Y-55728571D01*
X134085714Y-55995238D01*
X134114285Y-56147619D01*
X134171428Y-56223809D01*
X134228571Y-56261904D01*
X134342857Y-56261904D01*
X133485714Y-56185714D02*
X133514285Y-56223809D01*
X133600000Y-56261904D01*
X133657142Y-56261904D01*
X133742857Y-56223809D01*
X133800000Y-56147619D01*
X133828571Y-56071428D01*
X133857142Y-55919047D01*
X133857142Y-55804761D01*
X133828571Y-55652380D01*
X133800000Y-55576190D01*
X133742857Y-55500000D01*
X133657142Y-55461904D01*
X133600000Y-55461904D01*
X133514285Y-55500000D01*
X133485714Y-55538095D01*
X133285714Y-55461904D02*
X132914285Y-55461904D01*
X133114285Y-55766666D01*
X133028571Y-55766666D01*
X132971428Y-55804761D01*
X132942857Y-55842857D01*
X132914285Y-55919047D01*
X132914285Y-56109523D01*
X132942857Y-56185714D01*
X132971428Y-56223809D01*
X133028571Y-56261904D01*
X133200000Y-56261904D01*
X133257142Y-56223809D01*
X133285714Y-56185714D01*
%TO.C,QA4*%
X67114285Y-91968095D02*
X67171428Y-91930000D01*
X67228571Y-91853809D01*
X67314285Y-91739523D01*
X67371428Y-91701428D01*
X67428571Y-91701428D01*
X67400000Y-91891904D02*
X67457142Y-91853809D01*
X67514285Y-91777619D01*
X67542857Y-91625238D01*
X67542857Y-91358571D01*
X67514285Y-91206190D01*
X67457142Y-91130000D01*
X67400000Y-91091904D01*
X67285714Y-91091904D01*
X67228571Y-91130000D01*
X67171428Y-91206190D01*
X67142857Y-91358571D01*
X67142857Y-91625238D01*
X67171428Y-91777619D01*
X67228571Y-91853809D01*
X67285714Y-91891904D01*
X67400000Y-91891904D01*
X66914285Y-91663333D02*
X66628571Y-91663333D01*
X66971428Y-91891904D02*
X66771428Y-91091904D01*
X66571428Y-91891904D01*
X66114285Y-91358571D02*
X66114285Y-91891904D01*
X66257142Y-91053809D02*
X66400000Y-91625238D01*
X66028571Y-91625238D01*
%TO.C,QC2*%
X130497142Y-97578095D02*
X130554285Y-97540000D01*
X130611428Y-97463809D01*
X130697142Y-97349523D01*
X130754285Y-97311428D01*
X130811428Y-97311428D01*
X130782857Y-97501904D02*
X130840000Y-97463809D01*
X130897142Y-97387619D01*
X130925714Y-97235238D01*
X130925714Y-96968571D01*
X130897142Y-96816190D01*
X130840000Y-96740000D01*
X130782857Y-96701904D01*
X130668571Y-96701904D01*
X130611428Y-96740000D01*
X130554285Y-96816190D01*
X130525714Y-96968571D01*
X130525714Y-97235238D01*
X130554285Y-97387619D01*
X130611428Y-97463809D01*
X130668571Y-97501904D01*
X130782857Y-97501904D01*
X129925714Y-97425714D02*
X129954285Y-97463809D01*
X130040000Y-97501904D01*
X130097142Y-97501904D01*
X130182857Y-97463809D01*
X130240000Y-97387619D01*
X130268571Y-97311428D01*
X130297142Y-97159047D01*
X130297142Y-97044761D01*
X130268571Y-96892380D01*
X130240000Y-96816190D01*
X130182857Y-96740000D01*
X130097142Y-96701904D01*
X130040000Y-96701904D01*
X129954285Y-96740000D01*
X129925714Y-96778095D01*
X129697142Y-96778095D02*
X129668571Y-96740000D01*
X129611428Y-96701904D01*
X129468571Y-96701904D01*
X129411428Y-96740000D01*
X129382857Y-96778095D01*
X129354285Y-96854285D01*
X129354285Y-96930476D01*
X129382857Y-97044761D01*
X129725714Y-97501904D01*
X129354285Y-97501904D01*
%TO.C,QC1*%
X123407142Y-56338095D02*
X123464285Y-56300000D01*
X123521428Y-56223809D01*
X123607142Y-56109523D01*
X123664285Y-56071428D01*
X123721428Y-56071428D01*
X123692857Y-56261904D02*
X123750000Y-56223809D01*
X123807142Y-56147619D01*
X123835714Y-55995238D01*
X123835714Y-55728571D01*
X123807142Y-55576190D01*
X123750000Y-55500000D01*
X123692857Y-55461904D01*
X123578571Y-55461904D01*
X123521428Y-55500000D01*
X123464285Y-55576190D01*
X123435714Y-55728571D01*
X123435714Y-55995238D01*
X123464285Y-56147619D01*
X123521428Y-56223809D01*
X123578571Y-56261904D01*
X123692857Y-56261904D01*
X122835714Y-56185714D02*
X122864285Y-56223809D01*
X122950000Y-56261904D01*
X123007142Y-56261904D01*
X123092857Y-56223809D01*
X123150000Y-56147619D01*
X123178571Y-56071428D01*
X123207142Y-55919047D01*
X123207142Y-55804761D01*
X123178571Y-55652380D01*
X123150000Y-55576190D01*
X123092857Y-55500000D01*
X123007142Y-55461904D01*
X122950000Y-55461904D01*
X122864285Y-55500000D01*
X122835714Y-55538095D01*
X122264285Y-56261904D02*
X122607142Y-56261904D01*
X122435714Y-56261904D02*
X122435714Y-55461904D01*
X122492857Y-55576190D01*
X122550000Y-55652380D01*
X122607142Y-55690476D01*
%TO.C,QA2*%
X77510285Y-93168095D02*
X77567428Y-93130000D01*
X77624571Y-93053809D01*
X77710285Y-92939523D01*
X77767428Y-92901428D01*
X77824571Y-92901428D01*
X77796000Y-93091904D02*
X77853142Y-93053809D01*
X77910285Y-92977619D01*
X77938857Y-92825238D01*
X77938857Y-92558571D01*
X77910285Y-92406190D01*
X77853142Y-92330000D01*
X77796000Y-92291904D01*
X77681714Y-92291904D01*
X77624571Y-92330000D01*
X77567428Y-92406190D01*
X77538857Y-92558571D01*
X77538857Y-92825238D01*
X77567428Y-92977619D01*
X77624571Y-93053809D01*
X77681714Y-93091904D01*
X77796000Y-93091904D01*
X77310285Y-92863333D02*
X77024571Y-92863333D01*
X77367428Y-93091904D02*
X77167428Y-92291904D01*
X76967428Y-93091904D01*
X76796000Y-92368095D02*
X76767428Y-92330000D01*
X76710285Y-92291904D01*
X76567428Y-92291904D01*
X76510285Y-92330000D01*
X76481714Y-92368095D01*
X76453142Y-92444285D01*
X76453142Y-92520476D01*
X76481714Y-92634761D01*
X76824571Y-93091904D01*
X76453142Y-93091904D01*
%TO.C,QB1*%
X110907142Y-56238095D02*
X110964285Y-56200000D01*
X111021428Y-56123809D01*
X111107142Y-56009523D01*
X111164285Y-55971428D01*
X111221428Y-55971428D01*
X111192857Y-56161904D02*
X111250000Y-56123809D01*
X111307142Y-56047619D01*
X111335714Y-55895238D01*
X111335714Y-55628571D01*
X111307142Y-55476190D01*
X111250000Y-55400000D01*
X111192857Y-55361904D01*
X111078571Y-55361904D01*
X111021428Y-55400000D01*
X110964285Y-55476190D01*
X110935714Y-55628571D01*
X110935714Y-55895238D01*
X110964285Y-56047619D01*
X111021428Y-56123809D01*
X111078571Y-56161904D01*
X111192857Y-56161904D01*
X110478571Y-55742857D02*
X110392857Y-55780952D01*
X110364285Y-55819047D01*
X110335714Y-55895238D01*
X110335714Y-56009523D01*
X110364285Y-56085714D01*
X110392857Y-56123809D01*
X110450000Y-56161904D01*
X110678571Y-56161904D01*
X110678571Y-55361904D01*
X110478571Y-55361904D01*
X110421428Y-55400000D01*
X110392857Y-55438095D01*
X110364285Y-55514285D01*
X110364285Y-55590476D01*
X110392857Y-55666666D01*
X110421428Y-55704761D01*
X110478571Y-55742857D01*
X110678571Y-55742857D01*
X109764285Y-56161904D02*
X110107142Y-56161904D01*
X109935714Y-56161904D02*
X109935714Y-55361904D01*
X109992857Y-55476190D01*
X110050000Y-55552380D01*
X110107142Y-55590476D01*
%TO.C,JP1*%
X134119000Y-120928260D02*
X134719000Y-120928260D01*
X135419000Y-120278260D02*
X135419000Y-117478260D01*
X133419000Y-117478260D02*
X133419000Y-120278260D01*
X134719000Y-116828260D02*
X134119000Y-116828260D01*
X134719000Y-120928260D02*
G75*
G03*
X135419000Y-120228260I1J699999D01*
G01*
X135419000Y-117528260D02*
G75*
G03*
X134719000Y-116828260I-700000J0D01*
G01*
X133419000Y-120228260D02*
G75*
G03*
X134119000Y-120928260I699999J-1D01*
G01*
X134119000Y-116828260D02*
G75*
G03*
X133419000Y-117528260I0J-700000D01*
G01*
%TO.C,QB4*%
X97920000Y-98330000D02*
X96720000Y-98330000D01*
X100000000Y-79900000D02*
X100000000Y-82440000D01*
X105120000Y-91930000D02*
X94880000Y-91930000D01*
X105120000Y-82440000D02*
X105120000Y-91930000D01*
X105120000Y-98330000D02*
X103920000Y-98330000D01*
X105120000Y-82440000D02*
X94880000Y-82440000D01*
X102721000Y-98330000D02*
X101520000Y-98330000D01*
X94880000Y-92170000D02*
X94880000Y-93370000D01*
X97460000Y-79900000D02*
X97460000Y-82440000D01*
X105120000Y-94570000D02*
X105120000Y-95770000D01*
X102540000Y-79900000D02*
X102540000Y-82440000D01*
X105120000Y-96970000D02*
X105120000Y-98170000D01*
X94880000Y-94570000D02*
X94880000Y-95770000D01*
X94880000Y-82440000D02*
X94880000Y-91930000D01*
X100320000Y-98330000D02*
X99120000Y-98330000D01*
X94880000Y-96970000D02*
X94880000Y-98170000D01*
X105120000Y-92170000D02*
X105120000Y-93370000D01*
X95520000Y-98330000D02*
X94880000Y-98330000D01*
%TO.C,QB5*%
X84380000Y-56580000D02*
X84380000Y-55380000D01*
X84380000Y-66310000D02*
X94620000Y-66310000D01*
X94620000Y-54180000D02*
X94620000Y-52980000D01*
X92040000Y-68850000D02*
X92040000Y-66310000D01*
X84380000Y-66310000D02*
X84380000Y-56820000D01*
X84380000Y-50420000D02*
X85580000Y-50420000D01*
X94620000Y-66310000D02*
X94620000Y-56820000D01*
X84380000Y-51780000D02*
X84380000Y-50580000D01*
X86960000Y-68850000D02*
X86960000Y-66310000D01*
X94620000Y-51780000D02*
X94620000Y-50580000D01*
X86779000Y-50420000D02*
X87980000Y-50420000D01*
X89500000Y-68850000D02*
X89500000Y-66310000D01*
X94620000Y-56580000D02*
X94620000Y-55380000D01*
X93980000Y-50420000D02*
X94620000Y-50420000D01*
X84380000Y-56820000D02*
X94620000Y-56820000D01*
X84380000Y-54180000D02*
X84380000Y-52980000D01*
X89180000Y-50420000D02*
X90380000Y-50420000D01*
X91580000Y-50420000D02*
X92780000Y-50420000D01*
%TO.C,QA3*%
X61380000Y-56820000D02*
X71620000Y-56820000D01*
X71620000Y-54180000D02*
X71620000Y-52980000D01*
X61380000Y-66310000D02*
X71620000Y-66310000D01*
X61380000Y-50420000D02*
X62580000Y-50420000D01*
X71620000Y-66310000D02*
X71620000Y-56820000D01*
X71620000Y-51780000D02*
X71620000Y-50580000D01*
X66500000Y-68850000D02*
X66500000Y-66310000D01*
X61380000Y-51780000D02*
X61380000Y-50580000D01*
X66180000Y-50420000D02*
X67380000Y-50420000D01*
X71620000Y-56580000D02*
X71620000Y-55380000D01*
X61380000Y-54180000D02*
X61380000Y-52980000D01*
X70980000Y-50420000D02*
X71620000Y-50420000D01*
X63779000Y-50420000D02*
X64980000Y-50420000D01*
X63960000Y-68850000D02*
X63960000Y-66310000D01*
X61380000Y-56580000D02*
X61380000Y-55380000D01*
X69040000Y-68850000D02*
X69040000Y-66310000D01*
X61380000Y-66310000D02*
X61380000Y-56820000D01*
X68580000Y-50420000D02*
X69780000Y-50420000D01*
%TO.C,QC6*%
X123320000Y-98330000D02*
X122120000Y-98330000D01*
X120460000Y-79900000D02*
X120460000Y-82440000D01*
X128120000Y-92170000D02*
X128120000Y-93370000D01*
X118520000Y-98330000D02*
X117880000Y-98330000D01*
X128120000Y-82440000D02*
X117880000Y-82440000D01*
X117880000Y-92170000D02*
X117880000Y-93370000D01*
X125540000Y-79900000D02*
X125540000Y-82440000D01*
X128120000Y-96970000D02*
X128120000Y-98170000D01*
X120920000Y-98330000D02*
X119720000Y-98330000D01*
X128120000Y-91930000D02*
X117880000Y-91930000D01*
X117880000Y-96970000D02*
X117880000Y-98170000D01*
X128120000Y-94570000D02*
X128120000Y-95770000D01*
X123000000Y-79900000D02*
X123000000Y-82440000D01*
X128120000Y-98330000D02*
X126920000Y-98330000D01*
X125721000Y-98330000D02*
X124520000Y-98330000D01*
X128120000Y-82440000D02*
X128120000Y-91930000D01*
X117880000Y-94570000D02*
X117880000Y-95770000D01*
X117880000Y-82440000D02*
X117880000Y-91930000D01*
%TO.C,QC5*%
X149120000Y-66310000D02*
X149120000Y-56820000D01*
X138880000Y-56580000D02*
X138880000Y-55380000D01*
X138880000Y-54180000D02*
X138880000Y-52980000D01*
X138880000Y-50420000D02*
X140080000Y-50420000D01*
X149120000Y-56580000D02*
X149120000Y-55380000D01*
X141279000Y-50420000D02*
X142480000Y-50420000D01*
X138880000Y-66310000D02*
X149120000Y-66310000D01*
X144000000Y-68850000D02*
X144000000Y-66310000D01*
X143680000Y-50420000D02*
X144880000Y-50420000D01*
X146080000Y-50420000D02*
X147280000Y-50420000D01*
X138880000Y-66310000D02*
X138880000Y-56820000D01*
X149120000Y-54180000D02*
X149120000Y-52980000D01*
X138880000Y-56820000D02*
X149120000Y-56820000D01*
X146540000Y-68850000D02*
X146540000Y-66310000D01*
X138880000Y-51780000D02*
X138880000Y-50580000D01*
X149120000Y-51780000D02*
X149120000Y-50580000D01*
X148480000Y-50420000D02*
X149120000Y-50420000D01*
X141460000Y-68850000D02*
X141460000Y-66310000D01*
%TO.C,QC4*%
X149120000Y-92170000D02*
X149120000Y-93370000D01*
X149120000Y-98330000D02*
X147920000Y-98330000D01*
X146540000Y-79900000D02*
X146540000Y-82440000D01*
X141460000Y-79900000D02*
X141460000Y-82440000D01*
X138880000Y-96970000D02*
X138880000Y-98170000D01*
X149120000Y-94570000D02*
X149120000Y-95770000D01*
X138880000Y-94570000D02*
X138880000Y-95770000D01*
X138880000Y-82440000D02*
X138880000Y-91930000D01*
X149120000Y-82440000D02*
X138880000Y-82440000D01*
X146721000Y-98330000D02*
X145520000Y-98330000D01*
X144000000Y-79900000D02*
X144000000Y-82440000D01*
X149120000Y-91930000D02*
X138880000Y-91930000D01*
X139520000Y-98330000D02*
X138880000Y-98330000D01*
X138880000Y-92170000D02*
X138880000Y-93370000D01*
X149120000Y-96970000D02*
X149120000Y-98170000D01*
X144320000Y-98330000D02*
X143120000Y-98330000D01*
X149120000Y-82440000D02*
X149120000Y-91930000D01*
X141920000Y-98330000D02*
X140720000Y-98330000D01*
%TO.C,JP3*%
X137969000Y-106828260D02*
X137969000Y-106228260D01*
X133869000Y-106228260D02*
X133869000Y-106828260D01*
X134519000Y-107528260D02*
X137319000Y-107528260D01*
X137319000Y-105528260D02*
X134519000Y-105528260D01*
X137969000Y-106228260D02*
G75*
G03*
X137269000Y-105528260I-699999J1D01*
G01*
X133869000Y-106828260D02*
G75*
G03*
X134569000Y-107528260I700000J0D01*
G01*
X134569000Y-105528260D02*
G75*
G03*
X133869000Y-106228260I0J-700000D01*
G01*
X137269000Y-107528260D02*
G75*
G03*
X137969000Y-106828260I1J699999D01*
G01*
%TO.C,QA6*%
X50880000Y-96970000D02*
X50880000Y-98170000D01*
X61120000Y-94570000D02*
X61120000Y-95770000D01*
X61120000Y-98330000D02*
X59920000Y-98330000D01*
X50880000Y-92170000D02*
X50880000Y-93370000D01*
X61120000Y-91930000D02*
X50880000Y-91930000D01*
X58540000Y-79900000D02*
X58540000Y-82440000D01*
X61120000Y-92170000D02*
X61120000Y-93370000D01*
X50880000Y-94570000D02*
X50880000Y-95770000D01*
X58721000Y-98330000D02*
X57520000Y-98330000D01*
X56320000Y-98330000D02*
X55120000Y-98330000D01*
X61120000Y-96970000D02*
X61120000Y-98170000D01*
X53920000Y-98330000D02*
X52720000Y-98330000D01*
X51520000Y-98330000D02*
X50880000Y-98330000D01*
X61120000Y-82440000D02*
X50880000Y-82440000D01*
X53460000Y-79900000D02*
X53460000Y-82440000D01*
X56000000Y-79900000D02*
X56000000Y-82440000D01*
X61120000Y-82440000D02*
X61120000Y-91930000D01*
X50880000Y-82440000D02*
X50880000Y-91930000D01*
%TO.C,QB6*%
X94620000Y-98330000D02*
X93420000Y-98330000D01*
X94620000Y-82440000D02*
X84380000Y-82440000D01*
X87420000Y-98330000D02*
X86220000Y-98330000D01*
X84380000Y-96970000D02*
X84380000Y-98170000D01*
X89500000Y-79900000D02*
X89500000Y-82440000D01*
X85020000Y-98330000D02*
X84380000Y-98330000D01*
X84380000Y-94570000D02*
X84380000Y-95770000D01*
X86960000Y-79900000D02*
X86960000Y-82440000D01*
X94620000Y-91930000D02*
X84380000Y-91930000D01*
X94620000Y-92170000D02*
X94620000Y-93370000D01*
X94620000Y-94570000D02*
X94620000Y-95770000D01*
X94620000Y-96970000D02*
X94620000Y-98170000D01*
X92040000Y-79900000D02*
X92040000Y-82440000D01*
X94620000Y-82440000D02*
X94620000Y-91930000D01*
X84380000Y-92170000D02*
X84380000Y-93370000D01*
X89820000Y-98330000D02*
X88620000Y-98330000D01*
X92221000Y-98330000D02*
X91020000Y-98330000D01*
X84380000Y-82440000D02*
X84380000Y-91930000D01*
%TO.C,QB2*%
X115620000Y-82440000D02*
X105380000Y-82440000D01*
X115620000Y-96970000D02*
X115620000Y-98170000D01*
X105380000Y-94570000D02*
X105380000Y-95770000D01*
X107960000Y-79900000D02*
X107960000Y-82440000D01*
X106020000Y-98330000D02*
X105380000Y-98330000D01*
X113221000Y-98330000D02*
X112020000Y-98330000D01*
X105380000Y-96970000D02*
X105380000Y-98170000D01*
X105380000Y-92170000D02*
X105380000Y-93370000D01*
X110500000Y-79900000D02*
X110500000Y-82440000D01*
X115620000Y-91930000D02*
X105380000Y-91930000D01*
X113040000Y-79900000D02*
X113040000Y-82440000D01*
X108420000Y-98330000D02*
X107220000Y-98330000D01*
X115620000Y-92170000D02*
X115620000Y-93370000D01*
X105380000Y-82440000D02*
X105380000Y-91930000D01*
X115620000Y-94570000D02*
X115620000Y-95770000D01*
X115620000Y-82440000D02*
X115620000Y-91930000D01*
X115620000Y-98330000D02*
X114420000Y-98330000D01*
X110820000Y-98330000D02*
X109620000Y-98330000D01*
%TO.C,QA5*%
X74460000Y-68850000D02*
X74460000Y-66310000D01*
X79080000Y-50420000D02*
X80280000Y-50420000D01*
X79540000Y-68850000D02*
X79540000Y-66310000D01*
X71880000Y-56580000D02*
X71880000Y-55380000D01*
X82120000Y-66310000D02*
X82120000Y-56820000D01*
X71880000Y-54180000D02*
X71880000Y-52980000D01*
X76680000Y-50420000D02*
X77880000Y-50420000D01*
X82120000Y-51780000D02*
X82120000Y-50580000D01*
X71880000Y-56820000D02*
X82120000Y-56820000D01*
X77000000Y-68850000D02*
X77000000Y-66310000D01*
X81480000Y-50420000D02*
X82120000Y-50420000D01*
X71880000Y-66310000D02*
X71880000Y-56820000D01*
X71880000Y-66310000D02*
X82120000Y-66310000D01*
X74279000Y-50420000D02*
X75480000Y-50420000D01*
X71880000Y-51780000D02*
X71880000Y-50580000D01*
X82120000Y-56580000D02*
X82120000Y-55380000D01*
X82120000Y-54180000D02*
X82120000Y-52980000D01*
X71880000Y-50420000D02*
X73080000Y-50420000D01*
%TO.C,JP2*%
X139119000Y-108828260D02*
X138519000Y-108828260D01*
X139819000Y-112278260D02*
X139819000Y-109478260D01*
X137819000Y-109478260D02*
X137819000Y-112278260D01*
X138519000Y-112928260D02*
X139119000Y-112928260D01*
X138519000Y-108828260D02*
G75*
G03*
X137819000Y-109528260I0J-700000D01*
G01*
X137819000Y-112228260D02*
G75*
G03*
X138519000Y-112928260I699999J-1D01*
G01*
X139819000Y-109528260D02*
G75*
G03*
X139119000Y-108828260I-700000J0D01*
G01*
X139119000Y-112928260D02*
G75*
G03*
X139819000Y-112228260I1J699999D01*
G01*
%TO.C,QA1*%
X61120000Y-54180000D02*
X61120000Y-52980000D01*
X53460000Y-68850000D02*
X53460000Y-66310000D01*
X50880000Y-51780000D02*
X50880000Y-50580000D01*
X50880000Y-56820000D02*
X61120000Y-56820000D01*
X58080000Y-50420000D02*
X59280000Y-50420000D01*
X56000000Y-68850000D02*
X56000000Y-66310000D01*
X61120000Y-56580000D02*
X61120000Y-55380000D01*
X60480000Y-50420000D02*
X61120000Y-50420000D01*
X55680000Y-50420000D02*
X56880000Y-50420000D01*
X61120000Y-51780000D02*
X61120000Y-50580000D01*
X50880000Y-66310000D02*
X61120000Y-66310000D01*
X50880000Y-66310000D02*
X50880000Y-56820000D01*
X58540000Y-68850000D02*
X58540000Y-66310000D01*
X61120000Y-66310000D02*
X61120000Y-56820000D01*
X50880000Y-56580000D02*
X50880000Y-55380000D01*
X50880000Y-50420000D02*
X52080000Y-50420000D01*
X50880000Y-54180000D02*
X50880000Y-52980000D01*
X53279000Y-50420000D02*
X54480000Y-50420000D01*
%TO.C,QB3*%
X94880000Y-66310000D02*
X105120000Y-66310000D01*
X94880000Y-66310000D02*
X94880000Y-56820000D01*
X100000000Y-68850000D02*
X100000000Y-66310000D01*
X105120000Y-54180000D02*
X105120000Y-52980000D01*
X99680000Y-50420000D02*
X100880000Y-50420000D01*
X97279000Y-50420000D02*
X98480000Y-50420000D01*
X102540000Y-68850000D02*
X102540000Y-66310000D01*
X102080000Y-50420000D02*
X103280000Y-50420000D01*
X94880000Y-51780000D02*
X94880000Y-50580000D01*
X94880000Y-56820000D02*
X105120000Y-56820000D01*
X94880000Y-54180000D02*
X94880000Y-52980000D01*
X94880000Y-50420000D02*
X96080000Y-50420000D01*
X105120000Y-66310000D02*
X105120000Y-56820000D01*
X97460000Y-68850000D02*
X97460000Y-66310000D01*
X94880000Y-56580000D02*
X94880000Y-55380000D01*
X105120000Y-51780000D02*
X105120000Y-50580000D01*
X104480000Y-50420000D02*
X105120000Y-50420000D01*
X105120000Y-56580000D02*
X105120000Y-55380000D01*
%TO.C,QC3*%
X138620000Y-54180000D02*
X138620000Y-52980000D01*
X137980000Y-50420000D02*
X138620000Y-50420000D01*
X138620000Y-51780000D02*
X138620000Y-50580000D01*
X130779000Y-50420000D02*
X131980000Y-50420000D01*
X128380000Y-54180000D02*
X128380000Y-52980000D01*
X133500000Y-68850000D02*
X133500000Y-66310000D01*
X128380000Y-50420000D02*
X129580000Y-50420000D01*
X128380000Y-51780000D02*
X128380000Y-50580000D01*
X138620000Y-56580000D02*
X138620000Y-55380000D01*
X133180000Y-50420000D02*
X134380000Y-50420000D01*
X128380000Y-66310000D02*
X138620000Y-66310000D01*
X130960000Y-68850000D02*
X130960000Y-66310000D01*
X138620000Y-66310000D02*
X138620000Y-56820000D01*
X128380000Y-56580000D02*
X128380000Y-55380000D01*
X136040000Y-68850000D02*
X136040000Y-66310000D01*
X135580000Y-50420000D02*
X136780000Y-50420000D01*
X128380000Y-66310000D02*
X128380000Y-56820000D01*
X128380000Y-56820000D02*
X138620000Y-56820000D01*
%TO.C,QA4*%
X62020000Y-98330000D02*
X61380000Y-98330000D01*
X71620000Y-98330000D02*
X70420000Y-98330000D01*
X66500000Y-79900000D02*
X66500000Y-82440000D01*
X61380000Y-92170000D02*
X61380000Y-93370000D01*
X61380000Y-96970000D02*
X61380000Y-98170000D01*
X71620000Y-96970000D02*
X71620000Y-98170000D01*
X69221000Y-98330000D02*
X68020000Y-98330000D01*
X69040000Y-79900000D02*
X69040000Y-82440000D01*
X61380000Y-94570000D02*
X61380000Y-95770000D01*
X71620000Y-82440000D02*
X61380000Y-82440000D01*
X66820000Y-98330000D02*
X65620000Y-98330000D01*
X71620000Y-91930000D02*
X61380000Y-91930000D01*
X63960000Y-79900000D02*
X63960000Y-82440000D01*
X71620000Y-92170000D02*
X71620000Y-93370000D01*
X71620000Y-82440000D02*
X71620000Y-91930000D01*
X61380000Y-82440000D02*
X61380000Y-91930000D01*
X71620000Y-94570000D02*
X71620000Y-95770000D01*
X64420000Y-98330000D02*
X63220000Y-98330000D01*
%TO.C,QC2*%
X138620000Y-92170000D02*
X138620000Y-93370000D01*
X138620000Y-91930000D02*
X128380000Y-91930000D01*
X130960000Y-79900000D02*
X130960000Y-82440000D01*
X138620000Y-82440000D02*
X138620000Y-91930000D01*
X138620000Y-82440000D02*
X128380000Y-82440000D01*
X138620000Y-96970000D02*
X138620000Y-98170000D01*
X136221000Y-98330000D02*
X135020000Y-98330000D01*
X128380000Y-82440000D02*
X128380000Y-91930000D01*
X131420000Y-98330000D02*
X130220000Y-98330000D01*
X138620000Y-98330000D02*
X137420000Y-98330000D01*
X128380000Y-92170000D02*
X128380000Y-93370000D01*
X128380000Y-94570000D02*
X128380000Y-95770000D01*
X136040000Y-79900000D02*
X136040000Y-82440000D01*
X133820000Y-98330000D02*
X132620000Y-98330000D01*
X138620000Y-94570000D02*
X138620000Y-95770000D01*
X129020000Y-98330000D02*
X128380000Y-98330000D01*
X128380000Y-96970000D02*
X128380000Y-98170000D01*
X133500000Y-79900000D02*
X133500000Y-82440000D01*
%TO.C,QC1*%
X117880000Y-56820000D02*
X128120000Y-56820000D01*
X122680000Y-50420000D02*
X123880000Y-50420000D01*
X117880000Y-54180000D02*
X117880000Y-52980000D01*
X123000000Y-68850000D02*
X123000000Y-66310000D01*
X127480000Y-50420000D02*
X128120000Y-50420000D01*
X117880000Y-56580000D02*
X117880000Y-55380000D01*
X125540000Y-68850000D02*
X125540000Y-66310000D01*
X120460000Y-68850000D02*
X120460000Y-66310000D01*
X117880000Y-66310000D02*
X128120000Y-66310000D01*
X125080000Y-50420000D02*
X126280000Y-50420000D01*
X128120000Y-66310000D02*
X128120000Y-56820000D01*
X117880000Y-50420000D02*
X119080000Y-50420000D01*
X117880000Y-51780000D02*
X117880000Y-50580000D01*
X128120000Y-56580000D02*
X128120000Y-55380000D01*
X117880000Y-66310000D02*
X117880000Y-56820000D01*
X128120000Y-51780000D02*
X128120000Y-50580000D01*
X128120000Y-54180000D02*
X128120000Y-52980000D01*
X120279000Y-50420000D02*
X121480000Y-50420000D01*
%TO.C,QA2*%
X74460000Y-79900000D02*
X74460000Y-82440000D01*
X82120000Y-98330000D02*
X80920000Y-98330000D01*
X82120000Y-92170000D02*
X82120000Y-93370000D01*
X82120000Y-91930000D02*
X71880000Y-91930000D01*
X74920000Y-98330000D02*
X73720000Y-98330000D01*
X82120000Y-82440000D02*
X71880000Y-82440000D01*
X71880000Y-96970000D02*
X71880000Y-98170000D01*
X77000000Y-79900000D02*
X77000000Y-82440000D01*
X71880000Y-94570000D02*
X71880000Y-95770000D01*
X82120000Y-94570000D02*
X82120000Y-95770000D01*
X79540000Y-79900000D02*
X79540000Y-82440000D01*
X77320000Y-98330000D02*
X76120000Y-98330000D01*
X82120000Y-96970000D02*
X82120000Y-98170000D01*
X72520000Y-98330000D02*
X71880000Y-98330000D01*
X71880000Y-92170000D02*
X71880000Y-93370000D01*
X82120000Y-82440000D02*
X82120000Y-91930000D01*
X71880000Y-82440000D02*
X71880000Y-91930000D01*
X79721000Y-98330000D02*
X78520000Y-98330000D01*
%TO.C,QB1*%
X105380000Y-56580000D02*
X105380000Y-55380000D01*
X107779000Y-50420000D02*
X108980000Y-50420000D01*
X115620000Y-56580000D02*
X115620000Y-55380000D01*
X114980000Y-50420000D02*
X115620000Y-50420000D01*
X110180000Y-50420000D02*
X111380000Y-50420000D01*
X115620000Y-51780000D02*
X115620000Y-50580000D01*
X105380000Y-50420000D02*
X106580000Y-50420000D01*
X105380000Y-56820000D02*
X115620000Y-56820000D01*
X112580000Y-50420000D02*
X113780000Y-50420000D01*
X107960000Y-68850000D02*
X107960000Y-66310000D01*
X105380000Y-66310000D02*
X115620000Y-66310000D01*
X105380000Y-51780000D02*
X105380000Y-50580000D01*
X115620000Y-66310000D02*
X115620000Y-56820000D01*
X115620000Y-54180000D02*
X115620000Y-52980000D01*
X105380000Y-66310000D02*
X105380000Y-56820000D01*
X113040000Y-68850000D02*
X113040000Y-66310000D01*
X105380000Y-54180000D02*
X105380000Y-52980000D01*
X110500000Y-68850000D02*
X110500000Y-66310000D01*
%TD*%
M02*
