M48
; DRILL file {KiCad (6.0.4)} date Mon Jul 25 23:44:39 2022
; FORMAT={-:-/ absolute / metric / decimal}
; #@! TF.CreationDate,2022-07-25T23:44:39+01:00
; #@! TF.GenerationSoftware,Kicad,Pcbnew,(6.0.4)
; #@! TF.FileFunction,Plated,1,4,PTH
FMAT,2
METRIC
; #@! TA.AperFunction,Plated,PTH,ViaDrill
T1C0.300
; #@! TA.AperFunction,Plated,PTH,ViaDrill
T2C0.400
; #@! TA.AperFunction,Plated,PTH,ComponentDrill
T3C0.700
; #@! TA.AperFunction,Plated,PTH,ComponentDrill
T4C0.750
; #@! TA.AperFunction,Plated,PTH,ComponentDrill
T5C0.914
; #@! TA.AperFunction,Plated,PTH,ComponentDrill
T6C1.000
; #@! TA.AperFunction,Plated,PTH,ComponentDrill
T7C1.100
; #@! TA.AperFunction,Plated,PTH,ComponentDrill
T8C1.200
; #@! TA.AperFunction,Plated,PTH,ComponentDrill
T9C1.500
; #@! TA.AperFunction,Plated,PTH,ComponentDrill
T10C2.500
%
G90
G05
T1
X50.8Y-73.5
X51.55Y-78.3
X51.95Y-77.0
X53.1Y-77.0
X53.669Y-120.878
X54.1Y-76.15
X54.1Y-77.0
X61.069Y-115.028
X61.419Y-100.978
X61.969Y-105.928
X64.0Y-85.1
X64.03Y-81.9
X72.069Y-112.228
X74.719Y-108.283
X74.919Y-121.328
X75.184Y-107.628
X76.519Y-116.378
X77.819Y-116.328
X78.169Y-118.628
X78.169Y-120.128
X78.669Y-114.028
X78.769Y-106.228
X79.469Y-111.178
X79.469Y-114.028
X80.319Y-108.928
X80.569Y-105.028
X81.094Y-110.103
X81.689Y-108.378
X82.218Y-104.929
X82.369Y-102.128
X83.569Y-113.128
X85.169Y-103.828
X85.669Y-114.028
X85.819Y-117.128
X86.054Y-106.793
X86.069Y-111.08
X86.469Y-114.028
X87.319Y-108.678
X87.869Y-105.428
X87.969Y-120.128
X88.119Y-110.078
X89.369Y-119.328
X89.869Y-108.628
X92.669Y-114.028
X93.069Y-109.028
X93.469Y-114.028
X93.669Y-102.728
X94.319Y-108.778
X95.094Y-110.103
X95.419Y-104.978
X96.819Y-105.628
X97.369Y-114.528
X97.406Y-107.278
X97.406Y-109.078
X97.406Y-111.254
X97.5Y-81.9
X97.5Y-85.1
X97.906Y-105.378
X100.469Y-119.628
X100.706Y-105.978
X100.906Y-108.378
X100.906Y-111.254
X103.769Y-107.578
X105.209Y-100.728
X105.81Y-100.198
X105.819Y-108.928
X107.39Y-101.43
X107.969Y-113.478
X108.28Y-101.88
X109.069Y-104.928
X109.869Y-106.828
X112.969Y-108.428
X113.119Y-113.628
X113.269Y-99.778
X114.319Y-102.328
X115.269Y-108.428
X115.269Y-110.828
X115.619Y-115.128
X115.669Y-100.028
X115.769Y-102.878
X116.369Y-108.428
X116.369Y-109.428
X117.269Y-101.428
X117.293Y-110.652
X118.069Y-103.428
X118.219Y-115.028
X119.749Y-102.658
X120.369Y-108.328
X121.769Y-117.828
X122.669Y-109.228
X123.304Y-108.528
X123.569Y-106.628
X123.669Y-110.728
X123.669Y-112.228
X125.169Y-106.028
X125.869Y-110.628
X126.769Y-112.528
X127.069Y-103.228
X127.669Y-106.328
X127.869Y-107.728
X127.869Y-109.228
X128.169Y-111.128
X129.193Y-104.978
X129.193Y-107.928
X129.369Y-112.878
X130.059Y-111.629
X130.45Y-81.9
X130.469Y-106.328
X130.5Y-85.1
X130.869Y-103.228
X130.919Y-107.478
X131.169Y-116.028
X131.258Y-104.828
X132.019Y-111.578
X133.369Y-111.178
X134.169Y-111.178
X134.719Y-117.578
X134.969Y-111.178
X135.769Y-111.178
X135.919Y-106.678
X136.019Y-104.428
X136.319Y-102.178
X137.119Y-106.078
X137.3Y-110.48
X137.819Y-121.278
X138.199Y-115.798
X138.769Y-102.728
X139.019Y-107.828
X139.769Y-112.128
X139.969Y-106.078
X141.019Y-108.878
X141.369Y-110.528
X141.519Y-106.078
X142.419Y-116.328
X143.069Y-106.078
X143.569Y-99.529
X144.0Y-84.8
X146.769Y-107.828
X147.369Y-116.678
X147.844Y-103.203
X147.844Y-106.203
X147.869Y-101.228
X147.869Y-104.328
X147.869Y-109.928
X148.569Y-99.828
X149.2Y-72.6
X149.2Y-86.55
T2
X51.0Y-58.0
X51.1Y-56.0
X52.0Y-57.0
X53.0Y-56.0
X53.0Y-58.0
X54.0Y-57.0
X54.4Y-62.0
X54.4Y-63.4
X54.4Y-65.0
X54.4Y-66.6
X55.0Y-56.0
X55.0Y-58.0
X57.0Y-88.0
X57.0Y-89.0
X57.0Y-90.0
X57.0Y-91.5
X57.0Y-93.0
X58.5Y-62.0
X58.5Y-63.5
X58.5Y-65.0
X58.5Y-66.5
X58.5Y-87.0
X58.5Y-88.0
X58.5Y-89.0
X58.5Y-90.0
X58.5Y-91.5
X58.5Y-93.0
X60.0Y-86.0
X60.0Y-87.0
X60.0Y-88.0
X60.0Y-89.0
X60.0Y-90.0
X60.0Y-91.5
X60.0Y-93.0
X60.35Y-73.0
X60.35Y-76.05
X61.5Y-85.0
X61.5Y-86.0
X61.5Y-87.0
X61.5Y-88.0
X61.5Y-89.0
X61.5Y-90.0
X61.5Y-91.5
X61.5Y-93.0
X63.0Y-88.0
X63.0Y-89.0
X63.0Y-90.0
X63.0Y-91.5
X63.0Y-93.0
X64.5Y-88.0
X64.5Y-89.0
X64.5Y-90.0
X64.5Y-91.5
X64.5Y-93.0
X65.1Y-62.0
X65.1Y-63.5
X65.1Y-65.0
X65.1Y-66.6
X65.75Y-76.0
X65.8Y-73.0
X66.0Y-88.0
X66.0Y-89.0
X66.0Y-90.0
X66.0Y-91.5
X66.0Y-93.0
X67.5Y-85.0
X67.5Y-86.0
X67.5Y-87.0
X67.5Y-88.0
X67.5Y-89.0
X67.5Y-90.0
X67.5Y-91.5
X67.5Y-93.0
X69.0Y-62.0
X69.0Y-63.5
X69.0Y-65.0
X69.0Y-66.6
X69.0Y-86.0
X69.0Y-87.0
X69.0Y-88.0
X69.0Y-89.0
X69.0Y-90.0
X69.0Y-91.5
X69.0Y-93.0
X70.5Y-87.0
X70.5Y-88.0
X70.5Y-89.0
X70.5Y-90.0
X70.5Y-91.5
X70.5Y-93.0
X70.9Y-73.0
X70.9Y-76.1
X72.0Y-86.9
X72.0Y-88.0
X72.0Y-89.0
X72.0Y-90.0
X72.0Y-91.5
X72.0Y-93.0
X73.5Y-88.0
X73.5Y-89.0
X73.5Y-90.0
X73.5Y-91.5
X73.5Y-93.0
X75.5Y-86.0
X75.5Y-87.0
X75.5Y-88.0
X75.5Y-89.0
X75.5Y-90.0
X75.5Y-91.5
X75.5Y-93.0
X75.9Y-62.0
X75.9Y-63.5
X75.9Y-65.0
X75.9Y-66.6
X76.7Y-73.0
X76.7Y-76.0
X77.0Y-85.0
X77.0Y-86.0
X77.0Y-87.0
X77.0Y-88.0
X77.0Y-89.0
X77.0Y-90.0
X77.0Y-91.5
X77.0Y-93.0
X78.5Y-85.0
X78.5Y-86.0
X78.5Y-87.0
X78.5Y-88.0
X78.5Y-89.0
X78.5Y-90.0
X78.5Y-91.6
X78.5Y-93.0
X79.8Y-62.0
X79.8Y-63.5
X79.8Y-65.0
X79.8Y-66.6
X80.0Y-85.0
X80.0Y-86.0
X80.0Y-87.0
X80.0Y-88.0
X80.0Y-89.0
X80.0Y-90.0
X80.0Y-91.6
X80.0Y-93.0
X81.5Y-85.0
X81.5Y-86.0
X81.5Y-87.0
X81.5Y-88.0
X81.5Y-89.0
X81.5Y-90.0
X81.5Y-91.6
X81.5Y-93.0
X82.5Y-56.0
X82.5Y-58.0
X83.0Y-86.0
X83.0Y-87.0
X83.0Y-88.0
X83.0Y-89.0
X83.0Y-90.0
X83.0Y-91.6
X83.0Y-93.0
X83.5Y-57.0
X83.55Y-77.0
X84.5Y-58.0
X84.5Y-77.0
X84.6Y-56.0
X84.799Y-86.0
X84.799Y-87.0
X84.799Y-88.0
X84.799Y-89.9
X84.799Y-91.6
X84.799Y-93.0
X84.8Y-89.0
X85.6Y-57.0
X86.5Y-56.0
X86.5Y-58.0
X86.599Y-85.0
X86.599Y-86.0
X86.6Y-87.0
X86.6Y-88.0
X86.6Y-89.0
X86.6Y-90.0
X86.6Y-91.6
X86.6Y-93.0
X86.7Y-62.0
X86.7Y-63.5
X86.7Y-65.0
X86.7Y-66.6
X87.25Y-77.0
X88.0Y-86.0
X88.0Y-87.0
X88.0Y-88.0
X88.0Y-89.0
X88.0Y-90.0
X88.0Y-91.6
X88.0Y-93.0
X89.4Y-87.0
X89.4Y-88.0
X89.4Y-89.0
X89.4Y-90.0
X89.4Y-91.0
X89.4Y-92.0
X89.4Y-93.0
X90.8Y-88.0
X90.8Y-89.0
X90.8Y-90.0
X90.8Y-91.0
X90.8Y-92.0
X90.8Y-93.0
X91.4Y-62.0
X91.4Y-63.5
X91.4Y-65.0
X91.4Y-66.6
X92.2Y-86.85
X92.2Y-88.0
X92.2Y-89.0
X92.2Y-90.0
X92.2Y-91.0
X92.2Y-92.0
X92.2Y-93.0
X93.4Y-73.0
X93.4Y-76.0
X93.5Y-85.75
X93.5Y-86.9
X93.5Y-88.0
X93.5Y-89.0
X93.5Y-90.0
X93.5Y-91.0
X93.5Y-92.0
X93.5Y-93.0
X94.8Y-84.5
X94.8Y-85.7
X94.8Y-86.9
X94.8Y-88.0
X94.8Y-89.0
X94.8Y-90.0
X94.8Y-92.0
X94.8Y-93.0
X94.8Y-91.0
X95.0Y-62.6
X95.0Y-64.2
X95.0Y-65.9
X96.0Y-61.7
X96.0Y-63.4
X96.0Y-65.0
X96.0Y-66.6
X97.0Y-93.0
X97.0Y-61.0
X97.0Y-62.6
X97.0Y-64.2
X97.0Y-65.9
X97.0Y-67.5
X97.0Y-88.0
X97.0Y-89.0
X97.0Y-90.0
X97.0Y-91.0
X97.0Y-92.0
X98.0Y-61.7
X98.0Y-63.4
X98.0Y-65.0
X98.0Y-66.6
X98.5Y-88.0
X98.5Y-89.0
X98.5Y-90.0
X98.5Y-91.0
X98.5Y-92.0
X98.5Y-93.0
X98.65Y-73.0
X98.65Y-76.0
X99.0Y-61.0
X99.0Y-62.6
X99.0Y-64.2
X99.0Y-65.9
X99.0Y-67.5
X100.0Y-61.7
X100.0Y-63.4
X100.0Y-65.0
X100.0Y-66.6
X100.0Y-85.7
X100.0Y-86.9
X100.0Y-88.0
X100.0Y-89.0
X100.0Y-90.0
X100.0Y-91.0
X100.0Y-92.0
X100.0Y-93.0
X101.0Y-61.0
X101.0Y-62.6
X101.0Y-64.2
X101.0Y-65.9
X101.1Y-67.4
X101.5Y-85.7
X101.5Y-86.85
X101.5Y-88.0
X101.5Y-89.0
X101.5Y-90.0
X101.5Y-91.0
X101.5Y-92.0
X101.5Y-93.0
X102.0Y-61.7
X102.0Y-63.4
X102.0Y-65.0
X102.0Y-66.6
X102.9Y-62.6
X103.0Y-64.2
X103.0Y-65.9
X103.0Y-86.85
X103.0Y-88.0
X103.0Y-89.0
X103.0Y-90.0
X103.0Y-91.0
X103.0Y-92.0
X103.0Y-93.0
X103.85Y-73.0
X103.85Y-76.0
X104.5Y-88.0
X104.5Y-89.0
X104.5Y-90.0
X104.5Y-91.0
X104.5Y-92.0
X104.5Y-93.0
X106.75Y-86.95
X106.75Y-88.0
X106.75Y-88.95
X106.75Y-90.0
X106.8Y-91.6
X106.8Y-93.0
X109.0Y-62.0
X109.0Y-63.5
X109.0Y-65.0
X109.0Y-66.6
X109.5Y-86.0
X109.5Y-87.0
X109.5Y-88.0
X109.5Y-89.0
X109.5Y-90.0
X109.5Y-91.5
X109.5Y-93.0
X109.6Y-73.0
X109.65Y-76.0
X111.0Y-86.0
X111.0Y-87.0
X111.0Y-88.0
X111.0Y-89.0
X111.0Y-90.0
X111.0Y-91.5
X111.0Y-93.0
X112.5Y-86.0
X112.5Y-87.0
X112.5Y-88.0
X112.5Y-89.0
X112.5Y-90.0
X112.5Y-91.5
X112.5Y-93.0
X113.0Y-62.0
X113.0Y-63.5
X113.0Y-65.0
X113.0Y-66.6
X114.0Y-86.0
X114.0Y-87.0
X114.0Y-88.0
X114.0Y-89.0
X114.0Y-90.0
X114.0Y-91.5
X114.0Y-93.0
X114.5Y-56.0
X114.5Y-58.0
X115.5Y-57.0
X115.5Y-87.0
X115.5Y-88.0
X115.5Y-89.0
X115.5Y-90.0
X115.5Y-91.5
X115.5Y-93.0
X115.6Y-77.1
X116.5Y-56.0
X116.5Y-58.0
X117.0Y-87.0
X117.0Y-88.0
X117.0Y-89.0
X117.0Y-90.0
X117.0Y-91.5
X117.0Y-93.0
X117.508Y-77.073
X117.6Y-57.0
X118.5Y-56.0
X118.5Y-58.0
X118.5Y-86.0
X118.5Y-87.0
X118.5Y-88.0
X118.5Y-89.0
X118.5Y-90.0
X118.5Y-91.5
X118.5Y-93.0
X120.0Y-62.0
X120.0Y-63.5
X120.0Y-65.0
X120.0Y-66.6
X120.0Y-86.0
X120.0Y-87.0
X120.0Y-88.0
X120.0Y-89.0
X120.0Y-90.0
X120.0Y-91.5
X120.0Y-93.0
X120.25Y-77.0
X121.5Y-91.5
X121.5Y-93.0
X122.0Y-86.0
X122.0Y-87.0
X122.0Y-88.0
X122.0Y-89.0
X122.0Y-90.0
X123.0Y-91.5
X123.0Y-93.0
X123.5Y-87.0
X123.5Y-88.0
X123.5Y-89.0
X123.5Y-90.0
X124.0Y-62.0
X124.0Y-63.5
X124.0Y-65.0
X124.0Y-66.6
X124.5Y-91.5
X124.5Y-93.0
X125.0Y-87.0
X125.0Y-88.0
X125.0Y-89.0
X125.0Y-90.0
X126.0Y-91.5
X126.0Y-93.0
X126.4Y-76.05
X126.45Y-73.0
X126.5Y-86.0
X126.5Y-87.0
X126.5Y-88.0
X126.5Y-89.0
X126.5Y-90.0
X127.5Y-91.5
X127.5Y-93.0
X128.0Y-84.9
X128.0Y-86.0
X128.0Y-87.0
X128.0Y-88.0
X128.0Y-89.0
X128.0Y-90.0
X129.0Y-91.5
X129.0Y-93.0
X129.5Y-88.0
X129.5Y-89.0
X129.5Y-90.0
X130.5Y-91.5
X130.5Y-93.0
X130.6Y-62.0
X130.6Y-63.5
X130.6Y-65.0
X130.6Y-66.4
X131.0Y-88.0
X131.0Y-89.0
X131.0Y-90.0
X131.7Y-73.0
X131.7Y-76.0
X132.0Y-91.5
X132.0Y-93.0
X132.5Y-88.0
X132.5Y-89.0
X132.5Y-90.0
X133.5Y-91.5
X133.5Y-93.0
X134.0Y-84.0
X134.0Y-85.0
X134.0Y-86.0
X134.0Y-87.0
X134.0Y-88.0
X134.0Y-89.0
X134.0Y-90.0
X135.0Y-91.5
X135.0Y-93.0
X135.4Y-62.0
X135.4Y-63.5
X135.4Y-65.0
X135.4Y-66.4
X135.5Y-86.0
X135.5Y-87.0
X135.5Y-88.0
X135.5Y-89.0
X135.5Y-90.0
X136.5Y-91.5
X136.5Y-93.0
X136.85Y-76.05
X136.9Y-73.0
X137.0Y-87.0
X137.0Y-88.0
X137.0Y-89.0
X137.0Y-90.0
X138.0Y-91.5
X138.0Y-93.0
X138.5Y-87.0
X138.5Y-88.0
X138.5Y-89.0
X138.5Y-90.0
X139.5Y-91.5
X139.5Y-93.0
X140.0Y-86.0
X140.0Y-87.0
X140.0Y-88.0
X140.0Y-89.0
X140.0Y-90.0
X141.0Y-91.5
X141.0Y-93.0
X141.4Y-62.0
X141.4Y-63.5
X141.4Y-65.0
X141.4Y-66.6
X141.75Y-76.0
X141.8Y-73.0
X145.0Y-56.5
X145.0Y-58.5
X145.3Y-62.0
X145.3Y-63.5
X145.3Y-65.0
X145.3Y-66.6
X146.1Y-57.5
X147.0Y-56.5
X147.0Y-58.5
X148.1Y-57.5
X148.9Y-77.3
X149.0Y-56.5
X149.0Y-58.5
T3
X50.9Y-81.505
X50.9Y-83.405
X133.914Y-108.678
X135.814Y-108.678
T4
X91.769Y-119.628
X93.769Y-119.628
X95.769Y-119.628
X97.769Y-119.628
X103.219Y-119.628
X105.219Y-119.628
X107.219Y-119.628
X109.219Y-119.628
X111.219Y-119.628
X113.219Y-119.628
X121.419Y-119.628
X123.419Y-119.628
X125.419Y-119.628
X127.419Y-119.628
X129.419Y-119.628
X131.419Y-119.628
X137.169Y-119.628
X139.169Y-119.628
X141.169Y-119.628
X143.169Y-119.628
X145.169Y-119.628
X147.169Y-119.628
T5
X99.069Y-99.028
X99.069Y-114.268
X101.609Y-99.028
X101.609Y-114.268
X104.149Y-99.028
X104.149Y-114.268
X106.689Y-99.028
X106.689Y-114.268
X109.229Y-99.028
X109.229Y-114.268
X111.769Y-99.028
X111.769Y-114.268
X114.285Y-114.278
X114.309Y-99.028
X116.849Y-99.028
X116.849Y-114.268
X119.389Y-99.028
X119.389Y-114.268
X121.929Y-99.028
X121.929Y-114.268
X124.469Y-99.028
X124.469Y-114.268
X127.009Y-99.028
X127.009Y-114.268
X129.549Y-99.028
X129.549Y-114.268
X132.089Y-99.028
X132.089Y-114.268
X134.629Y-99.028
X134.629Y-114.268
X137.169Y-99.028
X137.169Y-114.268
X139.709Y-99.028
X139.709Y-114.268
X142.249Y-99.028
X142.249Y-114.268
X144.789Y-99.028
X144.789Y-114.268
X147.329Y-99.028
X147.329Y-114.268
T6
X71.55Y-78.75
X72.05Y-70.0
X82.5Y-83.75
X93.569Y-101.028
X94.5Y-78.8
X95.0Y-70.0
X116.25Y-85.25
X128.0Y-78.75
X128.45Y-70.0
X144.5Y-89.0
T7
X53.46Y-70.0
X53.46Y-78.75
X54.779Y-113.418
X54.779Y-115.958
X54.779Y-118.498
X56.0Y-70.0
X56.0Y-78.75
X58.54Y-70.0
X58.54Y-78.75
X63.96Y-70.0
X63.96Y-78.75
X66.5Y-70.0
X66.5Y-78.75
X69.04Y-70.0
X69.04Y-78.75
X74.46Y-70.0
X74.46Y-78.75
X77.0Y-70.0
X77.0Y-78.75
X79.54Y-70.0
X79.54Y-78.75
X80.164Y-119.123
X82.704Y-119.123
X85.244Y-119.123
X86.96Y-70.0
X86.96Y-78.75
X89.5Y-70.0
X89.5Y-78.75
X92.04Y-70.0
X92.04Y-78.75
X97.46Y-70.0
X97.46Y-78.75
X100.0Y-70.0
X100.0Y-78.75
X102.54Y-70.0
X102.54Y-78.75
X107.96Y-70.0
X107.96Y-78.75
X110.5Y-70.0
X110.5Y-78.75
X113.04Y-70.0
X113.04Y-78.75
X120.46Y-70.0
X120.46Y-78.75
X123.0Y-70.0
X123.0Y-78.75
X125.54Y-70.0
X125.54Y-78.75
X130.96Y-70.0
X130.96Y-78.75
X133.5Y-70.0
X133.5Y-78.75
X136.04Y-70.0
X136.04Y-78.75
X141.46Y-70.0
X141.46Y-78.75
X144.0Y-70.0
X144.0Y-78.75
X146.54Y-70.0
X146.54Y-78.75
T8
X51.2Y-88.5
X55.2Y-88.5
T9
X52.654Y-106.733
X52.654Y-111.813
X72.569Y-106.778
X72.974Y-99.113
X72.974Y-119.433
T10
X57.8Y-74.5
X68.35Y-74.55
X79.25Y-74.5
X90.8Y-74.5
X101.25Y-74.5
X112.25Y-74.45
X123.8Y-74.5
X134.3Y-74.5
X144.4Y-74.5
T0
M30
