%TF.GenerationSoftware,KiCad,Pcbnew,(6.0.4)*%
%TF.CreationDate,2022-07-25T23:44:37+01:00*%
%TF.ProjectId,CCC_ESC,4343435f-4553-4432-9e6b-696361645f70,rev?*%
%TF.SameCoordinates,Original*%
%TF.FileFunction,Soldermask,Top*%
%TF.FilePolarity,Negative*%
%FSLAX46Y46*%
G04 Gerber Fmt 4.6, Leading zero omitted, Abs format (unit mm)*
G04 Created by KiCad (PCBNEW (6.0.4)) date 2022-07-25 23:44:37*
%MOMM*%
%LPD*%
G01*
G04 APERTURE LIST*
G04 Aperture macros list*
%AMRoundRect*
0 Rectangle with rounded corners*
0 $1 Rounding radius*
0 $2 $3 $4 $5 $6 $7 $8 $9 X,Y pos of 4 corners*
0 Add a 4 corners polygon primitive as box body*
4,1,4,$2,$3,$4,$5,$6,$7,$8,$9,$2,$3,0*
0 Add four circle primitives for the rounded corners*
1,1,$1+$1,$2,$3*
1,1,$1+$1,$4,$5*
1,1,$1+$1,$6,$7*
1,1,$1+$1,$8,$9*
0 Add four rect primitives between the rounded corners*
20,1,$1+$1,$2,$3,$4,$5,0*
20,1,$1+$1,$4,$5,$6,$7,0*
20,1,$1+$1,$6,$7,$8,$9,0*
20,1,$1+$1,$8,$9,$2,$3,0*%
G04 Aperture macros list end*
%ADD10C,0.150000*%
%ADD11RoundRect,0.215000X0.225000X0.250000X-0.225000X0.250000X-0.225000X-0.250000X0.225000X-0.250000X0*%
%ADD12RoundRect,0.190000X0.275000X-0.200000X0.275000X0.200000X-0.275000X0.200000X-0.275000X-0.200000X0*%
%ADD13RoundRect,0.215000X-0.250000X0.225000X-0.250000X-0.225000X0.250000X-0.225000X0.250000X0.225000X0*%
%ADD14RoundRect,0.240000X0.751301X-1.263953X1.263953X-0.751301X-0.751301X1.263953X-1.263953X0.751301X0*%
%ADD15R,0.880000X1.180000*%
%ADD16RoundRect,0.240000X0.262500X0.450000X-0.262500X0.450000X-0.262500X-0.450000X0.262500X-0.450000X0*%
%ADD17RoundRect,0.290000X-2.200000X-1.200000X2.200000X-1.200000X2.200000X1.200000X-2.200000X1.200000X0*%
%ADD18RoundRect,0.240000X0.450000X-0.262500X0.450000X0.262500X-0.450000X0.262500X-0.450000X-0.262500X0*%
%ADD19R,0.430000X0.580000*%
%ADD20R,0.880000X0.380000*%
%ADD21RoundRect,0.190000X0.200000X0.275000X-0.200000X0.275000X-0.200000X-0.275000X0.200000X-0.275000X0*%
%ADD22C,1.980000*%
%ADD23RoundRect,0.190000X-0.200000X-0.275000X0.200000X-0.275000X0.200000X0.275000X-0.200000X0.275000X0*%
%ADD24C,3.980000*%
%ADD25C,2.480000*%
%ADD26RoundRect,0.240000X-1.100000X0.325000X-1.100000X-0.325000X1.100000X-0.325000X1.100000X0.325000X0*%
%ADD27RoundRect,0.240000X1.425000X-0.362500X1.425000X0.362500X-1.425000X0.362500X-1.425000X-0.362500X0*%
%ADD28C,1.480000*%
%ADD29RoundRect,0.190000X-0.275000X0.200000X-0.275000X-0.200000X0.275000X-0.200000X0.275000X0.200000X0*%
%ADD30R,1.980000X1.980000*%
%ADD31RoundRect,0.240000X0.350000X0.625000X-0.350000X0.625000X-0.350000X-0.625000X0.350000X-0.625000X0*%
%ADD32O,1.180000X1.730000*%
%ADD33C,2.980000*%
%ADD34RoundRect,0.215000X-0.225000X-0.250000X0.225000X-0.250000X0.225000X0.250000X-0.225000X0.250000X0*%
%ADD35RoundRect,0.215000X0.250000X-0.225000X0.250000X0.225000X-0.250000X0.225000X-0.250000X-0.225000X0*%
%ADD36RoundRect,0.240000X1.263953X0.751301X0.751301X1.263953X-1.263953X-0.751301X-0.751301X-1.263953X0*%
%ADD37RoundRect,0.240000X-0.250000X-0.475000X0.250000X-0.475000X0.250000X0.475000X-0.250000X0.475000X0*%
%ADD38R,0.380000X0.880000*%
%ADD39C,1.580000*%
%ADD40C,1.380000*%
%ADD41O,1.380000X1.380000*%
%ADD42RoundRect,0.240000X0.250000X0.475000X-0.250000X0.475000X-0.250000X-0.475000X0.250000X-0.475000X0*%
%ADD43RoundRect,0.140000X0.825000X0.150000X-0.825000X0.150000X-0.825000X-0.150000X0.825000X-0.150000X0*%
%ADD44C,1.504000*%
%ADD45RoundRect,0.140000X0.150000X-0.825000X0.150000X0.825000X-0.150000X0.825000X-0.150000X-0.825000X0*%
%ADD46O,3.480000X3.480000*%
%ADD47O,1.885000X1.980000*%
G04 APERTURE END LIST*
D10*
X122500000Y-72000000D02*
X146000000Y-72000000D01*
X146000000Y-72000000D02*
X146000000Y-77000000D01*
X146000000Y-77000000D02*
X122500000Y-77000000D01*
X122500000Y-77000000D02*
X122500000Y-72000000D01*
G36*
X122500000Y-72000000D02*
G01*
X146000000Y-72000000D01*
X146000000Y-77000000D01*
X122500000Y-77000000D01*
X122500000Y-72000000D01*
G37*
X52000000Y-61500000D02*
X147000000Y-61500000D01*
X147000000Y-61500000D02*
X147000000Y-67500000D01*
X147000000Y-67500000D02*
X52000000Y-67500000D01*
X52000000Y-67500000D02*
X52000000Y-61500000D01*
G36*
X52000000Y-61500000D02*
G01*
X147000000Y-61500000D01*
X147000000Y-67500000D01*
X52000000Y-67500000D01*
X52000000Y-61500000D01*
G37*
X56830000Y-85000000D02*
X140940000Y-85000000D01*
X140940000Y-85000000D02*
X140940000Y-93570000D01*
X140940000Y-93570000D02*
X56830000Y-93570000D01*
X56830000Y-93570000D02*
X56830000Y-85000000D01*
G36*
X56830000Y-85000000D02*
G01*
X140940000Y-85000000D01*
X140940000Y-93570000D01*
X56830000Y-93570000D01*
X56830000Y-85000000D01*
G37*
X56500000Y-72000000D02*
X81500000Y-72000000D01*
X81500000Y-72000000D02*
X81500000Y-77000000D01*
X81500000Y-77000000D02*
X56500000Y-77000000D01*
X56500000Y-77000000D02*
X56500000Y-72000000D01*
G36*
X56500000Y-72000000D02*
G01*
X81500000Y-72000000D01*
X81500000Y-77000000D01*
X56500000Y-77000000D01*
X56500000Y-72000000D01*
G37*
X89500000Y-72000000D02*
X114000000Y-72000000D01*
X114000000Y-72000000D02*
X114000000Y-77000000D01*
X114000000Y-77000000D02*
X89500000Y-77000000D01*
X89500000Y-77000000D02*
X89500000Y-72000000D01*
G36*
X89500000Y-72000000D02*
G01*
X114000000Y-72000000D01*
X114000000Y-77000000D01*
X89500000Y-77000000D01*
X89500000Y-72000000D01*
G37*
D11*
%TO.C,C7*%
X104144000Y-101028260D03*
X102594000Y-101028260D03*
%TD*%
D12*
%TO.C,R33*%
X128969000Y-102653260D03*
X128969000Y-101003260D03*
%TD*%
D13*
%TO.C,C27*%
X88919000Y-110078260D03*
X88919000Y-111628260D03*
%TD*%
D14*
%TO.C,SHA2*%
X69905196Y-85094804D03*
X74094804Y-80905196D03*
%TD*%
D15*
%TO.C,D3*%
X90819000Y-107678260D03*
X94119000Y-107678260D03*
%TD*%
%TO.C,D1*%
X76769000Y-107678260D03*
X80069000Y-107678260D03*
%TD*%
D16*
%TO.C,R7*%
X100019000Y-108878260D03*
X98194000Y-108878260D03*
%TD*%
D17*
%TO.C,CX1*%
X53000000Y-64500000D03*
X53000000Y-57000000D03*
%TD*%
D18*
%TO.C,R3*%
X149000000Y-89112500D03*
X149000000Y-87287500D03*
%TD*%
D19*
%TO.C,D4*%
X109469000Y-110678260D03*
X109469000Y-108578260D03*
%TD*%
D17*
%TO.C,CX4*%
X147000000Y-65000000D03*
X147000000Y-57500000D03*
%TD*%
D20*
%TO.C,RN4*%
X146219000Y-112128260D03*
X146219000Y-111328260D03*
X146219000Y-110528260D03*
X146219000Y-109728260D03*
X144519000Y-109728260D03*
X144519000Y-110528260D03*
X144519000Y-111328260D03*
X144519000Y-112128260D03*
%TD*%
D21*
%TO.C,R36*%
X108894000Y-112028260D03*
X107244000Y-112028260D03*
%TD*%
D13*
%TO.C,C23*%
X127369000Y-101053260D03*
X127369000Y-102603260D03*
%TD*%
D14*
%TO.C,SHC1*%
X136405196Y-85189608D03*
X140594804Y-81000000D03*
%TD*%
D22*
%TO.C,TP4*%
X82500000Y-83750000D03*
%TD*%
D13*
%TO.C,C19*%
X148644000Y-101228260D03*
X148644000Y-102778260D03*
%TD*%
D15*
%TO.C,D2*%
X83769000Y-107678260D03*
X87069000Y-107678260D03*
%TD*%
D23*
%TO.C,R20*%
X122644000Y-112028260D03*
X124294000Y-112028260D03*
%TD*%
%TO.C,R23*%
X122544000Y-105028260D03*
X124194000Y-105028260D03*
%TD*%
D24*
%TO.C,PH9*%
X144400000Y-74500000D03*
%TD*%
D25*
%TO.C,U6*%
X52654000Y-111813260D03*
X52654000Y-106733260D03*
X72974000Y-99113260D03*
X72974000Y-119433260D03*
%TD*%
D14*
%TO.C,SHB1*%
X103405196Y-85094804D03*
X107594804Y-80905196D03*
%TD*%
D21*
%TO.C,RG1*%
X81394000Y-105728260D03*
X79744000Y-105728260D03*
%TD*%
D26*
%TO.C,CX13*%
X83500000Y-73075000D03*
X83500000Y-76025000D03*
%TD*%
D24*
%TO.C,PH4*%
X90800000Y-74500000D03*
%TD*%
D27*
%TO.C,SHB2*%
X97500000Y-86462500D03*
X97500000Y-80537500D03*
%TD*%
D16*
%TO.C,RS3*%
X145842500Y-81000000D03*
X144017500Y-81000000D03*
%TD*%
D12*
%TO.C,R17*%
X105819000Y-107103260D03*
X105819000Y-105453260D03*
%TD*%
D28*
%TO.C,TP1*%
X72050000Y-70000000D03*
%TD*%
D29*
%TO.C,R35*%
X110570000Y-105445000D03*
X110570000Y-107095000D03*
%TD*%
D30*
%TO.C,CX17*%
X51200000Y-88500000D03*
D22*
X55200000Y-88500000D03*
%TD*%
D11*
%TO.C,C31*%
X100081500Y-105278260D03*
X98531500Y-105278260D03*
%TD*%
D31*
%TO.C,J4*%
X113219000Y-119628260D03*
D32*
X111219000Y-119628260D03*
X109219000Y-119628260D03*
X107219000Y-119628260D03*
X105219000Y-119628260D03*
X103219000Y-119628260D03*
%TD*%
D12*
%TO.C,R27*%
X107319000Y-107103260D03*
X107319000Y-105453260D03*
%TD*%
%TO.C,R32*%
X112080000Y-107095000D03*
X112080000Y-105445000D03*
%TD*%
D27*
%TO.C,SHC3*%
X130450000Y-86475000D03*
X130450000Y-80550000D03*
%TD*%
D23*
%TO.C,R22*%
X122544000Y-106628260D03*
X124194000Y-106628260D03*
%TD*%
D33*
%TO.C,TP11*%
X72569000Y-106778260D03*
%TD*%
D34*
%TO.C,C29*%
X101531500Y-112078260D03*
X103081500Y-112078260D03*
%TD*%
D18*
%TO.C,R14*%
X147100000Y-89112500D03*
X147100000Y-87287500D03*
%TD*%
D20*
%TO.C,RN2*%
X118169000Y-118978260D03*
X118169000Y-118178260D03*
X118169000Y-117378260D03*
X118169000Y-116578260D03*
X116469000Y-116578260D03*
X116469000Y-117378260D03*
X116469000Y-118178260D03*
X116469000Y-118978260D03*
%TD*%
D35*
%TO.C,C6*%
X147869000Y-112153260D03*
X147869000Y-110603260D03*
%TD*%
D21*
%TO.C,R29*%
X111894000Y-112028260D03*
X110244000Y-112028260D03*
%TD*%
D12*
%TO.C,R34*%
X125769000Y-102653260D03*
X125769000Y-101003260D03*
%TD*%
D36*
%TO.C,SHA1*%
X58094804Y-85094804D03*
X53905196Y-80905196D03*
%TD*%
D13*
%TO.C,C18*%
X113719000Y-101203260D03*
X113719000Y-102753260D03*
%TD*%
D37*
%TO.C,CS3*%
X143990000Y-82970000D03*
X145890000Y-82970000D03*
%TD*%
D21*
%TO.C,R48*%
X62325000Y-78500000D03*
X60675000Y-78500000D03*
%TD*%
D34*
%TO.C,C10*%
X87044000Y-120928260D03*
X88594000Y-120928260D03*
%TD*%
D38*
%TO.C,RN3*%
X135769000Y-110478260D03*
X134969000Y-110478260D03*
X134169000Y-110478260D03*
X133369000Y-110478260D03*
X133369000Y-112178260D03*
X134169000Y-112178260D03*
X134969000Y-112178260D03*
X135769000Y-112178260D03*
%TD*%
D21*
%TO.C,R50*%
X105825000Y-78500000D03*
X104175000Y-78500000D03*
%TD*%
D39*
%TO.C,TP9*%
X128000000Y-78750000D03*
%TD*%
D12*
%TO.C,R16*%
X103519000Y-104103260D03*
X103519000Y-102453260D03*
%TD*%
D24*
%TO.C,PH5*%
X112250000Y-74450000D03*
%TD*%
D12*
%TO.C,R25*%
X106519000Y-104103260D03*
X106519000Y-102453260D03*
%TD*%
D19*
%TO.C,D5*%
X128069000Y-105978260D03*
X128069000Y-103878260D03*
%TD*%
D12*
%TO.C,R24*%
X105019000Y-104103260D03*
X105019000Y-102453260D03*
%TD*%
D16*
%TO.C,R5*%
X100019000Y-110778260D03*
X98194000Y-110778260D03*
%TD*%
D40*
%TO.C,SW1*%
X50900000Y-83405000D03*
D41*
X50900000Y-81505000D03*
%TD*%
D12*
%TO.C,R2*%
X131669000Y-109115760D03*
X131669000Y-107465760D03*
%TD*%
D20*
%TO.C,RN1*%
X140669000Y-109728260D03*
X140669000Y-110528260D03*
X140669000Y-111328260D03*
X140669000Y-112128260D03*
X142369000Y-112128260D03*
X142369000Y-111328260D03*
X142369000Y-110528260D03*
X142369000Y-109728260D03*
%TD*%
D12*
%TO.C,R31*%
X121069000Y-106653260D03*
X121069000Y-105003260D03*
%TD*%
D35*
%TO.C,C15*%
X141519000Y-108303260D03*
X141519000Y-106753260D03*
%TD*%
D27*
%TO.C,SHA3*%
X64000000Y-86462500D03*
X64000000Y-80537500D03*
%TD*%
D26*
%TO.C,CX14*%
X119600000Y-73025000D03*
X119600000Y-75975000D03*
%TD*%
D42*
%TO.C,CS1*%
X82250000Y-81000000D03*
X80350000Y-81000000D03*
%TD*%
D22*
%TO.C,TP3*%
X93569000Y-101028260D03*
%TD*%
D23*
%TO.C,R19*%
X122644000Y-110428260D03*
X124294000Y-110428260D03*
%TD*%
D21*
%TO.C,R6*%
X103131500Y-110578260D03*
X101481500Y-110578260D03*
%TD*%
D35*
%TO.C,C14*%
X139969000Y-108303260D03*
X139969000Y-106753260D03*
%TD*%
D29*
%TO.C,RG6*%
X95919000Y-113503260D03*
X95919000Y-115153260D03*
%TD*%
D34*
%TO.C,C20*%
X121094000Y-108528260D03*
X122644000Y-108528260D03*
%TD*%
D24*
%TO.C,PH8*%
X123800000Y-74500000D03*
%TD*%
D21*
%TO.C,R52*%
X139325000Y-78500000D03*
X137675000Y-78500000D03*
%TD*%
D31*
%TO.C,J2*%
X131419000Y-119628260D03*
D32*
X129419000Y-119628260D03*
X127419000Y-119628260D03*
X125419000Y-119628260D03*
X123419000Y-119628260D03*
X121419000Y-119628260D03*
%TD*%
D35*
%TO.C,C17*%
X139069000Y-112053260D03*
X139069000Y-110503260D03*
%TD*%
D22*
%TO.C,U8*%
X54779000Y-113418260D03*
X54779000Y-115958260D03*
X54779000Y-118498260D03*
%TD*%
D13*
%TO.C,C26*%
X81919000Y-110103260D03*
X81919000Y-111653260D03*
%TD*%
D34*
%TO.C,C30*%
X101531500Y-107578260D03*
X103081500Y-107578260D03*
%TD*%
D22*
%TO.C,U7*%
X80164000Y-119123260D03*
X82704000Y-119123260D03*
X85244000Y-119123260D03*
%TD*%
D35*
%TO.C,C24*%
X109070000Y-107045000D03*
X109070000Y-105495000D03*
%TD*%
D12*
%TO.C,R15*%
X147144000Y-102828260D03*
X147144000Y-101178260D03*
%TD*%
D29*
%TO.C,R30*%
X121069000Y-110403260D03*
X121069000Y-112053260D03*
%TD*%
D35*
%TO.C,C25*%
X105819000Y-112053260D03*
X105819000Y-110503260D03*
%TD*%
D24*
%TO.C,PH3*%
X68350000Y-74550000D03*
%TD*%
D29*
%TO.C,R9*%
X130169000Y-107465760D03*
X130169000Y-109115760D03*
%TD*%
D34*
%TO.C,C3*%
X90794000Y-105728260D03*
X92344000Y-105728260D03*
%TD*%
D29*
%TO.C,RG4*%
X88919000Y-113403260D03*
X88919000Y-115053260D03*
%TD*%
D23*
%TO.C,R21*%
X125644000Y-107728260D03*
X127294000Y-107728260D03*
%TD*%
D19*
%TO.C,D6*%
X130069000Y-105978260D03*
X130069000Y-103878260D03*
%TD*%
D24*
%TO.C,PH2*%
X57800000Y-74500000D03*
%TD*%
D26*
%TO.C,CX12*%
X86750000Y-73075000D03*
X86750000Y-76025000D03*
%TD*%
D24*
%TO.C,PH1*%
X79250000Y-74500000D03*
%TD*%
D34*
%TO.C,C8*%
X87044000Y-119378260D03*
X88594000Y-119378260D03*
%TD*%
D24*
%TO.C,PH6*%
X101250000Y-74500000D03*
%TD*%
D26*
%TO.C,CX15*%
X116350000Y-73025000D03*
X116350000Y-75975000D03*
%TD*%
D21*
%TO.C,RG3*%
X88444000Y-105728260D03*
X86794000Y-105728260D03*
%TD*%
D34*
%TO.C,C1*%
X76744000Y-105728260D03*
X78294000Y-105728260D03*
%TD*%
%TO.C,C12*%
X79644000Y-120928260D03*
X81194000Y-120928260D03*
%TD*%
D28*
%TO.C,TP10*%
X144500000Y-89000000D03*
%TD*%
D16*
%TO.C,RS1*%
X78812500Y-81000000D03*
X76987500Y-81000000D03*
%TD*%
D23*
%TO.C,R49*%
X104675000Y-70200000D03*
X106325000Y-70200000D03*
%TD*%
D34*
%TO.C,C2*%
X83794000Y-105728260D03*
X85344000Y-105728260D03*
%TD*%
D12*
%TO.C,R26*%
X108019000Y-104115000D03*
X108019000Y-102465000D03*
%TD*%
D28*
%TO.C,TP7*%
X94500000Y-78800000D03*
%TD*%
D13*
%TO.C,C22*%
X130569000Y-101053260D03*
X130569000Y-102603260D03*
%TD*%
D37*
%TO.C,C5*%
X52800000Y-86400000D03*
X54700000Y-86400000D03*
%TD*%
D24*
%TO.C,PH7*%
X134300000Y-74500000D03*
%TD*%
D43*
%TO.C,U4*%
X119094000Y-112088260D03*
X119094000Y-110818260D03*
X119094000Y-109548260D03*
X119094000Y-108278260D03*
X119094000Y-107008260D03*
X119094000Y-105738260D03*
X119094000Y-104468260D03*
X114144000Y-104468260D03*
X114144000Y-105738260D03*
X114144000Y-107008260D03*
X114144000Y-108278260D03*
X114144000Y-109548260D03*
X114144000Y-110818260D03*
X114144000Y-112088260D03*
%TD*%
D21*
%TO.C,R11*%
X103131500Y-106078260D03*
X101481500Y-106078260D03*
%TD*%
D34*
%TO.C,C13*%
X76594000Y-120928260D03*
X78144000Y-120928260D03*
%TD*%
D17*
%TO.C,CX2*%
X84500000Y-64500000D03*
X84500000Y-57000000D03*
%TD*%
%TO.C,CX3*%
X116495000Y-64500000D03*
X116495000Y-57000000D03*
%TD*%
D23*
%TO.C,R18*%
X125644000Y-109228260D03*
X127294000Y-109228260D03*
%TD*%
D12*
%TO.C,R4*%
X147144000Y-105928260D03*
X147144000Y-104278260D03*
%TD*%
D21*
%TO.C,RG5*%
X95444000Y-105728260D03*
X93794000Y-105728260D03*
%TD*%
D13*
%TO.C,C28*%
X95919000Y-110053260D03*
X95919000Y-111603260D03*
%TD*%
D34*
%TO.C,C11*%
X76594000Y-119378260D03*
X78144000Y-119378260D03*
%TD*%
D35*
%TO.C,C16*%
X143069000Y-108303260D03*
X143069000Y-106753260D03*
%TD*%
D29*
%TO.C,RG2*%
X81919000Y-113403260D03*
X81919000Y-115053260D03*
%TD*%
D26*
%TO.C,CX11*%
X52450000Y-73175000D03*
X52450000Y-76125000D03*
%TD*%
D40*
%TO.C,NTC1*%
X133914000Y-108678260D03*
D41*
X135814000Y-108678260D03*
%TD*%
D23*
%TO.C,R47*%
X60675000Y-70000000D03*
X62325000Y-70000000D03*
%TD*%
D44*
%TO.C,U5*%
X147329000Y-99028260D03*
X144789000Y-99028260D03*
X142249000Y-99028260D03*
X139709000Y-99028260D03*
X137169000Y-99028260D03*
X134629000Y-99028260D03*
X132089000Y-99028260D03*
X129549000Y-99028260D03*
X127009000Y-99028260D03*
X124469000Y-99028260D03*
X121929000Y-99028260D03*
X119389000Y-99028260D03*
X116849000Y-99028260D03*
X114309000Y-99028260D03*
X111769000Y-99028260D03*
X109229000Y-99028260D03*
X106689000Y-99028260D03*
X104149000Y-99028260D03*
X101609000Y-99028260D03*
X99069000Y-99028260D03*
X99069000Y-114268260D03*
X101609000Y-114268260D03*
X104149000Y-114268260D03*
X106689000Y-114268260D03*
X109229000Y-114268260D03*
X111769000Y-114268260D03*
X114285395Y-114278253D03*
X116849000Y-114268260D03*
X119389000Y-114268260D03*
X121929000Y-114268260D03*
X124469000Y-114268260D03*
X127009000Y-114268260D03*
X129549000Y-114268260D03*
X132089000Y-114268260D03*
X134629000Y-114268260D03*
X137169000Y-114268260D03*
X139709000Y-114268260D03*
X142249000Y-114268260D03*
X144789000Y-114268260D03*
X147329000Y-114268260D03*
%TD*%
D28*
%TO.C,TP8*%
X128450000Y-70000000D03*
%TD*%
D29*
%TO.C,R12*%
X138419000Y-106703260D03*
X138419000Y-108353260D03*
%TD*%
D45*
%TO.C,U1*%
X76514000Y-115053260D03*
X77784000Y-115053260D03*
X79054000Y-115053260D03*
X80324000Y-115053260D03*
X80324000Y-110103260D03*
X79054000Y-110103260D03*
X77784000Y-110103260D03*
X76514000Y-110103260D03*
%TD*%
D36*
%TO.C,SHC2*%
X125094804Y-85189608D03*
X120905196Y-81000000D03*
%TD*%
D13*
%TO.C,C4*%
X148644000Y-104328260D03*
X148644000Y-105878260D03*
%TD*%
D45*
%TO.C,U2*%
X83514000Y-115053260D03*
X84784000Y-115053260D03*
X86054000Y-115053260D03*
X87324000Y-115053260D03*
X87324000Y-110103260D03*
X86054000Y-110103260D03*
X84784000Y-110103260D03*
X83514000Y-110103260D03*
%TD*%
D28*
%TO.C,TP6*%
X95000000Y-70000000D03*
%TD*%
D11*
%TO.C,C9*%
X85575000Y-120930000D03*
X84025000Y-120930000D03*
%TD*%
D26*
%TO.C,CX16*%
X148400000Y-73425000D03*
X148400000Y-76375000D03*
%TD*%
D22*
%TO.C,TP2*%
X116250000Y-85250000D03*
%TD*%
D38*
%TO.C,RN5*%
X129369000Y-112190760D03*
X130169000Y-112190760D03*
X130969000Y-112190760D03*
X131769000Y-112190760D03*
X131769000Y-110490760D03*
X130969000Y-110490760D03*
X130169000Y-110490760D03*
X129369000Y-110490760D03*
%TD*%
D31*
%TO.C,J1*%
X97769000Y-119628260D03*
D32*
X95769000Y-119628260D03*
X93769000Y-119628260D03*
X91769000Y-119628260D03*
%TD*%
D31*
%TO.C,J3*%
X147169000Y-119628260D03*
D32*
X145169000Y-119628260D03*
X143169000Y-119628260D03*
X141169000Y-119628260D03*
X139169000Y-119628260D03*
X137169000Y-119628260D03*
%TD*%
D23*
%TO.C,R51*%
X137675000Y-70000000D03*
X139325000Y-70000000D03*
%TD*%
D11*
%TO.C,C21*%
X137144000Y-105028260D03*
X135594000Y-105028260D03*
%TD*%
D42*
%TO.C,CS2*%
X115750000Y-81000000D03*
X113850000Y-81000000D03*
%TD*%
D18*
%TO.C,R1*%
X51000000Y-86612500D03*
X51000000Y-84787500D03*
%TD*%
D36*
%TO.C,SHB3*%
X91594804Y-85094804D03*
X87405196Y-80905196D03*
%TD*%
D16*
%TO.C,RS2*%
X112312500Y-81000000D03*
X110487500Y-81000000D03*
%TD*%
D45*
%TO.C,U3*%
X90514000Y-115053260D03*
X91784000Y-115053260D03*
X93054000Y-115053260D03*
X94324000Y-115053260D03*
X94324000Y-110103260D03*
X93054000Y-110103260D03*
X91784000Y-110103260D03*
X90514000Y-110103260D03*
%TD*%
D21*
%TO.C,R13*%
X118144000Y-120478260D03*
X116494000Y-120478260D03*
%TD*%
D28*
%TO.C,TP5*%
X71550000Y-78750000D03*
%TD*%
D16*
%TO.C,R10*%
X100019000Y-106978260D03*
X98194000Y-106978260D03*
%TD*%
D21*
%TO.C,R8*%
X103131500Y-109078260D03*
X101481500Y-109078260D03*
%TD*%
D46*
%TO.C,QB4*%
X100000000Y-95410000D03*
D39*
X102540000Y-78750000D03*
D47*
X100000000Y-78750000D03*
X97460000Y-78750000D03*
%TD*%
D46*
%TO.C,QB5*%
X89500000Y-53340000D03*
D39*
X86960000Y-70000000D03*
D47*
X89500000Y-70000000D03*
X92040000Y-70000000D03*
%TD*%
D46*
%TO.C,QA3*%
X66500000Y-53340000D03*
D39*
X63960000Y-70000000D03*
D47*
X66500000Y-70000000D03*
X69040000Y-70000000D03*
%TD*%
D46*
%TO.C,QC6*%
X123000000Y-95410000D03*
D39*
X125540000Y-78750000D03*
D47*
X123000000Y-78750000D03*
X120460000Y-78750000D03*
%TD*%
D46*
%TO.C,QC5*%
X144000000Y-53340000D03*
D39*
X141460000Y-70000000D03*
D47*
X144000000Y-70000000D03*
X146540000Y-70000000D03*
%TD*%
D46*
%TO.C,QC4*%
X144000000Y-95410000D03*
D39*
X146540000Y-78750000D03*
D47*
X144000000Y-78750000D03*
X141460000Y-78750000D03*
%TD*%
D46*
%TO.C,QA6*%
X56000000Y-95410000D03*
D39*
X58540000Y-78750000D03*
D47*
X56000000Y-78750000D03*
X53460000Y-78750000D03*
%TD*%
D46*
%TO.C,QB6*%
X89500000Y-95410000D03*
D39*
X92040000Y-78750000D03*
D47*
X89500000Y-78750000D03*
X86960000Y-78750000D03*
%TD*%
D46*
%TO.C,QB2*%
X110500000Y-95410000D03*
D39*
X113040000Y-78750000D03*
D47*
X110500000Y-78750000D03*
X107960000Y-78750000D03*
%TD*%
D46*
%TO.C,QA5*%
X77000000Y-53340000D03*
D39*
X74460000Y-70000000D03*
D47*
X77000000Y-70000000D03*
X79540000Y-70000000D03*
%TD*%
D46*
%TO.C,QA1*%
X56000000Y-53340000D03*
D39*
X53460000Y-70000000D03*
D47*
X56000000Y-70000000D03*
X58540000Y-70000000D03*
%TD*%
D46*
%TO.C,QB3*%
X100000000Y-53340000D03*
D39*
X97460000Y-70000000D03*
D47*
X100000000Y-70000000D03*
X102540000Y-70000000D03*
%TD*%
D46*
%TO.C,QC3*%
X133500000Y-53340000D03*
D39*
X130960000Y-70000000D03*
D47*
X133500000Y-70000000D03*
X136040000Y-70000000D03*
%TD*%
D46*
%TO.C,QA4*%
X66500000Y-95410000D03*
D39*
X69040000Y-78750000D03*
D47*
X66500000Y-78750000D03*
X63960000Y-78750000D03*
%TD*%
D46*
%TO.C,QC2*%
X133500000Y-95410000D03*
D39*
X136040000Y-78750000D03*
D47*
X133500000Y-78750000D03*
X130960000Y-78750000D03*
%TD*%
D46*
%TO.C,QC1*%
X123000000Y-53340000D03*
D39*
X120460000Y-70000000D03*
D47*
X123000000Y-70000000D03*
X125540000Y-70000000D03*
%TD*%
D46*
%TO.C,QA2*%
X77000000Y-95410000D03*
D39*
X79540000Y-78750000D03*
D47*
X77000000Y-78750000D03*
X74460000Y-78750000D03*
%TD*%
D46*
%TO.C,QB1*%
X110500000Y-53340000D03*
D39*
X107960000Y-70000000D03*
D47*
X110500000Y-70000000D03*
X113040000Y-70000000D03*
%TD*%
M02*
