%TF.GenerationSoftware,KiCad,Pcbnew,(6.0.0)*%
%TF.CreationDate,2022-10-23T22:36:45+03:00*%
%TF.ProjectId,CCC_ESC,4343435f-4553-4432-9e6b-696361645f70,rev?*%
%TF.SameCoordinates,Original*%
%TF.FileFunction,Soldermask,Bot*%
%TF.FilePolarity,Negative*%
%FSLAX46Y46*%
G04 Gerber Fmt 4.6, Leading zero omitted, Abs format (unit mm)*
G04 Created by KiCad (PCBNEW (6.0.0)) date 2022-10-23 22:36:45*
%MOMM*%
%LPD*%
G01*
G04 APERTURE LIST*
G04 Aperture macros list*
%AMRoundRect*
0 Rectangle with rounded corners*
0 $1 Rounding radius*
0 $2 $3 $4 $5 $6 $7 $8 $9 X,Y pos of 4 corners*
0 Add a 4 corners polygon primitive as box body*
4,1,4,$2,$3,$4,$5,$6,$7,$8,$9,$2,$3,0*
0 Add four circle primitives for the rounded corners*
1,1,$1+$1,$2,$3*
1,1,$1+$1,$4,$5*
1,1,$1+$1,$6,$7*
1,1,$1+$1,$8,$9*
0 Add four rect primitives between the rounded corners*
20,1,$1+$1,$2,$3,$4,$5,0*
20,1,$1+$1,$4,$5,$6,$7,0*
20,1,$1+$1,$6,$7,$8,$9,0*
20,1,$1+$1,$8,$9,$2,$3,0*%
%AMFreePoly0*
4,1,25,0.540000,-0.740000,0.007915,-0.740000,0.007071,-0.737962,0.000183,-0.735035,-0.078325,-0.733596,-0.210908,-0.692175,-0.326530,-0.615209,-0.415911,-0.508879,-0.471850,-0.381746,-0.489248,-0.248703,-0.490000,-0.247398,-0.490000,0.247982,-0.489164,0.250000,-0.489248,0.251297,-0.489861,0.255987,-0.468491,0.393233,-0.409460,0.518965,-0.317512,0.623077,-0.200041,0.697195,-0.066488,0.735365,
-0.000061,0.734959,0.007028,0.737845,0.007928,0.740000,0.540000,0.740000,0.540000,-0.740000,0.540000,-0.740000,$1*%
%AMFreePoly1*
4,1,22,-0.007071,0.737888,-0.000061,0.734959,0.072412,0.734517,0.205491,0.694718,0.322045,0.619172,0.412717,0.513940,0.470207,0.387499,0.490000,0.249287,0.490000,-0.250000,0.489861,-0.261321,0.466708,-0.398946,0.406145,-0.523945,0.312930,-0.626928,0.194562,-0.699606,0.060551,-0.736142,0.000183,-0.735035,-0.006940,-0.737834,-0.007861,-0.740000,-0.540000,-0.740000,-0.540000,0.740000,
-0.007946,0.740000,-0.007071,0.737888,-0.007071,0.737888,$1*%
G04 Aperture macros list end*
%ADD10C,1.980000*%
%ADD11C,3.980000*%
%ADD12C,2.480000*%
%ADD13C,1.480000*%
%ADD14RoundRect,0.240000X0.350000X0.625000X-0.350000X0.625000X-0.350000X-0.625000X0.350000X-0.625000X0*%
%ADD15O,1.180000X1.730000*%
%ADD16C,2.980000*%
%ADD17C,1.580000*%
%ADD18C,1.380000*%
%ADD19O,1.380000X1.380000*%
%ADD20C,1.504000*%
%ADD21FreePoly0,90.000000*%
%ADD22R,1.480000X0.980000*%
%ADD23FreePoly1,90.000000*%
%ADD24O,3.480000X3.480000*%
%ADD25O,1.885000X1.980000*%
%ADD26FreePoly0,180.000000*%
%ADD27R,0.980000X1.480000*%
%ADD28FreePoly1,180.000000*%
G04 APERTURE END LIST*
D10*
%TO.C,TpGND3*%
X79000000Y-85000000D03*
%TD*%
D11*
%TO.C,PH9*%
X144400000Y-74500000D03*
%TD*%
D12*
%TO.C,U6*%
X52654000Y-111813260D03*
X52654000Y-106733260D03*
X72974000Y-99113260D03*
X72974000Y-119433260D03*
%TD*%
D11*
%TO.C,PH4*%
X90800000Y-74500000D03*
%TD*%
D13*
%TO.C,TpGS1*%
X72050000Y-70000000D03*
%TD*%
D14*
%TO.C,J4*%
X113219000Y-119628260D03*
D15*
X111219000Y-119628260D03*
X109219000Y-119628260D03*
X107219000Y-119628260D03*
X105219000Y-119628260D03*
X103219000Y-119628260D03*
%TD*%
D16*
%TO.C,TpGND4*%
X72569000Y-106778260D03*
%TD*%
D17*
%TO.C,TpGS6*%
X128000000Y-78750000D03*
%TD*%
D11*
%TO.C,PH5*%
X112250000Y-74450000D03*
%TD*%
D18*
%TO.C,SW1*%
X50850000Y-75105000D03*
D19*
X50850000Y-73205000D03*
%TD*%
D10*
%TO.C,TpGND2*%
X89600000Y-100000000D03*
%TD*%
D11*
%TO.C,PH8*%
X123800000Y-74500000D03*
%TD*%
D14*
%TO.C,J2*%
X131419000Y-119628260D03*
D15*
X129419000Y-119628260D03*
X127419000Y-119628260D03*
X125419000Y-119628260D03*
X123419000Y-119628260D03*
X121419000Y-119628260D03*
%TD*%
D10*
%TO.C,U7*%
X80164000Y-119123260D03*
X82704000Y-119123260D03*
X85244000Y-119123260D03*
%TD*%
D11*
%TO.C,PH3*%
X68350000Y-74550000D03*
%TD*%
%TO.C,PH2*%
X57800000Y-74500000D03*
%TD*%
%TO.C,PH1*%
X79250000Y-74500000D03*
%TD*%
%TO.C,PH6*%
X101250000Y-74500000D03*
%TD*%
D13*
%TO.C,TpVS1*%
X147700000Y-91650000D03*
%TD*%
%TO.C,TpGS4*%
X94500000Y-78800000D03*
%TD*%
D11*
%TO.C,PH7*%
X134300000Y-74500000D03*
%TD*%
D18*
%TO.C,NTC1*%
X133914000Y-108678260D03*
D19*
X135814000Y-108678260D03*
%TD*%
D20*
%TO.C,U5*%
X147329000Y-99028260D03*
X144789000Y-99028260D03*
X142249000Y-99028260D03*
X139709000Y-99028260D03*
X137169000Y-99028260D03*
X134629000Y-99028260D03*
X132089000Y-99028260D03*
X129549000Y-99028260D03*
X127009000Y-99028260D03*
X124469000Y-99028260D03*
X121929000Y-99028260D03*
X119389000Y-99028260D03*
X116849000Y-99028260D03*
X114309000Y-99028260D03*
X111769000Y-99028260D03*
X109229000Y-99028260D03*
X106689000Y-99028260D03*
X104149000Y-99028260D03*
X101609000Y-99028260D03*
X99069000Y-99028260D03*
X99069000Y-114268260D03*
X101609000Y-114268260D03*
X104149000Y-114268260D03*
X106689000Y-114268260D03*
X109229000Y-114268260D03*
X111769000Y-114268260D03*
X114285395Y-114278253D03*
X116849000Y-114268260D03*
X119389000Y-114268260D03*
X121929000Y-114268260D03*
X124469000Y-114268260D03*
X127009000Y-114268260D03*
X129549000Y-114268260D03*
X132089000Y-114268260D03*
X134629000Y-114268260D03*
X137169000Y-114268260D03*
X139709000Y-114268260D03*
X142249000Y-114268260D03*
X144789000Y-114268260D03*
X147329000Y-114268260D03*
%TD*%
D13*
%TO.C,TpGS5*%
X128450000Y-70000000D03*
%TD*%
%TO.C,TpGS3*%
X95000000Y-70000000D03*
%TD*%
D10*
%TO.C,TpGND1*%
X116250000Y-85500000D03*
%TD*%
D14*
%TO.C,J1*%
X97769000Y-119628260D03*
D15*
X95769000Y-119628260D03*
X93769000Y-119628260D03*
X91769000Y-119628260D03*
%TD*%
D14*
%TO.C,J3*%
X147169000Y-119628260D03*
D15*
X145169000Y-119628260D03*
X143169000Y-119628260D03*
X141169000Y-119628260D03*
X139169000Y-119628260D03*
X137169000Y-119628260D03*
%TD*%
D13*
%TO.C,TpGS2*%
X71550000Y-78750000D03*
%TD*%
D12*
%TO.C,12V1*%
X52700000Y-116800000D03*
%TD*%
D21*
%TO.C,JP1*%
X134419000Y-120178260D03*
D22*
X134419000Y-118878260D03*
D23*
X134419000Y-117578260D03*
%TD*%
D24*
%TO.C,QB4*%
X100000000Y-95410000D03*
D17*
X102540000Y-78750000D03*
D25*
X100000000Y-78750000D03*
X97460000Y-78750000D03*
%TD*%
D24*
%TO.C,QB5*%
X89500000Y-53340000D03*
D17*
X86960000Y-70000000D03*
D25*
X89500000Y-70000000D03*
X92040000Y-70000000D03*
%TD*%
D24*
%TO.C,QA3*%
X66500000Y-53340000D03*
D17*
X63960000Y-70000000D03*
D25*
X66500000Y-70000000D03*
X69040000Y-70000000D03*
%TD*%
D24*
%TO.C,QC6*%
X123000000Y-95410000D03*
D17*
X125540000Y-78750000D03*
D25*
X123000000Y-78750000D03*
X120460000Y-78750000D03*
%TD*%
D24*
%TO.C,QC5*%
X144000000Y-53340000D03*
D17*
X141460000Y-70000000D03*
D25*
X144000000Y-70000000D03*
X146540000Y-70000000D03*
%TD*%
D24*
%TO.C,QC4*%
X144000000Y-95410000D03*
D17*
X146540000Y-78750000D03*
D25*
X144000000Y-78750000D03*
X141460000Y-78750000D03*
%TD*%
D26*
%TO.C,JP3*%
X137219000Y-106528260D03*
D27*
X135919000Y-106528260D03*
D28*
X134619000Y-106528260D03*
%TD*%
D24*
%TO.C,QA6*%
X56000000Y-95410000D03*
D17*
X58540000Y-78750000D03*
D25*
X56000000Y-78750000D03*
X53460000Y-78750000D03*
%TD*%
D24*
%TO.C,QB6*%
X89500000Y-95410000D03*
D17*
X92040000Y-78750000D03*
D25*
X89500000Y-78750000D03*
X86960000Y-78750000D03*
%TD*%
D24*
%TO.C,QB2*%
X110500000Y-95410000D03*
D17*
X113040000Y-78750000D03*
D25*
X110500000Y-78750000D03*
X107960000Y-78750000D03*
%TD*%
D24*
%TO.C,QA5*%
X77000000Y-53340000D03*
D17*
X74460000Y-70000000D03*
D25*
X77000000Y-70000000D03*
X79540000Y-70000000D03*
%TD*%
D21*
%TO.C,JP2*%
X138819000Y-112178260D03*
D22*
X138819000Y-110878260D03*
D23*
X138819000Y-109578260D03*
%TD*%
D24*
%TO.C,QA1*%
X56000000Y-53340000D03*
D17*
X53460000Y-70000000D03*
D25*
X56000000Y-70000000D03*
X58540000Y-70000000D03*
%TD*%
D24*
%TO.C,QB3*%
X100000000Y-53340000D03*
D17*
X97460000Y-70000000D03*
D25*
X100000000Y-70000000D03*
X102540000Y-70000000D03*
%TD*%
D24*
%TO.C,QC3*%
X133500000Y-53340000D03*
D17*
X130960000Y-70000000D03*
D25*
X133500000Y-70000000D03*
X136040000Y-70000000D03*
%TD*%
D24*
%TO.C,QA4*%
X66500000Y-95410000D03*
D17*
X69040000Y-78750000D03*
D25*
X66500000Y-78750000D03*
X63960000Y-78750000D03*
%TD*%
D24*
%TO.C,QC2*%
X133500000Y-95410000D03*
D17*
X136040000Y-78750000D03*
D25*
X133500000Y-78750000D03*
X130960000Y-78750000D03*
%TD*%
D24*
%TO.C,QC1*%
X123000000Y-53340000D03*
D17*
X120460000Y-70000000D03*
D25*
X123000000Y-70000000D03*
X125540000Y-70000000D03*
%TD*%
D24*
%TO.C,QA2*%
X77000000Y-95410000D03*
D17*
X79540000Y-78750000D03*
D25*
X77000000Y-78750000D03*
X74460000Y-78750000D03*
%TD*%
D24*
%TO.C,QB1*%
X110500000Y-53340000D03*
D17*
X107960000Y-70000000D03*
D25*
X110500000Y-70000000D03*
X113040000Y-70000000D03*
%TD*%
M02*
