%TF.GenerationSoftware,KiCad,Pcbnew,(6.0.0)*%
%TF.CreationDate,2022-10-23T22:36:45+03:00*%
%TF.ProjectId,CCC_ESC,4343435f-4553-4432-9e6b-696361645f70,rev?*%
%TF.SameCoordinates,Original*%
%TF.FileFunction,Legend,Bot*%
%TF.FilePolarity,Positive*%
%FSLAX46Y46*%
G04 Gerber Fmt 4.6, Leading zero omitted, Abs format (unit mm)*
G04 Created by KiCad (PCBNEW (6.0.0)) date 2022-10-23 22:36:45*
%MOMM*%
%LPD*%
G01*
G04 APERTURE LIST*
%ADD10C,0.120000*%
%ADD11C,0.150000*%
G04 APERTURE END LIST*
D10*
%TO.C,C10*%
X88254714Y-121313974D02*
X88283285Y-121352069D01*
X88369000Y-121390164D01*
X88426142Y-121390164D01*
X88511857Y-121352069D01*
X88569000Y-121275879D01*
X88597571Y-121199688D01*
X88626142Y-121047307D01*
X88626142Y-120933021D01*
X88597571Y-120780640D01*
X88569000Y-120704450D01*
X88511857Y-120628260D01*
X88426142Y-120590164D01*
X88369000Y-120590164D01*
X88283285Y-120628260D01*
X88254714Y-120666355D01*
X87683285Y-121390164D02*
X88026142Y-121390164D01*
X87854714Y-121390164D02*
X87854714Y-120590164D01*
X87911857Y-120704450D01*
X87969000Y-120780640D01*
X88026142Y-120818736D01*
X87311857Y-120590164D02*
X87254714Y-120590164D01*
X87197571Y-120628260D01*
X87169000Y-120666355D01*
X87140428Y-120742545D01*
X87111857Y-120894926D01*
X87111857Y-121085402D01*
X87140428Y-121237783D01*
X87169000Y-121313974D01*
X87197571Y-121352069D01*
X87254714Y-121390164D01*
X87311857Y-121390164D01*
X87369000Y-121352069D01*
X87397571Y-121313974D01*
X87426142Y-121237783D01*
X87454714Y-121085402D01*
X87454714Y-120894926D01*
X87426142Y-120742545D01*
X87397571Y-120666355D01*
X87369000Y-120628260D01*
X87311857Y-120590164D01*
%TO.C,C8*%
X87919000Y-119813974D02*
X87947571Y-119852069D01*
X88033285Y-119890164D01*
X88090428Y-119890164D01*
X88176142Y-119852069D01*
X88233285Y-119775879D01*
X88261857Y-119699688D01*
X88290428Y-119547307D01*
X88290428Y-119433021D01*
X88261857Y-119280640D01*
X88233285Y-119204450D01*
X88176142Y-119128260D01*
X88090428Y-119090164D01*
X88033285Y-119090164D01*
X87947571Y-119128260D01*
X87919000Y-119166355D01*
X87576142Y-119433021D02*
X87633285Y-119394926D01*
X87661857Y-119356831D01*
X87690428Y-119280640D01*
X87690428Y-119242545D01*
X87661857Y-119166355D01*
X87633285Y-119128260D01*
X87576142Y-119090164D01*
X87461857Y-119090164D01*
X87404714Y-119128260D01*
X87376142Y-119166355D01*
X87347571Y-119242545D01*
X87347571Y-119280640D01*
X87376142Y-119356831D01*
X87404714Y-119394926D01*
X87461857Y-119433021D01*
X87576142Y-119433021D01*
X87633285Y-119471117D01*
X87661857Y-119509212D01*
X87690428Y-119585402D01*
X87690428Y-119737783D01*
X87661857Y-119813974D01*
X87633285Y-119852069D01*
X87576142Y-119890164D01*
X87461857Y-119890164D01*
X87404714Y-119852069D01*
X87376142Y-119813974D01*
X87347571Y-119737783D01*
X87347571Y-119585402D01*
X87376142Y-119509212D01*
X87404714Y-119471117D01*
X87461857Y-119433021D01*
%TO.C,C12*%
X80754714Y-121313974D02*
X80783285Y-121352069D01*
X80869000Y-121390164D01*
X80926142Y-121390164D01*
X81011857Y-121352069D01*
X81069000Y-121275879D01*
X81097571Y-121199688D01*
X81126142Y-121047307D01*
X81126142Y-120933021D01*
X81097571Y-120780640D01*
X81069000Y-120704450D01*
X81011857Y-120628260D01*
X80926142Y-120590164D01*
X80869000Y-120590164D01*
X80783285Y-120628260D01*
X80754714Y-120666355D01*
X80183285Y-121390164D02*
X80526142Y-121390164D01*
X80354714Y-121390164D02*
X80354714Y-120590164D01*
X80411857Y-120704450D01*
X80469000Y-120780640D01*
X80526142Y-120818736D01*
X79954714Y-120666355D02*
X79926142Y-120628260D01*
X79869000Y-120590164D01*
X79726142Y-120590164D01*
X79669000Y-120628260D01*
X79640428Y-120666355D01*
X79611857Y-120742545D01*
X79611857Y-120818736D01*
X79640428Y-120933021D01*
X79983285Y-121390164D01*
X79611857Y-121390164D01*
%TO.C,C13*%
X77755714Y-121313974D02*
X77784285Y-121352069D01*
X77870000Y-121390164D01*
X77927142Y-121390164D01*
X78012857Y-121352069D01*
X78070000Y-121275879D01*
X78098571Y-121199688D01*
X78127142Y-121047307D01*
X78127142Y-120933021D01*
X78098571Y-120780640D01*
X78070000Y-120704450D01*
X78012857Y-120628260D01*
X77927142Y-120590164D01*
X77870000Y-120590164D01*
X77784285Y-120628260D01*
X77755714Y-120666355D01*
X77184285Y-121390164D02*
X77527142Y-121390164D01*
X77355714Y-121390164D02*
X77355714Y-120590164D01*
X77412857Y-120704450D01*
X77470000Y-120780640D01*
X77527142Y-120818736D01*
X76984285Y-120590164D02*
X76612857Y-120590164D01*
X76812857Y-120894926D01*
X76727142Y-120894926D01*
X76670000Y-120933021D01*
X76641428Y-120971117D01*
X76612857Y-121047307D01*
X76612857Y-121237783D01*
X76641428Y-121313974D01*
X76670000Y-121352069D01*
X76727142Y-121390164D01*
X76898571Y-121390164D01*
X76955714Y-121352069D01*
X76984285Y-121313974D01*
%TO.C,C11*%
X77954714Y-119563974D02*
X77983285Y-119602069D01*
X78069000Y-119640164D01*
X78126142Y-119640164D01*
X78211857Y-119602069D01*
X78269000Y-119525879D01*
X78297571Y-119449688D01*
X78326142Y-119297307D01*
X78326142Y-119183021D01*
X78297571Y-119030640D01*
X78269000Y-118954450D01*
X78211857Y-118878260D01*
X78126142Y-118840164D01*
X78069000Y-118840164D01*
X77983285Y-118878260D01*
X77954714Y-118916355D01*
X77383285Y-119640164D02*
X77726142Y-119640164D01*
X77554714Y-119640164D02*
X77554714Y-118840164D01*
X77611857Y-118954450D01*
X77669000Y-119030640D01*
X77726142Y-119068736D01*
X76811857Y-119640164D02*
X77154714Y-119640164D01*
X76983285Y-119640164D02*
X76983285Y-118840164D01*
X77040428Y-118954450D01*
X77097571Y-119030640D01*
X77154714Y-119068736D01*
%TO.C,R13*%
X117704714Y-120890164D02*
X117904714Y-120509212D01*
X118047571Y-120890164D02*
X118047571Y-120090164D01*
X117819000Y-120090164D01*
X117761857Y-120128260D01*
X117733285Y-120166355D01*
X117704714Y-120242545D01*
X117704714Y-120356831D01*
X117733285Y-120433021D01*
X117761857Y-120471117D01*
X117819000Y-120509212D01*
X118047571Y-120509212D01*
X117133285Y-120890164D02*
X117476142Y-120890164D01*
X117304714Y-120890164D02*
X117304714Y-120090164D01*
X117361857Y-120204450D01*
X117419000Y-120280640D01*
X117476142Y-120318736D01*
X116933285Y-120090164D02*
X116561857Y-120090164D01*
X116761857Y-120394926D01*
X116676142Y-120394926D01*
X116619000Y-120433021D01*
X116590428Y-120471117D01*
X116561857Y-120547307D01*
X116561857Y-120737783D01*
X116590428Y-120813974D01*
X116619000Y-120852069D01*
X116676142Y-120890164D01*
X116847571Y-120890164D01*
X116904714Y-120852069D01*
X116933285Y-120813974D01*
D11*
%TO.C,JP1*%
X132131380Y-117205402D02*
X133131380Y-117538736D01*
X132131380Y-117872069D01*
X133131380Y-118633974D02*
X132607571Y-118633974D01*
X132512333Y-118586355D01*
X132464714Y-118491117D01*
X132464714Y-118300640D01*
X132512333Y-118205402D01*
X133083761Y-118633974D02*
X133131380Y-118538736D01*
X133131380Y-118300640D01*
X133083761Y-118205402D01*
X132988523Y-118157783D01*
X132893285Y-118157783D01*
X132798047Y-118205402D01*
X132750428Y-118300640D01*
X132750428Y-118538736D01*
X132702809Y-118633974D01*
X132464714Y-119538736D02*
X133131380Y-119538736D01*
X132464714Y-119110164D02*
X132988523Y-119110164D01*
X133083761Y-119157783D01*
X133131380Y-119253021D01*
X133131380Y-119395879D01*
X133083761Y-119491117D01*
X133036142Y-119538736D01*
X133131380Y-119919688D02*
X132464714Y-120443498D01*
X132464714Y-119919688D02*
X133131380Y-120443498D01*
X136299476Y-120580640D02*
X136775666Y-120580640D01*
X136823285Y-121056831D01*
X136775666Y-121009212D01*
X136680428Y-120961593D01*
X136442333Y-120961593D01*
X136347095Y-121009212D01*
X136299476Y-121056831D01*
X136251857Y-121152069D01*
X136251857Y-121390164D01*
X136299476Y-121485402D01*
X136347095Y-121533021D01*
X136442333Y-121580640D01*
X136680428Y-121580640D01*
X136775666Y-121533021D01*
X136823285Y-121485402D01*
X135966142Y-120580640D02*
X135632809Y-121580640D01*
X135299476Y-120580640D01*
X137937095Y-116410640D02*
X137318047Y-116410640D01*
X137651380Y-116791593D01*
X137508523Y-116791593D01*
X137413285Y-116839212D01*
X137365666Y-116886831D01*
X137318047Y-116982069D01*
X137318047Y-117220164D01*
X137365666Y-117315402D01*
X137413285Y-117363021D01*
X137508523Y-117410640D01*
X137794238Y-117410640D01*
X137889476Y-117363021D01*
X137937095Y-117315402D01*
X137032333Y-116410640D02*
X136699000Y-117410640D01*
X136365666Y-116410640D01*
X136127571Y-116410640D02*
X135508523Y-116410640D01*
X135841857Y-116791593D01*
X135699000Y-116791593D01*
X135603761Y-116839212D01*
X135556142Y-116886831D01*
X135508523Y-116982069D01*
X135508523Y-117220164D01*
X135556142Y-117315402D01*
X135603761Y-117363021D01*
X135699000Y-117410640D01*
X135984714Y-117410640D01*
X136079952Y-117363021D01*
X136127571Y-117315402D01*
D10*
%TO.C,QB4*%
X103757142Y-96938095D02*
X103814285Y-96900000D01*
X103871428Y-96823809D01*
X103957142Y-96709523D01*
X104014285Y-96671428D01*
X104071428Y-96671428D01*
X104042857Y-96861904D02*
X104100000Y-96823809D01*
X104157142Y-96747619D01*
X104185714Y-96595238D01*
X104185714Y-96328571D01*
X104157142Y-96176190D01*
X104100000Y-96100000D01*
X104042857Y-96061904D01*
X103928571Y-96061904D01*
X103871428Y-96100000D01*
X103814285Y-96176190D01*
X103785714Y-96328571D01*
X103785714Y-96595238D01*
X103814285Y-96747619D01*
X103871428Y-96823809D01*
X103928571Y-96861904D01*
X104042857Y-96861904D01*
X103328571Y-96442857D02*
X103242857Y-96480952D01*
X103214285Y-96519047D01*
X103185714Y-96595238D01*
X103185714Y-96709523D01*
X103214285Y-96785714D01*
X103242857Y-96823809D01*
X103300000Y-96861904D01*
X103528571Y-96861904D01*
X103528571Y-96061904D01*
X103328571Y-96061904D01*
X103271428Y-96100000D01*
X103242857Y-96138095D01*
X103214285Y-96214285D01*
X103214285Y-96290476D01*
X103242857Y-96366666D01*
X103271428Y-96404761D01*
X103328571Y-96442857D01*
X103528571Y-96442857D01*
X102671428Y-96328571D02*
X102671428Y-96861904D01*
X102814285Y-96023809D02*
X102957142Y-96595238D01*
X102585714Y-96595238D01*
%TO.C,QB5*%
X89957142Y-56288095D02*
X90014285Y-56250000D01*
X90071428Y-56173809D01*
X90157142Y-56059523D01*
X90214285Y-56021428D01*
X90271428Y-56021428D01*
X90242857Y-56211904D02*
X90300000Y-56173809D01*
X90357142Y-56097619D01*
X90385714Y-55945238D01*
X90385714Y-55678571D01*
X90357142Y-55526190D01*
X90300000Y-55450000D01*
X90242857Y-55411904D01*
X90128571Y-55411904D01*
X90071428Y-55450000D01*
X90014285Y-55526190D01*
X89985714Y-55678571D01*
X89985714Y-55945238D01*
X90014285Y-56097619D01*
X90071428Y-56173809D01*
X90128571Y-56211904D01*
X90242857Y-56211904D01*
X89528571Y-55792857D02*
X89442857Y-55830952D01*
X89414285Y-55869047D01*
X89385714Y-55945238D01*
X89385714Y-56059523D01*
X89414285Y-56135714D01*
X89442857Y-56173809D01*
X89500000Y-56211904D01*
X89728571Y-56211904D01*
X89728571Y-55411904D01*
X89528571Y-55411904D01*
X89471428Y-55450000D01*
X89442857Y-55488095D01*
X89414285Y-55564285D01*
X89414285Y-55640476D01*
X89442857Y-55716666D01*
X89471428Y-55754761D01*
X89528571Y-55792857D01*
X89728571Y-55792857D01*
X88842857Y-55411904D02*
X89128571Y-55411904D01*
X89157142Y-55792857D01*
X89128571Y-55754761D01*
X89071428Y-55716666D01*
X88928571Y-55716666D01*
X88871428Y-55754761D01*
X88842857Y-55792857D01*
X88814285Y-55869047D01*
X88814285Y-56059523D01*
X88842857Y-56135714D01*
X88871428Y-56173809D01*
X88928571Y-56211904D01*
X89071428Y-56211904D01*
X89128571Y-56173809D01*
X89157142Y-56135714D01*
%TO.C,QA3*%
X66964285Y-56438095D02*
X67021428Y-56400000D01*
X67078571Y-56323809D01*
X67164285Y-56209523D01*
X67221428Y-56171428D01*
X67278571Y-56171428D01*
X67250000Y-56361904D02*
X67307142Y-56323809D01*
X67364285Y-56247619D01*
X67392857Y-56095238D01*
X67392857Y-55828571D01*
X67364285Y-55676190D01*
X67307142Y-55600000D01*
X67250000Y-55561904D01*
X67135714Y-55561904D01*
X67078571Y-55600000D01*
X67021428Y-55676190D01*
X66992857Y-55828571D01*
X66992857Y-56095238D01*
X67021428Y-56247619D01*
X67078571Y-56323809D01*
X67135714Y-56361904D01*
X67250000Y-56361904D01*
X66764285Y-56133333D02*
X66478571Y-56133333D01*
X66821428Y-56361904D02*
X66621428Y-55561904D01*
X66421428Y-56361904D01*
X66278571Y-55561904D02*
X65907142Y-55561904D01*
X66107142Y-55866666D01*
X66021428Y-55866666D01*
X65964285Y-55904761D01*
X65935714Y-55942857D01*
X65907142Y-56019047D01*
X65907142Y-56209523D01*
X65935714Y-56285714D01*
X65964285Y-56323809D01*
X66021428Y-56361904D01*
X66192857Y-56361904D01*
X66250000Y-56323809D01*
X66278571Y-56285714D01*
%TO.C,QC6*%
X127107142Y-97038095D02*
X127164285Y-97000000D01*
X127221428Y-96923809D01*
X127307142Y-96809523D01*
X127364285Y-96771428D01*
X127421428Y-96771428D01*
X127392857Y-96961904D02*
X127450000Y-96923809D01*
X127507142Y-96847619D01*
X127535714Y-96695238D01*
X127535714Y-96428571D01*
X127507142Y-96276190D01*
X127450000Y-96200000D01*
X127392857Y-96161904D01*
X127278571Y-96161904D01*
X127221428Y-96200000D01*
X127164285Y-96276190D01*
X127135714Y-96428571D01*
X127135714Y-96695238D01*
X127164285Y-96847619D01*
X127221428Y-96923809D01*
X127278571Y-96961904D01*
X127392857Y-96961904D01*
X126535714Y-96885714D02*
X126564285Y-96923809D01*
X126650000Y-96961904D01*
X126707142Y-96961904D01*
X126792857Y-96923809D01*
X126850000Y-96847619D01*
X126878571Y-96771428D01*
X126907142Y-96619047D01*
X126907142Y-96504761D01*
X126878571Y-96352380D01*
X126850000Y-96276190D01*
X126792857Y-96200000D01*
X126707142Y-96161904D01*
X126650000Y-96161904D01*
X126564285Y-96200000D01*
X126535714Y-96238095D01*
X126021428Y-96161904D02*
X126135714Y-96161904D01*
X126192857Y-96200000D01*
X126221428Y-96238095D01*
X126278571Y-96352380D01*
X126307142Y-96504761D01*
X126307142Y-96809523D01*
X126278571Y-96885714D01*
X126250000Y-96923809D01*
X126192857Y-96961904D01*
X126078571Y-96961904D01*
X126021428Y-96923809D01*
X125992857Y-96885714D01*
X125964285Y-96809523D01*
X125964285Y-96619047D01*
X125992857Y-96542857D01*
X126021428Y-96504761D01*
X126078571Y-96466666D01*
X126192857Y-96466666D01*
X126250000Y-96504761D01*
X126278571Y-96542857D01*
X126307142Y-96619047D01*
%TO.C,QC5*%
X144507142Y-56438095D02*
X144564285Y-56400000D01*
X144621428Y-56323809D01*
X144707142Y-56209523D01*
X144764285Y-56171428D01*
X144821428Y-56171428D01*
X144792857Y-56361904D02*
X144850000Y-56323809D01*
X144907142Y-56247619D01*
X144935714Y-56095238D01*
X144935714Y-55828571D01*
X144907142Y-55676190D01*
X144850000Y-55600000D01*
X144792857Y-55561904D01*
X144678571Y-55561904D01*
X144621428Y-55600000D01*
X144564285Y-55676190D01*
X144535714Y-55828571D01*
X144535714Y-56095238D01*
X144564285Y-56247619D01*
X144621428Y-56323809D01*
X144678571Y-56361904D01*
X144792857Y-56361904D01*
X143935714Y-56285714D02*
X143964285Y-56323809D01*
X144050000Y-56361904D01*
X144107142Y-56361904D01*
X144192857Y-56323809D01*
X144250000Y-56247619D01*
X144278571Y-56171428D01*
X144307142Y-56019047D01*
X144307142Y-55904761D01*
X144278571Y-55752380D01*
X144250000Y-55676190D01*
X144192857Y-55600000D01*
X144107142Y-55561904D01*
X144050000Y-55561904D01*
X143964285Y-55600000D01*
X143935714Y-55638095D01*
X143392857Y-55561904D02*
X143678571Y-55561904D01*
X143707142Y-55942857D01*
X143678571Y-55904761D01*
X143621428Y-55866666D01*
X143478571Y-55866666D01*
X143421428Y-55904761D01*
X143392857Y-55942857D01*
X143364285Y-56019047D01*
X143364285Y-56209523D01*
X143392857Y-56285714D01*
X143421428Y-56323809D01*
X143478571Y-56361904D01*
X143621428Y-56361904D01*
X143678571Y-56323809D01*
X143707142Y-56285714D01*
%TO.C,QC4*%
X147757142Y-96988095D02*
X147814285Y-96950000D01*
X147871428Y-96873809D01*
X147957142Y-96759523D01*
X148014285Y-96721428D01*
X148071428Y-96721428D01*
X148042857Y-96911904D02*
X148100000Y-96873809D01*
X148157142Y-96797619D01*
X148185714Y-96645238D01*
X148185714Y-96378571D01*
X148157142Y-96226190D01*
X148100000Y-96150000D01*
X148042857Y-96111904D01*
X147928571Y-96111904D01*
X147871428Y-96150000D01*
X147814285Y-96226190D01*
X147785714Y-96378571D01*
X147785714Y-96645238D01*
X147814285Y-96797619D01*
X147871428Y-96873809D01*
X147928571Y-96911904D01*
X148042857Y-96911904D01*
X147185714Y-96835714D02*
X147214285Y-96873809D01*
X147300000Y-96911904D01*
X147357142Y-96911904D01*
X147442857Y-96873809D01*
X147500000Y-96797619D01*
X147528571Y-96721428D01*
X147557142Y-96569047D01*
X147557142Y-96454761D01*
X147528571Y-96302380D01*
X147500000Y-96226190D01*
X147442857Y-96150000D01*
X147357142Y-96111904D01*
X147300000Y-96111904D01*
X147214285Y-96150000D01*
X147185714Y-96188095D01*
X146671428Y-96378571D02*
X146671428Y-96911904D01*
X146814285Y-96073809D02*
X146957142Y-96645238D01*
X146585714Y-96645238D01*
D11*
%TO.C,JP3*%
X133378047Y-106836831D02*
X133235190Y-106884450D01*
X133187571Y-106932069D01*
X133139952Y-107027307D01*
X133139952Y-107170164D01*
X133187571Y-107265402D01*
X133235190Y-107313021D01*
X133330428Y-107360640D01*
X133711380Y-107360640D01*
X133711380Y-106360640D01*
X133378047Y-106360640D01*
X133282809Y-106408260D01*
X133235190Y-106455879D01*
X133187571Y-106551117D01*
X133187571Y-106646355D01*
X133235190Y-106741593D01*
X133282809Y-106789212D01*
X133378047Y-106836831D01*
X133711380Y-106836831D01*
X132568523Y-107360640D02*
X132663761Y-107313021D01*
X132711380Y-107217783D01*
X132711380Y-106360640D01*
X131759000Y-107360640D02*
X131759000Y-106836831D01*
X131806619Y-106741593D01*
X131901857Y-106693974D01*
X132092333Y-106693974D01*
X132187571Y-106741593D01*
X131759000Y-107313021D02*
X131854238Y-107360640D01*
X132092333Y-107360640D01*
X132187571Y-107313021D01*
X132235190Y-107217783D01*
X132235190Y-107122545D01*
X132187571Y-107027307D01*
X132092333Y-106979688D01*
X131854238Y-106979688D01*
X131759000Y-106932069D01*
X130854238Y-107313021D02*
X130949476Y-107360640D01*
X131139952Y-107360640D01*
X131235190Y-107313021D01*
X131282809Y-107265402D01*
X131330428Y-107170164D01*
X131330428Y-106884450D01*
X131282809Y-106789212D01*
X131235190Y-106741593D01*
X131139952Y-106693974D01*
X130949476Y-106693974D01*
X130854238Y-106741593D01*
X130425666Y-107360640D02*
X130425666Y-106360640D01*
X130330428Y-106979688D02*
X130044714Y-107360640D01*
X130044714Y-106693974D02*
X130425666Y-107074926D01*
X128854238Y-107360640D02*
X128854238Y-106360640D01*
X128473285Y-106360640D01*
X128378047Y-106408260D01*
X128330428Y-106455879D01*
X128282809Y-106551117D01*
X128282809Y-106693974D01*
X128330428Y-106789212D01*
X128378047Y-106836831D01*
X128473285Y-106884450D01*
X128854238Y-106884450D01*
X127854238Y-107360640D02*
X127854238Y-106693974D01*
X127854238Y-106360640D02*
X127901857Y-106408260D01*
X127854238Y-106455879D01*
X127806619Y-106408260D01*
X127854238Y-106360640D01*
X127854238Y-106455879D01*
X127235190Y-107360640D02*
X127330428Y-107313021D01*
X127378047Y-107217783D01*
X127378047Y-106360640D01*
X126711380Y-107360640D02*
X126806619Y-107313021D01*
X126854238Y-107217783D01*
X126854238Y-106360640D01*
X143893285Y-107036831D02*
X143750428Y-107084450D01*
X143702809Y-107132069D01*
X143655190Y-107227307D01*
X143655190Y-107370164D01*
X143702809Y-107465402D01*
X143750428Y-107513021D01*
X143845666Y-107560640D01*
X144226619Y-107560640D01*
X144226619Y-106560640D01*
X143893285Y-106560640D01*
X143798047Y-106608260D01*
X143750428Y-106655879D01*
X143702809Y-106751117D01*
X143702809Y-106846355D01*
X143750428Y-106941593D01*
X143798047Y-106989212D01*
X143893285Y-107036831D01*
X144226619Y-107036831D01*
X143083761Y-107560640D02*
X143179000Y-107513021D01*
X143226619Y-107417783D01*
X143226619Y-106560640D01*
X142274238Y-106893974D02*
X142274238Y-107560640D01*
X142702809Y-106893974D02*
X142702809Y-107417783D01*
X142655190Y-107513021D01*
X142559952Y-107560640D01*
X142417095Y-107560640D01*
X142321857Y-107513021D01*
X142274238Y-107465402D01*
X141417095Y-107513021D02*
X141512333Y-107560640D01*
X141702809Y-107560640D01*
X141798047Y-107513021D01*
X141845666Y-107417783D01*
X141845666Y-107036831D01*
X141798047Y-106941593D01*
X141702809Y-106893974D01*
X141512333Y-106893974D01*
X141417095Y-106941593D01*
X141369476Y-107036831D01*
X141369476Y-107132069D01*
X141845666Y-107227307D01*
X140179000Y-107560640D02*
X140179000Y-106560640D01*
X139798047Y-106560640D01*
X139702809Y-106608260D01*
X139655190Y-106655879D01*
X139607571Y-106751117D01*
X139607571Y-106893974D01*
X139655190Y-106989212D01*
X139702809Y-107036831D01*
X139798047Y-107084450D01*
X140179000Y-107084450D01*
X139179000Y-107560640D02*
X139179000Y-106893974D01*
X139179000Y-106560640D02*
X139226619Y-106608260D01*
X139179000Y-106655879D01*
X139131380Y-106608260D01*
X139179000Y-106560640D01*
X139179000Y-106655879D01*
X138559952Y-107560640D02*
X138655190Y-107513021D01*
X138702809Y-107417783D01*
X138702809Y-106560640D01*
X138036142Y-107560640D02*
X138131380Y-107513021D01*
X138179000Y-107417783D01*
X138179000Y-106560640D01*
D10*
%TO.C,QA6*%
X59764285Y-96188095D02*
X59821428Y-96150000D01*
X59878571Y-96073809D01*
X59964285Y-95959523D01*
X60021428Y-95921428D01*
X60078571Y-95921428D01*
X60050000Y-96111904D02*
X60107142Y-96073809D01*
X60164285Y-95997619D01*
X60192857Y-95845238D01*
X60192857Y-95578571D01*
X60164285Y-95426190D01*
X60107142Y-95350000D01*
X60050000Y-95311904D01*
X59935714Y-95311904D01*
X59878571Y-95350000D01*
X59821428Y-95426190D01*
X59792857Y-95578571D01*
X59792857Y-95845238D01*
X59821428Y-95997619D01*
X59878571Y-96073809D01*
X59935714Y-96111904D01*
X60050000Y-96111904D01*
X59564285Y-95883333D02*
X59278571Y-95883333D01*
X59621428Y-96111904D02*
X59421428Y-95311904D01*
X59221428Y-96111904D01*
X58764285Y-95311904D02*
X58878571Y-95311904D01*
X58935714Y-95350000D01*
X58964285Y-95388095D01*
X59021428Y-95502380D01*
X59050000Y-95654761D01*
X59050000Y-95959523D01*
X59021428Y-96035714D01*
X58992857Y-96073809D01*
X58935714Y-96111904D01*
X58821428Y-96111904D01*
X58764285Y-96073809D01*
X58735714Y-96035714D01*
X58707142Y-95959523D01*
X58707142Y-95769047D01*
X58735714Y-95692857D01*
X58764285Y-95654761D01*
X58821428Y-95616666D01*
X58935714Y-95616666D01*
X58992857Y-95654761D01*
X59021428Y-95692857D01*
X59050000Y-95769047D01*
%TO.C,QB6*%
X93507142Y-96888095D02*
X93564285Y-96850000D01*
X93621428Y-96773809D01*
X93707142Y-96659523D01*
X93764285Y-96621428D01*
X93821428Y-96621428D01*
X93792857Y-96811904D02*
X93850000Y-96773809D01*
X93907142Y-96697619D01*
X93935714Y-96545238D01*
X93935714Y-96278571D01*
X93907142Y-96126190D01*
X93850000Y-96050000D01*
X93792857Y-96011904D01*
X93678571Y-96011904D01*
X93621428Y-96050000D01*
X93564285Y-96126190D01*
X93535714Y-96278571D01*
X93535714Y-96545238D01*
X93564285Y-96697619D01*
X93621428Y-96773809D01*
X93678571Y-96811904D01*
X93792857Y-96811904D01*
X93078571Y-96392857D02*
X92992857Y-96430952D01*
X92964285Y-96469047D01*
X92935714Y-96545238D01*
X92935714Y-96659523D01*
X92964285Y-96735714D01*
X92992857Y-96773809D01*
X93050000Y-96811904D01*
X93278571Y-96811904D01*
X93278571Y-96011904D01*
X93078571Y-96011904D01*
X93021428Y-96050000D01*
X92992857Y-96088095D01*
X92964285Y-96164285D01*
X92964285Y-96240476D01*
X92992857Y-96316666D01*
X93021428Y-96354761D01*
X93078571Y-96392857D01*
X93278571Y-96392857D01*
X92421428Y-96011904D02*
X92535714Y-96011904D01*
X92592857Y-96050000D01*
X92621428Y-96088095D01*
X92678571Y-96202380D01*
X92707142Y-96354761D01*
X92707142Y-96659523D01*
X92678571Y-96735714D01*
X92650000Y-96773809D01*
X92592857Y-96811904D01*
X92478571Y-96811904D01*
X92421428Y-96773809D01*
X92392857Y-96735714D01*
X92364285Y-96659523D01*
X92364285Y-96469047D01*
X92392857Y-96392857D01*
X92421428Y-96354761D01*
X92478571Y-96316666D01*
X92592857Y-96316666D01*
X92650000Y-96354761D01*
X92678571Y-96392857D01*
X92707142Y-96469047D01*
%TO.C,QB2*%
X114407142Y-97038095D02*
X114464285Y-97000000D01*
X114521428Y-96923809D01*
X114607142Y-96809523D01*
X114664285Y-96771428D01*
X114721428Y-96771428D01*
X114692857Y-96961904D02*
X114750000Y-96923809D01*
X114807142Y-96847619D01*
X114835714Y-96695238D01*
X114835714Y-96428571D01*
X114807142Y-96276190D01*
X114750000Y-96200000D01*
X114692857Y-96161904D01*
X114578571Y-96161904D01*
X114521428Y-96200000D01*
X114464285Y-96276190D01*
X114435714Y-96428571D01*
X114435714Y-96695238D01*
X114464285Y-96847619D01*
X114521428Y-96923809D01*
X114578571Y-96961904D01*
X114692857Y-96961904D01*
X113978571Y-96542857D02*
X113892857Y-96580952D01*
X113864285Y-96619047D01*
X113835714Y-96695238D01*
X113835714Y-96809523D01*
X113864285Y-96885714D01*
X113892857Y-96923809D01*
X113950000Y-96961904D01*
X114178571Y-96961904D01*
X114178571Y-96161904D01*
X113978571Y-96161904D01*
X113921428Y-96200000D01*
X113892857Y-96238095D01*
X113864285Y-96314285D01*
X113864285Y-96390476D01*
X113892857Y-96466666D01*
X113921428Y-96504761D01*
X113978571Y-96542857D01*
X114178571Y-96542857D01*
X113607142Y-96238095D02*
X113578571Y-96200000D01*
X113521428Y-96161904D01*
X113378571Y-96161904D01*
X113321428Y-96200000D01*
X113292857Y-96238095D01*
X113264285Y-96314285D01*
X113264285Y-96390476D01*
X113292857Y-96504761D01*
X113635714Y-96961904D01*
X113264285Y-96961904D01*
%TO.C,QA5*%
X77464285Y-56388095D02*
X77521428Y-56350000D01*
X77578571Y-56273809D01*
X77664285Y-56159523D01*
X77721428Y-56121428D01*
X77778571Y-56121428D01*
X77750000Y-56311904D02*
X77807142Y-56273809D01*
X77864285Y-56197619D01*
X77892857Y-56045238D01*
X77892857Y-55778571D01*
X77864285Y-55626190D01*
X77807142Y-55550000D01*
X77750000Y-55511904D01*
X77635714Y-55511904D01*
X77578571Y-55550000D01*
X77521428Y-55626190D01*
X77492857Y-55778571D01*
X77492857Y-56045238D01*
X77521428Y-56197619D01*
X77578571Y-56273809D01*
X77635714Y-56311904D01*
X77750000Y-56311904D01*
X77264285Y-56083333D02*
X76978571Y-56083333D01*
X77321428Y-56311904D02*
X77121428Y-55511904D01*
X76921428Y-56311904D01*
X76435714Y-55511904D02*
X76721428Y-55511904D01*
X76750000Y-55892857D01*
X76721428Y-55854761D01*
X76664285Y-55816666D01*
X76521428Y-55816666D01*
X76464285Y-55854761D01*
X76435714Y-55892857D01*
X76407142Y-55969047D01*
X76407142Y-56159523D01*
X76435714Y-56235714D01*
X76464285Y-56273809D01*
X76521428Y-56311904D01*
X76664285Y-56311904D01*
X76721428Y-56273809D01*
X76750000Y-56235714D01*
D11*
%TO.C,JP2*%
X145319000Y-112640640D02*
X145319000Y-111640640D01*
X144985666Y-112354926D01*
X144652333Y-111640640D01*
X144652333Y-112640640D01*
X144176142Y-112545402D02*
X144128523Y-112593021D01*
X144176142Y-112640640D01*
X144223761Y-112593021D01*
X144176142Y-112545402D01*
X144176142Y-112640640D01*
X143842809Y-111640640D02*
X143271380Y-111640640D01*
X143557095Y-112640640D02*
X143557095Y-111640640D01*
X142557095Y-112593021D02*
X142652333Y-112640640D01*
X142842809Y-112640640D01*
X142938047Y-112593021D01*
X142985666Y-112497783D01*
X142985666Y-112116831D01*
X142938047Y-112021593D01*
X142842809Y-111973974D01*
X142652333Y-111973974D01*
X142557095Y-112021593D01*
X142509476Y-112116831D01*
X142509476Y-112212069D01*
X142985666Y-112307307D01*
X142080904Y-112640640D02*
X142080904Y-111973974D01*
X142080904Y-112069212D02*
X142033285Y-112021593D01*
X141938047Y-111973974D01*
X141795190Y-111973974D01*
X141699952Y-112021593D01*
X141652333Y-112116831D01*
X141652333Y-112640640D01*
X141652333Y-112116831D02*
X141604714Y-112021593D01*
X141509476Y-111973974D01*
X141366619Y-111973974D01*
X141271380Y-112021593D01*
X141223761Y-112116831D01*
X141223761Y-112640640D01*
X140747571Y-111973974D02*
X140747571Y-112973974D01*
X140747571Y-112021593D02*
X140652333Y-111973974D01*
X140461857Y-111973974D01*
X140366619Y-112021593D01*
X140319000Y-112069212D01*
X140271380Y-112164450D01*
X140271380Y-112450164D01*
X140319000Y-112545402D01*
X140366619Y-112593021D01*
X140461857Y-112640640D01*
X140652333Y-112640640D01*
X140747571Y-112593021D01*
X143602809Y-109386831D02*
X143459952Y-109434450D01*
X143412333Y-109482069D01*
X143364714Y-109577307D01*
X143364714Y-109720164D01*
X143412333Y-109815402D01*
X143459952Y-109863021D01*
X143555190Y-109910640D01*
X143936142Y-109910640D01*
X143936142Y-108910640D01*
X143602809Y-108910640D01*
X143507571Y-108958260D01*
X143459952Y-109005879D01*
X143412333Y-109101117D01*
X143412333Y-109196355D01*
X143459952Y-109291593D01*
X143507571Y-109339212D01*
X143602809Y-109386831D01*
X143936142Y-109386831D01*
X142936142Y-109910640D02*
X142936142Y-109243974D01*
X142936142Y-109434450D02*
X142888523Y-109339212D01*
X142840904Y-109291593D01*
X142745666Y-109243974D01*
X142650428Y-109243974D01*
X141888523Y-109910640D02*
X141888523Y-109386831D01*
X141936142Y-109291593D01*
X142031380Y-109243974D01*
X142221857Y-109243974D01*
X142317095Y-109291593D01*
X141888523Y-109863021D02*
X141983761Y-109910640D01*
X142221857Y-109910640D01*
X142317095Y-109863021D01*
X142364714Y-109767783D01*
X142364714Y-109672545D01*
X142317095Y-109577307D01*
X142221857Y-109529688D01*
X141983761Y-109529688D01*
X141888523Y-109482069D01*
X141412333Y-109910640D02*
X141412333Y-108910640D01*
X141317095Y-109529688D02*
X141031380Y-109910640D01*
X141031380Y-109243974D02*
X141412333Y-109624926D01*
X140221857Y-109863021D02*
X140317095Y-109910640D01*
X140507571Y-109910640D01*
X140602809Y-109863021D01*
X140650428Y-109767783D01*
X140650428Y-109386831D01*
X140602809Y-109291593D01*
X140507571Y-109243974D01*
X140317095Y-109243974D01*
X140221857Y-109291593D01*
X140174238Y-109386831D01*
X140174238Y-109482069D01*
X140650428Y-109577307D01*
X142925666Y-111440640D02*
X142925666Y-110440640D01*
X142544714Y-110440640D01*
X142449476Y-110488260D01*
X142401857Y-110535879D01*
X142354238Y-110631117D01*
X142354238Y-110773974D01*
X142401857Y-110869212D01*
X142449476Y-110916831D01*
X142544714Y-110964450D01*
X142925666Y-110964450D01*
X141973285Y-111154926D02*
X141497095Y-111154926D01*
X142068523Y-111440640D02*
X141735190Y-110440640D01*
X141401857Y-111440640D01*
X141163761Y-110440640D02*
X140497095Y-110440640D01*
X140925666Y-111440640D01*
D10*
%TO.C,QA1*%
X56514285Y-56438095D02*
X56571428Y-56400000D01*
X56628571Y-56323809D01*
X56714285Y-56209523D01*
X56771428Y-56171428D01*
X56828571Y-56171428D01*
X56800000Y-56361904D02*
X56857142Y-56323809D01*
X56914285Y-56247619D01*
X56942857Y-56095238D01*
X56942857Y-55828571D01*
X56914285Y-55676190D01*
X56857142Y-55600000D01*
X56800000Y-55561904D01*
X56685714Y-55561904D01*
X56628571Y-55600000D01*
X56571428Y-55676190D01*
X56542857Y-55828571D01*
X56542857Y-56095238D01*
X56571428Y-56247619D01*
X56628571Y-56323809D01*
X56685714Y-56361904D01*
X56800000Y-56361904D01*
X56314285Y-56133333D02*
X56028571Y-56133333D01*
X56371428Y-56361904D02*
X56171428Y-55561904D01*
X55971428Y-56361904D01*
X55457142Y-56361904D02*
X55800000Y-56361904D01*
X55628571Y-56361904D02*
X55628571Y-55561904D01*
X55685714Y-55676190D01*
X55742857Y-55752380D01*
X55800000Y-55790476D01*
%TO.C,QB3*%
X100457142Y-56288095D02*
X100514285Y-56250000D01*
X100571428Y-56173809D01*
X100657142Y-56059523D01*
X100714285Y-56021428D01*
X100771428Y-56021428D01*
X100742857Y-56211904D02*
X100800000Y-56173809D01*
X100857142Y-56097619D01*
X100885714Y-55945238D01*
X100885714Y-55678571D01*
X100857142Y-55526190D01*
X100800000Y-55450000D01*
X100742857Y-55411904D01*
X100628571Y-55411904D01*
X100571428Y-55450000D01*
X100514285Y-55526190D01*
X100485714Y-55678571D01*
X100485714Y-55945238D01*
X100514285Y-56097619D01*
X100571428Y-56173809D01*
X100628571Y-56211904D01*
X100742857Y-56211904D01*
X100028571Y-55792857D02*
X99942857Y-55830952D01*
X99914285Y-55869047D01*
X99885714Y-55945238D01*
X99885714Y-56059523D01*
X99914285Y-56135714D01*
X99942857Y-56173809D01*
X100000000Y-56211904D01*
X100228571Y-56211904D01*
X100228571Y-55411904D01*
X100028571Y-55411904D01*
X99971428Y-55450000D01*
X99942857Y-55488095D01*
X99914285Y-55564285D01*
X99914285Y-55640476D01*
X99942857Y-55716666D01*
X99971428Y-55754761D01*
X100028571Y-55792857D01*
X100228571Y-55792857D01*
X99685714Y-55411904D02*
X99314285Y-55411904D01*
X99514285Y-55716666D01*
X99428571Y-55716666D01*
X99371428Y-55754761D01*
X99342857Y-55792857D01*
X99314285Y-55869047D01*
X99314285Y-56059523D01*
X99342857Y-56135714D01*
X99371428Y-56173809D01*
X99428571Y-56211904D01*
X99600000Y-56211904D01*
X99657142Y-56173809D01*
X99685714Y-56135714D01*
%TO.C,QC3*%
X134057142Y-56338095D02*
X134114285Y-56300000D01*
X134171428Y-56223809D01*
X134257142Y-56109523D01*
X134314285Y-56071428D01*
X134371428Y-56071428D01*
X134342857Y-56261904D02*
X134400000Y-56223809D01*
X134457142Y-56147619D01*
X134485714Y-55995238D01*
X134485714Y-55728571D01*
X134457142Y-55576190D01*
X134400000Y-55500000D01*
X134342857Y-55461904D01*
X134228571Y-55461904D01*
X134171428Y-55500000D01*
X134114285Y-55576190D01*
X134085714Y-55728571D01*
X134085714Y-55995238D01*
X134114285Y-56147619D01*
X134171428Y-56223809D01*
X134228571Y-56261904D01*
X134342857Y-56261904D01*
X133485714Y-56185714D02*
X133514285Y-56223809D01*
X133600000Y-56261904D01*
X133657142Y-56261904D01*
X133742857Y-56223809D01*
X133800000Y-56147619D01*
X133828571Y-56071428D01*
X133857142Y-55919047D01*
X133857142Y-55804761D01*
X133828571Y-55652380D01*
X133800000Y-55576190D01*
X133742857Y-55500000D01*
X133657142Y-55461904D01*
X133600000Y-55461904D01*
X133514285Y-55500000D01*
X133485714Y-55538095D01*
X133285714Y-55461904D02*
X132914285Y-55461904D01*
X133114285Y-55766666D01*
X133028571Y-55766666D01*
X132971428Y-55804761D01*
X132942857Y-55842857D01*
X132914285Y-55919047D01*
X132914285Y-56109523D01*
X132942857Y-56185714D01*
X132971428Y-56223809D01*
X133028571Y-56261904D01*
X133200000Y-56261904D01*
X133257142Y-56223809D01*
X133285714Y-56185714D01*
%TO.C,QA4*%
X70514285Y-96288095D02*
X70571428Y-96250000D01*
X70628571Y-96173809D01*
X70714285Y-96059523D01*
X70771428Y-96021428D01*
X70828571Y-96021428D01*
X70800000Y-96211904D02*
X70857142Y-96173809D01*
X70914285Y-96097619D01*
X70942857Y-95945238D01*
X70942857Y-95678571D01*
X70914285Y-95526190D01*
X70857142Y-95450000D01*
X70800000Y-95411904D01*
X70685714Y-95411904D01*
X70628571Y-95450000D01*
X70571428Y-95526190D01*
X70542857Y-95678571D01*
X70542857Y-95945238D01*
X70571428Y-96097619D01*
X70628571Y-96173809D01*
X70685714Y-96211904D01*
X70800000Y-96211904D01*
X70314285Y-95983333D02*
X70028571Y-95983333D01*
X70371428Y-96211904D02*
X70171428Y-95411904D01*
X69971428Y-96211904D01*
X69514285Y-95678571D02*
X69514285Y-96211904D01*
X69657142Y-95373809D02*
X69800000Y-95945238D01*
X69428571Y-95945238D01*
%TO.C,QC2*%
X137607142Y-96988095D02*
X137664285Y-96950000D01*
X137721428Y-96873809D01*
X137807142Y-96759523D01*
X137864285Y-96721428D01*
X137921428Y-96721428D01*
X137892857Y-96911904D02*
X137950000Y-96873809D01*
X138007142Y-96797619D01*
X138035714Y-96645238D01*
X138035714Y-96378571D01*
X138007142Y-96226190D01*
X137950000Y-96150000D01*
X137892857Y-96111904D01*
X137778571Y-96111904D01*
X137721428Y-96150000D01*
X137664285Y-96226190D01*
X137635714Y-96378571D01*
X137635714Y-96645238D01*
X137664285Y-96797619D01*
X137721428Y-96873809D01*
X137778571Y-96911904D01*
X137892857Y-96911904D01*
X137035714Y-96835714D02*
X137064285Y-96873809D01*
X137150000Y-96911904D01*
X137207142Y-96911904D01*
X137292857Y-96873809D01*
X137350000Y-96797619D01*
X137378571Y-96721428D01*
X137407142Y-96569047D01*
X137407142Y-96454761D01*
X137378571Y-96302380D01*
X137350000Y-96226190D01*
X137292857Y-96150000D01*
X137207142Y-96111904D01*
X137150000Y-96111904D01*
X137064285Y-96150000D01*
X137035714Y-96188095D01*
X136807142Y-96188095D02*
X136778571Y-96150000D01*
X136721428Y-96111904D01*
X136578571Y-96111904D01*
X136521428Y-96150000D01*
X136492857Y-96188095D01*
X136464285Y-96264285D01*
X136464285Y-96340476D01*
X136492857Y-96454761D01*
X136835714Y-96911904D01*
X136464285Y-96911904D01*
%TO.C,QC1*%
X123407142Y-56338095D02*
X123464285Y-56300000D01*
X123521428Y-56223809D01*
X123607142Y-56109523D01*
X123664285Y-56071428D01*
X123721428Y-56071428D01*
X123692857Y-56261904D02*
X123750000Y-56223809D01*
X123807142Y-56147619D01*
X123835714Y-55995238D01*
X123835714Y-55728571D01*
X123807142Y-55576190D01*
X123750000Y-55500000D01*
X123692857Y-55461904D01*
X123578571Y-55461904D01*
X123521428Y-55500000D01*
X123464285Y-55576190D01*
X123435714Y-55728571D01*
X123435714Y-55995238D01*
X123464285Y-56147619D01*
X123521428Y-56223809D01*
X123578571Y-56261904D01*
X123692857Y-56261904D01*
X122835714Y-56185714D02*
X122864285Y-56223809D01*
X122950000Y-56261904D01*
X123007142Y-56261904D01*
X123092857Y-56223809D01*
X123150000Y-56147619D01*
X123178571Y-56071428D01*
X123207142Y-55919047D01*
X123207142Y-55804761D01*
X123178571Y-55652380D01*
X123150000Y-55576190D01*
X123092857Y-55500000D01*
X123007142Y-55461904D01*
X122950000Y-55461904D01*
X122864285Y-55500000D01*
X122835714Y-55538095D01*
X122264285Y-56261904D02*
X122607142Y-56261904D01*
X122435714Y-56261904D02*
X122435714Y-55461904D01*
X122492857Y-55576190D01*
X122550000Y-55652380D01*
X122607142Y-55690476D01*
%TO.C,QA2*%
X81064285Y-96938095D02*
X81121428Y-96900000D01*
X81178571Y-96823809D01*
X81264285Y-96709523D01*
X81321428Y-96671428D01*
X81378571Y-96671428D01*
X81350000Y-96861904D02*
X81407142Y-96823809D01*
X81464285Y-96747619D01*
X81492857Y-96595238D01*
X81492857Y-96328571D01*
X81464285Y-96176190D01*
X81407142Y-96100000D01*
X81350000Y-96061904D01*
X81235714Y-96061904D01*
X81178571Y-96100000D01*
X81121428Y-96176190D01*
X81092857Y-96328571D01*
X81092857Y-96595238D01*
X81121428Y-96747619D01*
X81178571Y-96823809D01*
X81235714Y-96861904D01*
X81350000Y-96861904D01*
X80864285Y-96633333D02*
X80578571Y-96633333D01*
X80921428Y-96861904D02*
X80721428Y-96061904D01*
X80521428Y-96861904D01*
X80350000Y-96138095D02*
X80321428Y-96100000D01*
X80264285Y-96061904D01*
X80121428Y-96061904D01*
X80064285Y-96100000D01*
X80035714Y-96138095D01*
X80007142Y-96214285D01*
X80007142Y-96290476D01*
X80035714Y-96404761D01*
X80378571Y-96861904D01*
X80007142Y-96861904D01*
%TO.C,QB1*%
X110907142Y-56238095D02*
X110964285Y-56200000D01*
X111021428Y-56123809D01*
X111107142Y-56009523D01*
X111164285Y-55971428D01*
X111221428Y-55971428D01*
X111192857Y-56161904D02*
X111250000Y-56123809D01*
X111307142Y-56047619D01*
X111335714Y-55895238D01*
X111335714Y-55628571D01*
X111307142Y-55476190D01*
X111250000Y-55400000D01*
X111192857Y-55361904D01*
X111078571Y-55361904D01*
X111021428Y-55400000D01*
X110964285Y-55476190D01*
X110935714Y-55628571D01*
X110935714Y-55895238D01*
X110964285Y-56047619D01*
X111021428Y-56123809D01*
X111078571Y-56161904D01*
X111192857Y-56161904D01*
X110478571Y-55742857D02*
X110392857Y-55780952D01*
X110364285Y-55819047D01*
X110335714Y-55895238D01*
X110335714Y-56009523D01*
X110364285Y-56085714D01*
X110392857Y-56123809D01*
X110450000Y-56161904D01*
X110678571Y-56161904D01*
X110678571Y-55361904D01*
X110478571Y-55361904D01*
X110421428Y-55400000D01*
X110392857Y-55438095D01*
X110364285Y-55514285D01*
X110364285Y-55590476D01*
X110392857Y-55666666D01*
X110421428Y-55704761D01*
X110478571Y-55742857D01*
X110678571Y-55742857D01*
X109764285Y-56161904D02*
X110107142Y-56161904D01*
X109935714Y-56161904D02*
X109935714Y-55361904D01*
X109992857Y-55476190D01*
X110050000Y-55552380D01*
X110107142Y-55590476D01*
%TO.C,JP1*%
X134119000Y-120928260D02*
X134719000Y-120928260D01*
X135419000Y-120278260D02*
X135419000Y-117478260D01*
X133419000Y-117478260D02*
X133419000Y-120278260D01*
X134719000Y-116828260D02*
X134119000Y-116828260D01*
X134719000Y-120928260D02*
G75*
G03*
X135419000Y-120228260I1J699999D01*
G01*
X135419000Y-117528260D02*
G75*
G03*
X134719000Y-116828260I-699999J1D01*
G01*
X133419000Y-120228260D02*
G75*
G03*
X134119000Y-120928260I699999J-1D01*
G01*
X134119000Y-116828260D02*
G75*
G03*
X133419000Y-117528260I-1J-699999D01*
G01*
%TO.C,QB4*%
X97920000Y-98330000D02*
X96720000Y-98330000D01*
X100000000Y-79900000D02*
X100000000Y-82440000D01*
X105120000Y-91930000D02*
X94880000Y-91930000D01*
X105120000Y-82440000D02*
X105120000Y-91930000D01*
X105120000Y-98330000D02*
X103920000Y-98330000D01*
X105120000Y-82440000D02*
X94880000Y-82440000D01*
X102721000Y-98330000D02*
X101520000Y-98330000D01*
X94880000Y-92170000D02*
X94880000Y-93370000D01*
X97460000Y-79900000D02*
X97460000Y-82440000D01*
X105120000Y-94570000D02*
X105120000Y-95770000D01*
X102540000Y-79900000D02*
X102540000Y-82440000D01*
X105120000Y-96970000D02*
X105120000Y-98170000D01*
X94880000Y-94570000D02*
X94880000Y-95770000D01*
X94880000Y-82440000D02*
X94880000Y-91930000D01*
X100320000Y-98330000D02*
X99120000Y-98330000D01*
X94880000Y-96970000D02*
X94880000Y-98170000D01*
X105120000Y-92170000D02*
X105120000Y-93370000D01*
X95520000Y-98330000D02*
X94880000Y-98330000D01*
%TO.C,QB5*%
X84380000Y-56580000D02*
X84380000Y-55380000D01*
X84380000Y-66310000D02*
X94620000Y-66310000D01*
X94620000Y-54180000D02*
X94620000Y-52980000D01*
X92040000Y-68850000D02*
X92040000Y-66310000D01*
X84380000Y-66310000D02*
X84380000Y-56820000D01*
X84380000Y-50420000D02*
X85580000Y-50420000D01*
X94620000Y-66310000D02*
X94620000Y-56820000D01*
X84380000Y-51780000D02*
X84380000Y-50580000D01*
X86960000Y-68850000D02*
X86960000Y-66310000D01*
X94620000Y-51780000D02*
X94620000Y-50580000D01*
X86779000Y-50420000D02*
X87980000Y-50420000D01*
X89500000Y-68850000D02*
X89500000Y-66310000D01*
X94620000Y-56580000D02*
X94620000Y-55380000D01*
X93980000Y-50420000D02*
X94620000Y-50420000D01*
X84380000Y-56820000D02*
X94620000Y-56820000D01*
X84380000Y-54180000D02*
X84380000Y-52980000D01*
X89180000Y-50420000D02*
X90380000Y-50420000D01*
X91580000Y-50420000D02*
X92780000Y-50420000D01*
%TO.C,QA3*%
X61380000Y-56820000D02*
X71620000Y-56820000D01*
X71620000Y-54180000D02*
X71620000Y-52980000D01*
X61380000Y-66310000D02*
X71620000Y-66310000D01*
X61380000Y-50420000D02*
X62580000Y-50420000D01*
X71620000Y-66310000D02*
X71620000Y-56820000D01*
X71620000Y-51780000D02*
X71620000Y-50580000D01*
X66500000Y-68850000D02*
X66500000Y-66310000D01*
X61380000Y-51780000D02*
X61380000Y-50580000D01*
X66180000Y-50420000D02*
X67380000Y-50420000D01*
X71620000Y-56580000D02*
X71620000Y-55380000D01*
X61380000Y-54180000D02*
X61380000Y-52980000D01*
X70980000Y-50420000D02*
X71620000Y-50420000D01*
X63779000Y-50420000D02*
X64980000Y-50420000D01*
X63960000Y-68850000D02*
X63960000Y-66310000D01*
X61380000Y-56580000D02*
X61380000Y-55380000D01*
X69040000Y-68850000D02*
X69040000Y-66310000D01*
X61380000Y-66310000D02*
X61380000Y-56820000D01*
X68580000Y-50420000D02*
X69780000Y-50420000D01*
%TO.C,QC6*%
X123320000Y-98330000D02*
X122120000Y-98330000D01*
X120460000Y-79900000D02*
X120460000Y-82440000D01*
X128120000Y-92170000D02*
X128120000Y-93370000D01*
X118520000Y-98330000D02*
X117880000Y-98330000D01*
X128120000Y-82440000D02*
X117880000Y-82440000D01*
X117880000Y-92170000D02*
X117880000Y-93370000D01*
X125540000Y-79900000D02*
X125540000Y-82440000D01*
X128120000Y-96970000D02*
X128120000Y-98170000D01*
X120920000Y-98330000D02*
X119720000Y-98330000D01*
X128120000Y-91930000D02*
X117880000Y-91930000D01*
X117880000Y-96970000D02*
X117880000Y-98170000D01*
X128120000Y-94570000D02*
X128120000Y-95770000D01*
X123000000Y-79900000D02*
X123000000Y-82440000D01*
X128120000Y-98330000D02*
X126920000Y-98330000D01*
X125721000Y-98330000D02*
X124520000Y-98330000D01*
X128120000Y-82440000D02*
X128120000Y-91930000D01*
X117880000Y-94570000D02*
X117880000Y-95770000D01*
X117880000Y-82440000D02*
X117880000Y-91930000D01*
%TO.C,QC5*%
X149120000Y-66310000D02*
X149120000Y-56820000D01*
X138880000Y-56580000D02*
X138880000Y-55380000D01*
X138880000Y-54180000D02*
X138880000Y-52980000D01*
X138880000Y-50420000D02*
X140080000Y-50420000D01*
X149120000Y-56580000D02*
X149120000Y-55380000D01*
X141279000Y-50420000D02*
X142480000Y-50420000D01*
X138880000Y-66310000D02*
X149120000Y-66310000D01*
X144000000Y-68850000D02*
X144000000Y-66310000D01*
X143680000Y-50420000D02*
X144880000Y-50420000D01*
X146080000Y-50420000D02*
X147280000Y-50420000D01*
X138880000Y-66310000D02*
X138880000Y-56820000D01*
X149120000Y-54180000D02*
X149120000Y-52980000D01*
X138880000Y-56820000D02*
X149120000Y-56820000D01*
X146540000Y-68850000D02*
X146540000Y-66310000D01*
X138880000Y-51780000D02*
X138880000Y-50580000D01*
X149120000Y-51780000D02*
X149120000Y-50580000D01*
X148480000Y-50420000D02*
X149120000Y-50420000D01*
X141460000Y-68850000D02*
X141460000Y-66310000D01*
%TO.C,QC4*%
X149120000Y-92170000D02*
X149120000Y-93370000D01*
X149120000Y-98330000D02*
X147920000Y-98330000D01*
X146540000Y-79900000D02*
X146540000Y-82440000D01*
X141460000Y-79900000D02*
X141460000Y-82440000D01*
X138880000Y-96970000D02*
X138880000Y-98170000D01*
X149120000Y-94570000D02*
X149120000Y-95770000D01*
X138880000Y-94570000D02*
X138880000Y-95770000D01*
X138880000Y-82440000D02*
X138880000Y-91930000D01*
X149120000Y-82440000D02*
X138880000Y-82440000D01*
X146721000Y-98330000D02*
X145520000Y-98330000D01*
X144000000Y-79900000D02*
X144000000Y-82440000D01*
X149120000Y-91930000D02*
X138880000Y-91930000D01*
X139520000Y-98330000D02*
X138880000Y-98330000D01*
X138880000Y-92170000D02*
X138880000Y-93370000D01*
X149120000Y-96970000D02*
X149120000Y-98170000D01*
X144320000Y-98330000D02*
X143120000Y-98330000D01*
X149120000Y-82440000D02*
X149120000Y-91930000D01*
X141920000Y-98330000D02*
X140720000Y-98330000D01*
%TO.C,JP3*%
X137969000Y-106828260D02*
X137969000Y-106228260D01*
X133869000Y-106228260D02*
X133869000Y-106828260D01*
X134519000Y-107528260D02*
X137319000Y-107528260D01*
X137319000Y-105528260D02*
X134519000Y-105528260D01*
X137969000Y-106228260D02*
G75*
G03*
X137269000Y-105528260I-699999J1D01*
G01*
X133869000Y-106828260D02*
G75*
G03*
X134569000Y-107528260I699999J-1D01*
G01*
X134569000Y-105528260D02*
G75*
G03*
X133869000Y-106228260I-1J-699999D01*
G01*
X137269000Y-107528260D02*
G75*
G03*
X137969000Y-106828260I1J699999D01*
G01*
%TO.C,QA6*%
X50880000Y-96970000D02*
X50880000Y-98170000D01*
X61120000Y-94570000D02*
X61120000Y-95770000D01*
X61120000Y-98330000D02*
X59920000Y-98330000D01*
X50880000Y-92170000D02*
X50880000Y-93370000D01*
X61120000Y-91930000D02*
X50880000Y-91930000D01*
X58540000Y-79900000D02*
X58540000Y-82440000D01*
X61120000Y-92170000D02*
X61120000Y-93370000D01*
X50880000Y-94570000D02*
X50880000Y-95770000D01*
X58721000Y-98330000D02*
X57520000Y-98330000D01*
X56320000Y-98330000D02*
X55120000Y-98330000D01*
X61120000Y-96970000D02*
X61120000Y-98170000D01*
X53920000Y-98330000D02*
X52720000Y-98330000D01*
X51520000Y-98330000D02*
X50880000Y-98330000D01*
X61120000Y-82440000D02*
X50880000Y-82440000D01*
X53460000Y-79900000D02*
X53460000Y-82440000D01*
X56000000Y-79900000D02*
X56000000Y-82440000D01*
X61120000Y-82440000D02*
X61120000Y-91930000D01*
X50880000Y-82440000D02*
X50880000Y-91930000D01*
%TO.C,QB6*%
X94620000Y-98330000D02*
X93420000Y-98330000D01*
X94620000Y-82440000D02*
X84380000Y-82440000D01*
X87420000Y-98330000D02*
X86220000Y-98330000D01*
X84380000Y-96970000D02*
X84380000Y-98170000D01*
X89500000Y-79900000D02*
X89500000Y-82440000D01*
X85020000Y-98330000D02*
X84380000Y-98330000D01*
X84380000Y-94570000D02*
X84380000Y-95770000D01*
X86960000Y-79900000D02*
X86960000Y-82440000D01*
X94620000Y-91930000D02*
X84380000Y-91930000D01*
X94620000Y-92170000D02*
X94620000Y-93370000D01*
X94620000Y-94570000D02*
X94620000Y-95770000D01*
X94620000Y-96970000D02*
X94620000Y-98170000D01*
X92040000Y-79900000D02*
X92040000Y-82440000D01*
X94620000Y-82440000D02*
X94620000Y-91930000D01*
X84380000Y-92170000D02*
X84380000Y-93370000D01*
X89820000Y-98330000D02*
X88620000Y-98330000D01*
X92221000Y-98330000D02*
X91020000Y-98330000D01*
X84380000Y-82440000D02*
X84380000Y-91930000D01*
%TO.C,QB2*%
X115620000Y-82440000D02*
X105380000Y-82440000D01*
X115620000Y-96970000D02*
X115620000Y-98170000D01*
X105380000Y-94570000D02*
X105380000Y-95770000D01*
X107960000Y-79900000D02*
X107960000Y-82440000D01*
X106020000Y-98330000D02*
X105380000Y-98330000D01*
X113221000Y-98330000D02*
X112020000Y-98330000D01*
X105380000Y-96970000D02*
X105380000Y-98170000D01*
X105380000Y-92170000D02*
X105380000Y-93370000D01*
X110500000Y-79900000D02*
X110500000Y-82440000D01*
X115620000Y-91930000D02*
X105380000Y-91930000D01*
X113040000Y-79900000D02*
X113040000Y-82440000D01*
X108420000Y-98330000D02*
X107220000Y-98330000D01*
X115620000Y-92170000D02*
X115620000Y-93370000D01*
X105380000Y-82440000D02*
X105380000Y-91930000D01*
X115620000Y-94570000D02*
X115620000Y-95770000D01*
X115620000Y-82440000D02*
X115620000Y-91930000D01*
X115620000Y-98330000D02*
X114420000Y-98330000D01*
X110820000Y-98330000D02*
X109620000Y-98330000D01*
%TO.C,QA5*%
X74460000Y-68850000D02*
X74460000Y-66310000D01*
X79080000Y-50420000D02*
X80280000Y-50420000D01*
X79540000Y-68850000D02*
X79540000Y-66310000D01*
X71880000Y-56580000D02*
X71880000Y-55380000D01*
X82120000Y-66310000D02*
X82120000Y-56820000D01*
X71880000Y-54180000D02*
X71880000Y-52980000D01*
X76680000Y-50420000D02*
X77880000Y-50420000D01*
X82120000Y-51780000D02*
X82120000Y-50580000D01*
X71880000Y-56820000D02*
X82120000Y-56820000D01*
X77000000Y-68850000D02*
X77000000Y-66310000D01*
X81480000Y-50420000D02*
X82120000Y-50420000D01*
X71880000Y-66310000D02*
X71880000Y-56820000D01*
X71880000Y-66310000D02*
X82120000Y-66310000D01*
X74279000Y-50420000D02*
X75480000Y-50420000D01*
X71880000Y-51780000D02*
X71880000Y-50580000D01*
X82120000Y-56580000D02*
X82120000Y-55380000D01*
X82120000Y-54180000D02*
X82120000Y-52980000D01*
X71880000Y-50420000D02*
X73080000Y-50420000D01*
%TO.C,JP2*%
X139119000Y-108828260D02*
X138519000Y-108828260D01*
X139819000Y-112278260D02*
X139819000Y-109478260D01*
X137819000Y-109478260D02*
X137819000Y-112278260D01*
X138519000Y-112928260D02*
X139119000Y-112928260D01*
X138519000Y-108828260D02*
G75*
G03*
X137819000Y-109528260I-1J-699999D01*
G01*
X137819000Y-112228260D02*
G75*
G03*
X138519000Y-112928260I699999J-1D01*
G01*
X139819000Y-109528260D02*
G75*
G03*
X139119000Y-108828260I-699999J1D01*
G01*
X139119000Y-112928260D02*
G75*
G03*
X139819000Y-112228260I1J699999D01*
G01*
%TO.C,QA1*%
X61120000Y-54180000D02*
X61120000Y-52980000D01*
X53460000Y-68850000D02*
X53460000Y-66310000D01*
X50880000Y-51780000D02*
X50880000Y-50580000D01*
X50880000Y-56820000D02*
X61120000Y-56820000D01*
X58080000Y-50420000D02*
X59280000Y-50420000D01*
X56000000Y-68850000D02*
X56000000Y-66310000D01*
X61120000Y-56580000D02*
X61120000Y-55380000D01*
X60480000Y-50420000D02*
X61120000Y-50420000D01*
X55680000Y-50420000D02*
X56880000Y-50420000D01*
X61120000Y-51780000D02*
X61120000Y-50580000D01*
X50880000Y-66310000D02*
X61120000Y-66310000D01*
X50880000Y-66310000D02*
X50880000Y-56820000D01*
X58540000Y-68850000D02*
X58540000Y-66310000D01*
X61120000Y-66310000D02*
X61120000Y-56820000D01*
X50880000Y-56580000D02*
X50880000Y-55380000D01*
X50880000Y-50420000D02*
X52080000Y-50420000D01*
X50880000Y-54180000D02*
X50880000Y-52980000D01*
X53279000Y-50420000D02*
X54480000Y-50420000D01*
%TO.C,QB3*%
X94880000Y-66310000D02*
X105120000Y-66310000D01*
X94880000Y-66310000D02*
X94880000Y-56820000D01*
X100000000Y-68850000D02*
X100000000Y-66310000D01*
X105120000Y-54180000D02*
X105120000Y-52980000D01*
X99680000Y-50420000D02*
X100880000Y-50420000D01*
X97279000Y-50420000D02*
X98480000Y-50420000D01*
X102540000Y-68850000D02*
X102540000Y-66310000D01*
X102080000Y-50420000D02*
X103280000Y-50420000D01*
X94880000Y-51780000D02*
X94880000Y-50580000D01*
X94880000Y-56820000D02*
X105120000Y-56820000D01*
X94880000Y-54180000D02*
X94880000Y-52980000D01*
X94880000Y-50420000D02*
X96080000Y-50420000D01*
X105120000Y-66310000D02*
X105120000Y-56820000D01*
X97460000Y-68850000D02*
X97460000Y-66310000D01*
X94880000Y-56580000D02*
X94880000Y-55380000D01*
X105120000Y-51780000D02*
X105120000Y-50580000D01*
X104480000Y-50420000D02*
X105120000Y-50420000D01*
X105120000Y-56580000D02*
X105120000Y-55380000D01*
%TO.C,QC3*%
X138620000Y-54180000D02*
X138620000Y-52980000D01*
X137980000Y-50420000D02*
X138620000Y-50420000D01*
X138620000Y-51780000D02*
X138620000Y-50580000D01*
X130779000Y-50420000D02*
X131980000Y-50420000D01*
X128380000Y-54180000D02*
X128380000Y-52980000D01*
X133500000Y-68850000D02*
X133500000Y-66310000D01*
X128380000Y-50420000D02*
X129580000Y-50420000D01*
X128380000Y-51780000D02*
X128380000Y-50580000D01*
X138620000Y-56580000D02*
X138620000Y-55380000D01*
X133180000Y-50420000D02*
X134380000Y-50420000D01*
X128380000Y-66310000D02*
X138620000Y-66310000D01*
X130960000Y-68850000D02*
X130960000Y-66310000D01*
X138620000Y-66310000D02*
X138620000Y-56820000D01*
X128380000Y-56580000D02*
X128380000Y-55380000D01*
X136040000Y-68850000D02*
X136040000Y-66310000D01*
X135580000Y-50420000D02*
X136780000Y-50420000D01*
X128380000Y-66310000D02*
X128380000Y-56820000D01*
X128380000Y-56820000D02*
X138620000Y-56820000D01*
%TO.C,QA4*%
X62020000Y-98330000D02*
X61380000Y-98330000D01*
X71620000Y-98330000D02*
X70420000Y-98330000D01*
X66500000Y-79900000D02*
X66500000Y-82440000D01*
X61380000Y-92170000D02*
X61380000Y-93370000D01*
X61380000Y-96970000D02*
X61380000Y-98170000D01*
X71620000Y-96970000D02*
X71620000Y-98170000D01*
X69221000Y-98330000D02*
X68020000Y-98330000D01*
X69040000Y-79900000D02*
X69040000Y-82440000D01*
X61380000Y-94570000D02*
X61380000Y-95770000D01*
X71620000Y-82440000D02*
X61380000Y-82440000D01*
X66820000Y-98330000D02*
X65620000Y-98330000D01*
X71620000Y-91930000D02*
X61380000Y-91930000D01*
X63960000Y-79900000D02*
X63960000Y-82440000D01*
X71620000Y-92170000D02*
X71620000Y-93370000D01*
X71620000Y-82440000D02*
X71620000Y-91930000D01*
X61380000Y-82440000D02*
X61380000Y-91930000D01*
X71620000Y-94570000D02*
X71620000Y-95770000D01*
X64420000Y-98330000D02*
X63220000Y-98330000D01*
%TO.C,QC2*%
X138620000Y-92170000D02*
X138620000Y-93370000D01*
X138620000Y-91930000D02*
X128380000Y-91930000D01*
X130960000Y-79900000D02*
X130960000Y-82440000D01*
X138620000Y-82440000D02*
X138620000Y-91930000D01*
X138620000Y-82440000D02*
X128380000Y-82440000D01*
X138620000Y-96970000D02*
X138620000Y-98170000D01*
X136221000Y-98330000D02*
X135020000Y-98330000D01*
X128380000Y-82440000D02*
X128380000Y-91930000D01*
X131420000Y-98330000D02*
X130220000Y-98330000D01*
X138620000Y-98330000D02*
X137420000Y-98330000D01*
X128380000Y-92170000D02*
X128380000Y-93370000D01*
X128380000Y-94570000D02*
X128380000Y-95770000D01*
X136040000Y-79900000D02*
X136040000Y-82440000D01*
X133820000Y-98330000D02*
X132620000Y-98330000D01*
X138620000Y-94570000D02*
X138620000Y-95770000D01*
X129020000Y-98330000D02*
X128380000Y-98330000D01*
X128380000Y-96970000D02*
X128380000Y-98170000D01*
X133500000Y-79900000D02*
X133500000Y-82440000D01*
%TO.C,QC1*%
X117880000Y-56820000D02*
X128120000Y-56820000D01*
X122680000Y-50420000D02*
X123880000Y-50420000D01*
X117880000Y-54180000D02*
X117880000Y-52980000D01*
X123000000Y-68850000D02*
X123000000Y-66310000D01*
X127480000Y-50420000D02*
X128120000Y-50420000D01*
X117880000Y-56580000D02*
X117880000Y-55380000D01*
X125540000Y-68850000D02*
X125540000Y-66310000D01*
X120460000Y-68850000D02*
X120460000Y-66310000D01*
X117880000Y-66310000D02*
X128120000Y-66310000D01*
X125080000Y-50420000D02*
X126280000Y-50420000D01*
X128120000Y-66310000D02*
X128120000Y-56820000D01*
X117880000Y-50420000D02*
X119080000Y-50420000D01*
X117880000Y-51780000D02*
X117880000Y-50580000D01*
X128120000Y-56580000D02*
X128120000Y-55380000D01*
X117880000Y-66310000D02*
X117880000Y-56820000D01*
X128120000Y-51780000D02*
X128120000Y-50580000D01*
X128120000Y-54180000D02*
X128120000Y-52980000D01*
X120279000Y-50420000D02*
X121480000Y-50420000D01*
%TO.C,QA2*%
X74460000Y-79900000D02*
X74460000Y-82440000D01*
X82120000Y-98330000D02*
X80920000Y-98330000D01*
X82120000Y-92170000D02*
X82120000Y-93370000D01*
X82120000Y-91930000D02*
X71880000Y-91930000D01*
X74920000Y-98330000D02*
X73720000Y-98330000D01*
X82120000Y-82440000D02*
X71880000Y-82440000D01*
X71880000Y-96970000D02*
X71880000Y-98170000D01*
X77000000Y-79900000D02*
X77000000Y-82440000D01*
X71880000Y-94570000D02*
X71880000Y-95770000D01*
X82120000Y-94570000D02*
X82120000Y-95770000D01*
X79540000Y-79900000D02*
X79540000Y-82440000D01*
X77320000Y-98330000D02*
X76120000Y-98330000D01*
X82120000Y-96970000D02*
X82120000Y-98170000D01*
X72520000Y-98330000D02*
X71880000Y-98330000D01*
X71880000Y-92170000D02*
X71880000Y-93370000D01*
X82120000Y-82440000D02*
X82120000Y-91930000D01*
X71880000Y-82440000D02*
X71880000Y-91930000D01*
X79721000Y-98330000D02*
X78520000Y-98330000D01*
%TO.C,QB1*%
X105380000Y-56580000D02*
X105380000Y-55380000D01*
X107779000Y-50420000D02*
X108980000Y-50420000D01*
X115620000Y-56580000D02*
X115620000Y-55380000D01*
X114980000Y-50420000D02*
X115620000Y-50420000D01*
X110180000Y-50420000D02*
X111380000Y-50420000D01*
X115620000Y-51780000D02*
X115620000Y-50580000D01*
X105380000Y-50420000D02*
X106580000Y-50420000D01*
X105380000Y-56820000D02*
X115620000Y-56820000D01*
X112580000Y-50420000D02*
X113780000Y-50420000D01*
X107960000Y-68850000D02*
X107960000Y-66310000D01*
X105380000Y-66310000D02*
X115620000Y-66310000D01*
X105380000Y-51780000D02*
X105380000Y-50580000D01*
X115620000Y-66310000D02*
X115620000Y-56820000D01*
X115620000Y-54180000D02*
X115620000Y-52980000D01*
X105380000Y-66310000D02*
X105380000Y-56820000D01*
X113040000Y-68850000D02*
X113040000Y-66310000D01*
X105380000Y-54180000D02*
X105380000Y-52980000D01*
X110500000Y-68850000D02*
X110500000Y-66310000D01*
%TD*%
M02*
