%TF.GenerationSoftware,KiCad,Pcbnew,(6.0.7-1)-1*%
%TF.CreationDate,2023-01-28T14:38:12-05:00*%
%TF.ProjectId,CCC_ESC,4343435f-4553-4432-9e6b-696361645f70,rev?*%
%TF.SameCoordinates,Original*%
%TF.FileFunction,Soldermask,Top*%
%TF.FilePolarity,Negative*%
%FSLAX46Y46*%
G04 Gerber Fmt 4.6, Leading zero omitted, Abs format (unit mm)*
G04 Created by KiCad (PCBNEW (6.0.7-1)-1) date 2023-01-28 14:38:12*
%MOMM*%
%LPD*%
G01*
G04 APERTURE LIST*
G04 Aperture macros list*
%AMRoundRect*
0 Rectangle with rounded corners*
0 $1 Rounding radius*
0 $2 $3 $4 $5 $6 $7 $8 $9 X,Y pos of 4 corners*
0 Add a 4 corners polygon primitive as box body*
4,1,4,$2,$3,$4,$5,$6,$7,$8,$9,$2,$3,0*
0 Add four circle primitives for the rounded corners*
1,1,$1+$1,$2,$3*
1,1,$1+$1,$4,$5*
1,1,$1+$1,$6,$7*
1,1,$1+$1,$8,$9*
0 Add four rect primitives between the rounded corners*
20,1,$1+$1,$2,$3,$4,$5,0*
20,1,$1+$1,$4,$5,$6,$7,0*
20,1,$1+$1,$6,$7,$8,$9,0*
20,1,$1+$1,$8,$9,$2,$3,0*%
G04 Aperture macros list end*
%ADD10C,0.200000*%
%ADD11C,0.150000*%
%ADD12RoundRect,0.215000X0.225000X0.250000X-0.225000X0.250000X-0.225000X-0.250000X0.225000X-0.250000X0*%
%ADD13RoundRect,0.190000X0.275000X-0.200000X0.275000X0.200000X-0.275000X0.200000X-0.275000X-0.200000X0*%
%ADD14RoundRect,0.215000X-0.250000X0.225000X-0.250000X-0.225000X0.250000X-0.225000X0.250000X0.225000X0*%
%ADD15RoundRect,0.118750X1.546250X-1.158750X1.546250X1.158750X-1.546250X1.158750X-1.546250X-1.158750X0*%
%ADD16R,2.480000X1.780000*%
%ADD17RoundRect,0.240000X0.262500X0.450000X-0.262500X0.450000X-0.262500X-0.450000X0.262500X-0.450000X0*%
%ADD18RoundRect,0.290000X1.200000X-2.200000X1.200000X2.200000X-1.200000X2.200000X-1.200000X-2.200000X0*%
%ADD19RoundRect,0.240000X0.450000X-0.262500X0.450000X0.262500X-0.450000X0.262500X-0.450000X-0.262500X0*%
%ADD20R,0.430000X0.580000*%
%ADD21RoundRect,0.240000X1.100000X-0.325000X1.100000X0.325000X-1.100000X0.325000X-1.100000X-0.325000X0*%
%ADD22RoundRect,0.290000X2.200000X1.200000X-2.200000X1.200000X-2.200000X-1.200000X2.200000X-1.200000X0*%
%ADD23R,0.880000X0.380000*%
%ADD24RoundRect,0.190000X0.200000X0.275000X-0.200000X0.275000X-0.200000X-0.275000X0.200000X-0.275000X0*%
%ADD25RoundRect,0.240000X0.325000X1.100000X-0.325000X1.100000X-0.325000X-1.100000X0.325000X-1.100000X0*%
%ADD26RoundRect,0.118750X0.759717X-1.776632X1.918467X0.230382X-0.759717X1.776632X-1.918467X-0.230382X0*%
%ADD27C,1.980000*%
%ADD28RoundRect,0.190000X-0.200000X-0.275000X0.200000X-0.275000X0.200000X0.275000X-0.200000X0.275000X0*%
%ADD29C,3.980000*%
%ADD30C,2.480000*%
%ADD31RoundRect,0.240000X-1.100000X0.325000X-1.100000X-0.325000X1.100000X-0.325000X1.100000X0.325000X0*%
%ADD32C,1.480000*%
%ADD33RoundRect,0.190000X-0.275000X0.200000X-0.275000X-0.200000X0.275000X-0.200000X0.275000X0.200000X0*%
%ADD34R,1.680000X1.680000*%
%ADD35O,1.680000X1.680000*%
%ADD36RoundRect,0.240000X0.350000X0.625000X-0.350000X0.625000X-0.350000X-0.625000X0.350000X-0.625000X0*%
%ADD37O,1.180000X1.730000*%
%ADD38RoundRect,0.240000X-0.325000X-1.100000X0.325000X-1.100000X0.325000X1.100000X-0.325000X1.100000X0*%
%ADD39C,2.980000*%
%ADD40RoundRect,0.215000X-0.225000X-0.250000X0.225000X-0.250000X0.225000X0.250000X-0.225000X0.250000X0*%
%ADD41RoundRect,0.215000X0.250000X-0.225000X0.250000X0.225000X-0.250000X0.225000X-0.250000X-0.225000X0*%
%ADD42RoundRect,0.118750X1.918467X-0.230382X0.759717X1.776632X-1.918467X0.230382X-0.759717X-1.776632X0*%
%ADD43RoundRect,0.240000X-0.250000X-0.475000X0.250000X-0.475000X0.250000X0.475000X-0.250000X0.475000X0*%
%ADD44R,0.380000X0.880000*%
%ADD45C,1.580000*%
%ADD46RoundRect,0.240000X0.250000X0.475000X-0.250000X0.475000X-0.250000X-0.475000X0.250000X-0.475000X0*%
%ADD47RoundRect,0.208750X0.218750X0.256250X-0.218750X0.256250X-0.218750X-0.256250X0.218750X-0.256250X0*%
%ADD48R,2.480000X2.280000*%
%ADD49RoundRect,0.140000X0.825000X0.150000X-0.825000X0.150000X-0.825000X-0.150000X0.825000X-0.150000X0*%
%ADD50C,1.380000*%
%ADD51O,1.380000X1.380000*%
%ADD52C,1.504000*%
%ADD53RoundRect,0.140000X0.150000X-0.825000X0.150000X0.825000X-0.150000X0.825000X-0.150000X-0.825000X0*%
%ADD54RoundRect,0.125000X0.135000X0.185000X-0.135000X0.185000X-0.135000X-0.185000X0.135000X-0.185000X0*%
%ADD55O,3.480000X3.480000*%
%ADD56O,1.885000X1.980000*%
G04 APERTURE END LIST*
D10*
G36*
X102600000Y-56300000D02*
G01*
X102600000Y-58600000D01*
X104600000Y-61500000D01*
X93800000Y-61500000D01*
X95600000Y-58600000D01*
X95600000Y-56300000D01*
X96300000Y-55400000D01*
X101800000Y-55400000D01*
X102600000Y-56300000D01*
G37*
X102600000Y-56300000D02*
X102600000Y-58600000D01*
X104600000Y-61500000D01*
X93800000Y-61500000D01*
X95600000Y-58600000D01*
X95600000Y-56300000D01*
X96300000Y-55400000D01*
X101800000Y-55400000D01*
X102600000Y-56300000D01*
D11*
X122500000Y-72000000D02*
X146000000Y-72000000D01*
X146000000Y-72000000D02*
X146000000Y-77000000D01*
X146000000Y-77000000D02*
X122500000Y-77000000D01*
X122500000Y-77000000D02*
X122500000Y-72000000D01*
G36*
X122500000Y-72000000D02*
G01*
X146000000Y-72000000D01*
X146000000Y-77000000D01*
X122500000Y-77000000D01*
X122500000Y-72000000D01*
G37*
X52000000Y-61500000D02*
X147000000Y-61500000D01*
X147000000Y-61500000D02*
X147000000Y-67500000D01*
X147000000Y-67500000D02*
X52000000Y-67500000D01*
X52000000Y-67500000D02*
X52000000Y-61500000D01*
G36*
X52000000Y-61500000D02*
G01*
X147000000Y-61500000D01*
X147000000Y-67500000D01*
X52000000Y-67500000D01*
X52000000Y-61500000D01*
G37*
X55130000Y-87100000D02*
X145540000Y-87100000D01*
X145540000Y-87100000D02*
X145540000Y-93570000D01*
X145540000Y-93570000D02*
X55130000Y-93570000D01*
X55130000Y-93570000D02*
X55130000Y-87100000D01*
G36*
X55130000Y-87100000D02*
G01*
X145540000Y-87100000D01*
X145540000Y-93570000D01*
X55130000Y-93570000D01*
X55130000Y-87100000D01*
G37*
X56500000Y-72000000D02*
X81500000Y-72000000D01*
X81500000Y-72000000D02*
X81500000Y-77000000D01*
X81500000Y-77000000D02*
X56500000Y-77000000D01*
X56500000Y-77000000D02*
X56500000Y-72000000D01*
G36*
X56500000Y-72000000D02*
G01*
X81500000Y-72000000D01*
X81500000Y-77000000D01*
X56500000Y-77000000D01*
X56500000Y-72000000D01*
G37*
G36*
X59800000Y-87150000D02*
G01*
X55500000Y-87050000D01*
X58650000Y-85250000D01*
X59800000Y-87150000D01*
G37*
X59800000Y-87150000D02*
X55500000Y-87050000D01*
X58650000Y-85250000D01*
X59800000Y-87150000D01*
G36*
X139600000Y-87100000D02*
G01*
X135200000Y-87100000D01*
X136300000Y-85250000D01*
X139600000Y-87100000D01*
G37*
X139600000Y-87100000D02*
X135200000Y-87100000D01*
X136300000Y-85250000D01*
X139600000Y-87100000D01*
X89500000Y-72000000D02*
X114000000Y-72000000D01*
X114000000Y-72000000D02*
X114000000Y-77000000D01*
X114000000Y-77000000D02*
X89500000Y-77000000D01*
X89500000Y-77000000D02*
X89500000Y-72000000D01*
G36*
X89500000Y-72000000D02*
G01*
X114000000Y-72000000D01*
X114000000Y-77000000D01*
X89500000Y-77000000D01*
X89500000Y-72000000D01*
G37*
D10*
G36*
X97800000Y-96800000D02*
G01*
X96900000Y-97400000D01*
X96800000Y-98500000D01*
X92000000Y-98500000D01*
X91300000Y-93600000D01*
X98300000Y-93600000D01*
X97800000Y-96800000D01*
G37*
X97800000Y-96800000D02*
X96900000Y-97400000D01*
X96800000Y-98500000D01*
X92000000Y-98500000D01*
X91300000Y-93600000D01*
X98300000Y-93600000D01*
X97800000Y-96800000D01*
D12*
%TO.C,C7*%
X103775000Y-101028260D03*
X102225000Y-101028260D03*
%TD*%
D13*
%TO.C,R33*%
X128969000Y-102653260D03*
X128969000Y-101003260D03*
%TD*%
D14*
%TO.C,C27*%
X88925000Y-106925000D03*
X88925000Y-108475000D03*
%TD*%
D15*
%TO.C,SHA2*%
X74380000Y-85787500D03*
X74380000Y-81212500D03*
%TD*%
D16*
%TO.C,D3*%
X91250000Y-104350000D03*
X95250000Y-104350000D03*
%TD*%
D17*
%TO.C,R7*%
X100019000Y-108878260D03*
X98194000Y-108878260D03*
%TD*%
D18*
%TO.C,CX1*%
X51995000Y-64495000D03*
X51995000Y-56995000D03*
%TD*%
D19*
%TO.C,R3*%
X149000000Y-89112500D03*
X149000000Y-87287500D03*
%TD*%
D20*
%TO.C,D4*%
X109469000Y-110678260D03*
X109469000Y-108578260D03*
%TD*%
D21*
%TO.C,CX24*%
X93700000Y-57775000D03*
X93700000Y-54825000D03*
%TD*%
D22*
%TO.C,CX4*%
X95500000Y-49100000D03*
X88000000Y-49100000D03*
%TD*%
D23*
%TO.C,RN4*%
X146219000Y-112128260D03*
X146219000Y-111328260D03*
X146219000Y-110528260D03*
X146219000Y-109728260D03*
X144519000Y-109728260D03*
X144519000Y-110528260D03*
X144519000Y-111328260D03*
X144519000Y-112128260D03*
%TD*%
D24*
%TO.C,R36*%
X108894000Y-112028260D03*
X107244000Y-112028260D03*
%TD*%
D14*
%TO.C,C23*%
X127369000Y-101053260D03*
X127369000Y-102603260D03*
%TD*%
D25*
%TO.C,CX19*%
X73075000Y-52400000D03*
X70125000Y-52400000D03*
%TD*%
D26*
%TO.C,SHC1*%
X138538929Y-85221033D03*
X140826429Y-81258967D03*
%TD*%
D18*
%TO.C,CX8*%
X148095000Y-64595000D03*
X148095000Y-57095000D03*
%TD*%
D27*
%TO.C,TpGND3*%
X79000000Y-85000000D03*
%TD*%
D14*
%TO.C,C19*%
X148650000Y-101225000D03*
X148650000Y-102775000D03*
%TD*%
D28*
%TO.C,R20*%
X122644000Y-112028260D03*
X124294000Y-112028260D03*
%TD*%
%TO.C,R23*%
X122550000Y-105075000D03*
X124200000Y-105075000D03*
%TD*%
D29*
%TO.C,PH9*%
X144400000Y-74500000D03*
%TD*%
D30*
%TO.C,U6*%
X52654000Y-111813260D03*
X52654000Y-106733260D03*
X72974000Y-99113260D03*
X72974000Y-119433260D03*
%TD*%
D15*
%TO.C,SHB1*%
X107780000Y-85787500D03*
X107780000Y-81212500D03*
%TD*%
D21*
%TO.C,CX26*%
X104500000Y-57775000D03*
X104500000Y-54825000D03*
%TD*%
D24*
%TO.C,RG1*%
X82000000Y-101800000D03*
X80350000Y-101800000D03*
%TD*%
D31*
%TO.C,CX13*%
X83500000Y-73075000D03*
X83500000Y-76025000D03*
%TD*%
D29*
%TO.C,PH4*%
X90800000Y-74500000D03*
%TD*%
D15*
%TO.C,SHB2*%
X97480000Y-85787500D03*
X97480000Y-81212500D03*
%TD*%
D17*
%TO.C,RS3*%
X145842500Y-81000000D03*
X144017500Y-81000000D03*
%TD*%
D13*
%TO.C,R17*%
X105819000Y-107103260D03*
X105819000Y-105453260D03*
%TD*%
D32*
%TO.C,TpGS1*%
X72050000Y-70000000D03*
%TD*%
D33*
%TO.C,R35*%
X110570000Y-105445000D03*
X110570000Y-107095000D03*
%TD*%
D34*
%TO.C,J1*%
X95900000Y-119500000D03*
D35*
X93360000Y-119500000D03*
X90820000Y-119500000D03*
%TD*%
D12*
%TO.C,C31*%
X100081500Y-105278260D03*
X98531500Y-105278260D03*
%TD*%
D36*
%TO.C,J4*%
X113219000Y-119628260D03*
D37*
X111219000Y-119628260D03*
X109219000Y-119628260D03*
X107219000Y-119628260D03*
X105219000Y-119628260D03*
X103219000Y-119628260D03*
%TD*%
D38*
%TO.C,CX21*%
X81525000Y-52400000D03*
X84475000Y-52400000D03*
%TD*%
D13*
%TO.C,R27*%
X107319000Y-107103260D03*
X107319000Y-105453260D03*
%TD*%
%TO.C,R32*%
X112080000Y-107095000D03*
X112080000Y-105445000D03*
%TD*%
D15*
%TO.C,SHC3*%
X130930000Y-85800000D03*
X130930000Y-81225000D03*
%TD*%
D22*
%TO.C,CX5*%
X112100000Y-49100000D03*
X104600000Y-49100000D03*
%TD*%
D28*
%TO.C,R22*%
X122544000Y-106628260D03*
X124194000Y-106628260D03*
%TD*%
D22*
%TO.C,CX7*%
X145300000Y-49100000D03*
X137800000Y-49100000D03*
%TD*%
D13*
%TO.C,R40*%
X147100000Y-106925000D03*
X147100000Y-105275000D03*
%TD*%
D39*
%TO.C,TpGND4*%
X72569000Y-106778260D03*
%TD*%
D40*
%TO.C,C29*%
X101531500Y-112078260D03*
X103081500Y-112078260D03*
%TD*%
D19*
%TO.C,R14*%
X147100000Y-89112500D03*
X147100000Y-87287500D03*
%TD*%
D23*
%TO.C,RN2*%
X118169000Y-118978260D03*
X118169000Y-118178260D03*
X118169000Y-117378260D03*
X118169000Y-116578260D03*
X116469000Y-116578260D03*
X116469000Y-117378260D03*
X116469000Y-118178260D03*
X116469000Y-118978260D03*
%TD*%
D41*
%TO.C,C6*%
X147869000Y-112153260D03*
X147869000Y-110603260D03*
%TD*%
D16*
%TO.C,D2*%
X84200000Y-104350000D03*
X88200000Y-104350000D03*
%TD*%
D24*
%TO.C,R29*%
X111894000Y-112028260D03*
X110244000Y-112028260D03*
%TD*%
D13*
%TO.C,R34*%
X125769000Y-102653260D03*
X125769000Y-101003260D03*
%TD*%
%TO.C,R37*%
X144150000Y-102825000D03*
X144150000Y-101175000D03*
%TD*%
D42*
%TO.C,SHA1*%
X56426429Y-85191033D03*
X54138929Y-81228967D03*
%TD*%
D14*
%TO.C,C18*%
X113719000Y-101203260D03*
X113719000Y-102753260D03*
%TD*%
D43*
%TO.C,CS3*%
X143990000Y-82970000D03*
X145890000Y-82970000D03*
%TD*%
D24*
%TO.C,R48*%
X62325000Y-78500000D03*
X60675000Y-78500000D03*
%TD*%
D41*
%TO.C,C10*%
X85200000Y-115925000D03*
X85200000Y-114375000D03*
%TD*%
D44*
%TO.C,RN3*%
X135769000Y-110478260D03*
X134969000Y-110478260D03*
X134169000Y-110478260D03*
X133369000Y-110478260D03*
X133369000Y-112178260D03*
X134169000Y-112178260D03*
X134969000Y-112178260D03*
X135769000Y-112178260D03*
%TD*%
D24*
%TO.C,R50*%
X105825000Y-78500000D03*
X104175000Y-78500000D03*
%TD*%
D45*
%TO.C,TpGS6*%
X128000000Y-78750000D03*
%TD*%
D13*
%TO.C,R16*%
X103519000Y-104103260D03*
X103519000Y-102453260D03*
%TD*%
D29*
%TO.C,PH5*%
X112250000Y-74450000D03*
%TD*%
D13*
%TO.C,R25*%
X106519000Y-104103260D03*
X106519000Y-102453260D03*
%TD*%
D20*
%TO.C,D5*%
X128069000Y-105978260D03*
X128069000Y-103878260D03*
%TD*%
D13*
%TO.C,R24*%
X105019000Y-104103260D03*
X105019000Y-102453260D03*
%TD*%
D17*
%TO.C,R5*%
X100019000Y-110778260D03*
X98194000Y-110778260D03*
%TD*%
D21*
%TO.C,CX28*%
X117300000Y-57775000D03*
X117300000Y-54825000D03*
%TD*%
D13*
%TO.C,R28*%
X131669000Y-109115760D03*
X131669000Y-107465760D03*
%TD*%
D23*
%TO.C,RN1*%
X140669000Y-109728260D03*
X140669000Y-110528260D03*
X140669000Y-111328260D03*
X140669000Y-112128260D03*
X142369000Y-112128260D03*
X142369000Y-111328260D03*
X142369000Y-110528260D03*
X142369000Y-109728260D03*
%TD*%
D13*
%TO.C,R31*%
X121069000Y-106653260D03*
X121069000Y-105003260D03*
%TD*%
D41*
%TO.C,C15*%
X140250000Y-105025000D03*
X140250000Y-103475000D03*
%TD*%
D15*
%TO.C,SHA3*%
X63980000Y-85787500D03*
X63980000Y-81212500D03*
%TD*%
D31*
%TO.C,CX14*%
X119600000Y-73025000D03*
X119600000Y-75975000D03*
%TD*%
D46*
%TO.C,CS1*%
X82250000Y-81000000D03*
X80350000Y-81000000D03*
%TD*%
D27*
%TO.C,TpGND2*%
X83250000Y-95800000D03*
%TD*%
D28*
%TO.C,R19*%
X122644000Y-110428260D03*
X124294000Y-110428260D03*
%TD*%
D21*
%TO.C,CX30*%
X127700000Y-57775000D03*
X127700000Y-54825000D03*
%TD*%
D24*
%TO.C,R6*%
X103131500Y-110578260D03*
X101481500Y-110578260D03*
%TD*%
D41*
%TO.C,C14*%
X138700000Y-105025000D03*
X138700000Y-103475000D03*
%TD*%
D33*
%TO.C,RG6*%
X95950000Y-111300000D03*
X95950000Y-112950000D03*
%TD*%
D40*
%TO.C,C20*%
X121094000Y-108528260D03*
X122644000Y-108528260D03*
%TD*%
D29*
%TO.C,PH8*%
X123800000Y-74500000D03*
%TD*%
D24*
%TO.C,R52*%
X139325000Y-78500000D03*
X137675000Y-78500000D03*
%TD*%
D36*
%TO.C,J2*%
X131419000Y-119628260D03*
D37*
X129419000Y-119628260D03*
X127419000Y-119628260D03*
X125419000Y-119628260D03*
X123419000Y-119628260D03*
X121419000Y-119628260D03*
%TD*%
D12*
%TO.C,C17*%
X138975000Y-112200000D03*
X137425000Y-112200000D03*
%TD*%
D14*
%TO.C,C26*%
X81919000Y-106925000D03*
X81919000Y-108475000D03*
%TD*%
D40*
%TO.C,C30*%
X101531500Y-107578260D03*
X103081500Y-107578260D03*
%TD*%
D27*
%TO.C,U7*%
X80164000Y-119295000D03*
X82704000Y-119295000D03*
X85244000Y-119295000D03*
%TD*%
D41*
%TO.C,C24*%
X109070000Y-107045000D03*
X109070000Y-105495000D03*
%TD*%
D13*
%TO.C,R15*%
X145650000Y-102825000D03*
X145650000Y-101175000D03*
%TD*%
D47*
%TO.C,F1*%
X52487500Y-84500000D03*
X50912500Y-84500000D03*
%TD*%
D21*
%TO.C,CX22*%
X83700000Y-57775000D03*
X83700000Y-54825000D03*
%TD*%
D33*
%TO.C,R30*%
X121069000Y-110403260D03*
X121069000Y-112053260D03*
%TD*%
D48*
%TO.C,D7*%
X51500000Y-91500000D03*
X55800000Y-91500000D03*
%TD*%
D41*
%TO.C,C25*%
X105819000Y-112053260D03*
X105819000Y-110503260D03*
%TD*%
D29*
%TO.C,PH3*%
X68350000Y-74550000D03*
%TD*%
D33*
%TO.C,R9*%
X130169000Y-107465760D03*
X130169000Y-109115760D03*
%TD*%
D40*
%TO.C,C3*%
X90500000Y-101800000D03*
X92050000Y-101800000D03*
%TD*%
D25*
%TO.C,CX31*%
X140175000Y-52400000D03*
X137225000Y-52400000D03*
%TD*%
D13*
%TO.C,R38*%
X147150000Y-102825000D03*
X147150000Y-101175000D03*
%TD*%
D33*
%TO.C,RG4*%
X88925000Y-111275000D03*
X88925000Y-112925000D03*
%TD*%
D28*
%TO.C,R21*%
X125644000Y-107728260D03*
X127294000Y-107728260D03*
%TD*%
D22*
%TO.C,CX6*%
X128700000Y-49100000D03*
X121200000Y-49100000D03*
%TD*%
D20*
%TO.C,D6*%
X130069000Y-105978260D03*
X130069000Y-103878260D03*
%TD*%
D29*
%TO.C,PH2*%
X57800000Y-74500000D03*
%TD*%
D31*
%TO.C,CX12*%
X86750000Y-73075000D03*
X86750000Y-76025000D03*
%TD*%
D29*
%TO.C,PH1*%
X79250000Y-74500000D03*
%TD*%
D41*
%TO.C,C8*%
X86725000Y-115925000D03*
X86725000Y-114375000D03*
%TD*%
D29*
%TO.C,PH6*%
X101250000Y-74500000D03*
%TD*%
D31*
%TO.C,CX15*%
X116350000Y-73025000D03*
X116350000Y-75975000D03*
%TD*%
D24*
%TO.C,RG3*%
X88925000Y-101800000D03*
X87275000Y-101800000D03*
%TD*%
D40*
%TO.C,C1*%
X76350000Y-101800000D03*
X77900000Y-101800000D03*
%TD*%
D41*
%TO.C,C12*%
X79500000Y-115925000D03*
X79500000Y-114375000D03*
%TD*%
D32*
%TO.C,TpVS1*%
X147700000Y-91650000D03*
%TD*%
D17*
%TO.C,RS1*%
X78812500Y-81000000D03*
X76987500Y-81000000D03*
%TD*%
D28*
%TO.C,R49*%
X104675000Y-70200000D03*
X106325000Y-70200000D03*
%TD*%
D40*
%TO.C,C2*%
X83575000Y-101800000D03*
X85125000Y-101800000D03*
%TD*%
D13*
%TO.C,R26*%
X108019000Y-104115000D03*
X108019000Y-102465000D03*
%TD*%
D25*
%TO.C,CX25*%
X106675000Y-52400000D03*
X103725000Y-52400000D03*
%TD*%
D32*
%TO.C,TpGS4*%
X94500000Y-78800000D03*
%TD*%
D14*
%TO.C,C22*%
X130569000Y-101053260D03*
X130569000Y-102603260D03*
%TD*%
D43*
%TO.C,C5*%
X51200000Y-95400000D03*
X53100000Y-95400000D03*
%TD*%
D29*
%TO.C,PH7*%
X134300000Y-74500000D03*
%TD*%
D49*
%TO.C,U4*%
X119094000Y-112088260D03*
X119094000Y-110818260D03*
X119094000Y-109548260D03*
X119094000Y-108278260D03*
X119094000Y-107008260D03*
X119094000Y-105738260D03*
X119094000Y-104468260D03*
X114144000Y-104468260D03*
X114144000Y-105738260D03*
X114144000Y-107008260D03*
X114144000Y-108278260D03*
X114144000Y-109548260D03*
X114144000Y-110818260D03*
X114144000Y-112088260D03*
%TD*%
D13*
%TO.C,R39*%
X144100000Y-106925000D03*
X144100000Y-105275000D03*
%TD*%
D24*
%TO.C,R11*%
X103131500Y-106078260D03*
X101481500Y-106078260D03*
%TD*%
D25*
%TO.C,CX17*%
X62675000Y-52400000D03*
X59725000Y-52400000D03*
%TD*%
D47*
%TO.C,D9*%
X92287500Y-116000000D03*
X90712500Y-116000000D03*
%TD*%
D41*
%TO.C,C13*%
X77975000Y-115925000D03*
X77975000Y-114375000D03*
%TD*%
D25*
%TO.C,CX23*%
X95875000Y-52400000D03*
X92925000Y-52400000D03*
%TD*%
D22*
%TO.C,CX2*%
X62300000Y-49100000D03*
X54800000Y-49100000D03*
%TD*%
%TO.C,CX3*%
X78895000Y-49100000D03*
X71395000Y-49100000D03*
%TD*%
D28*
%TO.C,R18*%
X125644000Y-109228260D03*
X127294000Y-109228260D03*
%TD*%
D13*
%TO.C,R4*%
X145600000Y-106925000D03*
X145600000Y-105275000D03*
%TD*%
D24*
%TO.C,RG5*%
X96025000Y-101800000D03*
X94375000Y-101800000D03*
%TD*%
D14*
%TO.C,C28*%
X95950000Y-106925000D03*
X95950000Y-108475000D03*
%TD*%
D41*
%TO.C,C11*%
X76450000Y-115925000D03*
X76450000Y-114375000D03*
%TD*%
%TO.C,C16*%
X141800000Y-105025000D03*
X141800000Y-103475000D03*
%TD*%
D16*
%TO.C,D1*%
X77150000Y-104350000D03*
X81150000Y-104350000D03*
%TD*%
D33*
%TO.C,RG2*%
X81919000Y-111275000D03*
X81919000Y-112925000D03*
%TD*%
D31*
%TO.C,CX11*%
X53400000Y-73025000D03*
X53400000Y-75975000D03*
%TD*%
D50*
%TO.C,NTC1*%
X133914000Y-108678260D03*
D51*
X135814000Y-108678260D03*
%TD*%
D28*
%TO.C,R47*%
X60675000Y-70000000D03*
X62325000Y-70000000D03*
%TD*%
D52*
%TO.C,U5*%
X147329000Y-99028260D03*
X144789000Y-99028260D03*
X142249000Y-99028260D03*
X139709000Y-99028260D03*
X137169000Y-99028260D03*
X134629000Y-99028260D03*
X132089000Y-99028260D03*
X129549000Y-99028260D03*
X127009000Y-99028260D03*
X124469000Y-99028260D03*
X121929000Y-99028260D03*
X119389000Y-99028260D03*
X116849000Y-99028260D03*
X114309000Y-99028260D03*
X111769000Y-99028260D03*
X109229000Y-99028260D03*
X106689000Y-99028260D03*
X104149000Y-99028260D03*
X101609000Y-99028260D03*
X99069000Y-99028260D03*
X99069000Y-114268260D03*
X101609000Y-114268260D03*
X104149000Y-114268260D03*
X106689000Y-114268260D03*
X109229000Y-114268260D03*
X111769000Y-114268260D03*
X114285395Y-114278253D03*
X116849000Y-114268260D03*
X119389000Y-114268260D03*
X121929000Y-114268260D03*
X124469000Y-114268260D03*
X127009000Y-114268260D03*
X129549000Y-114268260D03*
X132089000Y-114268260D03*
X134629000Y-114268260D03*
X137169000Y-114268260D03*
X139709000Y-114268260D03*
X142249000Y-114268260D03*
X144789000Y-114268260D03*
X147329000Y-114268260D03*
%TD*%
D32*
%TO.C,TpGS5*%
X128450000Y-70000000D03*
%TD*%
D21*
%TO.C,CX20*%
X70900000Y-57775000D03*
X70900000Y-54825000D03*
%TD*%
D33*
%TO.C,R12*%
X138419000Y-106703260D03*
X138419000Y-108353260D03*
%TD*%
D53*
%TO.C,U1*%
X76514000Y-112375000D03*
X77784000Y-112375000D03*
X79054000Y-112375000D03*
X80324000Y-112375000D03*
X80324000Y-107425000D03*
X79054000Y-107425000D03*
X77784000Y-107425000D03*
X76514000Y-107425000D03*
%TD*%
D15*
%TO.C,SHC2*%
X120580000Y-85787500D03*
X120580000Y-81212500D03*
%TD*%
D14*
%TO.C,C4*%
X148600000Y-105325000D03*
X148600000Y-106875000D03*
%TD*%
D53*
%TO.C,U2*%
X83520000Y-112375000D03*
X84790000Y-112375000D03*
X86060000Y-112375000D03*
X87330000Y-112375000D03*
X87330000Y-107425000D03*
X86060000Y-107425000D03*
X84790000Y-107425000D03*
X83520000Y-107425000D03*
%TD*%
D32*
%TO.C,TpGS3*%
X95000000Y-70000000D03*
%TD*%
D25*
%TO.C,CX29*%
X129875000Y-52400000D03*
X126925000Y-52400000D03*
%TD*%
D41*
%TO.C,C9*%
X88250000Y-115925000D03*
X88250000Y-114375000D03*
%TD*%
D31*
%TO.C,CX16*%
X148400000Y-73425000D03*
X148400000Y-76375000D03*
%TD*%
D27*
%TO.C,TpGND1*%
X116250000Y-85500000D03*
%TD*%
D44*
%TO.C,RN5*%
X129369000Y-112190760D03*
X130169000Y-112190760D03*
X130969000Y-112190760D03*
X131769000Y-112190760D03*
X131769000Y-110490760D03*
X130969000Y-110490760D03*
X130169000Y-110490760D03*
X129369000Y-110490760D03*
%TD*%
D21*
%TO.C,CX32*%
X138000000Y-57775000D03*
X138000000Y-54825000D03*
%TD*%
%TO.C,CX18*%
X60500000Y-57775000D03*
X60500000Y-54825000D03*
%TD*%
D34*
%TO.C,J3*%
X147760000Y-119900000D03*
D35*
X145220000Y-119900000D03*
X142680000Y-119900000D03*
X140140000Y-119900000D03*
X137600000Y-119900000D03*
X135060000Y-119900000D03*
%TD*%
D28*
%TO.C,R51*%
X137675000Y-70000000D03*
X139325000Y-70000000D03*
%TD*%
D12*
%TO.C,C21*%
X137144000Y-105028260D03*
X135594000Y-105028260D03*
%TD*%
D46*
%TO.C,CS2*%
X115750000Y-81000000D03*
X113850000Y-81000000D03*
%TD*%
D19*
%TO.C,R1*%
X51000000Y-88362500D03*
X51000000Y-86537500D03*
%TD*%
D15*
%TO.C,SHB3*%
X87180000Y-85787500D03*
X87180000Y-81212500D03*
%TD*%
D17*
%TO.C,RS2*%
X112312500Y-81000000D03*
X110487500Y-81000000D03*
%TD*%
D54*
%TO.C,R41*%
X94810000Y-116000000D03*
X93790000Y-116000000D03*
%TD*%
D53*
%TO.C,U3*%
X90545000Y-112400000D03*
X91815000Y-112400000D03*
X93085000Y-112400000D03*
X94355000Y-112400000D03*
X94355000Y-107450000D03*
X93085000Y-107450000D03*
X91815000Y-107450000D03*
X90545000Y-107450000D03*
%TD*%
D24*
%TO.C,R13*%
X118144000Y-120478260D03*
X116494000Y-120478260D03*
%TD*%
D32*
%TO.C,TpGS2*%
X71550000Y-78750000D03*
%TD*%
D17*
%TO.C,R10*%
X100019000Y-106978260D03*
X98194000Y-106978260D03*
%TD*%
D38*
%TO.C,CX27*%
X115125000Y-52400000D03*
X118075000Y-52400000D03*
%TD*%
D30*
%TO.C,Tp12V1*%
X52700000Y-119500000D03*
%TD*%
D19*
%TO.C,R2*%
X52900000Y-88362500D03*
X52900000Y-86537500D03*
%TD*%
D24*
%TO.C,R8*%
X103131500Y-109078260D03*
X101481500Y-109078260D03*
%TD*%
D55*
%TO.C,QB4*%
X100000000Y-95410000D03*
D45*
X102540000Y-78750000D03*
D56*
X100000000Y-78750000D03*
X97460000Y-78750000D03*
%TD*%
D55*
%TO.C,QB5*%
X89500000Y-53340000D03*
D45*
X86960000Y-70000000D03*
D56*
X89500000Y-70000000D03*
X92040000Y-70000000D03*
%TD*%
D55*
%TO.C,QA3*%
X66500000Y-53340000D03*
D45*
X63960000Y-70000000D03*
D56*
X66500000Y-70000000D03*
X69040000Y-70000000D03*
%TD*%
D55*
%TO.C,QC6*%
X123000000Y-95410000D03*
D45*
X125540000Y-78750000D03*
D56*
X123000000Y-78750000D03*
X120460000Y-78750000D03*
%TD*%
D55*
%TO.C,QC5*%
X144000000Y-53340000D03*
D45*
X141460000Y-70000000D03*
D56*
X144000000Y-70000000D03*
X146540000Y-70000000D03*
%TD*%
D55*
%TO.C,QC4*%
X144000000Y-95410000D03*
D45*
X146540000Y-78750000D03*
D56*
X144000000Y-78750000D03*
X141460000Y-78750000D03*
%TD*%
D55*
%TO.C,QA6*%
X56000000Y-95410000D03*
D45*
X58540000Y-78750000D03*
D56*
X56000000Y-78750000D03*
X53460000Y-78750000D03*
%TD*%
D55*
%TO.C,QB6*%
X89500000Y-95410000D03*
D45*
X92040000Y-78750000D03*
D56*
X89500000Y-78750000D03*
X86960000Y-78750000D03*
%TD*%
D55*
%TO.C,QB2*%
X110500000Y-95410000D03*
D45*
X113040000Y-78750000D03*
D56*
X110500000Y-78750000D03*
X107960000Y-78750000D03*
%TD*%
D55*
%TO.C,QA5*%
X77000000Y-53340000D03*
D45*
X74460000Y-70000000D03*
D56*
X77000000Y-70000000D03*
X79540000Y-70000000D03*
%TD*%
D55*
%TO.C,QA1*%
X56000000Y-53340000D03*
D45*
X53460000Y-70000000D03*
D56*
X56000000Y-70000000D03*
X58540000Y-70000000D03*
%TD*%
D55*
%TO.C,QB3*%
X100000000Y-53340000D03*
D45*
X97460000Y-70000000D03*
D56*
X100000000Y-70000000D03*
X102540000Y-70000000D03*
%TD*%
D55*
%TO.C,QC3*%
X133500000Y-53340000D03*
D45*
X130960000Y-70000000D03*
D56*
X133500000Y-70000000D03*
X136040000Y-70000000D03*
%TD*%
D55*
%TO.C,QA4*%
X66500000Y-95410000D03*
D45*
X69040000Y-78750000D03*
D56*
X66500000Y-78750000D03*
X63960000Y-78750000D03*
%TD*%
D55*
%TO.C,QC2*%
X133500000Y-95410000D03*
D45*
X136040000Y-78750000D03*
D56*
X133500000Y-78750000D03*
X130960000Y-78750000D03*
%TD*%
D55*
%TO.C,QC1*%
X123000000Y-53340000D03*
D45*
X120460000Y-70000000D03*
D56*
X123000000Y-70000000D03*
X125540000Y-70000000D03*
%TD*%
D55*
%TO.C,QA2*%
X77000000Y-95410000D03*
D45*
X79540000Y-78750000D03*
D56*
X77000000Y-78750000D03*
X74460000Y-78750000D03*
%TD*%
D55*
%TO.C,QB1*%
X110500000Y-53340000D03*
D45*
X107960000Y-70000000D03*
D56*
X110500000Y-70000000D03*
X113040000Y-70000000D03*
%TD*%
M02*
