M48
; DRILL file {KiCad (6.0.7-1)-1} date Saturday, January 28, 2023 at 02:38:04 PM
; FORMAT={-:-/ absolute / metric / decimal}
; #@! TF.CreationDate,2023-01-28T14:38:04-05:00
; #@! TF.GenerationSoftware,Kicad,Pcbnew,(6.0.7-1)-1
; #@! TF.FileFunction,Plated,1,4,PTH
FMAT,2
METRIC
; #@! TA.AperFunction,Plated,PTH,ViaDrill
T1C0.300
; #@! TA.AperFunction,Plated,PTH,ViaDrill
T2C0.400
; #@! TA.AperFunction,Plated,PTH,ComponentDrill
T3C0.700
; #@! TA.AperFunction,Plated,PTH,ComponentDrill
T4C0.750
; #@! TA.AperFunction,Plated,PTH,ComponentDrill
T5C0.914
; #@! TA.AperFunction,Plated,PTH,ComponentDrill
T6C1.000
; #@! TA.AperFunction,Plated,PTH,ComponentDrill
T7C1.100
; #@! TA.AperFunction,Plated,PTH,ComponentDrill
T8C1.500
; #@! TA.AperFunction,Plated,PTH,ComponentDrill
T9C2.500
%
G90
G05
T1
X52.032Y-79.063
X52.066Y-78.297
X52.4Y-77.05
X52.65Y-99.475
X53.5Y-77.05
X54.3Y-100.55
X54.5Y-77.05
X54.85Y-102.225
X55.5Y-116.15
X56.7Y-108.475
X56.9Y-99.625
X57.2Y-120.2
X58.15Y-117.075
X59.325Y-108.625
X61.15Y-117.025
X61.419Y-100.978
X61.969Y-105.928
X62.1Y-110.3
X62.425Y-113.9
X64.0Y-83.0
X64.0Y-84.0
X64.05Y-103.05
X65.375Y-112.4
X66.3Y-117.7
X66.8Y-107.275
X67.0Y-117.7
X67.5Y-99.275
X67.9Y-103.1
X69.2Y-113.2
X72.069Y-112.228
X74.1Y-115.375
X74.475Y-121.225
X74.693Y-109.234
X74.85Y-108.45
X75.378Y-106.976
X75.792Y-106.293
X76.068Y-113.778
X76.842Y-113.44
X78.079Y-105.821
X78.164Y-113.406
X78.7Y-106.325
X78.925Y-113.65
X79.075Y-97.825
X79.329Y-99.201
X79.35Y-111.2
X79.55Y-113.65
X79.8Y-99.85
X79.925Y-121.15
X80.014Y-98.789
X80.325Y-109.35
X80.825Y-106.65
X81.225Y-107.1
X81.235Y-99.589
X81.575Y-121.125
X82.017Y-99.423
X82.125Y-103.25
X82.475Y-114.849
X82.725Y-115.9
X83.925Y-115.35
X84.45Y-117.099
X84.59Y-114.906
X85.15Y-105.76
X85.325Y-99.5
X85.501Y-98.625
X85.725Y-106.325
X85.825Y-111.225
X86.1Y-99.825
X86.275Y-113.65
X87.275Y-109.2
X87.286Y-99.882
X87.85Y-106.675
X88.075Y-99.75
X88.1Y-113.65
X88.3Y-107.175
X89.175Y-103.25
X89.9Y-115.0
X92.2Y-105.775
X92.7Y-106.4
X92.775Y-111.25
X93.45Y-113.5
X93.5Y-115.2
X94.074Y-99.04
X94.55Y-109.6
X94.7Y-83.6
X94.85Y-106.65
X94.9Y-99.368
X95.275Y-107.175
X95.425Y-99.975
X95.65Y-100.742
X96.175Y-103.275
X97.0Y-99.625
X97.1Y-114.3
X97.369Y-109.824
X97.373Y-107.928
X97.468Y-109.031
X97.472Y-110.617
X97.5Y-84.001
X97.5Y-83.0
X97.55Y-106.275
X97.842Y-105.513
X100.469Y-119.628
X100.5Y-112.0
X100.856Y-105.861
X100.906Y-111.254
X101.1Y-105.1
X101.95Y-108.575
X102.761Y-108.538
X103.769Y-107.578
X104.6Y-100.3
X105.289Y-100.909
X105.81Y-100.198
X105.819Y-108.928
X106.549Y-100.503
X106.595Y-101.345
X107.39Y-101.43
X107.969Y-113.478
X108.28Y-101.88
X108.945Y-101.437
X109.069Y-104.928
X109.869Y-106.828
X112.969Y-108.428
X113.119Y-113.628
X113.269Y-99.778
X114.2Y-79.6
X114.319Y-102.328
X115.1Y-81.6
X115.269Y-108.428
X115.269Y-110.828
X115.619Y-115.128
X115.669Y-100.028
X115.8Y-103.6
X115.869Y-102.7
X115.896Y-109.496
X116.069Y-108.428
X116.704Y-109.546
X117.269Y-101.428
X117.293Y-110.652
X117.726Y-111.324
X117.8Y-100.8
X118.069Y-103.428
X118.219Y-115.028
X119.749Y-102.658
X120.369Y-108.328
X121.769Y-117.828
X122.669Y-109.228
X123.304Y-108.528
X123.4Y-105.8
X123.5Y-111.2
X123.569Y-106.628
X123.694Y-110.424
X123.717Y-111.97
X125.169Y-106.028
X125.869Y-110.628
X125.9Y-105.7
X126.769Y-112.528
X126.9Y-106.0
X127.069Y-103.228
X127.669Y-106.328
X127.869Y-107.728
X127.869Y-109.228
X128.239Y-110.835
X128.7Y-113.316
X128.797Y-111.408
X129.193Y-104.978
X129.193Y-107.928
X129.983Y-104.856
X130.4Y-116.0
X130.469Y-106.328
X130.869Y-103.228
X130.919Y-107.478
X130.95Y-83.012
X130.95Y-84.0
X131.7Y-104.9
X132.5Y-116.7
X132.525Y-104.275
X133.369Y-111.178
X133.6Y-102.3
X134.169Y-111.178
X134.969Y-111.178
X135.769Y-111.178
X135.919Y-106.678
X136.019Y-104.428
X136.319Y-102.178
X136.56Y-111.062
X137.3Y-110.48
X137.819Y-121.278
X138.199Y-115.798
X138.3Y-101.4
X139.019Y-107.828
X139.769Y-112.128
X139.817Y-112.926
X140.3Y-101.35
X140.95Y-107.85
X141.9Y-101.4
X142.419Y-116.328
X143.428Y-110.528
X144.05Y-107.55
X144.1Y-105.9
X144.15Y-101.8
X144.15Y-103.45
X145.6Y-105.9
X145.6Y-107.55
X145.65Y-101.8
X145.65Y-103.45
X147.0Y-116.0
X147.05Y-107.55
X147.1Y-105.9
X147.15Y-103.45
X147.2Y-101.75
X147.869Y-109.928
X148.6Y-107.55
X148.65Y-103.45
X149.2Y-72.6
X149.2Y-86.55
T2
X51.0Y-55.0
X51.0Y-57.0
X51.0Y-58.9
X51.0Y-62.5
X51.0Y-64.4
X51.0Y-66.5
X52.0Y-56.0
X52.0Y-58.0
X52.0Y-63.4
X52.0Y-65.5
X52.8Y-48.1
X52.8Y-50.1
X53.0Y-55.0
X53.0Y-57.0
X53.0Y-59.0
X53.0Y-62.5
X53.0Y-64.5
X53.0Y-66.5
X53.8Y-49.1
X54.4Y-62.0
X54.4Y-63.4
X54.4Y-65.0
X54.4Y-66.6
X54.65Y-86.8
X54.8Y-50.1
X54.9Y-48.1
X55.5Y-88.5
X55.5Y-90.0
X55.9Y-49.1
X56.8Y-48.1
X56.8Y-50.1
X57.0Y-87.0
X57.0Y-88.5
X57.0Y-90.0
X57.0Y-91.5
X57.0Y-93.0
X58.5Y-62.0
X58.5Y-63.5
X58.5Y-65.0
X58.5Y-66.5
X58.5Y-87.0
X58.5Y-88.5
X58.5Y-90.0
X58.5Y-91.5
X58.5Y-93.0
X58.6Y-84.35
X58.8Y-55.0
X59.0Y-54.0
X60.0Y-85.5
X60.0Y-87.0
X60.0Y-88.5
X60.0Y-90.0
X60.0Y-91.5
X60.0Y-93.0
X60.3Y-48.1
X60.3Y-50.1
X60.35Y-73.0
X60.35Y-76.05
X60.7Y-51.5
X60.7Y-52.4
X60.7Y-53.3
X61.3Y-49.1
X61.3Y-53.9
X61.5Y-85.5
X61.5Y-87.0
X61.5Y-88.5
X61.5Y-90.0
X61.5Y-91.5
X61.5Y-93.0
X62.3Y-50.1
X62.4Y-48.1
X63.0Y-88.5
X63.0Y-90.0
X63.0Y-91.5
X63.0Y-93.0
X63.4Y-49.1
X64.3Y-48.1
X64.3Y-50.1
X64.5Y-88.5
X64.5Y-90.0
X64.5Y-91.5
X64.5Y-93.0
X65.1Y-62.0
X65.1Y-63.5
X65.1Y-65.0
X65.1Y-66.6
X65.75Y-76.0
X65.8Y-73.0
X66.0Y-88.5
X66.0Y-90.0
X66.0Y-91.5
X66.0Y-93.0
X67.5Y-85.5
X67.5Y-87.0
X67.5Y-88.5
X67.5Y-90.0
X67.5Y-91.5
X67.5Y-93.0
X69.0Y-62.0
X69.0Y-63.5
X69.0Y-65.0
X69.0Y-66.6
X69.0Y-85.5
X69.0Y-87.0
X69.0Y-88.45
X69.0Y-90.0
X69.0Y-91.5
X69.0Y-93.0
X69.2Y-55.0
X69.4Y-48.1
X69.4Y-50.1
X69.4Y-54.0
X70.4Y-49.1
X70.5Y-85.5
X70.5Y-87.0
X70.5Y-88.45
X70.5Y-90.0
X70.5Y-91.5
X70.5Y-93.0
X70.9Y-73.0
X70.9Y-76.1
X71.2Y-51.5
X71.2Y-52.4
X71.2Y-53.3
X71.4Y-50.1
X71.5Y-48.1
X71.8Y-53.8
X72.0Y-87.0
X72.0Y-88.5
X72.0Y-90.0
X72.0Y-91.5
X72.0Y-93.0
X72.5Y-49.1
X73.4Y-48.1
X73.4Y-50.1
X73.5Y-88.5
X73.5Y-90.0
X73.5Y-91.5
X73.5Y-93.0
X75.5Y-88.45
X75.5Y-90.0
X75.5Y-91.5
X75.5Y-93.0
X75.9Y-62.0
X75.9Y-63.5
X75.9Y-65.0
X75.9Y-66.6
X76.7Y-73.0
X76.7Y-76.0
X76.9Y-48.1
X76.9Y-50.1
X77.0Y-85.5
X77.0Y-87.0
X77.0Y-88.5
X77.0Y-90.0
X77.0Y-91.5
X77.0Y-93.0
X77.9Y-49.1
X78.5Y-87.0
X78.5Y-88.5
X78.5Y-90.0
X78.5Y-91.5
X78.5Y-93.0
X78.9Y-50.1
X79.0Y-48.1
X79.8Y-62.0
X79.8Y-63.5
X79.8Y-65.0
X79.8Y-66.6
X80.0Y-49.1
X80.0Y-87.0
X80.0Y-88.5
X80.0Y-90.0
X80.0Y-91.5
X80.0Y-93.0
X80.9Y-48.1
X80.9Y-50.1
X81.5Y-85.5
X81.5Y-87.0
X81.5Y-88.55
X81.5Y-90.0
X81.5Y-91.5
X81.5Y-93.0
X83.5Y-52.4
X83.5Y-53.3
X83.5Y-85.5
X83.5Y-87.0
X83.5Y-88.5
X83.5Y-90.0
X83.5Y-91.5
X83.5Y-93.0
X83.55Y-77.0
X84.5Y-77.0
X84.799Y-85.5
X84.799Y-87.0
X84.799Y-90.0
X84.799Y-93.0
X84.8Y-88.5
X84.8Y-91.5
X85.4Y-55.0
X85.5Y-52.3
X85.5Y-53.2
X85.5Y-54.1
X86.0Y-48.1
X86.0Y-50.1
X86.6Y-88.5
X86.6Y-90.0
X86.6Y-91.5
X86.6Y-93.0
X86.7Y-62.0
X86.7Y-63.5
X86.7Y-65.0
X86.7Y-66.6
X87.0Y-49.1
X87.25Y-77.0
X88.0Y-50.1
X88.0Y-88.5
X88.0Y-90.0
X88.0Y-91.5
X88.0Y-93.0
X88.1Y-48.1
X89.1Y-49.1
X89.4Y-85.5
X89.4Y-87.0
X89.4Y-88.5
X89.4Y-90.0
X89.4Y-91.5
X89.4Y-93.0
X90.0Y-48.1
X90.0Y-50.1
X90.8Y-85.5
X90.8Y-87.0
X90.8Y-88.5
X90.8Y-90.0
X90.8Y-91.5
X90.8Y-93.0
X91.4Y-62.0
X91.4Y-63.5
X91.4Y-65.0
X91.4Y-66.6
X92.0Y-52.3
X92.0Y-53.2
X92.0Y-54.1
X92.0Y-55.0
X92.2Y-87.0
X92.2Y-88.5
X92.2Y-90.0
X92.2Y-91.5
X92.2Y-93.0
X92.25Y-85.5
X92.6Y-94.4
X92.6Y-95.6
X92.6Y-96.8
X92.6Y-98.0
X93.4Y-73.0
X93.4Y-76.0
X93.5Y-48.1
X93.5Y-50.1
X93.5Y-85.5
X93.5Y-87.0
X93.5Y-88.5
X93.5Y-90.0
X93.5Y-91.5
X93.5Y-93.0
X93.9Y-52.9
X93.9Y-53.8
X94.0Y-60.2
X94.0Y-61.8
X94.0Y-63.4
X94.0Y-65.0
X94.0Y-66.6
X94.4Y-94.4
X94.4Y-95.6
X94.4Y-96.8
X94.4Y-98.0
X94.5Y-49.1
X94.8Y-85.5
X94.8Y-87.0
X94.8Y-88.5
X94.8Y-90.0
X94.8Y-91.5
X94.8Y-93.0
X95.0Y-59.4
X95.0Y-61.0
X95.0Y-62.6
X95.0Y-64.2
X95.0Y-65.8
X95.0Y-67.5
X95.5Y-50.1
X95.6Y-48.1
X96.0Y-55.4
X96.0Y-57.0
X96.0Y-58.6
X96.0Y-60.2
X96.0Y-61.8
X96.0Y-63.4
X96.0Y-65.0
X96.0Y-66.6
X96.2Y-94.383
X96.2Y-95.6
X96.2Y-96.8
X96.2Y-98.0
X96.6Y-49.1
X96.6Y-88.5
X96.6Y-90.0
X96.6Y-91.5
X96.6Y-93.0
X97.0Y-56.2
X97.0Y-57.8
X97.0Y-59.4
X97.0Y-61.0
X97.0Y-62.6
X97.0Y-64.2
X97.0Y-65.8
X97.0Y-67.5
X97.5Y-48.1
X97.5Y-50.1
X97.6Y-94.3
X97.6Y-95.6
X97.6Y-96.8
X98.0Y-55.4
X98.0Y-57.1
X98.0Y-58.6
X98.0Y-60.2
X98.0Y-61.8
X98.0Y-63.4
X98.0Y-65.0
X98.0Y-66.6
X98.5Y-88.5
X98.5Y-90.0
X98.5Y-91.5
X98.5Y-93.0
X98.65Y-73.0
X98.65Y-76.0
X99.0Y-56.2
X99.0Y-57.8
X99.0Y-59.4
X99.0Y-61.0
X99.0Y-62.6
X99.0Y-64.2
X99.0Y-65.8
X99.0Y-67.5
X100.0Y-57.0
X100.0Y-58.6
X100.0Y-60.2
X100.0Y-61.8
X100.0Y-63.4
X100.0Y-65.0
X100.0Y-66.6
X100.0Y-85.5
X100.0Y-87.0
X100.0Y-88.5
X100.0Y-90.0
X100.0Y-91.5
X100.0Y-93.0
X101.0Y-56.2
X101.0Y-57.8
X101.0Y-59.4
X101.0Y-61.0
X101.0Y-62.6
X101.0Y-64.2
X101.0Y-65.8
X101.1Y-67.4
X101.5Y-85.5
X101.5Y-87.0
X101.5Y-88.5
X101.5Y-90.0
X101.5Y-91.5
X101.5Y-93.0
X101.9Y-58.6
X101.9Y-60.2
X102.0Y-57.0
X102.0Y-61.8
X102.0Y-63.4
X102.0Y-65.0
X102.0Y-66.6
X102.6Y-48.1
X102.6Y-50.1
X102.8Y-55.0
X102.9Y-59.4
X102.9Y-61.0
X102.9Y-62.6
X103.0Y-54.0
X103.0Y-64.2
X103.0Y-65.8
X103.0Y-67.4
X103.0Y-87.0
X103.0Y-88.5
X103.0Y-90.0
X103.0Y-91.5
X103.0Y-93.0
X103.6Y-49.1
X103.85Y-73.0
X103.85Y-76.0
X103.9Y-60.2
X103.9Y-61.8
X103.9Y-63.3
X103.9Y-64.9
X103.9Y-66.6
X104.022Y-85.478
X104.5Y-88.5
X104.5Y-90.0
X104.5Y-91.5
X104.5Y-93.0
X104.6Y-50.1
X104.7Y-48.1
X104.7Y-51.1
X104.7Y-52.0
X104.7Y-52.9
X104.7Y-53.8
X104.8Y-61.0
X104.8Y-62.6
X104.9Y-64.2
X104.9Y-65.8
X105.6Y-85.5
X105.6Y-87.0
X105.7Y-49.1
X106.6Y-48.1
X106.6Y-50.1
X106.75Y-88.5
X106.75Y-90.0
X106.8Y-91.6
X106.8Y-93.0
X109.0Y-62.0
X109.0Y-63.5
X109.0Y-65.0
X109.0Y-66.6
X109.5Y-88.5
X109.5Y-90.0
X109.5Y-91.5
X109.5Y-93.0
X109.6Y-73.0
X109.65Y-76.0
X109.9Y-85.5
X110.1Y-48.1
X110.1Y-50.1
X111.0Y-87.0
X111.0Y-88.5
X111.0Y-90.0
X111.0Y-91.5
X111.0Y-93.0
X111.1Y-49.1
X112.1Y-50.1
X112.2Y-48.1
X112.5Y-85.5
X112.5Y-87.0
X112.5Y-88.5
X112.5Y-90.0
X112.5Y-91.5
X112.5Y-93.0
X113.0Y-62.0
X113.0Y-63.5
X113.0Y-65.0
X113.0Y-66.6
X113.2Y-49.1
X114.0Y-85.5
X114.0Y-87.0
X114.0Y-88.5
X114.0Y-90.0
X114.0Y-91.5
X114.0Y-93.0
X114.1Y-48.1
X114.1Y-50.1
X115.5Y-87.0
X115.5Y-88.5
X115.5Y-90.0
X115.5Y-91.5
X115.5Y-93.0
X115.65Y-77.1
X117.0Y-87.0
X117.0Y-88.5
X117.0Y-90.0
X117.0Y-91.5
X117.0Y-93.0
X117.05Y-77.073
X117.1Y-51.5
X117.1Y-52.4
X117.1Y-53.3
X118.5Y-85.5
X118.5Y-87.0
X118.5Y-88.5
X118.5Y-90.0
X118.5Y-91.5
X118.5Y-93.0
X119.0Y-53.2
X119.0Y-54.1
X119.0Y-55.0
X119.2Y-48.1
X119.2Y-50.1
X120.0Y-62.0
X120.0Y-63.5
X120.0Y-65.0
X120.0Y-66.6
X120.0Y-88.5
X120.0Y-90.0
X120.0Y-91.5
X120.0Y-93.0
X120.2Y-49.1
X120.25Y-77.0
X121.2Y-50.1
X121.3Y-48.1
X121.5Y-88.5
X121.5Y-90.0
X121.5Y-91.5
X121.5Y-93.0
X122.3Y-49.1
X123.0Y-85.5
X123.0Y-87.0
X123.0Y-88.5
X123.0Y-90.0
X123.0Y-91.5
X123.0Y-93.0
X123.2Y-48.1
X123.2Y-50.1
X124.0Y-62.0
X124.0Y-63.5
X124.0Y-65.0
X124.0Y-66.6
X124.45Y-90.0
X124.5Y-85.5
X124.5Y-87.0
X124.5Y-88.5
X124.5Y-91.5
X124.5Y-93.0
X125.95Y-88.5
X125.95Y-90.0
X126.0Y-55.0
X126.0Y-85.5
X126.0Y-87.0
X126.0Y-91.5
X126.0Y-93.0
X126.2Y-54.0
X126.4Y-76.05
X126.45Y-73.0
X126.7Y-48.1
X126.7Y-50.1
X127.5Y-85.5
X127.5Y-87.0
X127.5Y-88.5
X127.5Y-90.0
X127.5Y-91.5
X127.5Y-93.0
X127.7Y-49.1
X127.9Y-51.3
X127.9Y-52.2
X127.9Y-53.1
X128.4Y-53.8
X128.7Y-50.1
X128.8Y-48.1
X129.0Y-85.5
X129.0Y-87.0
X129.0Y-88.5
X129.0Y-90.0
X129.0Y-91.5
X129.0Y-93.0
X129.8Y-49.1
X130.5Y-88.5
X130.5Y-90.0
X130.5Y-91.5
X130.5Y-93.0
X130.6Y-62.0
X130.6Y-63.5
X130.6Y-65.0
X130.6Y-66.4
X130.7Y-48.1
X130.7Y-50.1
X131.7Y-73.0
X131.7Y-76.0
X132.0Y-88.5
X132.0Y-90.0
X132.0Y-91.5
X132.0Y-93.0
X133.5Y-85.5
X133.5Y-87.0
X133.5Y-88.5
X133.5Y-90.0
X133.5Y-91.5
X133.5Y-93.0
X135.0Y-85.5
X135.0Y-87.0
X135.0Y-88.5
X135.0Y-90.0
X135.0Y-91.5
X135.0Y-93.0
X135.4Y-62.0
X135.4Y-63.5
X135.4Y-65.0
X135.4Y-66.4
X135.8Y-48.1
X135.8Y-50.1
X136.3Y-55.0
X136.45Y-84.3
X136.5Y-54.0
X136.5Y-87.0
X136.5Y-88.5
X136.5Y-90.0
X136.5Y-91.5
X136.5Y-93.0
X136.8Y-49.1
X136.85Y-76.05
X136.9Y-73.0
X137.8Y-50.1
X137.9Y-48.1
X137.95Y-90.0
X138.0Y-87.0
X138.0Y-88.5
X138.0Y-91.5
X138.0Y-93.0
X138.2Y-51.5
X138.2Y-52.4
X138.2Y-53.3
X138.9Y-49.1
X138.9Y-53.8
X139.5Y-87.5
X139.5Y-88.5
X139.5Y-90.0
X139.5Y-91.5
X139.5Y-93.0
X139.5Y-94.5
X139.8Y-48.1
X139.8Y-50.1
X141.0Y-85.5
X141.0Y-87.0
X141.0Y-88.5
X141.0Y-90.0
X141.0Y-91.5
X141.0Y-93.0
X141.0Y-94.5
X141.4Y-62.0
X141.4Y-63.5
X141.4Y-65.0
X141.4Y-66.6
X141.75Y-76.0
X141.8Y-73.0
X142.5Y-85.5
X142.5Y-87.05
X142.5Y-88.5
X142.5Y-90.0
X142.5Y-91.5
X142.5Y-93.0
X143.3Y-48.1
X143.3Y-50.1
X144.0Y-85.5
X144.0Y-87.05
X144.0Y-88.5
X144.0Y-90.0
X144.0Y-91.5
X144.0Y-93.0
X144.3Y-49.1
X145.2Y-88.5
X145.2Y-90.05
X145.3Y-50.1
X145.3Y-62.0
X145.3Y-63.5
X145.3Y-65.0
X145.3Y-66.6
X145.4Y-48.1
X145.45Y-85.5
X145.5Y-87.05
X145.5Y-91.5
X145.5Y-93.0
X146.4Y-49.1
X147.1Y-55.1
X147.1Y-57.1
X147.1Y-59.1
X147.1Y-62.6
X147.1Y-64.5
X147.1Y-66.6
X147.3Y-48.1
X147.3Y-50.1
X148.1Y-56.0
X148.1Y-58.0
X148.1Y-63.5
X148.1Y-65.6
X148.8Y-77.35
X148.85Y-75.4
X149.1Y-55.1
X149.1Y-57.1
X149.1Y-59.1
X149.1Y-62.6
X149.1Y-64.6
X149.1Y-66.6
T3
X133.914Y-108.678
X135.814Y-108.678
T4
X103.219Y-119.628
X105.219Y-119.628
X107.219Y-119.628
X109.219Y-119.628
X111.219Y-119.628
X113.219Y-119.628
X121.419Y-119.628
X123.419Y-119.628
X125.419Y-119.628
X127.419Y-119.628
X129.419Y-119.628
X131.419Y-119.628
T5
X99.069Y-99.028
X99.069Y-114.268
X101.609Y-99.028
X101.609Y-114.268
X104.149Y-99.028
X104.149Y-114.268
X106.689Y-99.028
X106.689Y-114.268
X109.229Y-99.028
X109.229Y-114.268
X111.769Y-99.028
X111.769Y-114.268
X114.285Y-114.278
X114.309Y-99.028
X116.849Y-99.028
X116.849Y-114.268
X119.389Y-99.028
X119.389Y-114.268
X121.929Y-99.028
X121.929Y-114.268
X124.469Y-99.028
X124.469Y-114.268
X127.009Y-99.028
X127.009Y-114.268
X129.549Y-99.028
X129.549Y-114.268
X132.089Y-99.028
X132.089Y-114.268
X134.629Y-99.028
X134.629Y-114.268
X137.169Y-99.028
X137.169Y-114.268
X139.709Y-99.028
X139.709Y-114.268
X142.249Y-99.028
X142.249Y-114.268
X144.789Y-99.028
X144.789Y-114.268
X147.329Y-99.028
X147.329Y-114.268
T6
X71.55Y-78.75
X72.05Y-70.0
X79.0Y-85.0
X83.25Y-95.8
X90.82Y-119.5
X93.36Y-119.5
X94.5Y-78.8
X95.0Y-70.0
X95.9Y-119.5
X116.25Y-85.5
X128.0Y-78.75
X128.45Y-70.0
X135.06Y-119.9
X137.6Y-119.9
X140.14Y-119.9
X142.68Y-119.9
X145.22Y-119.9
X147.7Y-91.65
X147.76Y-119.9
T7
X53.46Y-70.0
X53.46Y-78.75
X56.0Y-70.0
X56.0Y-78.75
X58.54Y-70.0
X58.54Y-78.75
X63.96Y-70.0
X63.96Y-78.75
X66.5Y-70.0
X66.5Y-78.75
X69.04Y-70.0
X69.04Y-78.75
X74.46Y-70.0
X74.46Y-78.75
X77.0Y-70.0
X77.0Y-78.75
X79.54Y-70.0
X79.54Y-78.75
X80.164Y-119.295
X82.704Y-119.295
X85.244Y-119.295
X86.96Y-70.0
X86.96Y-78.75
X89.5Y-70.0
X89.5Y-78.75
X92.04Y-70.0
X92.04Y-78.75
X97.46Y-70.0
X97.46Y-78.75
X100.0Y-70.0
X100.0Y-78.75
X102.54Y-70.0
X102.54Y-78.75
X107.96Y-70.0
X107.96Y-78.75
X110.5Y-70.0
X110.5Y-78.75
X113.04Y-70.0
X113.04Y-78.75
X120.46Y-70.0
X120.46Y-78.75
X123.0Y-70.0
X123.0Y-78.75
X125.54Y-70.0
X125.54Y-78.75
X130.96Y-70.0
X130.96Y-78.75
X133.5Y-70.0
X133.5Y-78.75
X136.04Y-70.0
X136.04Y-78.75
X141.46Y-70.0
X141.46Y-78.75
X144.0Y-70.0
X144.0Y-78.75
X146.54Y-70.0
X146.54Y-78.75
T8
X52.654Y-106.733
X52.654Y-111.813
X52.7Y-119.5
X72.569Y-106.778
X72.974Y-99.113
X72.974Y-119.433
T9
X57.8Y-74.5
X68.35Y-74.55
X79.25Y-74.5
X90.8Y-74.5
X101.25Y-74.5
X112.25Y-74.45
X123.8Y-74.5
X134.3Y-74.5
X144.4Y-74.5
T0
M30
